<svg width="24" height="24" viewBox="0 0 24 24" fill="none" xmlns="http://www.w3.org/2000/svg">
<path fill-rule="evenodd" clip-rule="evenodd" d="M12 3.34286C7.21884 3.34286 3.34291 7.21879 3.34291 12C3.34291 16.7812 7.21884 20.6571 12 20.6571C16.7813 20.6571 20.6572 16.7812 20.6572 12C20.6572 7.21879 16.7813 3.34286 12 3.34286ZM1.80005 12C1.80005 6.3667 6.36674 1.8 12 1.8C17.6334 1.8 22.2 6.3667 22.2 12C22.2 17.6333 17.6334 22.2 12 22.2C6.36674 22.2 1.80005 17.6333 1.80005 12ZM12 7.37143C12.4261 7.37143 12.7715 7.71681 12.7715 8.14286V11.2286H15.8572C16.2832 11.2286 16.6286 11.574 16.6286 12C16.6286 12.4261 16.2832 12.7714 15.8572 12.7714H12.7715V15.8571C12.7715 16.2832 12.4261 16.6286 12 16.6286C11.574 16.6286 11.2286 16.2832 11.2286 15.8571V12.7714H8.14291C7.71686 12.7714 7.37148 12.4261 7.37148 12C7.37148 11.574 7.71686 11.2286 8.14291 11.2286H11.2286V8.14286C11.2286 7.71681 11.574 7.37143 12 7.37143Z" fill="currentColor"/>
</svg>
