<svg viewBox="0 0 24 24" fill="none" xmlns="http://www.w3.org/2000/svg">
<path fill-rule="evenodd" clip-rule="evenodd" d="M7 3.25C7.41421 3.25 7.75 3.58579 7.75 4V20C7.75 20.4142 7.41421 20.75 7 20.75C6.58579 20.75 6.25 20.4142 6.25 20V4C6.25 3.58579 6.58579 3.25 7 3.25Z" fill="currentColor"/>
<path fill-rule="evenodd" clip-rule="evenodd" d="M17 3.25C17.4142 3.25 17.75 3.58579 17.75 4V19C17.75 19.4142 17.4142 19.75 17 19.75C16.5858 19.75 16.25 19.4142 16.25 19V4C16.25 3.58579 16.5858 3.25 17 3.25Z" fill="currentColor"/>
<path fill-rule="evenodd" clip-rule="evenodd" d="M19.3961 16.5552C19.6418 16.2217 20.1113 16.1505 20.4448 16.3961C20.7783 16.6418 20.8495 17.1112 20.6039 17.4448L20 17C20.6039 17.4448 20.6039 17.4447 20.6039 17.4448L20.6017 17.4478L20.5963 17.455L20.5763 17.4819C20.5591 17.5051 20.534 17.5386 20.502 17.5809C20.438 17.6657 20.3462 17.786 20.2337 17.9302C20.0093 18.2177 19.6997 18.6036 19.3627 18.9917C19.029 19.3761 18.6536 19.7798 18.2988 20.0933C18.1223 20.2493 17.9332 20.3988 17.7431 20.5134C17.5736 20.6156 17.3077 20.75 17 20.75C16.6923 20.75 16.4264 20.6156 16.2569 20.5134C16.0668 20.3988 15.8776 20.2493 15.7011 20.0933C15.3463 19.7798 14.9709 19.3761 14.6372 18.9917C14.3002 18.6036 13.9907 18.2177 13.7663 17.9302C13.6538 17.786 13.562 17.6657 13.498 17.5809C13.466 17.5386 13.4409 17.505 13.4236 17.4819L13.4037 17.455L13.3983 17.4477L13.3962 17.4449C13.3961 17.4448 13.3961 17.4448 14 17L13.3962 17.4449C13.1506 17.1114 13.2217 16.6417 13.5552 16.3961C13.8887 16.1505 14.3582 16.2217 14.6038 16.5552M14.6038 16.5552L14.6049 16.5566L14.609 16.5622L14.6264 16.5855C14.6418 16.6063 14.665 16.6372 14.6949 16.6769C14.7549 16.7562 14.8418 16.8702 14.9488 17.0073C15.1634 17.2823 15.4556 17.6464 15.7698 18.0083C16.0873 18.3739 16.4125 18.7202 16.6943 18.9692C16.8188 19.0792 16.9213 19.1581 17 19.2091C17.0787 19.1581 17.1811 19.0792 17.3056 18.9692C17.5874 18.7202 17.9126 18.3739 18.2301 18.0083C18.5443 17.6464 18.8366 17.2823 19.0511 17.0073C19.1581 16.8702 19.2451 16.7562 19.305 16.6769C19.335 16.6372 19.3581 16.6063 19.3736 16.5855L19.391 16.5622L19.3951 16.5566L19.3961 16.5552" fill="currentColor"/>
<path fill-rule="evenodd" clip-rule="evenodd" d="M4.65391 7.44478C4.40826 7.77825 3.9388 7.84946 3.6053 7.60384C3.27178 7.3582 3.20054 6.88871 3.44617 6.55519L4.05006 6.99995C3.44617 6.55519 3.44612 6.55526 3.44617 6.55519L3.44838 6.55219L3.45376 6.54492L3.47371 6.51808C3.49098 6.4949 3.51607 6.46139 3.54808 6.41901C3.61207 6.33429 3.70389 6.21394 3.81639 6.06977C4.04079 5.78224 4.35034 5.39634 4.6873 5.00824C5.02104 4.62387 5.39641 4.22017 5.75122 3.90667C5.92776 3.75067 6.11689 3.60115 6.30697 3.48655C6.47647 3.38437 6.74237 3.24995 7.05006 3.24995C7.35775 3.24995 7.62365 3.38435 7.79317 3.48654C7.98326 3.60114 8.1724 3.75067 8.34895 3.90666C8.70376 4.22017 9.07914 4.62387 9.41287 5.00825C9.74983 5.39635 10.0594 5.78225 10.2838 6.06978C10.3963 6.21395 10.4881 6.3343 10.5521 6.41902C10.5841 6.4614 10.6092 6.49491 10.6264 6.51809L10.6464 6.54493L10.6518 6.55221L10.6539 6.55506C10.6539 6.55514 10.654 6.5552 10.0501 6.99995L10.6539 6.55506C10.8995 6.88859 10.8283 7.35822 10.4948 7.60385C10.1613 7.84947 9.69185 7.77824 9.4462 7.44476M9.4462 7.44476L9.44516 7.44335L9.44103 7.43776L9.42369 7.41443C9.40821 7.39366 9.38506 7.36272 9.35511 7.32307C9.29518 7.24372 9.20821 7.12971 9.10123 6.99262C8.88664 6.71765 8.59442 6.35355 8.28021 5.99166C7.96276 5.62603 7.63755 5.27973 7.35575 5.03074C7.23123 4.92072 7.12877 4.84188 7.05008 4.79081C6.97139 4.84189 6.86893 4.92072 6.74443 5.03074C6.46262 5.27973 6.1374 5.62603 5.81995 5.99166C5.50573 6.35356 5.2135 6.71766 4.99891 6.99263C4.89192 7.12972 4.80495 7.24374 4.74502 7.32308C4.71506 7.36273 4.69191 7.39367 4.67643 7.41444L4.65909 7.43777L4.65496 7.44336L4.65391 7.44478" fill="currentColor"/>
</svg>
