<svg width="24" height="24" viewBox="0 0 24 24" fill="none" xmlns="http://www.w3.org/2000/svg">
<path fill-rule="evenodd" clip-rule="evenodd" d="M3.36865 16.9992C3.36865 16.654 3.64847 16.3742 3.99365 16.3742H19.9936C20.3388 16.3742 20.6186 16.654 20.6186 16.9992C20.6186 17.3444 20.3388 17.6242 19.9936 17.6242H3.99365C3.64847 17.6242 3.36865 17.3444 3.36865 16.9992Z" fill="currentColor"/>
<path fill-rule="evenodd" clip-rule="evenodd" d="M16.503 13.6286C16.7077 13.3506 17.099 13.2913 17.3769 13.496L17.0062 13.9992C17.3769 13.496 17.3768 13.4959 17.3769 13.496L17.3797 13.4981L17.3869 13.5034L17.4134 13.5231C17.4364 13.5402 17.4697 13.5651 17.5118 13.597C17.5961 13.6606 17.7159 13.752 17.8595 13.8641C18.146 14.0877 18.5301 14.3958 18.916 14.7309C19.2988 15.0632 19.6977 15.4344 20.0058 15.7831C20.1592 15.9568 20.3033 16.1396 20.4125 16.3207C20.5113 16.4846 20.6311 16.7263 20.6311 16.9992C20.6311 17.2721 20.5113 17.5138 20.4125 17.6778C20.3033 17.8589 20.1592 18.0417 20.0058 18.2153C19.6976 18.5641 19.2987 18.9353 18.9159 19.2676C18.53 19.6027 18.1459 19.9108 17.8594 20.1344C17.7158 20.2464 17.596 20.3378 17.5117 20.4015C17.4696 20.4333 17.4363 20.4582 17.4133 20.4754L17.3868 20.4951L17.3796 20.5004L17.3777 20.5018C17.3776 20.5019 17.3768 20.5025 17.0061 19.9992L17.3768 20.5025C17.0988 20.7072 16.7076 20.6478 16.5029 20.3698C16.2982 20.0919 16.3576 19.7007 16.6355 19.496C16.6355 19.496 16.6355 19.496 16.6355 19.496L16.637 19.4949L16.6427 19.4906L16.6664 19.4731C16.6873 19.4574 16.7185 19.4341 16.7584 19.404C16.8382 19.3437 16.9527 19.2564 17.0904 19.1489C17.3664 18.9335 17.7323 18.6399 18.0964 18.3238C18.4636 18.0049 18.8147 17.6756 19.069 17.3877C19.1968 17.243 19.2871 17.1235 19.342 17.0324C19.3495 17.0199 19.3558 17.0089 19.3611 16.9992C19.3558 16.9896 19.3495 16.9785 19.342 16.966C19.2871 16.875 19.1969 16.7555 19.069 16.6108C18.8147 16.3229 18.4636 15.9935 18.0964 15.6747C17.7324 15.3586 17.3665 15.0649 17.0904 14.8495C16.9528 14.7421 16.8382 14.6547 16.7584 14.5944C16.7186 14.5643 16.6874 14.541 16.6664 14.5254L16.6428 14.5078L16.6371 14.5036L16.6358 14.5026C16.3579 14.2979 16.2983 13.9065 16.503 13.6286Z" fill="currentColor"/>
<path fill-rule="evenodd" clip-rule="evenodd" d="M4.38135 7.00079C4.38135 6.65562 4.66117 6.37579 5.00635 6.37579H20.0063C20.3515 6.37579 20.6313 6.65562 20.6313 7.00079C20.6313 7.34597 20.3515 7.62579 20.0063 7.62579H5.00635C4.66117 7.62579 4.38135 7.34597 4.38135 7.00079Z" fill="currentColor"/>
<path fill-rule="evenodd" clip-rule="evenodd" d="M7.49686 3.63014C7.70155 3.90806 7.6422 4.29928 7.36431 4.50398L7.36277 4.50512L7.35704 4.50936L7.33342 4.52692C7.31245 4.54255 7.28129 4.56586 7.24141 4.59598C7.16162 4.65625 7.04708 4.74363 6.9094 4.85107C6.63339 5.06648 6.26748 5.36015 5.9034 5.67627C5.53621 5.99508 5.18513 6.32448 4.93076 6.61237C4.80295 6.75702 4.71271 6.87653 4.65782 6.96759C4.65029 6.98008 4.64397 6.99114 4.6387 7.0008C4.64397 7.01046 4.65029 7.02151 4.65782 7.034C4.71271 7.12506 4.80294 7.24457 4.93076 7.38923C5.18513 7.67711 5.53621 8.0065 5.9034 8.32531C6.26748 8.64142 6.6334 8.93508 6.90942 9.15048C7.04709 9.25793 7.16164 9.3453 7.24143 9.40557C7.28131 9.43569 7.31247 9.45901 7.33344 9.47463L7.35706 9.49219L7.36279 9.49643L7.36407 9.49738C7.64197 9.70208 7.70158 10.0935 7.4969 10.3714C7.29221 10.6493 6.90096 10.7087 6.62302 10.504L6.99365 10.0008C6.62302 10.504 6.62302 10.504 6.62302 10.504L6.62017 10.5019L6.61303 10.4966L6.58648 10.4769C6.56351 10.4598 6.53021 10.4349 6.48806 10.403C6.40379 10.3394 6.28396 10.248 6.14039 10.1359C5.8539 9.91235 5.46981 9.60425 5.0839 9.26919C4.70108 8.93682 4.30216 8.56563 3.99404 8.2169C3.8406 8.04325 3.69646 7.86045 3.5873 7.67936C3.48847 7.51543 3.36865 7.27368 3.36865 7.0008M6.99362 4.00078C6.62298 3.49754 6.62287 3.49762 6.62287 3.49762L6.62013 3.49964L6.613 3.50492L6.58645 3.52465C6.56347 3.54177 6.53017 3.5667 6.48802 3.59854C6.40375 3.66219 6.28393 3.7536 6.14035 3.86565C5.85387 4.08922 5.46979 4.39733 5.08388 4.7324C4.70107 5.06477 4.30216 5.43597 3.99403 5.7847C3.8406 5.95835 3.69646 6.14115 3.5873 6.32224C3.48847 6.48617 3.36865 6.72792 3.36865 7.0008M7.49686 3.63014C7.29217 3.35221 6.9008 3.29293 6.62287 3.49762L7.49686 3.63014ZM6.62287 3.49762L6.99362 4.00078L6.62287 3.49762Z" fill="currentColor"/>
<path d="M3.36865 7.0008L7.49686 3.63014L6.62287 3.49762C6.62287 3.49762 6.63026 3.50742 6.99362 4.00078L3.36865 7.0008Z" fill="currentColor"/>
</svg>
