<svg viewBox="0 0 24 24" fill="none" xmlns="http://www.w3.org/2000/svg">
<path d="M13.246 12.0029L13.2411 11.9355C13.2239 11.8711 13.182 11.8169 13.1259 11.7842L13.0644 11.7588C13.0568 11.7577 13.0367 11.7557 12.997 11.7539C12.9247 11.7506 12.8285 11.75 12.6669 11.75H11.3329C11.1714 11.75 11.0751 11.7506 11.0029 11.7539L10.9355 11.7588C10.8711 11.776 10.8169 11.8179 10.7841 11.874L10.7587 11.9355C10.7576 11.9432 10.7557 11.9632 10.7538 12.0029C10.7505 12.0752 10.7499 12.1714 10.7499 12.333V13C10.7499 13.6904 11.3096 14.25 11.9999 14.25C12.6903 14.25 13.2499 13.6904 13.2499 13V12.333C13.2499 12.1714 13.2493 12.0752 13.246 12.0029ZM14.7499 13C14.7499 14.5188 13.5188 15.75 11.9999 15.75C10.4811 15.75 9.24994 14.5188 9.24994 13V12.333C9.24993 12.0715 9.24337 11.7934 9.30951 11.5469L9.34369 11.4355C9.53098 10.8855 9.98071 10.4613 10.5468 10.3096L10.7372 10.2725C10.9316 10.2464 11.1369 10.25 11.3329 10.25H12.6669C12.9284 10.25 13.2065 10.2434 13.4531 10.3096L13.5644 10.3437C14.1144 10.531 14.5387 10.9808 14.6904 11.5469L14.7275 11.7373C14.7535 11.9317 14.7499 12.137 14.7499 12.333V13Z" fill="currentColor"/>
<path d="M18.5723 5.25001C19.2373 5.25001 19.7056 5.2451 20.0977 5.33986L20.291 5.39259C21.2485 5.69036 22.0188 6.4385 22.2129 7.4258L22.2354 7.57716C22.2637 7.83429 22.2447 8.11626 22.211 8.43458L22.166 8.83498C22.0735 9.64374 21.804 10.3468 21.2901 10.917C20.8466 11.4089 20.2638 11.7545 19.5743 12.0029L19.2725 12.1035L15.1006 13.3897C14.6892 13.5166 14.3295 13.6282 14.0108 13.7207L13.5928 12.2793C13.8971 12.1909 14.2442 12.0841 14.6592 11.9561L18.8301 10.6699L19.0674 10.5908C19.5944 10.4008 19.9421 10.1713 20.1758 9.91212C20.4358 9.62369 20.6094 9.23654 20.6748 8.66408L20.7452 7.97658C20.7498 7.90732 20.7519 7.85565 20.751 7.81447L20.7412 7.71486C20.6741 7.37347 20.3977 7.03247 19.9483 6.86037L19.7452 6.79787C19.5713 6.75585 19.3285 6.75001 18.5723 6.75001H5.42777C4.86079 6.75001 4.58237 6.75324 4.40531 6.77248L4.25492 6.79787C3.75672 6.91828 3.42687 7.23147 3.30082 7.56935L3.25882 7.71486C3.23732 7.82422 3.24688 7.98797 3.32425 8.66408L3.35453 8.87111C3.43524 9.33237 3.59684 9.65982 3.82425 9.91212C4.09135 10.2084 4.50766 10.4657 5.16996 10.6699L9.34086 11.9561L10.4073 12.2793L9.98929 13.7207C9.67058 13.6281 9.31012 13.5166 8.89847 13.3897V13.3887L4.72757 12.1035C3.9056 11.85 3.2168 11.4791 2.71 10.917C2.26039 10.4182 1.99847 9.81766 1.87796 9.1338L1.83402 8.83498C1.77006 8.27611 1.70931 7.82203 1.78714 7.4258L1.83402 7.23146C2.10315 6.27722 2.92202 5.57686 3.90238 5.33986L4.05375 5.30861C4.41504 5.24621 4.84604 5.25001 5.42777 5.25001H18.5723Z" fill="currentColor"/>
<path d="M20.4696 10.2529C20.8564 10.218 21.201 10.4833 21.2733 10.8565L21.2841 10.9326L21.4804 13.1045L21.6015 14.4736C21.7113 15.7694 21.7793 16.8487 21.7372 17.7432C21.6837 18.881 21.4496 19.8306 20.8192 20.6074L20.6884 20.7607C19.9578 21.5657 18.9903 21.9195 17.7919 22.0869C16.6155 22.2513 15.0961 22.25 13.1757 22.25H10.8241C8.9037 22.25 7.38435 22.2513 6.20792 22.0869C5.08456 21.93 4.1646 21.6089 3.45206 20.9063L3.31143 20.7607C2.58173 19.9565 2.3197 18.9568 2.2626 17.7432C2.20655 16.5506 2.34556 15.0293 2.51944 13.1045L2.71573 10.9326C2.753 10.5201 3.11767 10.2157 3.53018 10.2529C3.94268 10.2902 4.24707 10.6549 4.20987 11.0674L4.01358 13.2402C3.83575 15.2087 3.71058 16.6078 3.76065 17.6729C3.80977 18.7169 4.02414 19.3137 4.42276 19.7529L4.57999 19.9092C4.96939 20.2561 5.51762 20.4761 6.41592 20.6016C7.4643 20.748 8.85934 20.75 10.8241 20.75H13.1757C15.1405 20.75 16.5355 20.748 17.5839 20.6016C18.6101 20.4582 19.1791 20.1912 19.5771 19.7529L19.7177 19.5801C20.0265 19.1574 20.1962 18.5866 20.2392 17.6729C20.2767 16.874 20.2161 15.8873 20.1083 14.6133L19.9862 13.2402L19.7899 11.0674L19.787 10.9912C19.791 10.6109 20.0827 10.2879 20.4696 10.2529Z" fill="currentColor"/>
<path d="M12.1025 1.75C12.6914 1.75 13.2048 1.7488 13.626 1.80371C14.0732 1.86207 14.4901 1.99149 14.8633 2.29883L14.9941 2.41504C15.2834 2.69643 15.4726 3.04086 15.627 3.41992C15.7985 3.84127 15.9545 4.38059 16.1426 5.02539L16.2197 5.29004L14.7803 5.70996L14.7031 5.44531C14.5062 4.77008 14.3729 4.31841 14.2373 3.98535C14.1393 3.7447 14.057 3.61074 13.9824 3.52637L13.9102 3.45606C13.8251 3.38606 13.7083 3.32702 13.4326 3.29102C13.1306 3.25161 12.7309 3.25 12.1025 3.25H11.8975C11.2691 3.25 10.8694 3.25161 10.5674 3.29102C10.3608 3.318 10.2437 3.35837 10.1621 3.40625L10.0898 3.45606C9.99629 3.53312 9.89335 3.66446 9.7627 3.98535C9.69492 4.15186 9.62743 4.34812 9.55273 4.58692L9.29688 5.44531L9.21973 5.70996L7.78027 5.29004L7.85742 5.02539L8.12109 4.13867C8.20508 3.87071 8.2873 3.63059 8.37305 3.41992C8.54939 2.98673 8.77204 2.59922 9.13672 2.29883L9.27832 2.19141C9.61423 1.95994 9.98265 1.85478 10.374 1.80371C10.7952 1.7488 11.3086 1.75 11.8975 1.75H12.1025Z" fill="currentColor"/>
</svg>
