<svg width="24" height="24" viewBox="0 0 24 24" fill="none" xmlns="http://www.w3.org/2000/svg">
<path d="M8.86065 7.00017C8.86527 7.02495 8.86848 7.04835 8.87068 7.0715C8.88926 7.26686 8.86185 7.46388 8.79063 7.64675C8.72682 7.81063 8.6037 7.97288 8.12038 8.55287L8.05527 8.63091L7.20121 9.9089L7.58191 12.5713L7.61878 12.6402L11.3601 16.3816L12.8106 16.4804L13.587 16.5334L14.9346 15.8886L14.1616 14.9964C13.8409 15.2571 13.715 15.3397 13.5768 15.3902C13.4031 15.4537 13.1445 15.4801 12.962 15.4531C12.7713 15.425 12.6284 15.3586 12.0671 15.0586C10.552 14.249 9.75141 13.4484 8.94169 11.9332C8.64175 11.372 8.57533 11.229 8.54722 11.0384C8.52028 10.8555 8.54676 10.5971 8.61013 10.4236C8.67498 10.2461 8.79292 10.0889 9.27272 9.51314L9.34056 9.43182L10.1884 8.19106L8.86065 7.00017Z" fill="currentColor"/>
<path d="M4.91937 3.77043C5.01505 3.76283 5.12105 3.75806 5.24263 3.75506L3.8438 2.5004L2.38636 4.10524L2.31656 5.98983L2.32841 6.11173L6.92103 17.0793L17.8885 21.6719L19.895 21.614L18.7021 20.2371C18.5301 20.2254 18.3135 20.206 18.0327 20.1789C13.6287 19.7539 10.3071 18.3441 7.98169 16.0187C5.65627 13.6932 4.24644 10.3717 3.82147 5.96767C3.73348 5.05574 3.7261 4.82045 3.80382 4.59596C3.90553 4.30217 4.18573 3.99363 4.46838 3.86418C4.55812 3.82309 4.68051 3.78941 4.91937 3.77043Z" fill="currentColor"/>
<path d="M2.32841 6.11173C2.77677 10.7582 4.28456 14.4429 6.92103 17.0793L2.32841 6.11173Z" fill="currentColor"/>
<path d="M6.92103 17.0793C9.5575 19.7158 13.2421 21.2236 17.8885 21.6719L6.92103 17.0793Z" fill="currentColor"/>
<path d="M20.1363 19.5319C20.0067 19.8147 19.6981 20.0949 19.4043 20.1966C19.2491 20.2503 19.0885 20.2634 18.7021 20.2371L19.895 21.614C20.5761 21.3783 21.2001 20.8112 21.5001 20.1564C21.6412 19.8482 21.6986 19.5345 21.7252 19.1997C21.7503 18.883 21.7503 18.5022 21.7503 18.0521V18.0238L21.7504 17.9258C21.7508 17.3737 21.7511 16.9417 21.6297 16.5448C21.4785 16.0506 21.1914 15.6088 20.8011 15.2699C20.4879 14.9978 20.0931 14.8227 19.5889 14.5991L19.4987 14.5591L18.5927 14.1563L18.4967 14.1136C17.95 13.8701 17.5217 13.6794 17.071 13.6365L17.0516 13.84L19.3487 16.1371C19.6241 16.2653 19.7324 16.3285 19.8174 16.4023C19.9953 16.5568 20.1264 16.7584 20.1953 16.9838C20.2425 17.1379 20.2503 17.3269 20.2503 18.0238C20.2503 18.5097 20.2498 18.8307 20.2299 19.081C20.211 19.3196 20.1773 19.4421 20.1363 19.5319Z" fill="currentColor"/>
<path d="M16.493 15.1646C16.6348 15.1277 16.7823 15.1158 16.9288 15.1297C17.1039 15.1464 17.2938 15.2205 17.9835 15.5271L18.8895 15.9298C19.0811 16.0149 19.2303 16.082 19.3487 16.1371L17.0516 13.84L16.8358 13.6242C16.4854 13.6209 16.137 13.6844 15.8093 13.812C15.7005 13.8544 15.5959 13.9058 15.4925 13.9653L16.1985 14.8116L16.493 15.1646Z" fill="currentColor"/>
<path d="M14.5691 14.6593L14.4871 14.7277C14.3597 14.8339 14.2528 14.9223 14.1616 14.9964L14.9346 15.8886L16.243 15.2627C16.2826 15.2402 16.318 15.2236 16.3536 15.2098L16.1985 14.8116L15.4925 13.9653C15.1954 14.1366 14.9095 14.3752 14.5691 14.6593Z" fill="currentColor"/>
<path d="M14.5107 16.5963C14.7215 16.4697 14.9249 16.3121 15.145 16.1314L14.9346 15.8886L13.587 16.5334L14.5107 16.5963Z" fill="currentColor"/>
<path d="M15.3695 15.945L15.4475 15.8799C15.9018 15.5014 16.0998 15.3439 16.243 15.2627L14.9346 15.8886L15.145 16.1314C15.2177 16.0717 15.2923 16.0095 15.3695 15.945Z" fill="currentColor"/>
<path d="M12.7432 16.9371C13.173 17.0005 13.6837 16.9481 14.0914 16.7992C14.2384 16.7455 14.3761 16.6772 14.5107 16.5963L13.587 16.5334L12.7432 16.9371Z" fill="currentColor"/>
<path d="M13.587 16.5334L12.8106 16.4804L12.7432 16.9371L13.587 16.5334Z" fill="currentColor"/>
<path d="M11.3601 16.3816L11.428 16.418C11.8926 16.6668 12.2662 16.8667 12.7432 16.9371L12.8106 16.4804L11.3601 16.3816Z" fill="currentColor"/>
<path d="M7.61878 12.6402C8.56837 14.4172 9.58328 15.432 11.3601 16.3816L7.61878 12.6402Z" fill="currentColor"/>
<path d="M7.58191 12.5713L7.20121 9.9089L7.06324 11.257L7.58191 12.5713Z" fill="currentColor"/>
<path d="M7.06324 11.257C7.13351 11.7338 7.33338 12.1071 7.58191 12.5713L7.06324 11.257Z" fill="currentColor"/>
<path d="M7.20121 9.9089C7.05217 10.3168 6.99993 10.8273 7.06324 11.257L7.20121 9.9089Z" fill="currentColor"/>
<path d="M8.05527 8.63091C7.67102 9.09124 7.36677 9.45573 7.20121 9.9089L8.05527 8.63091Z" fill="currentColor"/>
<path d="M10.1884 8.19106L9.62883 6.99934L9.56121 6.85533L8.03017 5.02003C8.04318 5.0492 8.05665 5.07946 8.0706 5.11086L8.47326 6.01683C8.73933 6.6155 8.83035 6.83751 8.86065 7.00017L10.1884 8.19106Z" fill="currentColor"/>
<path d="M10.1884 8.19106C10.2429 8.05097 10.2858 7.9071 10.3167 7.76093L9.67749 6.99471L9.62883 6.99934L10.1884 8.19106Z" fill="currentColor"/>
<path d="M10.3167 7.76093C10.3581 7.56513 10.3781 7.36518 10.3762 7.16464L10.1604 6.9488L9.67749 6.99471L10.3167 7.76093Z" fill="currentColor"/>
<path d="M9.11361 5.90205L9.56121 6.85533L9.67749 6.99471L10.1604 6.9488L9.11361 5.90205Z" fill="currentColor"/>
<path d="M10.3762 7.16464C10.3755 7.08627 10.3714 7.0078 10.3639 6.92945L10.1604 6.9488L10.3762 7.16464Z" fill="currentColor"/>
<path d="M10.3639 6.92945L8.95338 4.71851L7.45549 2.37067L9.11361 5.90205L10.1604 6.9488L10.3639 6.92945Z" fill="currentColor"/>
<path d="M8.03017 5.02003L9.56121 6.85533L9.11361 5.90205L7.86326 4.6517C7.90934 4.75068 7.9638 4.87124 8.03017 5.02003Z" fill="currentColor"/>
<path d="M7.45549 2.37067L6.07464 2.24995L5.97657 2.25L5.9483 2.25L4.80059 2.27514L3.8438 2.5004L5.24263 3.75506C5.43916 3.75021 5.6764 3.75 5.97657 3.75C6.67365 3.75 6.86249 3.75787 7.01658 3.80503C7.24194 3.87398 7.44339 4.00489 7.59793 4.18281C7.67183 4.2679 7.73508 4.37633 7.86326 4.6517L9.11361 5.90205L7.45549 2.37067Z" fill="currentColor"/>
<path d="M8.73041 3.1992C8.39149 2.80899 7.9497 2.5219 7.45549 2.37067L8.95338 4.71851L9.44132 4.50164L9.4015 4.41195C9.17771 3.90742 9.00255 3.51254 8.73041 3.1992Z" fill="currentColor"/>
<path d="M9.84398 5.40763L9.44132 4.50164L8.95338 4.71851L10.3639 6.92945C10.3211 6.47888 10.1303 6.05063 9.88703 5.50435L9.84398 5.40763Z" fill="currentColor"/>
<path d="M3.8438 2.5004C3.18873 2.80041 2.62207 3.42439 2.38636 4.10524L3.8438 2.5004Z" fill="currentColor"/>
<path d="M8.87068 7.0715C8.88926 7.26686 8.86185 7.46388 8.79063 7.64675L8.87068 7.0715Z" fill="currentColor"/>
<path d="M16.493 15.1646L16.1985 14.8116L16.3536 15.2098C16.3993 15.192 16.4458 15.1769 16.493 15.1646Z" fill="currentColor"/>
<path d="M17.071 13.6365C16.9926 13.629 16.9142 13.6249 16.8358 13.6242L17.0516 13.84L17.071 13.6365Z" fill="currentColor"/>
<path d="M8.79063 7.64675C8.72682 7.81063 8.6037 7.97288 8.12038 8.55287L8.79063 7.64675Z" fill="currentColor"/>
<path d="M9.34056 9.43182C9.72374 8.97274 10.0242 8.61282 10.1884 8.19106L9.34056 9.43182Z" fill="currentColor"/>
<path d="M17.8885 21.6719L18.01 21.6837C18.741 21.7551 19.3235 21.8119 19.895 21.614L17.8885 21.6719Z" fill="currentColor"/>
<path d="M2.38636 4.10524C2.18852 4.67671 2.2453 5.25905 2.31656 5.98983L2.38636 4.10524Z" fill="currentColor"/>
<path d="M4.80059 2.27514C4.46579 2.30174 4.15209 2.35921 3.8438 2.5004L4.80059 2.27514Z" fill="currentColor"/>
<path d="M7.45549 2.37067C7.05861 2.24923 6.62662 2.24955 6.07464 2.24995L7.45549 2.37067Z" fill="currentColor"/>
</svg>
