<svg width="24" height="24" viewBox="0 0 24 24" fill="none" xmlns="http://www.w3.org/2000/svg">
<path fill-rule="evenodd" clip-rule="evenodd" d="M4.61262 6.82048C4.17105 6.88132 3.92473 6.98902 3.63029 7.21496C3.4743 7.33465 3.33466 7.47429 3.21496 7.63029C3.02187 7.88193 2.89272 8.22376 2.82277 8.84426C2.75112 9.47987 2.75 10.3098 2.75 11.5V16C2.75 17.4354 2.75159 18.4365 2.85315 19.1919C2.9518 19.9256 3.13225 20.3142 3.40902 20.591C3.68578 20.8678 4.07435 21.0482 4.80812 21.1469C5.56347 21.2484 6.56458 21.25 8 21.25H16C17.4354 21.25 18.4365 21.2484 19.1919 21.1469C19.9256 21.0482 20.3142 20.8678 20.591 20.591C20.8677 20.3142 21.0482 19.9256 21.1469 19.1919C21.2484 18.4365 21.25 17.4354 21.25 16V11.5C21.25 10.3098 21.2489 9.47987 21.1772 8.84425C21.1073 8.22375 20.9782 7.88192 20.7851 7.63029C20.6654 7.47431 20.5258 7.33468 20.3697 7.21496C20.0753 6.98904 19.829 6.88132 19.3874 6.82048C18.8888 6.75177 18.1978 6.75 17 6.75C16.5858 6.75 16.25 6.41422 16.25 6C16.25 5.58579 16.5858 5.25 17 5.25L17.0678 5.25C18.1802 5.24997 18.9784 5.24994 19.5922 5.33452C20.2754 5.42865 20.7694 5.63092 21.2829 6.02493C21.5429 6.22442 21.7756 6.45714 21.9751 6.71716C22.4019 7.27344 22.5828 7.92196 22.6678 8.67623C22.75 9.40571 22.75 10.3204 22.75 11.4548V16.0549C22.75 17.4225 22.75 18.5248 22.6335 19.3917C22.5125 20.2918 22.2536 21.0497 21.6516 21.6516C21.0497 22.2536 20.2918 22.5125 19.3917 22.6335C18.5248 22.75 17.4224 22.75 16.0549 22.75H7.94513C6.57754 22.75 5.47522 22.75 4.60825 22.6335C3.70814 22.5125 2.95026 22.2536 2.34835 21.6516C1.74644 21.0497 1.48754 20.2918 1.36652 19.3917C1.24996 18.5248 1.24998 17.4225 1.25 16.0549L1.25 11.4548C1.24999 10.3204 1.24997 9.40571 1.33221 8.67622C1.41725 7.92195 1.59808 7.27343 2.02492 6.71716C2.22442 6.45716 2.45715 6.22443 2.71715 6.02493M4.61262 6.82048C5.11121 6.75177 5.80226 6.75 7 6.75L4.61262 6.82048ZM6.93215 5.25L7 5.25C7.41421 5.25 7.75 5.58579 7.75 6C7.75 6.41422 7.41421 6.75 7 6.75M6.93215 5.25C5.81982 5.24997 5.02163 5.24994 4.40786 5.33452L6.93215 5.25ZM4.40786 5.33452C3.72467 5.42865 3.23063 5.63092 2.71715 6.02493L4.40786 5.33452ZM2.62025 7.17396L2.62114 7.17464L2.62025 7.17396Z" fill="currentColor"/>
<path d="M2.71715 6.02493L4.61262 6.82048C5.11121 6.75177 5.80226 6.75 7 6.75L6.93215 5.25L4.40786 5.33452L2.71715 6.02493Z" fill="currentColor"/>
<path fill-rule="evenodd" clip-rule="evenodd" d="M11.9685 1.25H12.0314C12.6355 1.24999 13.1355 1.24998 13.5484 1.28515C13.9811 1.32201 14.3722 1.40068 14.7493 1.58741M11.9685 1.25C11.3644 1.24999 10.8644 1.24998 10.4515 1.28515L11.9685 1.25ZM10.4515 1.28515C10.0187 1.32201 9.6277 1.40068 9.25054 1.58742L10.4515 1.28515ZM9.25054 1.58742L9.58331 2.25955L9.25054 1.58742ZM10.5788 2.77974C10.2496 2.80777 10.0632 2.85887 9.91607 2.93169C9.60525 3.08557 9.37237 3.34209 9.16304 3.71429C8.98915 4.02349 8.85896 4.35722 8.71039 4.73808C8.66947 4.84298 8.62715 4.95145 8.58214 5.06397L7.69631 7.27854C7.54248 7.66313 7.106 7.85019 6.72141 7.69636C6.33682 7.54252 6.14976 7.10604 6.3036 6.72146L7.18943 4.50689C7.22261 4.42393 7.25699 4.33546 7.2929 4.24308C7.44501 3.85171 7.62445 3.39005 7.85562 2.979C8.15383 2.44876 8.57861 1.92008 9.25054 1.58742L9.58331 2.25955M10.5788 2.77974C10.9206 2.75063 11.3566 2.75 12 2.75L10.5788 2.77974ZM12 2.75C12.6434 2.75 13.0793 2.75063 13.4211 2.77974L12 2.75ZM13.4211 2.77974C13.7502 2.80777 13.9367 2.85887 14.0838 2.93167L13.4211 2.77974ZM16.707 4.24306C16.7429 4.33545 16.7773 4.42392 16.8105 4.50688L17.6963 6.72147C17.8501 7.10605 17.6631 7.54253 17.2785 7.69636C16.8939 7.85019 16.4574 7.66313 16.3036 7.27854L15.4178 5.06398C15.3728 4.95146 15.3305 4.84298 15.2895 4.73808C15.141 4.35722 15.0108 4.0235 14.8369 3.7143C14.6298 3.34607 14.3996 3.09103 14.0936 2.93662C14.0904 2.93496 14.0871 2.93331 14.0838 2.93167M16.707 4.24306C16.5549 3.85169 16.3755 3.39003 16.1443 2.97899L16.707 4.24306ZM16.1443 2.97899C15.8461 2.44876 15.4212 1.92007 14.7493 1.58741L16.1443 2.97899Z" fill="currentColor"/>
<path d="M14.7493 1.58741L11.9685 1.25L10.4515 1.28515L9.25054 1.58742L9.58331 2.25955L10.5788 2.77974C10.9206 2.75063 11.3566 2.75 12 2.75C12.6434 2.75 13.0793 2.75063 13.4211 2.77974C13.7502 2.80777 13.9367 2.85887 14.0838 2.93167C14.0871 2.93331 14.0904 2.93496 14.0936 2.93662L16.707 4.24306L16.1443 2.97899L14.7493 1.58741Z" fill="currentColor"/>
<path fill-rule="evenodd" clip-rule="evenodd" d="M12 11.25C10.4812 11.25 9.25 12.4812 9.25 14C9.25 15.5188 10.4812 16.75 12 16.75C13.5188 16.75 14.75 15.5188 14.75 14C14.75 12.4812 13.5188 11.25 12 11.25ZM7.75 14C7.75 11.6528 9.65279 9.75 12 9.75C14.3472 9.75 16.25 11.6528 16.25 14C16.25 16.3472 14.3472 18.25 12 18.25C9.65279 18.25 7.75 16.3472 7.75 14Z" fill="currentColor"/>
<path fill-rule="evenodd" clip-rule="evenodd" d="M10.9998 6C10.9998 5.44772 11.4475 5 11.9998 5H12.0088C12.561 5 13.0088 5.44772 13.0088 6C13.0088 6.55228 12.561 7 12.0088 7H11.9998C11.4475 7 10.9998 6.55228 10.9998 6Z" fill="currentColor"/>
</svg>
