<svg width="24" height="24" viewBox="0 0 24 24" fill="none" xmlns="http://www.w3.org/2000/svg">
<path d="M18.25 14C18.25 12.5648 18.248 11.5639 18.1465 10.8086C18.0478 10.0748 17.8676 9.68594 17.5908 9.40918C17.3141 9.13242 16.9252 8.95217 16.1914 8.85352C15.4361 8.75202 14.4352 8.75 13 8.75H11C9.56485 8.75 8.5639 8.75202 7.8086 8.85352C7.07482 8.95217 6.68594 9.13242 6.40918 9.40918C6.13242 9.68594 5.95217 10.0748 5.85352 10.8086C5.75202 11.5639 5.75 12.5648 5.75 14C5.75 15.4352 5.75202 16.4361 5.85352 17.1914C5.95217 17.9252 6.13242 18.3141 6.40918 18.5908C6.81976 19.0014 7.45786 19.1863 9.02246 19.2334C9.42761 19.2456 9.74987 19.5771 9.75 19.9824C9.75 20.3795 9.64405 20.7549 9.50488 21.082C10.1576 20.9178 10.5648 20.6613 10.8145 20.4395C11.0224 20.2546 11.1425 20.076 11.208 19.9551C11.2408 19.8944 11.26 19.8477 11.2695 19.8223C11.2738 19.8108 11.2758 19.8037 11.2764 19.8018C11.2762 19.8023 11.2767 19.8034 11.2764 19.8047L11.2734 19.8135V19.8154C11.3579 19.483 11.6568 19.25 12 19.25H13C14.4352 19.25 15.4361 19.248 16.1914 19.1465C16.9252 19.0478 17.3141 18.8676 17.5908 18.5908C17.8676 18.3141 18.0478 17.9252 18.1465 17.1914C18.248 16.4361 18.25 15.4352 18.25 14ZM19.75 14C19.75 15.3929 19.7519 16.5131 19.6338 17.3916C19.5128 18.2917 19.2533 19.0495 18.6514 19.6514C18.0495 20.2533 17.2917 20.5128 16.3916 20.6338C15.5131 20.7519 14.3929 20.75 13 20.75H12.4785C12.3387 20.9895 12.128 21.2783 11.8105 21.5605C11.0888 22.2021 9.90185 22.75 8 22.75C7.69725 22.75 7.42409 22.5675 7.30762 22.2881C7.19149 22.009 7.25425 21.6876 7.4668 21.4727C7.46749 21.4719 7.46825 21.4703 7.46973 21.4688C7.47408 21.4642 7.48187 21.4565 7.49219 21.4453C7.51314 21.4227 7.54564 21.3871 7.58496 21.3408C7.66423 21.2475 7.76953 21.1141 7.87403 20.9561C7.93483 20.8641 7.98966 20.7708 8.03809 20.6787C6.93412 20.5822 6.03517 20.3379 5.34863 19.6514C4.74672 19.0495 4.48723 18.2917 4.36621 17.3916C4.24812 16.5131 4.25 15.3929 4.25 14C4.25 12.6071 4.24812 11.4869 4.36621 10.6084C4.48723 9.70829 4.74672 8.95055 5.34863 8.34863C5.95055 7.74672 6.70829 7.48723 7.6084 7.36621C8.4869 7.24812 9.60709 7.25 11 7.25H13C14.3929 7.25 15.5131 7.24812 16.3916 7.36621C17.2917 7.48723 18.0495 7.74672 18.6514 8.34863C19.2533 8.95055 19.5128 9.70829 19.6338 10.6084C19.7519 11.4869 19.75 12.6071 19.75 14Z" fill="currentColor"/>
<path d="M21.25 14C21.25 13.5189 21.2489 13.2081 21.2275 12.9727C21.2071 12.7476 21.173 12.6659 21.1494 12.625C21.1001 12.5396 21.0347 12.465 20.957 12.4053L20.875 12.3506C20.8341 12.327 20.7524 12.2929 20.5273 12.2725C20.2919 12.2511 19.9811 12.25 19.5 12.25H19V10.75H19.5C19.9535 10.75 20.3442 10.7494 20.6631 10.7783C20.9921 10.8082 21.3179 10.8745 21.625 11.0518L21.751 11.1299C22.0369 11.3212 22.2756 11.576 22.4482 11.875L22.5098 11.9912C22.6416 12.2638 22.6956 12.549 22.7217 12.8369C22.7506 13.1558 22.75 13.5465 22.75 14C22.75 14.4535 22.7506 14.8442 22.7217 15.1631C22.6956 15.451 22.6416 15.7362 22.5098 16.0088L22.4482 16.125C22.2756 16.4241 22.0369 16.6788 21.751 16.8701L21.625 16.9482C21.3179 17.1255 20.9921 17.1918 20.6631 17.2217C20.3442 17.2506 19.9535 17.25 19.5 17.25H19V15.75H19.5C19.9811 15.75 20.2919 15.7489 20.5273 15.7275C20.7524 15.7071 20.8341 15.673 20.875 15.6494L20.957 15.5947C21.0347 15.535 21.1001 15.4604 21.1494 15.375L21.1895 15.2705C21.2036 15.2168 21.2173 15.1401 21.2275 15.0273C21.2489 14.7919 21.25 14.4811 21.25 14Z" fill="currentColor"/>
<path d="M1.25 14C1.25 13.5465 1.24942 13.1558 1.27832 12.8369C1.30818 12.5079 1.37447 12.1821 1.55176 11.875C1.74921 11.5331 2.03306 11.2492 2.375 11.0518C2.68208 10.8745 3.00788 10.8082 3.33692 10.7783C3.65579 10.7494 4.0465 10.75 4.5 10.75H5V12.25H4.5C4.01889 12.25 3.70811 12.2511 3.47266 12.2725C3.24761 12.2929 3.16586 12.327 3.125 12.3506C3.01102 12.4164 2.9164 12.511 2.85059 12.625C2.827 12.6659 2.79287 12.7476 2.77246 12.9727C2.75112 13.2081 2.75 13.5189 2.75 14C2.75 14.4811 2.75112 14.7919 2.77246 15.0273C2.79287 15.2524 2.827 15.3341 2.85059 15.375L2.90527 15.457C2.96497 15.5347 3.03961 15.6001 3.125 15.6494L3.22949 15.6895C3.28318 15.7036 3.35989 15.7173 3.47266 15.7275C3.70811 15.7489 4.01889 15.75 4.5 15.75H5V17.25H4.5C4.0465 17.25 3.65579 17.2506 3.33692 17.2217C3.04904 17.1956 2.76376 17.1416 2.49121 17.0098L2.375 16.9482C2.07595 16.7756 1.82115 16.5369 1.62988 16.251L1.55176 16.125C1.37447 15.8179 1.30818 15.4921 1.27832 15.1631C1.24942 14.8442 1.25 14.4535 1.25 14Z" fill="currentColor"/>
<path d="M12.75 3.5C12.75 3.08579 12.4142 2.75 12 2.75C11.5858 2.75 11.25 3.08579 11.25 3.5C11.25 3.91421 11.5858 4.25 12 4.25C12.4142 4.25 12.75 3.91421 12.75 3.5ZM14.25 3.5C14.25 4.74264 13.2426 5.75 12 5.75C10.7574 5.75 9.75 4.74264 9.75 3.5C9.75 2.25736 10.7574 1.25 12 1.25C13.2426 1.25 14.25 2.25736 14.25 3.5Z" fill="currentColor"/>
<path d="M11.25 8V5C11.25 4.58579 11.5858 4.25 12 4.25C12.4142 4.25 12.75 4.58579 12.75 5V8C12.75 8.41421 12.4142 8.75 12 8.75C11.5858 8.75 11.25 8.41421 11.25 8Z" fill="currentColor"/>
<path d="M8.25 13V12C8.25 11.5858 8.58579 11.25 9 11.25C9.41421 11.25 9.75 11.5858 9.75 12V13C9.75 13.4142 9.41421 13.75 9 13.75C8.58579 13.75 8.25 13.4142 8.25 13ZM14.25 13V12C14.25 11.5858 14.5858 11.25 15 11.25C15.4142 11.25 15.75 11.5858 15.75 12V13C15.75 13.4142 15.4142 13.75 15 13.75C14.5858 13.75 14.25 13.4142 14.25 13Z" fill="currentColor"/>
<path d="M13.553 15.8984C13.8841 15.6522 14.3519 15.7195 14.5999 16.0498C14.8483 16.3811 14.7815 16.851 14.4504 17.0996L14.0002 16.5L14.4495 17.1006L14.4475 17.1016L14.4456 17.1035C14.4437 17.1049 14.4409 17.1068 14.4387 17.1084C14.4344 17.1115 14.4296 17.1152 14.4241 17.1191C14.4124 17.1273 14.3974 17.1371 14.3801 17.1484C14.3457 17.171 14.3002 17.1995 14.2434 17.2314C14.1291 17.2957 13.9689 17.3752 13.7639 17.4522C13.3521 17.6066 12.7628 17.75 12.0002 17.75C11.2377 17.75 10.6483 17.6066 10.2366 17.4522C10.0315 17.3752 9.87139 17.2957 9.75708 17.2314C9.70025 17.1995 9.65475 17.171 9.62036 17.1484C9.60309 17.1371 9.58803 17.1273 9.57641 17.1191C9.57083 17.1152 9.56604 17.1115 9.56176 17.1084C9.55956 17.1068 9.55678 17.1049 9.55493 17.1035L9.55298 17.1016L9.55102 17.1006L9.55005 17.0996C9.21895 16.851 9.15218 16.3811 9.40063 16.0498C9.64844 15.7198 10.1154 15.6528 10.4465 15.8984V15.8975L10.4934 15.9248C10.5458 15.9542 10.6362 16 10.7639 16.0479C11.0188 16.1434 11.4297 16.25 12.0002 16.25C12.5708 16.25 12.9817 16.1434 13.2366 16.0479C13.3643 16 13.4547 15.9542 13.5071 15.9248L13.5579 15.8945C13.557 15.8952 13.5552 15.8966 13.554 15.8975L13.553 15.8984Z" fill="currentColor"/>
</svg>
