<svg width="24" height="24" viewBox="0 0 24 24" fill="none" xmlns="http://www.w3.org/2000/svg">
<path d="M1.375 11.5C1.375 9.74796 1.37388 8.37459 1.51172 7.29395C1.65181 6.19594 1.94373 5.31776 2.58691 4.59668C2.77977 4.38048 2.99178 4.18071 3.2207 4C3.97837 3.40193 4.89517 3.13296 6.04688 3.00293C7.18704 2.87422 8.63859 2.875 10.5039 2.875H13.5059C15.3712 2.875 16.8227 2.87421 17.9629 3.00293C19.1146 3.13296 20.0314 3.40193 20.7891 4C21.018 4.18071 21.23 4.3805 21.4229 4.59668C22.431 5.72696 22.589 7.26636 22.625 9.49023C22.6304 9.8352 22.3548 10.1194 22.0098 10.125C21.6648 10.1304 21.3806 9.85478 21.375 9.50977C21.338 7.22931 21.1476 6.16571 20.4902 5.42871C20.3462 5.26731 20.1871 5.11759 20.0146 4.98145C19.5171 4.58871 18.8653 4.36282 17.8232 4.24512C16.7695 4.12615 15.4005 4.125 13.5059 4.125H10.5039C8.60915 4.125 7.24026 4.12614 6.18652 4.24512C5.14443 4.36281 4.49268 4.58869 3.99512 4.98145C3.82265 5.1176 3.66351 5.2673 3.51953 5.42871C3.10941 5.8885 2.87519 6.48619 2.75195 7.45215C2.62654 8.43538 2.625 9.71491 2.625 11.5C2.625 13.2851 2.62654 14.5646 2.75195 15.5479C2.87519 16.5138 3.1094 17.1115 3.51953 17.5713C3.66343 17.7326 3.82255 17.8823 3.99512 18.0186C4.49268 18.4113 5.14443 18.6372 6.18652 18.7549C7.24026 18.8739 8.60915 18.875 10.5039 18.875H11C11.3452 18.875 11.625 19.1548 11.625 19.5C11.625 19.8452 11.3452 20.125 11 20.125H10.5039C8.63859 20.125 7.18704 20.1258 6.04688 19.9971C4.89517 19.867 3.97837 19.5981 3.2207 19C2.99187 18.8193 2.77986 18.6196 2.58691 18.4033C1.94373 17.6822 1.65181 16.8041 1.51172 15.7061C1.37388 14.6254 1.375 13.2521 1.375 11.5Z" fill="currentColor"/>
<path d="M22 7.875V9.125H2V7.875H22Z" fill="currentColor"/>
<path d="M21.375 16.5C21.375 16.2261 21.3239 15.9652 21.2314 15.7246C21.1076 15.4024 21.2687 15.0409 21.5908 14.917C21.9129 14.7932 22.2745 14.9534 22.3984 15.2754C22.5449 15.6565 22.625 16.0698 22.625 16.5C22.625 18.4173 21.0463 19.9531 19.1221 19.9531H16.9951L17.0898 20.04C17.3436 20.2737 17.3603 20.6689 17.127 20.9228C16.8932 21.1768 16.4971 21.1938 16.2432 20.96L15.4199 20.2021C15.4149 20.1976 15.4101 20.1922 15.4053 20.1875C15.3307 20.1142 15.2237 20.0111 15.1494 19.9141C15.091 19.8376 14.8718 19.5364 15.0303 19.1601L15.0977 19.0351C15.273 18.7757 15.5606 18.7301 15.6426 18.7187C15.7633 18.702 15.9115 18.7031 16.0176 18.7031H19.1221C20.3764 18.7031 21.375 17.7067 21.375 16.5ZM13.375 16.5C13.375 14.5827 14.9537 13.0469 16.8779 13.0469H19.0049L18.9102 12.96C18.6564 12.7263 18.6397 12.3311 18.873 12.0771C19.1068 11.8232 19.5029 11.8062 19.7568 12.04L20.5801 12.7978L20.5947 12.8125C20.6693 12.8858 20.7763 12.9889 20.8506 13.0859C20.9017 13.1528 21.0761 13.3915 21.0127 13.7021L20.9697 13.8398C20.8132 14.2102 20.4511 14.2682 20.3574 14.2812C20.2367 14.298 20.0885 14.2969 19.9824 14.2969H16.8779C15.6236 14.2969 14.625 15.2933 14.625 16.5C14.625 16.7739 14.6761 17.0347 14.7686 17.2754C14.8924 17.5976 14.7313 17.9591 14.4092 18.083C14.0871 18.2068 13.7255 18.0466 13.6016 17.7246C13.4551 17.3435 13.375 16.9302 13.375 16.5Z" fill="currentColor"/>
</svg>
