<svg viewBox="0 0 24 24" fill="none" xmlns="http://www.w3.org/2000/svg">
<path d="M1.25 12.0008C1.25 10.2521 1.2487 8.86945 1.3877 7.77911C1.52939 6.66796 1.82699 5.76168 2.49316 5.01447C2.6908 4.79281 2.90813 4.5883 3.14258 4.40314C3.92588 3.78453 4.86826 3.51099 6.03027 3.3797C7.17866 3.24998 8.63832 3.25079 10.5 3.25079H13.5C15.3617 3.25079 16.8214 3.24998 17.9697 3.3797C19.1317 3.51099 20.0742 3.78452 20.8574 4.40314C21.0919 4.58829 21.3092 4.79283 21.5068 5.01447C22.1062 5.68674 22.4079 6.48839 22.5654 7.4549C22.7197 8.40133 22.7444 9.56611 22.749 10.9988C22.7501 11.4128 22.415 11.7495 22.001 11.7508C21.587 11.7519 21.2504 11.4168 21.249 11.0027C21.2443 9.55375 21.2171 8.50663 21.085 7.69611C20.9561 6.90559 20.7369 6.40417 20.3877 6.01251C20.2486 5.85651 20.0946 5.71163 19.9277 5.5799C19.4565 5.20776 18.8315 4.98636 17.8008 4.86993C16.7562 4.75197 15.3967 4.75079 13.5 4.75079H10.5C8.60327 4.75079 7.24376 4.75197 6.19922 4.86993C5.16854 4.98636 4.54354 5.20777 4.07227 5.5799C3.90544 5.71164 3.75139 5.85651 3.61231 6.01251C3.22568 6.44617 2.99748 7.01576 2.87598 7.96857C2.75184 8.9421 2.75 10.2123 2.75 12.0008C2.75 13.7893 2.75184 15.0595 2.87598 16.033C2.99748 16.9858 3.22568 17.5554 3.61231 17.9891C3.7513 18.145 3.90532 18.2898 4.07227 18.4217C4.54354 18.7938 5.16855 19.0152 6.19922 19.1317C7.24376 19.2496 8.60326 19.2508 10.5 19.2508H11C11.4142 19.2508 11.75 19.5866 11.75 20.0008C11.75 20.415 11.4142 20.7508 11 20.7508H10.5C8.63832 20.7508 7.17866 20.7516 6.03027 20.6219C4.86826 20.4906 3.92588 20.2171 3.14258 19.5984C2.90824 19.4134 2.6909 19.2089 2.49316 18.9871C1.827 18.2399 1.52939 17.3336 1.3877 16.2225C1.2487 15.1321 1.25 13.7495 1.25 12.0008Z" fill="currentColor"/>
<path d="M22 8.25V9.75H2V8.25H22Z" fill="currentColor"/>
<path d="M21.75 13.2922C22.1404 13.1542 22.5688 13.3589 22.707 13.7492C22.8451 14.1396 22.6403 14.568 22.25 14.7062C21.6735 14.9105 21.0294 15.3405 20.3662 15.9221C19.7105 16.4971 19.0762 17.185 18.5176 17.8547C17.9603 18.5227 17.4871 19.1621 17.1533 19.635C16.9867 19.871 16.8557 20.0647 16.7666 20.1984C16.7221 20.2653 16.6875 20.3171 16.665 20.3518C16.6541 20.3686 16.646 20.3815 16.6406 20.3898C16.6379 20.394 16.636 20.3977 16.6348 20.3996C16.6342 20.4005 16.633 20.4012 16.6328 20.4016C16.4879 20.6295 16.2317 20.762 15.9619 20.7482C15.692 20.7344 15.45 20.5759 15.3291 20.3342C14.8737 19.4234 14.4521 19.0353 14.209 18.8732C14.0867 18.7917 14.0013 18.7613 13.9658 18.7512C13.9561 18.7484 13.9495 18.7469 13.9463 18.7463C13.5572 18.7187 13.25 18.3953 13.25 17.9992C13.25 17.585 13.5858 17.2492 14 17.2492V17.8478C14.0001 17.2492 14.0013 17.2492 14.002 17.2492H14.0264C14.0363 17.2495 14.0476 17.2504 14.0596 17.2512C14.0837 17.2527 14.1126 17.2557 14.1445 17.26C14.2085 17.2685 14.2871 17.2838 14.3779 17.3098C14.5612 17.3621 14.7884 17.4568 15.041 17.6252C15.3544 17.8341 15.6949 18.148 16.0381 18.6144C16.3791 18.1377 16.8349 17.5294 17.3652 16.8937C17.9536 16.1885 18.643 15.4388 19.377 14.7951C20.1031 14.1583 20.9149 13.5879 21.75 13.2922ZM13.9629 18.7482C13.9674 18.7485 13.9734 18.749 13.9795 18.7492H13.999L14 18.7482C13.9826 18.7482 13.9654 18.7475 13.9482 18.7463C13.9513 18.7466 13.9562 18.7478 13.9629 18.7482Z" fill="currentColor"/>
</svg>
