<svg viewBox="0 0 24 24" fill="none" xmlns="http://www.w3.org/2000/svg">
<path d="M7.2513 21.1417C6.36195 21.0366 5.8356 20.8384 5.4382 20.5123L3.82812 21.0133C4.02558 21.2539 4.24625 21.4745 4.48664 21.6719C5.19559 22.2537 6.04428 22.5095 7.07523 22.6313C8.07944 22.75 9.34878 22.75 10.951 22.75H10.9999C11.4141 22.75 11.7499 22.4142 11.7499 22C11.7499 21.5858 11.4141 21.25 10.9999 21.25C9.33783 21.25 8.1572 21.2488 7.2513 21.1417Z" fill="currentColor"/>
<path d="M2.86864 18.4247C2.99049 19.4556 3.24635 20.3044 3.82812 21.0133L2.86864 18.4247Z" fill="currentColor"/>
<path d="M4.14133 2.64123C3.39297 3.38958 3.06085 4.33852 2.90321 5.51093L4.14133 2.64123Z" fill="currentColor"/>
<path d="M7.01105 1.40313C5.83864 1.56076 4.88969 1.89287 4.14133 2.64123L7.01105 1.40313Z" fill="currentColor"/>
<path d="M16.989 1.40313C15.8498 1.24997 14.3941 1.24998 12.5563 1.25H11.4436L16.1677 2.82498C16.3876 2.84227 16.5942 2.86356 16.7891 2.88976C17.7952 3.02502 18.3749 3.27871 18.7981 3.70191C19.2212 4.12512 19.4749 4.70477 19.6102 5.71084C19.7483 6.73851 19.7499 8.09318 19.7499 10V10.5C19.7499 10.9142 20.0857 11.25 20.4999 11.25C20.9141 11.25 21.2499 10.9142 21.2499 10.5V9.94359C21.2499 8.10582 21.2499 6.65019 21.0968 5.51098C20.9392 4.33857 20.607 3.3896 19.8587 2.64123C19.1104 1.89288 18.1614 1.56076 16.989 1.40313Z" fill="currentColor"/>
<path d="M3.82812 21.0133L5.4382 20.5123C5.27354 20.3771 5.12262 20.2262 4.98764 20.0617C4.66152 19.6643 4.46339 19.138 4.35828 18.2486C4.2512 17.3427 4.24999 16.1621 4.25 14.5L4.25004 9.99994C4.25006 8.09313 4.25166 6.73847 4.38984 5.71082C4.52511 4.70474 4.77878 4.1251 5.20199 3.70189C5.6252 3.27869 6.20484 3.02502 7.21092 2.88976C8.23857 2.75159 9.59321 2.75 11.5 2.75H12.4999C14.0452 2.75 15.2279 2.75105 16.1677 2.82498L11.4436 1.25L7.01105 1.40313L4.14133 2.64123L2.90321 5.51093L2.75004 9.94355L2.75004 9.99992L2.75 14.5L2.75 14.5489L2.86864 18.4247L3.82812 21.0133Z" fill="currentColor"/>
<path d="M2.90321 5.51093C2.75004 6.65015 2.75004 8.10578 2.75004 9.94355L2.90321 5.51093Z" fill="currentColor"/>
<path d="M11.4436 1.25C9.60586 1.24998 8.15025 1.24997 7.01105 1.40313L11.4436 1.25Z" fill="currentColor"/>
<path d="M2.75 14.5489C2.74997 16.1511 2.74995 17.4205 2.86864 18.4247L2.75 14.5489Z" fill="currentColor"/>
<path fill-rule="evenodd" clip-rule="evenodd" d="M6.75 7C6.75 6.58579 7.08579 6.25 7.5 6.25H16.5C16.9142 6.25 17.25 6.58579 17.25 7C17.25 7.41421 16.9142 7.75 16.5 7.75H7.5C7.08579 7.75 6.75 7.41421 6.75 7Z" fill="currentColor"/>
<path fill-rule="evenodd" clip-rule="evenodd" d="M6.75 12C6.75 11.5858 7.08579 11.25 7.5 11.25H13.5C13.9142 11.25 14.25 11.5858 14.25 12C14.25 12.4142 13.9142 12.75 13.5 12.75H7.5C7.08579 12.75 6.75 12.4142 6.75 12Z" fill="currentColor"/>
<path fill-rule="evenodd" clip-rule="evenodd" d="M14.835 14.4473C15.4914 13.7565 16.4285 13.25 17.5 13.25C18.5715 13.25 19.5086 13.7565 20.165 14.4473C20.8164 15.1328 21.25 16.0608 21.25 17V20C21.25 20.4142 20.9142 20.75 20.5 20.75C20.0858 20.75 19.75 20.4142 19.75 20V17C19.75 16.5098 19.5121 15.9378 19.0776 15.4806C18.6483 15.0288 18.0854 14.75 17.5 14.75C16.9146 14.75 16.3517 15.0288 15.9224 15.4806C15.4879 15.9378 15.25 16.5098 15.25 17V20.5C15.25 20.9142 15.5858 21.25 16 21.25C16.4142 21.25 16.75 20.9142 16.75 20.5V17C16.75 16.5858 17.0858 16.25 17.5 16.25C17.9142 16.25 18.25 16.5858 18.25 17V20.5C18.25 21.7426 17.2426 22.75 16 22.75C14.7574 22.75 13.75 21.7426 13.75 20.5V17C13.75 16.0608 14.1836 15.1328 14.835 14.4473Z" fill="currentColor"/>
</svg>
