<svg viewBox="0 0 24 24" fill="none" xmlns="http://www.w3.org/2000/svg">
<path d="M8.00684 16.75L8.13379 16.7568C8.76426 16.8207 9.25684 17.3527 9.25684 18C9.25684 18.6473 8.76426 19.1793 8.13379 19.2432L8.00684 19.25H8C7.30964 19.25 6.75 18.6904 6.75 18C6.75 17.3096 7.30964 16.75 8 16.75H8.00684ZM16 16.75C16.6904 16.75 17.25 17.3096 17.25 18C17.25 18.6904 16.6904 19.25 16 19.25H15.9941C15.3038 19.25 14.7441 18.6904 14.7441 18C14.7441 17.3096 15.3038 16.75 15.9941 16.75H16ZM8.00684 10.75L8.13379 10.7568C8.76426 10.8207 9.25684 11.3527 9.25684 12C9.25684 12.6473 8.76426 13.1793 8.13379 13.2432L8.00684 13.25H8C7.30964 13.25 6.75 12.6904 6.75 12C6.75 11.3096 7.30964 10.75 8 10.75H8.00684ZM16 10.75C16.6904 10.75 17.25 11.3096 17.25 12C17.25 12.6904 16.6904 13.25 16 13.25H15.9941C15.3038 13.25 14.7441 12.6904 14.7441 12C14.7441 11.3096 15.3038 10.75 15.9941 10.75H16ZM8.00684 4.75L8.13379 4.75684C8.76426 4.8207 9.25684 5.35268 9.25684 6C9.25684 6.64732 8.76426 7.1793 8.13379 7.24316L8.00684 7.25H8C7.30964 7.25 6.75 6.69036 6.75 6C6.75 5.30964 7.30964 4.75 8 4.75H8.00684ZM16 4.75C16.6904 4.75 17.25 5.30964 17.25 6C17.25 6.69036 16.6904 7.25 16 7.25H15.9941C15.3038 7.25 14.7441 6.69036 14.7441 6C14.7441 5.30964 15.3038 4.75 15.9941 4.75H16Z" fill="currentColor"/>
</svg>
