<svg viewBox="0 0 24 24" fill="none" xmlns="http://www.w3.org/2000/svg">
<path fill-rule="evenodd" clip-rule="evenodd" d="M10.5952 2.22858L12.1936 2.22858C13.0253 2.22858 13.8257 2.54635 14.4309 3.11691L19.1772 7.59139C20.009 8.38097 20.4818 9.47639 20.4857 10.6233L20.4857 15.5478C20.4858 16.4795 20.4858 17.2258 20.4365 17.829C20.3859 18.4484 20.2795 18.9846 20.028 19.4782C19.6253 20.2685 18.9828 20.911 18.1925 21.3137C17.6989 21.5652 17.1627 21.6716 16.5433 21.7222C15.9401 21.7715 15.1938 21.7714 14.262 21.7714H10.5952C9.66344 21.7714 8.91714 21.7715 8.31391 21.7222C7.69448 21.6716 7.15828 21.5652 6.6647 21.3137C5.87442 20.911 5.2319 20.2685 4.82923 19.4782C4.57774 18.9846 4.47134 18.4484 4.42073 17.829C4.37145 17.2258 4.37145 16.4795 4.37146 15.5477V8.45234C4.37145 7.52056 4.37145 6.77426 4.42073 6.17102C4.47134 5.55159 4.57774 5.0154 4.82923 4.52182C5.2319 3.73154 5.87442 3.08902 6.6647 2.68635C7.15828 2.43486 7.69448 2.32846 8.31391 2.27785C8.91714 2.22856 9.66344 2.22857 10.5952 2.22858ZM8.43954 3.81558C7.91553 3.8584 7.60497 3.93885 7.36514 4.06105C6.86517 4.31579 6.45868 4.72229 6.20393 5.22226C6.08173 5.46209 6.00128 5.77264 5.95847 6.29666C5.91492 6.82968 5.91432 7.5129 5.91432 8.48572V15.5143C5.91432 16.4871 5.91492 17.1703 5.95847 17.7034C6.00128 18.2274 6.08173 18.5379 6.20393 18.7778C6.45868 19.2777 6.86517 19.6842 7.36514 19.939C7.60497 20.0612 7.91553 20.1416 8.43954 20.1844C8.97256 20.228 9.65578 20.2286 10.6286 20.2286H14.2286C15.2014 20.2286 15.8846 20.228 16.4177 20.1844C16.9417 20.1416 17.2522 20.0612 17.4921 19.939C17.992 19.6842 18.3985 19.2777 18.6533 18.7778C18.7755 18.5379 18.8559 18.2274 18.8987 17.7034C18.9423 17.1703 18.9429 16.4871 18.9429 15.5143L18.9429 11.4214H14.9061C14.4519 11.4214 14.0652 11.4215 13.7477 11.3955C13.4141 11.3683 13.0896 11.3086 12.7794 11.1505C12.3117 10.9122 11.9314 10.5319 11.6931 10.0642C11.535 9.75398 11.4753 9.42947 11.4481 9.09591C11.4221 8.77839 11.4221 8.39167 11.4222 7.9375V3.77143H10.6286C9.65579 3.77143 8.97257 3.77203 8.43954 3.81558ZM12.965 3.95428V7.90715C12.965 8.39992 12.9656 8.72311 12.9858 8.97027C13.0053 9.20842 13.039 9.30729 13.0678 9.36377C13.1582 9.54118 13.3024 9.68542 13.4798 9.77581C13.5363 9.80459 13.6352 9.83833 13.8733 9.85778C14.1205 9.87798 14.4437 9.87858 14.9364 9.87858H18.8322C18.7006 9.4373 18.4553 9.03341 18.115 8.71042L13.3726 4.23955C13.2502 4.12421 13.1127 4.02848 12.965 3.95428Z" fill="currentColor"/>
</svg>
