<svg width="24" height="24" viewBox="0 0 24 24" fill="none" xmlns="http://www.w3.org/2000/svg">
<path fill-rule="evenodd" clip-rule="evenodd" d="M2.25 7C2.25 6.58579 2.58579 6.25 3 6.25H6C6.41421 6.25 6.75 6.58579 6.75 7C6.75 7.41421 6.41421 7.75 6 7.75H3C2.58579 7.75 2.25 7.41421 2.25 7Z" fill="currentColor"/>
<path fill-rule="evenodd" clip-rule="evenodd" d="M2.25 17C2.25 16.5858 2.58579 16.25 3 16.25H9C9.41421 16.25 9.75 16.5858 9.75 17C9.75 17.4142 9.41421 17.75 9 17.75H3C2.58579 17.75 2.25 17.4142 2.25 17Z" fill="currentColor"/>
<path fill-rule="evenodd" clip-rule="evenodd" d="M17.25 17C17.25 16.5858 17.5858 16.25 18 16.25H21C21.4142 16.25 21.75 16.5858 21.75 17C21.75 17.4142 21.4142 17.75 21 17.75H18C17.5858 17.75 17.25 17.4142 17.25 17Z" fill="currentColor"/>
<path fill-rule="evenodd" clip-rule="evenodd" d="M14.25 7C14.25 6.58579 14.5858 6.25 15 6.25H21C21.4142 6.25 21.75 6.58579 21.75 7C21.75 7.41421 21.4142 7.75 21 7.75H15C14.5858 7.75 14.25 7.41421 14.25 7Z" fill="currentColor"/>
<path fill-rule="evenodd" clip-rule="evenodd" d="M10.1454 3.27077C9.84074 3.24999 9.46971 3.24999 9.02525 3.25H8.97475C8.53029 3.24999 8.15925 3.24999 7.85464 3.27077C7.53754 3.29241 7.238 3.33905 6.94761 3.45933C6.2738 3.73844 5.73844 4.27381 5.45933 4.94762C5.33905 5.23801 5.29241 5.53754 5.27077 5.85464C5.24999 6.15925 5.24999 6.53029 5.25 6.97475V7.02525C5.24999 7.46971 5.24999 7.84075 5.27077 8.14536C5.29241 8.46246 5.33905 8.762 5.45933 9.05239C5.73844 9.72621 6.27381 10.2616 6.94762 10.5407C7.23801 10.661 7.53754 10.7076 7.85464 10.7292C8.15925 10.75 8.53029 10.75 8.97474 10.75H9.02526C9.46972 10.75 9.84075 10.75 10.1454 10.7292C10.4625 10.7076 10.762 10.6609 11.0524 10.5407C11.7262 10.2616 12.2616 9.72614 12.5407 9.05231C12.661 8.76194 12.7076 8.46244 12.7292 8.14535C12.75 7.84074 12.75 7.46971 12.75 7.02524V6.97476C12.75 6.53029 12.75 6.15926 12.7292 5.85465C12.7076 5.53756 12.6609 5.23797 12.5407 4.9476C12.2616 4.27377 11.7261 3.73841 11.0524 3.45931C10.762 3.33905 10.4625 3.29241 10.1454 3.27077ZM7.52165 4.84515C7.59881 4.81319 7.71603 4.78371 7.95674 4.76729C8.20421 4.75041 8.5238 4.75 9 4.75C9.4762 4.75 9.79579 4.75041 10.0433 4.76729C10.2839 4.78371 10.4012 4.81317 10.4784 4.84514C10.7846 4.97201 11.028 5.21537 11.1549 5.52157C11.1868 5.59875 11.2163 5.71608 11.2327 5.95673C11.2496 6.2042 11.25 6.5238 11.25 7C11.25 7.4762 11.2496 7.7958 11.2327 8.04327C11.2163 8.28392 11.1868 8.40116 11.1549 8.47834C11.028 8.78454 10.7846 9.02796 10.4784 9.15483C10.4012 9.18681 10.284 9.21629 10.0433 9.23271C9.79579 9.24959 9.4762 9.25 9 9.25C8.5238 9.25 8.20421 9.24959 7.95674 9.23271C7.71603 9.21629 7.59881 9.18681 7.52165 9.15485C7.21538 9.02798 6.97202 8.78463 6.84515 8.47835C6.81319 8.40119 6.78371 8.28397 6.76729 8.04326C6.75041 7.79579 6.75 7.4762 6.75 7C6.75 6.5238 6.75041 6.20421 6.76729 5.95674C6.78371 5.71603 6.81319 5.5988 6.84515 5.52164C6.97202 5.21536 7.21538 4.97202 7.52165 4.84515Z" fill="currentColor"/>
<path fill-rule="evenodd" clip-rule="evenodd" d="M16.1454 13.2708C15.8407 13.25 15.4697 13.25 15.0253 13.25H14.9747C14.5303 13.25 14.1593 13.25 13.8546 13.2708C13.5376 13.2924 13.2379 13.3391 12.9475 13.4593C12.2738 13.7384 11.7384 14.274 11.4592 14.9477C11.339 15.2381 11.2924 15.5376 11.2708 15.8546C11.25 16.1593 11.25 16.5303 11.25 16.9747V17.0253C11.25 17.4697 11.25 17.8407 11.2708 18.1454C11.2924 18.4624 11.3391 18.7621 11.4593 19.0525C11.7384 19.7262 12.274 20.2616 12.9477 20.5408C13.2381 20.661 13.5376 20.7076 13.8546 20.7292C14.1593 20.75 14.5303 20.75 14.9748 20.75H15.0252C15.4697 20.75 15.8407 20.75 16.1454 20.7292C16.4625 20.7076 16.7621 20.6609 17.0525 20.5407C17.7262 20.2616 18.2616 19.726 18.5408 19.0523C18.661 18.7619 18.7076 18.4625 18.7292 18.1454C18.75 17.8407 18.75 17.4697 18.75 17.0252V16.9748C18.75 16.5303 18.75 16.1593 18.7292 15.8546C18.7076 15.5376 18.6609 15.2379 18.5407 14.9475C18.2616 14.2738 17.726 13.7384 17.0523 13.4592C16.7619 13.339 16.4624 13.2924 16.1454 13.2708ZM13.5217 14.8451C13.5989 14.8131 13.7162 14.7837 13.9567 14.7673C14.2042 14.7504 14.5238 14.75 15 14.75C15.4762 14.75 15.7958 14.7504 16.0433 14.7673C16.2838 14.7837 16.4011 14.8131 16.4783 14.8451C16.7845 14.972 17.028 15.2154 17.1548 15.5215C17.1868 15.5987 17.2163 15.7162 17.2327 15.9567C17.2496 16.2042 17.25 16.5238 17.25 17C17.25 17.4762 17.2496 17.7958 17.2327 18.0433C17.2163 18.2838 17.1869 18.4011 17.1549 18.4783C17.028 18.7845 16.7846 19.028 16.4785 19.1548C16.4013 19.1868 16.284 19.2163 16.0433 19.2327C15.7958 19.2496 15.4762 19.25 15 19.25C14.5238 19.25 14.2042 19.2496 13.9567 19.2327C13.7162 19.2163 13.5989 19.1869 13.5217 19.1549C13.2155 19.028 12.972 18.7845 12.8451 18.4783C12.8131 18.4011 12.7837 18.2838 12.7673 18.0433C12.7504 17.7958 12.75 17.4762 12.75 17C12.75 16.5238 12.7504 16.2042 12.7673 15.9567C12.7837 15.7162 12.8132 15.5987 12.8452 15.5215C12.972 15.2154 13.2155 14.972 13.5217 14.8451Z" fill="currentColor"/>
</svg>
