<svg viewBox="0 0 24 24" fill="none" xmlns="http://www.w3.org/2000/svg">
<path d="M10.6455 1.30272C10.8631 1.21623 11.109 1.23671 11.3096 1.35741C15.5754 3.92382 19.5158 8.30672 20.8067 12.5312C21.4574 14.661 21.4555 16.8301 20.3711 18.6904C19.2875 20.5495 17.2109 21.949 14.0352 22.7285C13.717 22.8066 13.3847 22.6689 13.2149 22.3887C13.0451 22.1083 13.0764 21.7498 13.293 21.5039C14.5919 20.03 15.7399 18.3073 15.9073 16.4932C16.0345 15.1124 15.6005 13.5492 13.9385 11.8848C13.9501 13.6556 13.2683 15.1302 12.5811 15.9736C12.3977 16.1986 12.1011 16.2974 11.8194 16.2275C11.5378 16.1576 11.3217 15.9319 11.2647 15.6475C10.9898 14.2732 10.2085 13.6683 9.37699 13.2422C9.30458 14.7431 8.48625 15.7046 8.17094 16.335C6.97433 18.7281 8.64069 20.4117 9.54887 21.5264C9.76243 21.7886 9.77402 22.1615 9.57719 22.4365C9.38019 22.7115 9.02321 22.8209 8.70609 22.7031C5.84236 21.6381 3.81655 19.643 3.06645 17.209C2.31186 14.7598 2.89006 12.0002 4.96977 9.51854C7.98421 5.92186 9.27944 5.09515 10.2002 1.79784L10.2286 1.71581C10.3052 1.52845 10.4551 1.37843 10.6455 1.30272ZM11.3457 3.15624C10.3012 6.13712 8.71189 7.38915 6.12016 10.4814C4.31643 12.6335 3.91712 14.8744 4.50004 16.7666C4.84896 17.8991 5.56623 18.9522 6.61625 19.8183C6.16662 18.6847 6.02448 17.2746 6.82914 15.665C7.4239 14.4755 8.18535 13.833 7.7725 12.1816C7.7013 11.8964 7.80319 11.596 8.03324 11.4131C8.2635 11.2301 8.57996 11.1981 8.84184 11.332C9.47188 11.6541 11.1427 12.1327 12.1202 13.7402C12.4577 12.8057 12.6027 11.5753 12.1651 10.2324C12.0642 9.92282 12.1748 9.58351 12.4385 9.39257C12.7025 9.20174 13.0598 9.20271 13.3223 9.3955C16.5306 11.7539 17.6224 14.2365 17.4014 16.6318C17.2705 18.0495 16.6821 19.3596 15.9375 20.5137C17.5073 19.8157 18.5021 18.9177 19.0752 17.9346C19.885 16.5451 19.9435 14.8387 19.3721 12.9687C18.296 9.44732 15.0588 5.6288 11.3457 3.15624Z" fill="currentColor"/>
</svg>
