<svg width="24" height="24" viewBox="0 0 24 24" fill="none" xmlns="http://www.w3.org/2000/svg">
<path fill-rule="evenodd" clip-rule="evenodd" d="M12.4346 4.59693C12.149 4.52483 11.8499 4.52483 11.5643 4.59693C11.2749 4.67 10.9864 4.85962 10.0827 5.50233L6.4618 8.07766C5.79625 8.55101 5.59424 8.70373 5.45224 8.88415C5.31218 9.0621 5.20742 9.26518 5.14358 9.48245C5.07885 9.70274 5.07149 9.95587 5.07149 10.7726V15.9985C5.07149 16.725 5.07209 17.2235 5.10365 17.6099C5.13448 17.9872 5.19097 18.1892 5.26523 18.3349C5.43566 18.6694 5.7076 18.9413 6.04207 19.1118C6.18783 19.186 6.38978 19.2425 6.76713 19.2733C7.15348 19.3049 7.65198 19.3055 8.3785 19.3055H15.6204C16.3469 19.3055 16.8454 19.3049 17.2318 19.2733C17.6091 19.2425 17.8111 19.186 17.9568 19.1118C18.2913 18.9413 18.5632 18.6694 18.7337 18.3349C18.8079 18.1892 18.8644 17.9872 18.8952 17.6099C18.9268 17.2235 18.9274 16.725 18.9274 15.9985V10.7726C18.9274 9.95587 18.92 9.70274 18.8553 9.48245C18.7915 9.26518 18.6867 9.0621 18.5467 8.88415C18.4047 8.70373 18.2026 8.55101 17.5371 8.07766L13.9162 5.50233C13.0125 4.85962 12.724 4.67 12.4346 4.59693ZM11.1867 3.10101C11.7202 2.96633 12.2787 2.96633 12.8122 3.10101C13.4191 3.25422 13.9575 3.63766 14.6953 4.16315C14.7332 4.19008 14.7715 4.21738 14.8104 4.24504L18.4313 6.82037C18.4594 6.84036 18.4872 6.86006 18.5145 6.8795C19.0618 7.26837 19.4623 7.55286 19.759 7.92993C20.0207 8.26233 20.2164 8.64167 20.3356 9.04752C20.4709 9.50791 20.4706 9.9991 20.4703 10.6705C20.4703 10.7041 20.4703 10.7381 20.4703 10.7726V16.0308C20.4703 16.7171 20.4703 17.2789 20.433 17.7355C20.3944 18.2083 20.3119 18.6358 20.1084 19.0354C19.79 19.6601 19.2821 20.1681 18.6573 20.4864C18.2578 20.69 17.8302 20.7724 17.3574 20.8111C16.9008 20.8484 16.3391 20.8484 15.6527 20.8484H8.34622C7.65985 20.8484 7.09811 20.8484 6.64149 20.8111C6.16873 20.7724 5.74114 20.69 5.34163 20.4864C4.71685 20.1681 4.20888 19.6601 3.89054 19.0354C3.68698 18.6358 3.60455 18.2083 3.56592 17.7355C3.52861 17.2789 3.52862 16.7171 3.52863 16.0308L3.52863 10.7726C3.52863 10.7381 3.52861 10.7041 3.5286 10.6705C3.52827 9.9991 3.52803 9.50791 3.66329 9.04752C3.78254 8.64167 3.97824 8.26233 4.23986 7.92993C4.53663 7.55287 4.93705 7.26837 5.48437 6.8795C5.51174 6.86006 5.53947 6.84036 5.56757 6.82037L9.18852 4.24504C9.22741 4.21738 9.26575 4.19008 9.30356 4.16315C10.0414 3.63766 10.5798 3.25422 11.1867 3.10101Z" fill="currentColor"/>
</svg>
