<svg viewBox="0 0 24 24" fill="none" xmlns="http://www.w3.org/2000/svg">
<path d="M21.25 11.5C21.25 9.59324 21.2485 8.23859 21.1104 7.21094C20.992 6.33058 20.7832 5.77639 20.4492 5.36816L20.2979 5.20215C19.8747 4.77896 19.2952 4.52491 18.2891 4.38965C17.2614 4.2515 15.9067 4.25 14 4.25H10C8.09324 4.25 6.73859 4.2515 5.71094 4.38965C4.83057 4.50801 4.27639 4.71684 3.86816 5.05078L3.70215 5.20215C3.27894 5.62536 3.02491 6.20485 2.88965 7.21094C2.7515 8.23859 2.75 9.59324 2.75 11.5V12.5C2.75 14.4067 2.7515 15.7614 2.88965 16.7891C3.02491 17.7952 3.27896 18.3747 3.70215 18.7979L3.86816 18.9492C4.27639 19.2832 4.83058 19.492 5.71094 19.6104C6.73859 19.7485 8.09324 19.75 10 19.75H14C15.9067 19.75 17.2614 19.7485 18.2891 19.6104C19.2952 19.4751 19.8747 19.2211 20.2979 18.7979L20.4492 18.6318C20.7832 18.2236 20.992 17.6694 21.1104 16.7891C21.2485 15.7614 21.25 14.4067 21.25 12.5V11.5ZM22.75 12.5C22.75 14.3644 22.7514 15.8384 22.5967 16.9893C22.4489 18.0882 22.1477 18.9907 21.4941 19.7158L21.3584 19.8584C20.6101 20.6067 19.6616 20.939 18.4893 21.0967C17.3384 21.2514 15.8644 21.25 14 21.25H10C8.13558 21.25 6.66159 21.2514 5.51074 21.0967C4.41176 20.9489 3.50929 20.6477 2.78418 19.9941L2.6416 19.8584C1.89328 19.1101 1.56096 18.1616 1.40332 16.9893C1.24859 15.8384 1.25 14.3644 1.25 12.5V11.5C1.25 9.63558 1.24859 8.16159 1.40332 7.01074C1.56096 5.83844 1.8933 4.88991 2.6416 4.1416L2.78418 4.00586C3.50929 3.35227 4.41176 3.0511 5.51074 2.90332C6.66159 2.74859 8.13558 2.75 10 2.75H14C15.8644 2.75 17.3384 2.74859 18.4893 2.90332C19.6616 3.06096 20.6101 3.39328 21.3584 4.1416L21.4941 4.28418C22.1477 5.00929 22.4489 5.91176 22.5967 7.01074C22.7514 8.16159 22.75 9.63558 22.75 11.5V12.5Z" fill="currentColor"/>
<path d="M4.4325 15.4326C5.82083 12.6357 10.079 12.418 11.5575 15.4111L11.6962 15.7207L11.7206 15.793C11.826 16.1584 11.6397 16.5516 11.2792 16.6963C10.9187 16.8409 10.5122 16.6855 10.3358 16.3486L10.3036 16.2793L10.2196 16.0908C9.31579 14.2666 6.65161 14.3381 5.77723 16.0976L5.69617 16.2793C5.54193 16.6637 5.10499 16.8505 4.72059 16.6963C4.33619 16.542 4.1494 16.1051 4.3036 15.7207L4.4325 15.4326Z" fill="currentColor"/>
<path d="M9 9.75C9 9.19771 8.55229 8.75 8 8.75C7.44771 8.75 7 9.19771 7 9.75C7 10.3023 7.44771 10.75 8 10.75C8.55229 10.75 9 10.3023 9 9.75ZM10.5 9.75C10.5 11.1307 9.38071 12.25 8 12.25C6.61929 12.25 5.5 11.1307 5.5 9.75C5.5 8.36929 6.61929 7.25 8 7.25C9.38071 7.25 10.5 8.36929 10.5 9.75Z" fill="currentColor"/>
<path d="M16.5 14.75C16.9142 14.75 17.25 15.0858 17.25 15.5C17.25 15.9142 16.9142 16.25 16.5 16.25H14C13.5858 16.25 13.25 15.9142 13.25 15.5C13.25 15.0858 13.5858 14.75 14 14.75H16.5ZM19 11.25C19.4142 11.25 19.75 11.5858 19.75 12C19.75 12.4142 19.4142 12.75 19 12.75H14C13.5858 12.75 13.25 12.4142 13.25 12C13.25 11.5858 13.5858 11.25 14 11.25H19ZM19 7.75C19.4142 7.75 19.75 8.08579 19.75 8.5C19.75 8.91421 19.4142 9.25 19 9.25H14C13.5858 9.25 13.25 8.91421 13.25 8.5C13.25 8.08579 13.5858 7.75 14 7.75H19Z" fill="currentColor"/>
</svg>
