<svg viewBox="0 0 24 24" fill="none" xmlns="http://www.w3.org/2000/svg">
<path fill-rule="evenodd" clip-rule="evenodd" d="M1.25 12C1.25 6.06294 6.06294 1.25 12 1.25C17.937 1.25 22.75 6.06293 22.75 12C22.75 17.937 17.937 22.75 12 22.75C6.06293 22.75 1.25 17.937 1.25 12ZM12 2.75C6.89136 2.75 2.75 6.89136 2.75 12C2.75 17.1086 6.89137 21.25 12 21.25C17.1086 21.25 21.25 17.1086 21.25 12C21.25 6.89137 17.1086 2.75 12 2.75Z" fill="currentColor"/>
<path fill-rule="evenodd" clip-rule="evenodd" d="M11.8907 10.275C12.11 10.3045 12.3902 10.3803 12.626 10.6161C12.8618 10.8519 12.9377 11.132 12.9672 11.3514C12.9924 11.5386 12.9923 11.7604 12.9922 11.9656C12.9922 11.9771 12.9922 11.9886 12.9922 12V17C12.9922 17.4142 12.6564 17.75 12.2422 17.75C11.828 17.75 11.4922 17.4142 11.4922 17V12C11.4922 11.9009 11.4922 11.8206 11.491 11.7512C11.4216 11.75 11.3413 11.75 11.2422 11.75C10.828 11.75 10.4922 11.4142 10.4922 11C10.4922 10.5858 10.828 10.25 11.2422 10.25C11.2536 10.25 11.2651 10.25 11.2766 10.25C11.4817 10.2499 11.7035 10.2498 11.8907 10.275Z" fill="currentColor"/>
<path fill-rule="evenodd" clip-rule="evenodd" d="M10.9919 8C10.9919 7.44772 11.4397 7 11.9919 7H12.0009C12.5532 7 13.0009 7.44772 13.0009 8C13.0009 8.55228 12.5532 9 12.0009 9H11.9919C11.4397 9 10.9919 8.55228 10.9919 8Z" fill="currentColor"/>
</svg>
