<svg width="24" height="24" viewBox="0 0 24 24" fill="none" xmlns="http://www.w3.org/2000/svg">
<path fill-rule="evenodd" clip-rule="evenodd" d="M11.9428 1.75H12.0572C14.2479 1.74999 15.9685 1.74998 17.312 1.93059C18.6886 2.11568 19.7809 2.50271 20.6391 3.3609C21.4973 4.2191 21.8843 5.31138 22.0694 6.68803C22.25 8.03145 22.25 9.75212 22.25 11.9428V12.0572C22.25 14.2479 22.25 15.9685 22.0694 17.312C21.8843 18.6886 21.4973 19.7809 20.6392 20.6391C19.7809 21.4973 18.6886 21.8843 17.312 22.0694C15.9685 22.25 14.2479 22.25 12.0572 22.25H11.9428C9.75212 22.25 8.03145 22.25 6.68803 22.0694C5.31138 21.8843 4.21912 21.4973 3.36092 20.6391C2.50273 19.7809 2.11568 18.6886 1.93059 17.312C1.74998 15.9685 1.74999 14.2479 1.75 12.0572V11.9428C1.74999 9.75212 1.74998 8.03144 1.93059 6.68803C2.11568 5.31137 2.50271 4.21911 3.36091 3.36091C4.21911 2.50272 5.31137 2.11568 6.68803 1.93059C8.03144 1.74998 9.75212 1.74999 11.9428 1.75ZM4.42157 4.42157C4.95462 3.88853 5.67758 3.57994 6.8879 3.41722C8.1198 3.25159 9.73963 3.25 12 3.25C14.2604 3.25 15.8802 3.25159 17.1121 3.41722C18.3224 3.57994 19.0454 3.88852 19.5785 4.42156C20.1115 4.95461 20.4201 5.67758 20.5828 6.88789C20.7484 8.1198 20.75 9.73963 20.75 12C20.75 14.2604 20.7484 15.8802 20.5828 17.1121C20.4201 18.3224 20.1115 19.0454 19.5785 19.5785C19.0454 20.1115 18.3224 20.4201 17.1121 20.5828C15.8802 20.7484 14.2604 20.75 12 20.75C9.73963 20.75 8.1198 20.7484 6.88789 20.5828C5.67758 20.4201 4.95463 20.1115 4.42158 19.5785C3.88854 19.0454 3.57994 18.3224 3.41722 17.1121C3.25159 15.8802 3.25 14.2604 3.25 12C3.25 9.73963 3.25159 8.1198 3.41722 6.8879C3.57994 5.67758 3.88853 4.95462 4.42157 4.42157Z" fill="currentColor"/>
<path fill-rule="evenodd" clip-rule="evenodd" d="M11.8907 10.275C12.11 10.3045 12.3902 10.3803 12.626 10.6161C12.8618 10.8519 12.9377 11.132 12.9672 11.3514C12.9924 11.5386 12.9923 11.7604 12.9922 11.9656C12.9922 11.9771 12.9922 11.9886 12.9922 12V17C12.9922 17.4142 12.6564 17.75 12.2422 17.75C11.828 17.75 11.4922 17.4142 11.4922 17V12C11.4922 11.9009 11.4922 11.8206 11.491 11.7512C11.4216 11.75 11.3413 11.75 11.2422 11.75C10.828 11.75 10.4922 11.4142 10.4922 11C10.4922 10.5858 10.828 10.25 11.2422 10.25C11.2536 10.25 11.2651 10.25 11.2766 10.25C11.4817 10.2499 11.7035 10.2498 11.8907 10.275Z" fill="currentColor"/>
<path fill-rule="evenodd" clip-rule="evenodd" d="M10.9919 8C10.9919 7.44772 11.4397 7 11.9919 7H12.0009C12.5532 7 13.0009 7.44772 13.0009 8C13.0009 8.55228 12.5532 9 12.0009 9H11.9919C11.4397 9 10.9919 8.55228 10.9919 8Z" fill="currentColor"/>
</svg>
