<svg width="24" height="24" viewBox="0 0 24 24" fill="none" xmlns="http://www.w3.org/2000/svg">
<path fill-rule="evenodd" clip-rule="evenodd" d="M4.42157 4.42157C4.95462 3.88853 5.67758 3.57994 6.8879 3.41722C8.1198 3.25159 9.73963 3.25 12 3.25C14.2604 3.25 15.8802 3.25159 17.1121 3.41722C18.3224 3.57994 19.0454 3.88852 19.5785 4.42156C20.1115 4.95461 20.4201 5.67758 20.5828 6.88789C20.7484 8.1198 20.75 9.73963 20.75 12C20.75 14.2604 20.7484 15.8802 20.5828 17.1121C20.4201 18.3224 20.1115 19.0454 19.5785 19.5785C19.0454 20.1115 18.3224 20.4201 17.1121 20.5828C15.8802 20.7484 14.2604 20.75 12 20.75C9.73963 20.75 8.1198 20.7484 6.88789 20.5828C5.67758 20.4201 4.95463 20.1115 4.42158 19.5785C3.88854 19.0454 3.57994 18.3224 3.41722 17.1121C3.25159 15.8802 3.25 14.2604 3.25 12C3.25 9.73963 3.25159 8.1198 3.41722 6.8879C3.57994 5.67758 3.88853 4.95462 4.42157 4.42157ZM12.0572 1.75H11.9428C9.75212 1.74999 8.03144 1.74998 6.68803 1.93059C5.31137 2.11568 4.21911 2.50272 3.36091 3.36091C2.50271 4.21911 2.11568 5.31137 1.93059 6.68803C1.74998 8.03144 1.74999 9.75212 1.75 11.9428V12.0572C1.74999 14.2479 1.74998 15.9685 1.93059 17.312C2.11568 18.6886 2.50273 19.7809 3.36092 20.6391C4.21912 21.4973 5.31138 21.8843 6.68803 22.0694C8.03145 22.25 9.75212 22.25 11.9428 22.25H12.0572C14.2479 22.25 15.9685 22.25 17.312 22.0694C18.6886 21.8843 19.7809 21.4973 20.6392 20.6391C21.4973 19.7809 21.8843 18.6886 22.0694 17.312C22.25 15.9685 22.25 14.2479 22.25 12.0572V11.9428C22.25 9.75212 22.25 8.03145 22.0694 6.68803C21.8843 5.31138 21.4973 4.2191 20.6391 3.3609C19.7809 2.50271 18.6886 2.11568 17.312 1.93059C15.9685 1.74998 14.2479 1.74999 12.0572 1.75Z" fill="currentColor"/>
<path fill-rule="evenodd" clip-rule="evenodd" d="M7.75 21.5V2.5H9.25V21.5H7.75Z" fill="currentColor"/>
<path fill-rule="evenodd" clip-rule="evenodd" d="M14.75 21.5V2.5H16.25V21.5H14.75Z" fill="currentColor"/>
</svg>
