<svg width="24" height="24" viewBox="0 0 24 24" fill="none" xmlns="http://www.w3.org/2000/svg">
<path d="M14.2393 19.1425L14.6302 17.4597C14.5958 17.3237 14.5708 17.1502 14.5579 16.9414C14.5401 16.6512 14.5479 16.34 14.5621 16.0424C14.566 15.9612 14.5707 15.8761 14.5754 15.7912C14.5863 15.593 14.5972 15.3962 14.5972 15.2542C14.5972 14.84 14.2614 14.5042 13.8472 14.5042C13.8149 14.5042 13.7826 14.5042 13.7503 14.504L14.2393 19.1425Z" fill="currentColor"/>
<path d="M12.3027 14.4729L12.2554 14.4715C11.7119 14.4552 11.1506 14.4389 10.589 14.4405C9.46802 14.4438 8.30494 14.5181 7.18474 14.8241C5.92745 15.1675 4.82349 15.8215 3.81918 16.5055C3.96248 15.0215 4.33549 13.6686 5.00338 12.56C5.8721 11.118 7.27276 10.0312 9.48832 9.615L12.087 7.95577C11.1433 7.94384 10.1544 7.96363 9.21138 8.14079C6.58968 8.63332 4.81541 9.96525 3.71853 11.7859C2.63928 13.5774 2.25 15.7826 2.25 18C2.25 18.2804 2.40642 18.5374 2.6555 18.6662C2.90458 18.795 3.2047 18.7741 3.43352 18.612C3.53161 18.5425 3.62893 18.4734 3.72561 18.4046C5.01693 17.4866 6.19425 16.6496 7.57992 16.2711C8.51374 16.016 9.52473 15.9436 10.5934 15.9405C11.1267 15.9389 11.6642 15.9544 12.2104 15.9708L12.2666 15.9725C12.5305 15.9804 12.7966 15.9884 13.0627 15.9944C13.0484 16.303 13.0384 16.6697 13.0608 17.0336C13.0832 17.3984 13.1407 17.8118 13.2903 18.1796C13.4428 18.5542 13.7272 18.962 14.2393 19.1425L13.7503 14.504C13.2802 14.5022 12.7993 14.4878 12.3027 14.4729Z" fill="currentColor"/>
<path fill-rule="evenodd" clip-rule="evenodd" d="M17.2049 6.37596L16.0874 5.29549L15.2608 4.82227L14.2393 4.84649L14.488 5.55211L13.2903 5.80941L13.0608 6.9554L13.0608 7.02118L13.0612 7.3338L14.0473 6.70415L14.5932 6.35559L14.7448 6.25884C14.7479 6.2578 14.7509 6.25686 14.7537 6.25603C14.7647 6.25276 14.7735 6.25098 14.7812 6.25032C14.7958 6.24908 14.8064 6.25186 14.8207 6.25623C14.8698 6.27132 14.9679 6.31832 15.1407 6.45894C15.3901 6.66192 15.6657 6.94546 16.048 7.33876C16.235 7.53122 16.4476 7.74996 16.6952 7.99842L16.8029 8.1065L17.2049 6.37596ZM14.7459 6.25776C14.7493 6.25449 14.7513 6.25379 14.7513 6.25379C14.7513 6.25379 14.7497 6.25574 14.7459 6.25776Z" fill="currentColor"/>
<path d="M14.488 5.55211L14.2393 4.84649C13.7272 5.02698 13.4428 5.43475 13.2903 5.80941L14.488 5.55211Z" fill="currentColor"/>
<path fill-rule="evenodd" clip-rule="evenodd" d="M17.7577 6.93961C17.5644 6.74562 17.3802 6.55616 17.2049 6.37596L16.8029 8.1065L18.6605 9.9706C19.2781 10.5903 19.6876 11.0035 19.9518 11.3496C20.2039 11.6798 20.25 11.857 20.25 11.9945C20.25 12.132 20.2039 12.3092 19.9518 12.6394C19.6876 12.9855 19.2781 13.3986 18.6605 14.0183L16.6953 15.9905C16.3949 16.2918 16.1354 16.5675 15.913 16.8037L15.7783 16.9466C15.5199 17.2201 15.33 17.4147 15.1663 17.5541C15.0027 17.6932 14.9153 17.7328 14.8749 17.7446C14.8574 17.7496 14.8275 17.7583 14.7448 17.7301C14.7338 17.7193 14.7099 17.6884 14.6797 17.6142C14.6616 17.5697 14.6451 17.5182 14.6302 17.4597L14.2393 19.1425C14.5849 19.2642 14.9371 19.2883 15.2928 19.1852C15.6259 19.0885 15.9031 18.8966 16.1384 18.6964C16.3735 18.4963 16.6167 18.2435 16.8686 17.9768L17.0091 17.8278C17.2311 17.592 17.4739 17.3342 17.7578 17.0493L19.7588 15.0412C20.3311 14.467 20.8125 13.984 21.1441 13.5496C21.4947 13.0903 21.75 12.5957 21.75 11.9945C21.75 11.3934 21.4947 10.8987 21.1441 10.4394C20.8124 10.0049 20.3309 9.52169 19.7584 8.9473L17.7577 6.93961ZM14.7513 17.7352C14.7513 17.7352 14.7493 17.7345 14.7459 17.7312C14.7497 17.7332 14.7513 17.7352 14.7513 17.7352Z" fill="currentColor"/>
<path d="M13.2903 5.80941C13.1407 6.17722 13.0832 6.59055 13.0608 6.9554L13.2903 5.80941Z" fill="currentColor"/>
<path d="M15.2608 4.82227C14.922 4.71825 14.579 4.72677 14.2393 4.84649L15.2608 4.82227Z" fill="currentColor"/>
<path d="M16.0874 5.29549C15.8486 5.10116 15.5757 4.91892 15.2608 4.82227L16.0874 5.29549Z" fill="currentColor"/>
<path d="M17.2049 6.37596C16.7796 5.9386 16.4074 5.55582 16.0874 5.29549L17.2049 6.37596Z" fill="currentColor"/>
<path d="M14.243 4.84802L14.5932 6.35559L14.6339 6.53079C14.5995 6.66684 14.5745 6.84028 14.5616 7.04908C14.5438 7.33934 14.5516 7.65046 14.5658 7.94812C14.5697 8.0293 14.5744 8.1144 14.5791 8.19925C14.59 8.3975 14.6009 8.59433 14.6009 8.73629C14.6009 9.1505 14.2651 9.48628 13.8509 9.48628C13.8186 9.48628 13.7863 9.48635 13.754 9.48647L14.0473 6.70415L14.243 4.84802Z" fill="currentColor"/>
<path d="M13.2219 9.49315L13.0641 7.99617L13.0618 7.97466L12.087 7.95577L9.48832 9.615L12.259 9.51901L12.3064 9.51759C12.6174 9.50826 12.9221 9.49912 13.2219 9.49315Z" fill="currentColor"/>
<path d="M14.0473 6.70415L13.0612 7.3338L13.0617 7.88851C13.0632 7.92507 13.0648 7.96097 13.0664 7.99612L13.0641 7.99617L13.2219 9.49315C13.4009 9.48958 13.5782 9.48714 13.754 9.48647L14.0473 6.70415Z" fill="currentColor"/>
<path d="M13.0612 7.3338L13.0516 7.33989C13.05 7.53116 13.0548 7.71712 13.0617 7.88851L13.0612 7.3338Z" fill="currentColor"/>
<path d="M13.0612 7.3338L13.0608 7.02118C13.0554 7.128 13.0525 7.23474 13.0516 7.33989L13.0612 7.3338Z" fill="currentColor"/>
<path d="M14.7537 6.25603C14.7509 6.25686 14.7479 6.2578 14.7448 6.25884L14.5932 6.35559L14.6339 6.53079C14.6487 6.47232 14.6653 6.42076 14.6834 6.37626C14.7136 6.30213 14.7375 6.27124 14.7485 6.26036C14.7604 6.25628 14.7713 6.25298 14.7812 6.25032C14.7737 6.25096 14.7656 6.25225 14.755 6.25534C14.755 6.25534 14.7523 6.25786 14.7496 6.25931C14.7514 6.2576 14.7537 6.25603 14.7537 6.25603Z" fill="currentColor"/>
</svg>
