<svg viewBox="0 0 24 24" fill="none" xmlns="http://www.w3.org/2000/svg">
<path fill-rule="evenodd" clip-rule="evenodd" d="M2.7884 10.8535C2.76525 10.9589 2.75 11.1267 2.75 11.4V12.6C2.75 12.8733 2.76525 13.0411 2.7884 13.1465C2.79336 13.1691 2.79806 13.1859 2.80198 13.198C2.81413 13.2019 2.83095 13.2066 2.85352 13.2116C2.95891 13.2348 3.12666 13.25 3.4 13.25H20.6C20.8734 13.25 21.0411 13.2348 21.1465 13.2116C21.1691 13.2066 21.1859 13.2019 21.198 13.198C21.2019 13.1859 21.2066 13.1691 21.2116 13.1465C21.2348 13.0411 21.25 12.8733 21.25 12.6V11.4C21.25 11.1267 21.2348 10.9589 21.2116 10.8535C21.2066 10.8309 21.2019 10.8141 21.198 10.802C21.1859 10.7981 21.1691 10.7934 21.1465 10.7884C21.0411 10.7652 20.8734 10.75 20.6 10.75H3.4C3.12666 10.75 2.95891 10.7652 2.85352 10.7884C2.83095 10.7934 2.81413 10.7981 2.80198 10.802C2.79806 10.8141 2.79336 10.8309 2.7884 10.8535ZM2.53169 9.32333C2.79739 9.26496 3.09421 9.25 3.4 9.25H20.6C20.9058 9.25 21.2026 9.26496 21.4683 9.32333C21.7425 9.38356 22.0292 9.49977 22.2647 9.73531C22.5002 9.97085 22.6164 10.2575 22.6767 10.5317C22.735 10.7974 22.75 11.0942 22.75 11.4V12.6C22.75 12.9058 22.735 13.2026 22.6767 13.4683C22.6164 13.7425 22.5002 14.0292 22.2647 14.2647C22.0292 14.5002 21.7425 14.6164 21.4683 14.6767C21.2026 14.735 20.9058 14.75 20.6 14.75H3.4C3.09421 14.75 2.79739 14.735 2.53169 14.6767C2.2575 14.6164 1.97086 14.5002 1.73532 14.2647C1.49978 14.0292 1.38357 13.7425 1.32334 13.4683C1.26497 13.2026 1.25 12.9058 1.25 12.6V11.4C1.25 11.0942 1.26497 10.7974 1.32334 10.5317C1.38357 10.2575 1.49978 9.97084 1.73532 9.7353C1.97086 9.49977 2.2575 9.38356 2.53169 9.32333Z" fill="currentColor"/>
<path fill-rule="evenodd" clip-rule="evenodd" d="M2.7884 2.85353C2.76525 2.95891 2.75 3.12666 2.75 3.4V4.6C2.75 4.87334 2.76525 5.04109 2.7884 5.14647C2.79336 5.16905 2.79807 5.18587 2.80198 5.19802C2.81413 5.20193 2.83095 5.20664 2.85353 5.2116C2.95891 5.23475 3.12666 5.25 3.4 5.25H20.6C20.8733 5.25 21.0411 5.23475 21.1465 5.2116C21.1691 5.20664 21.1859 5.20194 21.198 5.19802C21.2019 5.18587 21.2066 5.16905 21.2116 5.14648C21.2348 5.04109 21.25 4.87334 21.25 4.6V3.4C21.25 3.12666 21.2348 2.95891 21.2116 2.85352C21.2066 2.83095 21.2019 2.81413 21.198 2.80198C21.1859 2.79806 21.1691 2.79336 21.1465 2.7884C21.0411 2.76525 20.8733 2.75 20.6 2.75H3.4C3.12666 2.75 2.95891 2.76525 2.85353 2.7884C2.83095 2.79336 2.81413 2.79807 2.80198 2.80198C2.79807 2.81413 2.79336 2.83095 2.7884 2.85353ZM2.53168 1.32334C2.79738 1.26497 3.0942 1.25 3.4 1.25H20.6C20.9058 1.25 21.2026 1.26497 21.4683 1.32334C21.7425 1.38357 22.0292 1.49978 22.2647 1.73532C22.5002 1.97086 22.6164 2.2575 22.6767 2.53169C22.735 2.79739 22.75 3.09421 22.75 3.4V4.6C22.75 4.90579 22.735 5.20261 22.6767 5.46831C22.6164 5.7425 22.5002 6.02914 22.2647 6.26468C22.0292 6.50022 21.7425 6.61643 21.4683 6.67666C21.2026 6.73503 20.9058 6.75 20.6 6.75H3.4C3.0942 6.75 2.79738 6.73503 2.53168 6.67666C2.25749 6.61643 1.97086 6.50022 1.73532 6.26468C1.49978 6.02914 1.38357 5.74251 1.32334 5.46832C1.26497 5.20262 1.25 4.9058 1.25 4.6V3.4C1.25 3.0942 1.26497 2.79738 1.32334 2.53168C1.38357 2.25749 1.49978 1.97086 1.73532 1.73532C1.97086 1.49978 2.25749 1.38357 2.53168 1.32334Z" fill="currentColor"/>
<path fill-rule="evenodd" clip-rule="evenodd" d="M2.7884 18.8535C2.76525 18.9589 2.75 19.1267 2.75 19.4V20.6C2.75 20.8733 2.76525 21.0411 2.7884 21.1465C2.79336 21.1691 2.79806 21.1859 2.80198 21.198C2.81413 21.2019 2.83095 21.2066 2.85352 21.2116C2.95891 21.2348 3.12666 21.25 3.4 21.25H20.6C20.8734 21.25 21.0411 21.2348 21.1465 21.2116C21.1691 21.2066 21.1859 21.2019 21.198 21.198C21.2019 21.1859 21.2066 21.1691 21.2116 21.1465C21.2348 21.0411 21.25 20.8733 21.25 20.6V19.4C21.25 19.1267 21.2348 18.9589 21.2116 18.8535C21.2066 18.8309 21.2019 18.8141 21.198 18.802C21.1859 18.7981 21.1691 18.7934 21.1465 18.7884C21.0411 18.7652 20.8734 18.75 20.6 18.75H3.4C3.12666 18.75 2.95891 18.7652 2.85352 18.7884C2.83095 18.7934 2.81413 18.7981 2.80198 18.802C2.79806 18.8141 2.79336 18.8309 2.7884 18.8535ZM2.53169 17.3233C2.79739 17.265 3.09421 17.25 3.4 17.25H20.6C20.9058 17.25 21.2026 17.265 21.4683 17.3233C21.7425 17.3836 22.0292 17.4998 22.2647 17.7353C22.5002 17.9708 22.6164 18.2575 22.6767 18.5317C22.735 18.7974 22.75 19.0942 22.75 19.4V20.6C22.75 20.9058 22.735 21.2026 22.6767 21.4683C22.6164 21.7425 22.5002 22.0292 22.2647 22.2647C22.0292 22.5002 21.7425 22.6164 21.4683 22.6767C21.2026 22.735 20.9058 22.75 20.6 22.75H3.4C3.09421 22.75 2.79739 22.735 2.53169 22.6767C2.2575 22.6164 1.97086 22.5002 1.73532 22.2647C1.49978 22.0292 1.38357 21.7425 1.32334 21.4683C1.26497 21.2026 1.25 20.9058 1.25 20.6V19.4C1.25 19.0942 1.26497 18.7974 1.32334 18.5317C1.38357 18.2575 1.49978 17.9708 1.73532 17.7353C1.97086 17.4998 2.2575 17.3836 2.53169 17.3233Z" fill="currentColor"/>
</svg>
