<svg width="24" height="24" viewBox="0 0 24 24" fill="none" xmlns="http://www.w3.org/2000/svg">
<path opacity="0.5" d="M11.0004 15.9999C11.0004 15.4476 11.4481 14.9999 12.0004 14.9999C12.5527 14.9999 13.0004 15.4476 13.0004 15.9999V20.9999C13.0004 21.5522 12.5527 21.9999 12.0004 21.9999C11.4481 21.9999 11.0004 21.5522 11.0004 20.9999V15.9999Z" fill="currentColor"/>
<path opacity="0.25" d="M14.1215 15.5355C13.731 15.145 13.731 14.5118 14.1215 14.1213C14.5121 13.7307 15.1452 13.7307 15.5357 14.1213L19.0713 17.6568C19.4618 18.0473 19.4618 18.6805 19.0713 19.071C18.6808 19.4615 18.0476 19.4615 17.6571 19.071L14.1215 15.5355Z" fill="currentColor"/>
<path d="M3.00037 13C2.44808 13 2.00037 12.5523 2.00037 12C2.00037 11.4477 2.44808 11 3.00037 11L8.00037 11C8.55265 11 9.00037 11.4477 9.00037 12C9.00037 12.5523 8.55265 13 8.00037 13L3.00037 13Z" fill="currentColor"/>
<path opacity="0.75" d="M6.34383 19.0711C5.9533 19.4616 5.32014 19.4616 4.92961 19.0711C4.53909 18.6805 4.53909 18.0474 4.92961 17.6568L8.46515 14.1213C8.85567 13.7308 9.48884 13.7308 9.87936 14.1213C10.2699 14.5118 10.2699 15.145 9.87936 15.5355L6.34383 19.0711Z" fill="currentColor"/>
</svg>
