<svg width="24" height="24" viewBox="0 0 24 24" fill="none" xmlns="http://www.w3.org/2000/svg">
<path fill-rule="evenodd" clip-rule="evenodd" d="M13.6406 1.95909C13.9788 2.29033 13.9844 2.83301 13.6532 3.1712L11.1368 5.74039C11.4205 5.7099 11.7085 5.69427 12 5.69427C16.5139 5.69427 20.1429 9.42526 20.1429 13.99C20.1429 18.5547 16.5139 22.2857 12 22.2857C7.48617 22.2857 3.85718 18.5547 3.85718 13.99C3.85718 13.5166 4.24093 13.1329 4.71432 13.1329C5.18771 13.1329 5.57146 13.5166 5.57146 13.99C5.57146 17.6417 8.46632 20.5714 12 20.5714C15.5337 20.5714 18.4286 17.6417 18.4286 13.99C18.4286 10.3383 15.5337 7.40855 12 7.40855C10.9993 7.40855 10.0526 7.64216 9.20805 8.0598L13.6532 12.5982C13.9844 12.9364 13.9788 13.4791 13.6406 13.8103C13.3024 14.1416 12.7597 14.1359 12.4285 13.7978L7.22442 8.48448C6.89803 8.15124 6.89803 7.61818 7.22442 7.28495L12.4285 1.97167C12.7597 1.63348 13.3024 1.62784 13.6406 1.95909Z" fill="currentColor"/>
</svg>
