<svg viewBox="0 0 24 24" fill="none" xmlns="http://www.w3.org/2000/svg">
<path d="M2.875 5.13184C2.875 6.46359 4.52204 7.0744 5.3916 6.08106L5.39307 6.08398C7.01887 4.26656 9.37873 3.125 12.0054 3.125C16.9034 3.12513 20.875 7.0985 20.875 12.0005C20.8748 15.5118 18.837 18.5488 15.8755 19.9883C15.3168 20.2598 15.0841 20.9325 15.3555 21.4912C15.6271 22.05 16.2996 22.2828 16.8584 22.0112C20.5655 20.2094 23.1248 16.4051 23.125 12.0005C23.125 5.85694 18.1471 0.875128 12.0054 0.875C9.40706 0.875 7.01749 1.76933 5.125 3.2627V2C5.125 1.37868 4.62132 0.875 4 0.875C3.37868 0.875 2.875 1.37868 2.875 2V5.13184Z" fill="currentColor"/>
<path d="M9.89915 20.6355C10.2996 20.6893 10.71 20.7175 11.1267 20.7175C11.7477 20.7179 12.2517 21.2214 12.2517 21.8425C12.2516 22.4635 11.7476 22.9672 11.1267 22.9675C10.6097 22.9675 10.0997 22.9321 9.60032 22.865C8.98454 22.7823 8.55226 22.2166 8.63499 21.6008C8.71774 20.9852 9.2835 20.553 9.89915 20.6355ZM3.20335 17.0642C3.71843 16.7169 4.41745 16.8524 4.76488 17.3674C4.97963 17.6859 5.21272 17.9926 5.46214 18.2844C5.86542 18.7567 5.80975 19.4658 5.33763 19.8694C4.86528 20.273 4.15485 20.2172 3.7512 19.7449C3.44591 19.3876 3.16181 19.0137 2.90013 18.6257C2.55287 18.1108 2.68873 17.4118 3.20335 17.0642ZM1.32103 10.1399C1.93432 10.0415 2.5114 10.4584 2.61009 11.0715C2.66803 11.4326 2.74709 11.7923 2.84739 12.1467C3.01627 12.7444 2.66872 13.3663 2.07103 13.5354C1.47337 13.7043 0.85154 13.3567 0.682356 12.759C0.557912 12.3193 0.460978 11.875 0.389387 11.429C0.290977 10.8157 0.707844 10.2386 1.32103 10.1399Z" fill="currentColor"/>
</svg>
