<svg width="24" height="24" viewBox="0 0 24 24" fill="none" xmlns="http://www.w3.org/2000/svg">
<path d="M11.0923 2.0253C11.3939 1.98034 12.1777 1.99343 12.5213 2.0184C13.3907 2.08157 14.4313 2.41238 15.2712 2.66128C15.5509 2.74416 15.8351 2.92484 16.102 3.01662C16.8174 3.26264 17.3338 3.70334 17.9176 4.16152C17.9782 4.20924 17.9976 4.22557 18.0024 4.2987C17.9288 4.46642 17.6634 4.58304 17.5057 4.6827C17.2869 4.82154 17.0757 4.97199 16.873 5.13335C16.3546 5.54602 16.5682 5.73975 15.9216 5.42555L15.1269 5.03935C13.9478 4.46691 12.2454 4.18491 10.9438 4.34049C9.47398 4.51617 8.03082 5.22963 6.90575 6.16971C6.57188 6.44867 6.28718 6.75385 6.02724 7.10185C5.23132 7.9696 4.87257 8.87161 4.5766 9.9911C4.29511 11.0558 4.26617 12.1457 4.38432 13.2407C4.40351 13.4186 4.47699 13.5961 4.51995 13.7696C4.83603 15.0665 5.39278 16.1167 6.26785 17.1184C6.83035 17.7622 6.86459 17.8074 7.54896 18.306C8.72569 19.1633 9.94606 19.5734 11.3893 19.7063C12.9884 19.8535 14.633 19.3875 15.9725 18.5281C16.212 18.373 16.4951 18.2308 16.7132 18.0395C17.0321 17.7308 17.798 16.9849 18.0284 16.6402C18.6767 15.6705 19.2792 14.3841 19.5022 13.2356C19.5499 12.9901 19.5805 12.4336 19.6014 12.1669C19.6084 12.0715 19.6088 11.963 19.6338 11.8708C19.7129 11.5791 21.0532 10.7178 21.3482 10.5564C21.4334 10.5099 21.537 10.447 21.6364 10.476C21.7127 10.6312 21.7704 11.0533 21.7913 11.2423C22.0342 13.4325 21.3355 15.7348 20.1005 17.539C19.9395 17.7488 19.7992 18.0512 19.6206 18.2425C19.1552 18.6818 18.6342 19.3614 18.1217 19.7362C17.7128 20.0352 16.9927 20.5175 16.537 20.7578C15.5887 21.2578 14.4103 21.6162 13.3571 21.7971C13.0429 21.8511 12.6604 21.8121 12.3405 21.8401C9.93795 21.9305 7.5259 21.1716 5.63241 19.6813C5.09363 19.2572 4.23455 18.2188 3.81139 17.6598C3.33568 16.9855 3.07899 16.2232 2.78234 15.4791C2.46933 14.7692 2.25538 13.8823 2.16999 13.1052C2.10225 12.4887 2.09999 11.5026 2.15324 10.8746C2.27961 9.61064 2.65819 8.49788 3.1995 7.359C3.56827 6.58315 3.7231 6.37324 4.28478 5.73982C4.89136 5.05575 5.44517 4.46442 6.20691 3.93518C6.43969 3.77344 6.65217 3.55097 6.9038 3.40763C7.38394 3.16575 7.97241 2.81803 8.48703 2.65728C9.2427 2.42121 10.3145 2.11781 11.0923 2.0253Z" fill="currentColor"/>
<path d="M19.7834 5.92413C19.9469 5.97567 19.9908 6.16109 20.0711 6.3087L20.5059 7.10027C20.6539 7.37424 20.8019 7.5862 20.9617 7.84786C20.8644 7.95241 20.6981 8.07009 20.5806 8.16607C20.2292 8.451 19.8739 8.75337 19.5042 9.01465C19.2137 9.21991 18.8976 9.40425 18.6053 9.61324C18.414 9.74995 18.2186 9.94509 18.0347 10.0633C17.0641 10.6872 16.1499 11.386 15.2291 12.0798C15.0311 12.2437 14.7412 12.3744 14.5512 12.5389C13.9699 13.0422 13.3705 13.4804 12.7212 13.8923C12.4623 14.0565 12.1499 14.3015 11.8664 14.4211C11.1958 14.039 10.5164 13.6687 9.86437 13.2552C9.47421 13.0077 9.1177 12.715 8.72386 12.47C8.45618 12.3595 8.15686 12.2902 8.13468 11.9598C8.08457 11.2127 8.11804 10.4523 8.12175 9.70303C8.12224 9.60354 8.08033 9.38337 8.12364 9.32498C8.43438 9.26524 11.356 11.554 11.8636 11.7435C11.9447 11.7737 12.0673 11.7128 12.1242 11.6597C12.6946 11.127 13.3618 10.736 13.9747 10.2558C14.2176 10.0694 14.4504 9.84579 14.6843 9.67495L17.0448 7.97611C17.6434 7.55191 18.2192 7.21186 18.7555 6.70174C19.0031 6.4662 19.4812 6.0851 19.7834 5.92413Z" fill="currentColor"/>
</svg>
