<svg width="24" height="24" viewBox="0 0 24 24" fill="none" xmlns="http://www.w3.org/2000/svg">
<path d="M18.8593 12.0078C18.8593 11.3704 19.0779 10.6419 19.4521 10.168L19.4814 10.1328L20.5127 8.98048L20.5136 8.97852C20.7594 8.70514 20.9015 8.54648 20.9922 8.41895C21.0327 8.36185 21.0502 8.32844 21.0576 8.31153C21.0607 8.30429 21.0621 8.30007 21.0625 8.29883V8.29591C21.0624 8.29497 21.0622 8.2906 21.0605 8.28223C21.0568 8.26415 21.0465 8.22783 21.0185 8.16309C20.9563 8.01939 20.8515 7.83426 20.6679 7.51563L20.1738 6.65919C19.9781 6.31956 19.8637 6.12226 19.7636 5.98829C19.7184 5.9277 19.6893 5.89927 19.6748 5.88673L19.664 5.87891H19.663C19.6623 5.87876 19.6586 5.87747 19.6504 5.87696C19.6314 5.87581 19.5911 5.87587 19.5166 5.8877C19.3518 5.91387 19.1325 5.97515 18.7558 6.08204H18.7548L17.5341 6.42579L17.5175 6.43067L17.5 6.43458C16.8688 6.58014 16.206 6.49818 15.6298 6.20216L15.6132 6.19337L15.5976 6.18458L15.2607 5.99024L15.2461 5.98145L15.2314 5.97169C14.7374 5.65532 14.3576 5.18933 14.1474 4.64161L14.1416 4.62598L14.1367 4.61036L13.8027 3.61329L13.8017 3.61231C13.6865 3.26593 13.6191 3.06571 13.5537 2.92481C13.5242 2.86143 13.504 2.83001 13.4931 2.81544C13.4883 2.80895 13.4851 2.8064 13.4843 2.80567L13.4824 2.80372C13.4811 2.8031 13.4774 2.80204 13.4707 2.79981C13.4537 2.79418 13.4179 2.78431 13.3486 2.77637C13.1948 2.75878 12.9845 2.75782 12.6201 2.75782H11.5048C11.1405 2.75782 10.9301 2.75878 10.7763 2.77637C10.7071 2.7843 10.6713 2.79418 10.6543 2.79981C10.6476 2.80202 10.6439 2.80308 10.6425 2.80372L10.6406 2.80567C10.6398 2.80648 10.6365 2.8091 10.6318 2.81544C10.6209 2.83005 10.6007 2.86148 10.5713 2.92481C10.5058 3.06572 10.4384 3.26593 10.3232 3.61231L10.3222 3.61329L9.98824 4.61134L9.98336 4.62598L9.9775 4.64161C9.76734 5.18934 9.38745 5.65533 8.89352 5.97169L8.87887 5.98145L8.86422 5.99024L8.52731 6.18458L8.51168 6.19337L8.49508 6.20216C7.91888 6.49814 7.25617 6.58014 6.62496 6.43458L6.60836 6.43067L6.59078 6.42579L5.37008 6.08204H5.3691C4.99238 5.97514 4.77313 5.91386 4.60836 5.8877C4.53384 5.87587 4.49355 5.87581 4.47457 5.87696C4.46609 5.87749 4.46241 5.8788 4.46188 5.87891H4.4609C4.46039 5.87923 4.45661 5.88118 4.45016 5.88673C4.43561 5.89927 4.40656 5.92768 4.36129 5.98829C4.26123 6.12226 4.14684 6.31956 3.95114 6.65919L3.45699 7.51563C3.27338 7.83429 3.16863 8.01939 3.10641 8.16309C3.07837 8.22786 3.06812 8.26419 3.06442 8.28223C3.0627 8.29059 3.06251 8.29499 3.06246 8.29591V8.29883C3.06278 8.29996 3.06412 8.30414 3.06735 8.31153C3.07474 8.32841 3.09216 8.36181 3.13278 8.41895C3.17812 8.48272 3.23607 8.55473 3.31344 8.64454L3.61129 8.97852L3.61227 8.98048L4.64352 10.1328L4.65817 10.1494L4.67281 10.168C5.04724 10.642 5.26559 11.3705 5.26559 12.0078C5.26556 12.6453 5.04724 13.3736 4.67281 13.8477L4.64352 13.8828L3.61227 15.0352L3.61129 15.0371C3.36544 15.3106 3.22347 15.4692 3.13278 15.5967C3.09213 15.6539 3.07472 15.6873 3.06735 15.7041C3.06406 15.7116 3.06275 15.7158 3.06246 15.7168V15.7197C3.06251 15.7206 3.06271 15.7251 3.06442 15.7334C3.06813 15.7515 3.07837 15.7878 3.10641 15.8525C3.16863 15.9962 3.27338 16.1814 3.45699 16.5L3.95114 17.3565C4.1468 17.696 4.26123 17.8934 4.36129 18.0273C4.40647 18.0878 4.43562 18.1154 4.45016 18.1279L4.4609 18.1367H4.46188C4.4624 18.1368 4.46613 18.1381 4.47457 18.1387C4.49353 18.1398 4.53386 18.1398 4.60836 18.1279C4.7731 18.1018 4.99238 18.0405 5.3691 17.9336L5.37008 17.9326L6.59078 17.5898L6.60739 17.585L6.62496 17.5801C7.25631 17.4345 7.91894 17.5175 8.49508 17.8135L8.51168 17.8223L8.52731 17.8311L8.86422 18.0254L8.87985 18.0342L8.89449 18.044C9.38809 18.3603 9.76742 18.8264 9.9775 19.374L9.98336 19.3897L9.98824 19.4043L10.3222 20.4023L10.3232 20.4033C10.4384 20.7497 10.5058 20.9499 10.5713 21.0908C10.6006 21.1541 10.6209 21.1856 10.6318 21.2002C10.6364 21.2064 10.6397 21.2091 10.6406 21.21L10.6416 21.2109V21.2119C10.6422 21.2123 10.6464 21.2132 10.6543 21.2158C10.6713 21.2215 10.7071 21.2313 10.7763 21.2393C10.9302 21.2569 11.1405 21.2578 11.5048 21.2578H12.6201C12.9844 21.2578 13.1948 21.2569 13.3486 21.2393C13.4178 21.2313 13.4536 21.2215 13.4707 21.2158C13.4785 21.2132 13.4827 21.2123 13.4834 21.2119V21.2109L13.4843 21.21C13.4851 21.2092 13.4884 21.2066 13.4931 21.2002C13.504 21.1856 13.5243 21.1542 13.5537 21.0908C13.6191 20.9499 13.6865 20.7497 13.8017 20.4033L13.8027 20.4023L14.1367 19.4043L14.1416 19.3897L14.1474 19.374C14.3575 18.8262 14.7375 18.3603 15.2314 18.044L15.2461 18.0342L15.2607 18.0254L15.5976 17.8311L15.6132 17.8223L15.6298 17.8135C16.134 17.5545 16.7041 17.4585 17.2617 17.5361L17.5 17.5801L17.5175 17.585L17.5341 17.5898L18.7548 17.9326L18.7558 17.9336C19.1325 18.0405 19.3518 18.1018 19.5166 18.1279C19.5911 18.1398 19.6314 18.1398 19.6504 18.1387C19.6588 18.1382 19.6625 18.1369 19.663 18.1367H19.664C19.6645 18.1364 19.6681 18.1337 19.6748 18.1279C19.6893 18.1154 19.7184 18.0879 19.7636 18.0273C19.8637 17.8934 19.9781 17.696 20.1738 17.3565L20.6679 16.5C20.8515 16.1814 20.9563 15.9962 21.0185 15.8525C21.0465 15.7878 21.0568 15.7515 21.0605 15.7334C21.0622 15.725 21.0624 15.7207 21.0625 15.7197V15.7168C21.0621 15.7157 21.0608 15.7115 21.0576 15.7041C21.0502 15.6872 21.0328 15.6538 20.9922 15.5967C20.9014 15.4691 20.7595 15.3106 20.5136 15.0371L20.5127 15.0352L19.4814 13.8828L19.4521 13.8477C19.0778 13.3737 18.8594 12.6454 18.8593 12.0078ZM20.3593 12.0078C20.3594 12.3628 20.4938 12.7376 20.6211 12.9072L21.6298 14.0342L21.9482 14.3936C22.0475 14.5092 22.1379 14.6207 22.2138 14.7275C22.3771 14.9571 22.5192 15.225 22.5547 15.5615C22.5899 15.8978 22.5073 16.1899 22.3955 16.4482C22.2912 16.689 22.134 16.9604 21.9677 17.249L21.4736 18.1055C21.2961 18.4134 21.1307 18.7027 20.9648 18.9248C20.7869 19.1629 20.5606 19.3904 20.2285 19.5254C19.8962 19.6605 19.575 19.656 19.2812 19.6094C19.0075 19.5659 18.6881 19.4739 18.3466 19.377V19.376L17.1533 19.04C16.8731 18.9777 16.5798 19.0141 16.3232 19.1436L16.0263 19.3154C15.8108 19.4575 15.6438 19.663 15.5498 19.9043L15.2246 20.876L15.2255 20.877C15.1212 21.1906 15.0237 21.4864 14.914 21.7227C14.7963 21.9761 14.6345 22.23 14.3623 22.4268C14.0895 22.6237 13.7964 22.6977 13.5185 22.7295C13.26 22.759 12.9497 22.7578 12.6201 22.7578H11.5048C11.1752 22.7578 10.865 22.759 10.6064 22.7295C10.3285 22.6977 10.0363 22.6236 9.76363 22.4268H9.76266C9.49046 22.23 9.32862 21.9761 9.2109 21.7227C9.1012 21.4864 9.00372 21.1906 8.89938 20.877V20.876L8.57418 19.9043C8.47992 19.6629 8.31332 19.4574 8.09762 19.3154L7.79293 19.1397C7.53807 19.0135 7.24797 18.9781 6.97067 19.04L5.77731 19.376L5.77828 19.377C5.43685 19.4739 5.11742 19.5659 4.84371 19.6094C4.58672 19.6502 4.30852 19.659 4.02047 19.5703L3.89645 19.5264C3.56432 19.3914 3.33804 19.163 3.16012 18.9248C2.9942 18.7027 2.82881 18.4135 2.65133 18.1055L2.15817 17.249C1.99188 16.9605 1.8337 16.689 1.72946 16.4482C1.61762 16.1899 1.53493 15.8979 1.57028 15.5615C1.60566 15.225 1.74787 14.9571 1.9111 14.7275C2.06303 14.5139 2.27261 14.2816 2.49508 14.0342L3.50289 12.9072C3.63024 12.7379 3.76556 12.3632 3.76559 12.0078C3.76559 11.6522 3.63032 11.2764 3.50289 11.1074L2.4941 9.98048V9.9795C2.27213 9.73265 2.06273 9.50131 1.9111 9.28809C1.74787 9.05857 1.60567 8.79061 1.57028 8.45411C1.53494 8.11776 1.61764 7.82576 1.72946 7.56739C1.8337 7.32666 1.99187 7.0552 2.15817 6.76661L2.65133 5.91016C2.82885 5.6021 2.99418 5.313 3.16012 5.09083C3.33806 4.85264 3.56438 4.62433 3.89645 4.48926C4.22865 4.35423 4.55004 4.35963 4.84371 4.40626C5.11741 4.44973 5.43684 4.54179 5.77828 4.63868H5.77731L6.97067 4.97462C7.24824 5.03669 7.53801 5.00129 7.79293 4.87501L8.09762 4.69923C8.31332 4.55713 8.48001 4.3519 8.57418 4.11036L8.89938 3.13868L9.05367 2.68653C9.10463 2.54418 9.15612 2.41097 9.2109 2.29298C9.32862 2.03952 9.49044 1.78561 9.76266 1.58887C10.0354 1.39193 10.3285 1.31793 10.6064 1.28614C10.865 1.2566 11.1752 1.25782 11.5048 1.25782H12.6201C12.9497 1.25782 13.26 1.25661 13.5185 1.28614C13.7964 1.31793 14.0895 1.39186 14.3623 1.58887C14.6345 1.7856 14.7963 2.03952 14.914 2.29298C15.0238 2.52928 15.1212 2.82504 15.2255 3.13868H15.2246L15.5498 4.11036C15.6438 4.35179 15.8109 4.55709 16.0263 4.69923L16.331 4.87501C16.5858 5.00147 16.8757 5.03645 17.1533 4.97462L18.3466 4.63868L18.8398 4.50294C18.9964 4.46245 19.1445 4.42798 19.2812 4.40626C19.5749 4.35963 19.8963 4.35426 20.2285 4.48926C20.5605 4.62432 20.7869 4.85265 20.9648 5.09083C21.1307 5.31299 21.2961 5.60212 21.4736 5.91016L21.9677 6.76661C22.134 7.05523 22.2912 7.32666 22.3955 7.56739C22.5073 7.82577 22.5899 8.11784 22.5547 8.45411C22.5192 8.79061 22.3771 9.05856 22.2138 9.28809C22.0621 9.50145 21.852 9.73244 21.6298 9.9795L20.6211 11.1074C20.4937 11.2768 20.3593 11.6527 20.3593 12.0078Z" fill="currentColor"/>
<path d="M14.7695 12C14.7695 10.4812 13.5383 9.25002 12.0195 9.25C10.5008 9.25 9.26953 10.4812 9.26953 12C9.26953 13.5188 10.5008 14.75 12.0195 14.75C13.5383 14.75 14.7695 13.5188 14.7695 12ZM16.2695 12C16.2695 14.3472 14.3667 16.25 12.0195 16.25C9.67231 16.25 7.76953 14.3472 7.76953 12C7.76953 9.6528 9.67231 7.75 12.0195 7.75C14.3667 7.75002 16.2695 9.6528 16.2695 12Z" fill="currentColor"/>
</svg>
