<svg viewBox="0 0 24 24" fill="none" xmlns="http://www.w3.org/2000/svg">
<path fill-rule="evenodd" clip-rule="evenodd" d="M2.52905 5.06934C2.52905 4.57229 2.932 4.16934 3.42905 4.16934H16.2869C16.7839 4.16934 17.1869 4.57229 17.1869 5.06934C17.1869 5.5664 16.7839 5.96934 16.2869 5.96934H3.42905C2.932 5.96934 2.52905 5.5664 2.52905 5.06934ZM2.52905 9.29885C2.52905 8.8018 2.932 8.39885 3.42905 8.39885H9.85797C10.355 8.39885 10.758 8.8018 10.758 9.29885C10.758 9.79591 10.355 10.1989 9.85797 10.1989H3.42905C2.932 10.1989 2.52905 9.79591 2.52905 9.29885ZM13.333 9.49369C13.936 9.31744 14.5569 9.43648 15.1079 9.84429L15.1314 9.86168L15.1537 9.88056C16.0422 10.632 16.2696 11.636 16.0966 12.6236C15.9337 13.5533 15.4203 14.4929 14.8111 15.3427C14.2661 16.103 13.598 16.8544 12.908 17.5438C13.1204 17.5355 13.4078 17.4845 13.7913 17.3509C14.6366 16.9228 15.7024 16.0844 16.5333 15.3533C17.2443 14.7277 18.3509 14.9808 18.7507 15.7646L20.0782 14.8912C20.4934 14.6181 21.0515 14.7332 21.3247 15.1485C21.5979 15.5637 21.4827 16.1218 21.0675 16.395L19.2676 17.5791C18.549 18.0519 17.6468 17.7607 17.2743 17.0902C16.462 17.7734 15.4461 18.5419 14.5422 18.9879L14.4962 19.0106L14.4479 19.0279C13.3971 19.405 12.4369 19.4743 11.649 19.0814C11.5602 19.0372 11.4766 18.9886 11.3978 18.9362C11.0482 19.2345 10.7127 19.5052 10.406 19.7407C10.0117 20.0433 9.44667 19.969 9.14403 19.5747C8.84139 19.1804 8.91569 18.6154 9.30999 18.3128C9.63698 18.0618 9.99499 17.7707 10.3648 17.4506C10.3393 17.3651 10.3171 17.2796 10.298 17.1946C9.98284 15.7973 10.3452 13.9994 10.7143 12.8337L10.7169 12.8255L10.7197 12.8174C10.9519 12.1298 11.4058 11.1172 12.0402 10.3889C12.3564 10.026 12.7862 9.65346 13.333 9.49369ZM11.9777 15.9211C12.4816 15.3941 12.9553 14.842 13.3482 14.294C13.8962 13.5296 14.2293 12.8513 14.3235 12.3131C14.4056 11.8449 14.3081 11.5345 14.0146 11.275C13.9054 11.1996 13.8634 11.2132 13.8422 11.2201C13.8406 11.2206 13.8392 11.221 13.8379 11.2214C13.7604 11.244 13.6063 11.3315 13.3975 11.5712C12.9838 12.0462 12.6247 12.8051 12.4277 13.3854C12.1814 14.1657 11.9904 15.1117 11.9777 15.9211ZM2.52905 13.1054C2.52905 12.6084 2.932 12.2054 3.42905 12.2054H7.715C8.21206 12.2054 8.615 12.6084 8.615 13.1054C8.615 13.6025 8.21206 14.0054 7.715 14.0054H3.42905C2.932 14.0054 2.52905 13.6025 2.52905 13.1054Z" fill="currentColor"/>
</svg>
