<svg viewBox="0 0 24 24" fill="none" xmlns="http://www.w3.org/2000/svg">
<path d="M17.75 9C17.75 7.33064 17.7485 6.14867 17.6367 5.25293C17.5269 4.37336 17.3216 3.8836 16.998 3.53516C16.6819 3.19488 16.2497 2.98464 15.459 2.87012C14.6401 2.75156 13.5548 2.75 12 2.75C10.4452 2.75 9.35986 2.75156 8.54102 2.87012C7.75028 2.98464 7.31812 3.19488 7.00195 3.53516C6.6784 3.8836 6.47309 4.37336 6.36328 5.25293C6.2515 6.14867 6.25 7.33064 6.25 9V15C6.25 16.6694 6.2515 17.8513 6.36328 18.7471C6.47309 19.6266 6.67838 20.1164 7.00195 20.4648C7.31812 20.8051 7.75027 21.0154 8.54102 21.1299C9.35986 21.2484 10.4452 21.25 12 21.25C13.5548 21.25 14.6401 21.2484 15.459 21.1299C16.2497 21.0154 16.6819 20.8051 16.998 20.4648C17.3216 20.1164 17.5269 19.6266 17.6367 18.7471C17.7485 17.8513 17.75 16.6694 17.75 15V9ZM19.25 15C19.25 16.6302 19.2511 17.9232 19.125 18.9336C18.9968 19.9601 18.7259 20.8087 18.0977 21.4854C17.462 22.1698 16.6525 22.4725 15.6738 22.6143C14.7226 22.752 13.5093 22.75 12 22.75C10.4907 22.75 9.27737 22.752 8.32617 22.6143C7.34748 22.4725 6.53797 22.1698 5.90234 21.4854C5.27407 20.8087 5.00318 19.9601 4.875 18.9336C4.74886 17.9232 4.75 16.6302 4.75 15V9C4.75 7.36981 4.74886 6.07681 4.875 5.06641C5.00318 4.0399 5.27405 3.19127 5.90234 2.51465C6.53797 1.83019 7.34749 1.52747 8.32617 1.38574C9.27737 1.24802 10.4907 1.25 12 1.25C13.5093 1.25 14.7226 1.24802 15.6738 1.38574C16.6525 1.52747 17.462 1.83019 18.0977 2.51465C18.726 3.19127 18.9968 4.0399 19.125 5.06641C19.2511 6.07681 19.25 7.36981 19.25 9V15Z" fill="currentColor"/>
<path d="M12.0088 18C12.5611 18 13.0088 18.4477 13.0088 19C13.0088 19.5523 12.5611 20 12.0088 20H12C11.4477 20 11 19.5523 11 19C11 18.4477 11.4477 18 12 18H12.0088Z" fill="currentColor"/>
<path d="M13 4.25C13.4142 4.25 13.75 4.58579 13.75 5C13.75 5.41421 13.4142 5.75 13 5.75H11C10.5858 5.75 10.25 5.41421 10.25 5C10.25 4.58579 10.5858 4.25 11 4.25H13Z" fill="currentColor"/>
<path d="M20.25 14.1875C20.25 13.4063 20.6809 12.91 20.9199 12.6182C21.1807 12.2997 21.25 12.1852 21.25 12C21.25 11.8148 21.1807 11.7002 20.9199 11.3818C20.6809 11.09 20.25 10.5937 20.25 9.81249C20.25 9.03558 20.6625 8.5145 21.0215 8.21679C21.1999 8.06886 21.3751 7.9662 21.5049 7.90038C21.5706 7.86709 21.6272 7.84192 21.6699 7.82421C21.6912 7.81537 21.7094 7.80812 21.7236 7.80272C21.7308 7.80003 21.737 7.79777 21.7422 7.79589C21.7448 7.79496 21.7469 7.7937 21.749 7.79296C21.75 7.79261 21.7511 7.79229 21.752 7.79198H21.7539V7.79101H21.7549C22.1463 7.65569 22.5736 7.86349 22.709 8.25487C22.8435 8.64399 22.6389 9.06804 22.252 9.20605H22.2539C22.2531 9.20634 22.2504 9.20566 22.2471 9.20702L22.2461 9.208H22.2451V9.20897L22.2441 9.208V9.20897C22.2321 9.21396 22.2105 9.22414 22.1826 9.23827C22.125 9.26753 22.05 9.31181 21.9785 9.37108C21.8376 9.48798 21.75 9.62297 21.75 9.81249C21.75 9.99772 21.8193 10.1122 22.0801 10.4307C22.3191 10.7225 22.75 11.2188 22.75 12C22.75 12.7812 22.3191 13.2775 22.0801 13.5693C21.8193 13.8877 21.75 14.0023 21.75 14.1875C21.75 14.377 21.8376 14.512 21.9785 14.6289C22.05 14.6882 22.125 14.7324 22.1826 14.7617L22.2441 14.791H22.2461L22.2471 14.792C22.2506 14.7934 22.2531 14.7936 22.2539 14.7939H22.252C22.6389 14.9319 22.8435 15.356 22.709 15.7451C22.5736 16.1365 22.1463 16.3443 21.7549 16.209H21.7539V16.208H21.752C21.7511 16.2077 21.75 16.2074 21.749 16.207C21.7469 16.2063 21.7448 16.205 21.7422 16.2041C21.737 16.2022 21.7308 16.2 21.7236 16.1973C21.7094 16.1919 21.6912 16.1846 21.6699 16.1758C21.6272 16.1581 21.5706 16.1329 21.5049 16.0996C21.3751 16.0338 21.1999 15.9311 21.0215 15.7832C20.6625 15.4855 20.25 14.9644 20.25 14.1875Z" fill="currentColor"/>
<path d="M2.25008 14.1875C2.25008 14.0023 2.18077 13.8877 1.92 13.5693C1.68097 13.2775 1.25008 12.7812 1.25008 12C1.25008 11.2188 1.68097 10.7225 1.92 10.4307C2.18077 10.1122 2.25008 9.99772 2.25008 9.81249C2.25008 9.62297 2.16249 9.48798 2.02157 9.37108C1.95009 9.31181 1.87512 9.26753 1.81747 9.23827C1.7896 9.22414 1.76794 9.21396 1.75594 9.20897L1.75399 9.208L1.75301 9.20702C1.74967 9.20566 1.74695 9.20634 1.74618 9.20605H1.74813C1.36116 9.06804 1.15657 8.64399 1.2911 8.25487C1.42652 7.86349 1.8538 7.65569 2.2452 7.79101H2.24618V7.79198H2.24813C2.24901 7.79229 2.25006 7.79261 2.25106 7.79296C2.25314 7.7937 2.25532 7.79496 2.25789 7.79589C2.2631 7.79777 2.26933 7.80003 2.27645 7.80272C2.29073 7.80812 2.30885 7.81537 2.33016 7.82421C2.37284 7.84192 2.42953 7.86709 2.4952 7.90038C2.625 7.9662 2.80021 8.06886 2.9786 8.21679C3.33761 8.5145 3.75008 9.03558 3.75008 9.81249C3.75008 10.5937 3.31919 11.09 3.08016 11.3818C2.8194 11.7002 2.75008 11.8148 2.75008 12C2.75008 12.1852 2.8194 12.2997 3.08016 12.6182C3.31919 12.91 3.75008 13.4063 3.75008 14.1875C3.75008 14.9644 3.33761 15.4855 2.9786 15.7832C2.80021 15.9311 2.625 16.0338 2.4952 16.0996C2.42953 16.1329 2.37284 16.1581 2.33016 16.1758C2.30885 16.1846 2.29073 16.1919 2.27645 16.1973C2.26933 16.2 2.2631 16.2022 2.25789 16.2041C2.25532 16.205 2.25314 16.2063 2.25106 16.207C2.25006 16.2074 2.24901 16.2077 2.24813 16.208H2.24618V16.209H2.2452C1.8538 16.3443 1.42652 16.1365 1.2911 15.7451C1.15657 15.356 1.36116 14.9319 1.74813 14.7939H1.74618C1.74697 14.7936 1.74948 14.7934 1.75301 14.792L1.75399 14.791H1.75594L1.81747 14.7617C1.87512 14.7324 1.95009 14.6882 2.02157 14.6289C2.16249 14.512 2.25008 14.377 2.25008 14.1875Z" fill="currentColor"/>
</svg>
