<svg width="24" height="24" viewBox="0 0 24 24" fill="none" xmlns="http://www.w3.org/2000/svg">
<path d="M19.4316 13.5107C19.702 13.1971 20.1755 13.1615 20.4893 13.4316C20.8029 13.702 20.8385 14.1755 20.5684 14.4893L18.9824 16.3291C18.6635 16.6991 18.3749 17.0365 18.1094 17.2715C17.8327 17.5164 17.4736 17.75 17 17.75C16.5264 17.75 16.1673 17.5164 15.8906 17.2715C15.758 17.1541 15.6196 17.0113 15.4746 16.8516L15.0176 16.3291L13.4316 14.4893L13.3848 14.4287C13.1671 14.1172 13.2167 13.6851 13.5108 13.4316C13.8049 13.1785 14.2388 13.1939 14.5147 13.4551L14.5684 13.5107L16.1543 15.3506L16.585 15.8437C16.7029 15.974 16.799 16.0725 16.8848 16.1484C16.9382 16.1957 16.9763 16.2213 17 16.2363C17.0237 16.2213 17.0618 16.1957 17.1152 16.1484C17.2866 15.9968 17.4982 15.7538 17.8457 15.3506L19.4316 13.5107Z" fill="currentColor"/>
<path d="M16.25 17V11C16.25 9.58013 16.2494 8.57157 16.1699 7.79004C16.1015 7.11706 15.979 6.67624 15.7881 6.33496L15.7021 6.19434C15.4946 5.88389 15.2357 5.61163 14.9365 5.38965L14.8057 5.29785C14.445 5.05686 13.979 4.90831 13.21 4.83008C12.4284 4.7506 11.4199 4.75 10 4.75C8.58012 4.75 7.57157 4.7506 6.79004 4.83008C6.11706 4.89854 5.67624 5.02102 5.33496 5.21191L5.19434 5.29785C4.8839 5.5053 4.61164 5.76425 4.38965 6.06348L4.29785 6.19434C4.05686 6.55501 3.90831 7.021 3.83008 7.79004C3.7506 8.57157 3.75 9.58012 3.75 11V17C3.75 17.4142 3.41421 17.75 3 17.75C2.58579 17.75 2.25 17.4142 2.25 17V11C2.25 9.61115 2.24887 8.51281 2.33789 7.6377C2.42819 6.75019 2.61773 6.00947 3.05078 5.36133L3.18555 5.16992C3.51 4.73262 3.90762 4.35395 4.36133 4.05078L4.6084 3.89941C5.19662 3.5718 5.86101 3.41692 6.6377 3.33789C7.51281 3.24887 8.61115 3.25 10 3.25C11.3888 3.25 12.4872 3.24887 13.3623 3.33789C14.2498 3.42819 14.9905 3.61773 15.6387 4.05078L15.8301 4.18555C16.2673 4.50999 16.646 4.90765 16.9492 5.36133L17.1006 5.6084C17.4282 6.19663 17.5831 6.86101 17.6621 7.6377C17.7511 8.5128 17.75 9.61115 17.75 11V17C17.75 17.4142 17.4142 17.75 17 17.75C16.5858 17.75 16.25 17.4142 16.25 17Z" fill="currentColor"/>
<path d="M13 19.25C13.4142 19.25 13.75 19.5858 13.75 20C13.75 20.4142 13.4142 20.75 13 20.75H7C6.58579 20.75 6.25 20.4142 6.25 20C6.25 19.5858 6.58579 19.25 7 19.25H13Z" fill="currentColor"/>
</svg>
