<svg viewBox="0 0 24 24" fill="none" xmlns="http://www.w3.org/2000/svg">
<path fill-rule="evenodd" clip-rule="evenodd" d="M19.8076 2.36477C20.6106 2.17978 21.4401 2.16018 22.0901 2.76145C22.7272 3.35082 22.8035 4.18109 22.7242 5.01789C22.6454 5.84819 22.3864 6.92802 22.0668 8.26006L19.6611 18.2887L19.6475 18.3457C19.4437 19.1952 19.2718 19.9123 19.0655 20.4326C18.8572 20.9579 18.5232 21.522 17.8484 21.7005C17.1653 21.8811 16.6009 21.5444 16.1719 21.1813C15.7505 20.8247 15.27 20.2783 14.7041 19.6349L14.6636 19.5889L12.0441 16.6107L10.6702 18.52C10.6599 18.5342 10.6497 18.5484 10.6395 18.5626C10.3765 18.9281 10.1324 19.2675 9.90772 19.5001C9.68447 19.7312 9.27886 20.0709 8.71388 19.9586C8.15631 19.8476 7.9059 19.3866 7.78202 19.0908C7.65621 18.7903 7.54964 18.3829 7.43403 17.9409L7.42096 17.8909L6.93251 16.0243C6.65397 14.9599 6.55777 14.6539 6.37648 14.4286C6.35347 14.4 6.32976 14.3727 6.30545 14.3467C6.11409 14.1418 5.84341 14.0152 4.85351 13.6185L4.80011 13.5971C3.82413 13.2059 3.02022 12.8837 2.45796 12.5671C1.91342 12.2605 1.32544 11.8148 1.25776 11.0628M11.012 15.4769C10.8819 15.3403 10.7536 15.2007 10.6555 15.0668C10.5151 14.875 10.3751 14.6152 10.3751 14.2775C10.3751 13.9399 10.5151 13.68 10.6555 13.4882C10.7761 13.3234 10.9426 13.15 11.1018 12.9842C11.11 12.9757 11.1182 12.9671 11.1264 12.9586L14.6994 9.23483C14.9862 8.93595 15.461 8.92614 15.7599 9.21293C16.0587 9.49971 16.0685 9.97448 15.7818 10.2734L12.2088 13.997C12.1165 14.0933 12.0445 14.1684 11.9844 14.2343C11.9701 14.2499 11.9572 14.2643 11.9456 14.2775C11.9572 14.2907 11.9701 14.305 11.9843 14.3206C12.0445 14.3865 12.1164 14.4616 12.2088 14.5578L12.5266 14.889C12.5341 14.8969 12.5414 14.9048 12.5486 14.913L15.7899 18.5983C16.4074 19.3002 16.8147 19.7603 17.1409 20.0363C17.2986 20.1698 17.3954 20.2228 17.4466 20.2422C17.4554 20.2455 17.4619 20.2475 17.4663 20.2486L17.4688 20.2464C17.4732 20.2425 17.48 20.2358 17.489 20.2251C17.5296 20.1774 17.5927 20.0776 17.6711 19.8797C17.8329 19.4716 17.9812 18.8614 18.2025 17.9389L20.5936 7.97096C20.9312 6.56339 21.1634 5.58776 21.2309 4.87624C21.2989 4.15863 21.1722 3.95575 21.0715 3.86258C20.9837 3.78133 20.8048 3.67432 20.1444 3.82648C19.4819 3.97911 18.5865 4.33232 17.2829 4.84989L5.41551 9.56156C4.37096 9.97628 3.66059 10.2601 3.1949 10.5203C2.96609 10.6481 2.84612 10.744 2.78636 10.809C2.76357 10.8337 2.75439 10.8489 2.75149 10.8542C2.74953 10.8776 2.7495 10.9011 2.75139 10.9244C2.75425 10.9298 2.76338 10.945 2.78619 10.9699C2.84578 11.0351 2.96549 11.1315 3.19391 11.2601C3.6588 11.5218 4.36831 11.808 5.41158 12.2261C5.45548 12.2437 5.49886 12.2611 5.5417 12.2782C6.33966 12.5972 6.95297 12.8424 7.40134 13.3225C7.45148 13.3761 7.49936 13.4314 7.54495 13.488C7.95349 13.9957 8.12285 14.6447 8.34726 15.5052C8.35921 15.551 8.37133 15.5975 8.38364 15.6445L8.87209 17.5111C8.94653 17.7956 9.00456 18.0151 9.05516 18.1865C9.16016 18.0493 9.28825 17.8723 9.45263 17.6438L11.012 15.4769ZM19.8076 2.36477C19.02 2.54623 18.0175 2.94426 16.7916 3.43102L19.8076 2.36477ZM16.7916 3.43102L16.7293 3.45575L16.7916 3.43102ZM16.7293 3.45575L4.862 8.16742L16.7293 3.45575ZM4.862 8.16742L4.80801 8.18886L4.862 8.16742ZM4.80801 8.18886C3.83108 8.57669 3.02637 8.89616 2.46325 9.2108L4.80801 8.18886ZM2.46325 9.2108C1.91779 9.51557 1.32829 9.95939 1.2583 10.7113L2.46325 9.2108ZM1.2583 10.7113C1.24742 10.8281 1.24724 10.9459 1.25776 11.0628L1.2583 10.7113Z" fill="currentColor"/>
<path d="M1.25776 11.0628L19.8076 2.36477L16.7916 3.43102L16.7293 3.45575L4.862 8.16742L4.80801 8.18886L2.46325 9.2108L1.2583 10.7113L1.25776 11.0628Z" fill="currentColor"/>
</svg>
