<svg viewBox="0 0 24 24" fill="none" xmlns="http://www.w3.org/2000/svg">
<path fill-rule="evenodd" clip-rule="evenodd" d="M8.33395 4.28335C7.8703 4.28335 7.42793 4.47795 7.11462 4.81974L6.54237 5.44401H17.4588L16.8865 4.81974C16.5732 4.47795 16.1308 4.28335 15.6672 4.28335H8.33395ZM19.0426 7.24401H4.95855C4.82747 7.48483 4.75728 7.75642 4.75728 8.03481V16.8959C4.75728 18.2797 5.87901 19.4014 7.26274 19.4014H16.7384C18.1221 19.4014 19.2439 18.2797 19.2439 16.8959V8.03481C19.2439 7.75642 19.1737 7.48483 19.0426 7.24401ZM3.79992 5.77403C3.25714 6.40098 2.95728 7.20336 2.95728 8.03481V16.8959C2.95728 19.2738 4.8849 21.2014 7.26274 21.2014H16.7384C19.1162 21.2014 21.0439 19.2738 21.0439 16.8959V8.03481C21.0439 7.17062 20.7199 6.33783 20.136 5.70079L18.2134 3.60343C17.5592 2.88972 16.6354 2.48335 15.6672 2.48335H8.33395C7.36574 2.48335 6.44199 2.88972 5.78775 3.60343L3.86517 5.70079C3.85809 5.70852 3.85104 5.71628 3.84403 5.72406C3.82873 5.74016 3.81401 5.75683 3.79992 5.77403ZM12.0006 17.5434C12.4976 17.5434 12.9006 17.1405 12.9006 16.6434V12.3453L14.2532 13.6365C14.6128 13.9797 15.1825 13.9665 15.5257 13.6069C15.8689 13.2474 15.8557 12.6777 15.4961 12.3345L12.622 9.591C12.2742 9.25902 11.7269 9.25902 11.3791 9.591L8.50504 12.3345C8.14549 12.6777 8.13224 13.2474 8.47545 13.6069C8.81865 13.9665 9.38835 13.9797 9.7479 13.6365L11.1006 12.3453V16.6434C11.1006 17.1405 11.5035 17.5434 12.0006 17.5434Z" fill="currentColor"/>
</svg>
