<svg width="24" height="24" viewBox="0 0 24 24" fill="none" xmlns="http://www.w3.org/2000/svg">
<path fill-rule="evenodd" clip-rule="evenodd" d="M16.2047 5.75C16.0119 5.75 15.825 5.7689 15.6458 5.80444C15.2395 5.88502 14.8448 5.62097 14.7642 5.21467C14.6836 4.80837 14.9477 4.41368 15.354 4.3331C15.629 4.27856 15.9137 4.25 16.2047 4.25C18.371 4.25 20.2499 5.86425 20.2499 8C20.2499 10.1358 18.371 11.75 16.2047 11.75C15.9137 11.75 15.629 11.7215 15.3538 11.6668C14.9475 11.5862 14.6836 11.1914 14.7643 10.7851C14.8449 10.3788 15.2397 10.1149 15.646 10.1956C15.825 10.2311 16.0119 10.25 16.2047 10.25C17.6782 10.25 18.7499 9.17795 18.7499 8C18.7499 6.82205 17.6782 5.75 16.2047 5.75ZM16.7499 15C16.7499 14.5858 17.0857 14.25 17.4999 14.25C18.0268 14.25 18.7295 14.3915 19.4236 14.6069C20.1291 14.8258 20.8914 15.1414 21.5412 15.5305C22.1629 15.9027 22.8027 16.4132 23.0921 17.0718C23.2473 17.4251 23.3035 17.8273 23.1902 18.2448C23.0797 18.6521 22.8272 19.0034 22.4911 19.3033L22.491 19.3033C21.5971 20.1006 20.5115 20.75 19.1062 20.75H18.616C18.2018 20.75 17.866 20.4142 17.866 20C17.866 19.5858 18.2018 19.25 18.616 19.25H19.1062C20.0005 19.25 20.7441 18.8516 21.4926 18.1839C21.6779 18.0186 21.7285 17.9039 21.7426 17.8521C21.7539 17.8104 21.7561 17.7602 21.7188 17.6753C21.6231 17.4575 21.3234 17.1484 20.7706 16.8174C20.2459 16.5032 19.5988 16.2318 18.9791 16.0395C18.3482 15.8438 17.81 15.75 17.4999 15.75C17.0857 15.75 16.7499 15.4142 16.7499 15Z" fill="currentColor"/>
<path d="M6.11023 16.2207L4.1271 15.4501C4.03401 15.5 3.91755 15.5591 3.78469 15.6265L1.64374 16.9481L0.762365 18.4123L1.60574 20.2168L4.84222 20.2168C4.01144 20.1007 3.29242 19.6871 2.58212 19.078C2.2287 18.775 2.24829 18.6182 2.25142 18.5931C2.26137 18.5112 2.33873 18.3349 2.63527 18.0736C3.10459 17.6602 3.77835 17.316 4.37076 17.0134C4.53387 16.93 4.69082 16.8499 4.83563 16.7723C5.24438 16.5532 5.67118 16.3694 6.11023 16.2207Z" fill="currentColor"/>
<path d="M13.873 15.4501C10.887 13.85 7.11307 13.85 4.1271 15.4501L6.11023 16.2207C8.40305 15.4445 11.0298 15.6283 13.1645 16.7723C13.3093 16.8499 13.4662 16.93 13.6293 17.0133C14.2217 17.316 14.8955 17.6602 15.3649 18.0736C15.6614 18.3349 15.7389 18.5121 15.7488 18.5941C15.7519 18.6191 15.7714 18.775 15.418 19.078C15.1998 19.2651 14.9808 19.4337 14.758 19.5809L16.3943 20.2168C16.9775 19.7168 17.322 19.1062 17.2378 18.4123C17.1608 17.7786 16.7447 17.2901 16.3564 16.9481C15.7265 16.3932 14.8078 15.9271 14.2154 15.6265C14.0825 15.5591 13.9661 15.5 13.873 15.4501Z" fill="currentColor"/>
<path d="M12.6744 20.25H5.32577C5.16014 20.25 4.99918 20.2387 4.84222 20.2168L1.60574 20.2168C2.60066 21.0698 3.79248 21.75 5.32577 21.75H12.6744C14.2076 21.75 15.3994 21.0698 16.3943 20.2168L13.1579 20.2168C13.001 20.2387 12.84 20.25 12.6744 20.25Z" fill="currentColor"/>
<path d="M16.3943 20.2168L14.758 19.5809C14.2555 19.9131 13.7335 20.1363 13.1579 20.2168L16.3943 20.2168Z" fill="currentColor"/>
<path d="M0.762365 18.4123C0.678088 19.1061 1.02264 19.7168 1.60574 20.2168L0.762365 18.4123Z" fill="currentColor"/>
<path d="M1.64374 16.9481C1.25545 17.2901 0.839334 17.7785 0.762365 18.4123L1.64374 16.9481Z" fill="currentColor"/>
<path d="M3.78469 15.6265C3.19228 15.9271 2.27359 16.3932 1.64374 16.9481L3.78469 15.6265Z" fill="currentColor"/>
<path fill-rule="evenodd" clip-rule="evenodd" d="M9 4.25C7.20507 4.25 5.75 5.70507 5.75 7.5C5.75 9.29493 7.20507 10.75 9 10.75C10.7949 10.75 12.25 9.29492 12.25 7.5C12.25 5.70508 10.7949 4.25 9 4.25ZM4.25 7.5C4.25 4.87665 6.37665 2.75 9 2.75C11.6233 2.75 13.75 4.87664 13.75 7.5C13.75 10.1234 11.6233 12.25 9 12.25C6.37665 12.25 4.25 10.1234 4.25 7.5Z" fill="currentColor"/>
</svg>
