<svg viewBox="0 0 24 24" fill="none" xmlns="http://www.w3.org/2000/svg">
<path fill-rule="evenodd" clip-rule="evenodd" d="M12 20.7818C16.8501 20.7818 20.7818 16.8501 20.7818 12C20.7818 7.14994 16.8501 3.21818 12 3.21818C7.14994 3.21818 3.21818 7.14994 3.21818 12C3.21818 16.8501 7.14994 20.7818 12 20.7818ZM12 22.5C17.799 22.5 22.5 17.799 22.5 12C22.5 6.20101 17.799 1.5 12 1.5C6.20101 1.5 1.5 6.20101 1.5 12C1.5 17.799 6.20101 22.5 12 22.5Z" fill="currentColor"/>
<path fill-rule="evenodd" clip-rule="evenodd" d="M12 6.36818C12.4745 6.36818 12.8591 6.75281 12.8591 7.22727V12.4773C12.8591 12.9517 12.4745 13.3364 12 13.3364C11.5255 13.3364 11.1409 12.9517 11.1409 12.4773V7.22727C11.1409 6.75281 11.5255 6.36818 12 6.36818Z" fill="currentColor"/>
<path d="M13.1932 16.5341C13.1932 17.1931 12.659 17.7273 12 17.7273C11.341 17.7273 10.8068 17.1931 10.8068 16.5341C10.8068 15.8751 11.341 15.3409 12 15.3409C12.659 15.3409 13.1932 15.8751 13.1932 16.5341Z" fill="currentColor"/>
</svg>
