<svg width="24" height="24" viewBox="0 0 24 24" fill="none" xmlns="http://www.w3.org/2000/svg">
<path d="M21.2501 12C21.2501 6.89137 17.1087 2.75 12.0001 2.75C6.89145 2.75 2.75009 6.89136 2.75009 12C2.75009 13.2768 3.0083 14.4913 3.4747 15.5957C3.61121 15.9189 3.72414 16.1868 3.8038 16.4043C3.88215 16.6182 3.95174 16.8433 3.96786 17.0762C3.9959 17.4814 3.87299 17.9033 3.7413 18.3955L3.05966 20.9395L5.60458 20.2588C6.09662 20.1272 6.51862 20.0041 6.92392 20.0322L7.09677 20.0537C7.26851 20.0836 7.43528 20.1375 7.59579 20.1963C7.81331 20.276 8.0812 20.3889 8.40439 20.5254C9.50879 20.9918 10.7233 21.25 12.0001 21.25C17.1087 21.25 21.2501 17.1086 21.2501 12ZM22.7501 12C22.7501 17.937 17.9371 22.75 12.0001 22.75C10.5191 22.75 9.10615 22.4502 7.8204 21.9072C7.48316 21.7648 7.25527 21.6686 7.08017 21.6045C6.99088 21.5718 6.93026 21.5526 6.88974 21.542L6.8204 21.5283C6.72656 21.5218 6.59843 21.5458 5.99228 21.708L2.19442 22.7246C1.93567 22.7938 1.65922 22.7197 1.46982 22.5303C1.28042 22.3409 1.20625 22.0644 1.27548 21.8057L2.29208 18.0078C2.45423 17.4018 2.47827 17.2736 2.47177 17.1797C2.4706 17.1629 2.46092 17.0983 2.3956 16.9199C2.33146 16.7448 2.2353 16.5169 2.09286 16.1797C1.54981 14.8939 1.25009 13.4809 1.25009 12C1.25009 6.06294 6.06302 1.25 12.0001 1.25C17.9371 1.25 22.7501 6.06293 22.7501 12Z" fill="currentColor"/>
<path d="M16.2392 14.7812C16.2368 14.7608 16.2312 14.744 16.2285 14.7295C15.5713 14.6265 15.0811 14.5504 14.7343 14.5C14.5551 14.4739 14.4209 14.4552 14.3252 14.4443L14.2353 14.4336C14.1179 14.4405 13.9916 14.4866 13.8154 14.6074C13.6049 14.7517 13.464 14.8921 13.1748 15.125L12.8945 15.3496C13.6101 15.722 14.3511 15.9935 15.0937 16.1611C15.5333 16.2604 15.5874 16.2618 15.7089 16.2363C15.7538 16.2269 15.8596 16.1833 15.9814 16.0859C16.103 15.9887 16.1693 15.8953 16.1884 15.8535C16.2356 15.7503 16.25 15.6511 16.25 15.0264C16.2499 14.9283 16.2471 14.8484 16.2392 14.7812ZM8.97359 7.74999C8.34882 7.74999 8.24959 7.76439 8.14644 7.81151C8.10476 7.83058 8.01135 7.89679 7.91402 8.01854C7.8167 8.14029 7.77306 8.24611 7.76363 8.291C7.7382 8.41247 7.73955 8.46657 7.83882 8.90624C8.00641 9.6484 8.27729 10.3893 8.64937 11.1045L8.87496 10.8252C9.10786 10.5359 9.24821 10.3951 9.39253 10.1846C9.51329 10.0084 9.55941 9.88207 9.56636 9.76464L9.55562 9.67479C9.54473 9.579 9.526 9.44482 9.49996 9.26561C9.44953 8.91868 9.37258 8.42823 9.26949 7.77049C9.25521 7.76788 9.23864 7.76309 9.21871 7.76073C9.15158 7.75279 9.07167 7.74999 8.97359 7.74999ZM17.75 15.0264C17.75 15.542 17.7642 16.0135 17.5527 16.4765C17.4083 16.7927 17.163 17.0619 16.9179 17.2578C16.6729 17.4536 16.3566 17.6338 16.0166 17.7051C15.5287 17.8072 15.1624 17.7143 14.7627 17.624C12.8385 17.1895 10.9514 16.1731 9.38863 14.6103C7.8262 13.0477 6.81045 11.1612 6.37593 9.23729C6.28568 8.83759 6.19275 8.47115 6.29488 7.98338C6.36613 7.64331 6.54632 7.32701 6.74214 7.08202C6.93803 6.83697 7.20723 6.59167 7.52339 6.44725C7.98644 6.23576 8.458 6.24999 8.97359 6.24999C9.194 6.24999 9.5653 6.25653 9.90816 6.3994C10.3178 6.57018 10.6557 6.92229 10.7421 7.47362C10.8497 8.1599 10.9308 8.68128 10.9843 9.04979C11.0111 9.2337 11.0323 9.38645 11.0459 9.50585C11.057 9.60398 11.0709 9.73881 11.0644 9.85155V9.85253C11.0356 10.3418 10.8364 10.7307 10.6298 11.0322C10.4467 11.2995 10.177 11.5991 10.0429 11.7656L9.4941 12.4463C9.78017 12.8289 10.0987 13.1983 10.4502 13.5498C10.8011 13.9008 11.1698 14.2191 11.5517 14.5049L12.2343 13.957C12.4009 13.8229 12.7005 13.5533 12.9677 13.3701C13.2692 13.1635 13.6581 12.9643 14.1474 12.9355H14.1484C14.2611 12.929 14.3959 12.9429 14.4941 12.9541C14.6135 12.9677 14.7662 12.9889 14.9502 13.0156C15.3187 13.0692 15.8401 13.1502 16.5263 13.2578C17.0776 13.3442 17.4297 13.6821 17.6005 14.0918C17.7434 14.4346 17.7499 14.8059 17.75 15.0264Z" fill="currentColor"/>
</svg>
