<svg width="20" height="20" viewBox="0 0 20 20" fill="none" xmlns="http://www.w3.org/2000/svg">
<path fill-rule="evenodd" clip-rule="evenodd" d="M9.37417 2.35331C9.72311 2.01556 10.2771 2.01556 10.626 2.35331L15.126 6.70886C15.4832 7.05456 15.4925 7.62433 15.1468 7.98149C14.8011 8.33864 14.2313 8.34794 13.8742 8.00224L10.0001 4.25253L6.12603 8.00224C5.76887 8.34794 5.1991 8.33864 4.85341 7.98149C4.50772 7.62433 4.51701 7.05456 4.87417 6.70886L9.37417 2.35331ZM4.85341 12.0185C5.1991 11.6614 5.76887 11.6521 6.12603 11.9978L10.0001 15.7475L13.8742 11.9978C14.2313 11.6521 14.8011 11.6614 15.1468 12.0185C15.4925 12.3757 15.4832 12.9454 15.126 13.2911L10.626 17.6467C10.2771 17.9844 9.72311 17.9844 9.37417 17.6467L4.87417 13.2911C4.51701 12.9454 4.50771 12.3757 4.85341 12.0185Z" fill="currentColor"/>
</svg>
