<svg width="20" height="20" viewBox="0 0 20 20" fill="none" xmlns="http://www.w3.org/2000/svg">
<path fill-rule="evenodd" clip-rule="evenodd" d="M7.59459 3.25C4.73448 3.25 2.41642 5.56769 2.41642 8.42606C2.41642 11.2844 4.73448 13.6021 7.59459 13.6021C9.02542 13.6021 10.3195 13.023 11.2574 12.0848C12.1946 11.1473 12.7728 9.85489 12.7728 8.42606C12.7728 5.56769 10.4547 3.25 7.59459 3.25ZM0.916504 8.42606C0.916504 4.73869 3.90667 1.75 7.59459 1.75C11.2825 1.75 14.2727 4.73869 14.2727 8.42606C14.2727 9.99863 13.7281 11.4451 12.8183 12.5856L17.1963 16.97C17.489 17.2631 17.4887 17.738 17.1956 18.0307C16.9025 18.3234 16.4277 18.3231 16.135 18.03L11.7577 13.6463C10.6164 14.557 9.16864 15.1021 7.59459 15.1021C3.90667 15.1021 0.916504 12.1134 0.916504 8.42606Z" fill="currentColor"/>
</svg>
