<svg width="28" height="28" viewBox="0 0 28 28" fill="none" xmlns="http://www.w3.org/2000/svg">
<path fill-rule="evenodd" clip-rule="evenodd" d="M14.507 5.36309C14.1738 5.27897 13.825 5.27897 13.4918 5.36309C13.1541 5.44833 12.8175 5.66955 11.7632 6.41939L7.5388 9.42393C6.76233 9.97618 6.52666 10.1543 6.36099 10.3648C6.19759 10.5725 6.07536 10.8094 6.00088 11.0629C5.92537 11.3199 5.91678 11.6152 5.91678 12.568V18.6649C5.91678 19.5125 5.91747 20.0941 5.9543 20.5448C5.99027 20.9851 6.05617 21.2207 6.14281 21.3907C6.34164 21.781 6.6589 22.0982 7.04913 22.297C7.21918 22.3837 7.45478 22.4496 7.89502 22.4856C8.34577 22.5224 8.92735 22.5231 9.77496 22.5231H18.2238C19.0714 22.5231 19.653 22.5224 20.1038 22.4856C20.544 22.4496 20.7796 22.3837 20.9497 22.297C21.3399 22.0982 21.6572 21.781 21.856 21.3907C21.9426 21.2207 22.0085 20.9851 22.0445 20.5448C22.0813 20.0941 22.082 19.5125 22.082 18.6649V12.568C22.082 11.6152 22.0734 11.3199 21.9979 11.0629C21.9234 10.8094 21.8012 10.5725 21.6378 10.3648C21.4721 10.1543 21.2365 9.97618 20.46 9.42393L16.2356 6.41939C15.1813 5.66955 14.8447 5.44833 14.507 5.36309ZM13.0512 3.61785C13.6736 3.46072 14.3252 3.46072 14.9476 3.61785C15.6557 3.79659 16.2838 4.24393 17.1446 4.85701C17.1887 4.88843 17.2334 4.92028 17.2788 4.95255L21.5033 7.9571C21.536 7.98042 21.5684 8.0034 21.6003 8.02608C22.2389 8.47977 22.706 8.81167 23.0523 9.25159C23.3575 9.63939 23.5858 10.0819 23.7249 10.5554C23.8827 11.0926 23.8824 11.6656 23.8821 12.4489C23.882 12.4881 23.882 12.5278 23.882 12.568V18.7026C23.882 19.5033 23.882 20.1587 23.8385 20.6914C23.7935 21.243 23.6973 21.7418 23.4598 22.2079C23.0884 22.9368 22.4958 23.5295 21.7669 23.9009C21.3008 24.1383 20.8019 24.2345 20.2504 24.2796C19.7176 24.3231 19.0623 24.3231 18.2615 24.3231H9.7373C8.93653 24.3231 8.28116 24.3231 7.74844 24.2796C7.19689 24.2345 6.69804 24.1383 6.23194 23.9009C5.50303 23.5295 4.9104 22.9368 4.539 22.2079C4.30151 21.7418 4.20534 21.243 4.16028 20.6914C4.11676 20.1587 4.11676 19.5033 4.11677 18.7025L4.11678 12.568C4.11678 12.5278 4.11676 12.4881 4.11674 12.4489C4.11635 11.6656 4.11607 11.0926 4.27388 10.5554C4.413 10.0819 4.64132 9.63939 4.94654 9.25159C5.29278 8.81168 5.75993 8.47977 6.39847 8.02609C6.4304 8.00341 6.46275 7.98042 6.49554 7.9571L10.72 4.95255C10.7654 4.92028 10.8101 4.88843 10.8542 4.85701C11.715 4.24393 12.3431 3.79659 13.0512 3.61785ZM13.9994 10.0118C14.4965 10.0118 14.8994 10.4148 14.8994 10.9118V14.0048H17.9623C18.4594 14.0048 18.8623 14.4077 18.8623 14.9048C18.8623 15.4019 18.4594 15.8048 17.9623 15.8048H14.8994V18.8977C14.8994 19.3948 14.4965 19.7977 13.9994 19.7977C13.5023 19.7977 13.0994 19.3948 13.0994 18.8977V15.8048H10.0365C9.53942 15.8048 9.13648 15.4019 9.13648 14.9048C9.13648 14.4077 9.53942 14.0048 10.0365 14.0048H13.0994V10.9118C13.0994 10.4148 13.5023 10.0118 13.9994 10.0118Z" fill="#2990FF"/>
</svg>
