<svg width="28" height="28" viewBox="0 0 28 28" fill="none" xmlns="http://www.w3.org/2000/svg">
<path fill-rule="evenodd" clip-rule="evenodd" d="M22.7952 5.83193C22.3908 5.17272 21.6653 4.82508 20.9376 4.91368C20.7665 4.93451 20.4726 5.04779 19.9 5.45477C19.3415 5.85182 18.6354 6.43912 17.6407 7.26762L16.4791 8.2352V16.5191L17.856 17.4895C18.8257 18.173 19.5102 18.6546 20.0503 18.9758C20.5997 19.3025 20.8816 19.388 21.0518 19.3981C21.7563 19.4401 22.4385 19.0783 22.8158 18.4351C22.9114 18.2721 23.0029 17.9722 23.0516 17.3196C23.0995 16.6772 23.1001 15.8217 23.1001 14.6135V9.97857C23.1001 8.6629 23.0995 7.72673 23.0478 7.02808C22.995 6.3134 22.895 5.99464 22.7952 5.83193ZM14.6791 16.0859V8.71354H8.2567C7.58293 8.71354 7.12396 8.71405 6.76703 8.7391C6.41869 8.76355 6.23503 8.80815 6.10465 8.8637C5.63376 9.06432 5.25184 9.45274 5.05096 9.95156C4.9935 10.0943 4.9492 10.2915 4.92513 10.6543C4.90057 11.0246 4.90011 11.4998 4.90011 12.1917V13.7377C4.90011 14.0623 4.90095 14.1674 4.9079 14.2479C4.99358 15.2399 5.75172 15.9944 6.66862 16.0781C6.74277 16.0849 6.84082 16.0859 7.158 16.0859H14.6791ZM15.2533 6.91354L16.5195 5.85888C17.4766 5.06174 18.2355 4.42957 18.8571 3.98768C19.4714 3.55099 20.0764 3.20524 20.7201 3.12688C22.1649 2.95098 23.5664 3.64683 24.3295 4.89073C24.6675 5.44169 24.7863 6.13036 24.8429 6.89529C24.9001 7.6684 24.9001 8.67147 24.9001 9.93985V14.6518C24.9001 15.8132 24.9001 16.736 24.8466 17.4535C24.7933 18.1686 24.6808 18.8133 24.3684 19.3459C23.6577 20.5575 22.3428 21.2782 20.9448 21.195C20.3266 21.1581 19.7355 20.8828 19.1303 20.5229C18.5229 20.1617 17.7814 19.6391 16.8516 18.9838L15.2938 17.8859H14.9001V21.356C14.9001 23.2892 13.37 24.9 11.4296 24.9C10.7734 24.9 10.1172 24.7117 9.55583 24.3307C8.30879 23.4842 7.40331 22.7153 6.87473 21.5313C6.44239 20.5629 6.29934 19.3942 6.26624 17.8411C4.56183 17.5732 3.26517 16.1463 3.11458 14.4028C3.10003 14.2344 3.10006 14.0449 3.1001 13.7804C3.1001 13.7664 3.10011 13.7522 3.10011 13.7377L3.10011 12.1613C3.1001 11.5072 3.10009 10.9721 3.12908 10.5351C3.15902 10.0838 3.22272 9.67287 3.38127 9.27916C3.75641 8.34761 4.47936 7.5996 5.39913 7.20773C5.79023 7.0411 6.19788 6.97462 6.64102 6.94352C7.06844 6.91352 7.59082 6.91353 8.2249 6.91354L15.2533 6.91354ZM8.0682 17.8859C8.10409 19.3237 8.23782 20.1691 8.51837 20.7975C8.83271 21.5016 9.37888 22.0351 10.5668 22.8414C10.8151 23.01 11.1157 23.1 11.4296 23.1C12.3285 23.1 13.1001 22.3433 13.1001 21.356V17.8859H8.0682Z" fill="#2990FF"/>
</svg>
