<svg width="28" height="28" viewBox="0 0 28 28" fill="none" xmlns="http://www.w3.org/2000/svg">
<path fill-rule="evenodd" clip-rule="evenodd" d="M18.9182 3.39396C19.132 3.36996 19.3478 3.36996 19.5615 3.39396C20.1355 3.45841 20.6024 3.72415 21.0334 4.06152C21.44 4.3798 21.8915 4.82538 22.4211 5.34808L22.494 5.41995C23.0368 5.9556 23.4989 6.41155 23.8289 6.82281C24.1782 7.25825 24.4543 7.73177 24.5211 8.31692C24.546 8.53428 24.546 8.75375 24.5211 8.97111C24.4543 9.55626 24.1782 10.0298 23.8289 10.4652C23.4989 10.8765 23.0368 11.3324 22.494 11.868L10.4774 23.7264C10.4501 23.7533 10.4231 23.7801 10.3963 23.8066C9.97803 24.2203 9.62243 24.572 9.17039 24.7839C9.085 24.824 8.99769 24.8598 8.90879 24.8913C8.43815 25.0579 7.93799 25.0574 7.3497 25.0567C7.31203 25.0567 7.27401 25.0566 7.23561 25.0566H7.11648C6.37865 25.0566 5.75011 25.0567 5.24173 24.999C4.7035 24.9379 4.189 24.8026 3.73756 24.4528C3.54543 24.304 3.37289 24.1315 3.22405 23.9393C2.87434 23.4879 2.73902 22.9734 2.67793 22.4352C2.62022 21.9268 2.62025 21.2982 2.62028 20.5604L2.62028 20.5103C2.62028 20.4727 2.62024 20.4355 2.6202 20.3987C2.61956 19.8236 2.61901 19.3349 2.778 18.8742C2.81794 18.7585 2.86521 18.6454 2.91953 18.5357C3.13575 18.099 3.48396 17.7561 3.89374 17.3527C3.91999 17.3268 3.9465 17.3007 3.97325 17.2743L16.0586 5.34805C16.5883 4.82536 17.0397 4.3798 17.4464 4.06152C17.8774 3.72415 18.3442 3.45841 18.9182 3.39396ZM19.3607 5.18272C19.2804 5.17371 19.1994 5.17371 19.1191 5.18272C19.0106 5.1949 18.8559 5.24404 18.5558 5.47894C18.2405 5.72572 17.8626 6.09677 17.2868 6.66491L16.5913 7.3513L20.5498 11.2577L21.1929 10.6231C21.7825 10.0413 22.1683 9.65858 22.4249 9.33875C22.6695 9.03385 22.7202 8.87661 22.7328 8.76686C22.7421 8.68523 22.7421 8.6028 22.7328 8.52117C22.7202 8.41142 22.6695 8.25418 22.4249 7.94928C22.1683 7.62945 21.7825 7.24676 21.1929 6.66491C20.6172 6.09677 20.2392 5.72572 19.9239 5.47894C19.6238 5.24404 19.4692 5.1949 19.3607 5.18272ZM19.2685 12.5222L15.31 8.61574L5.23757 18.5555C4.70598 19.0801 4.59764 19.2031 4.53267 19.3344C4.51227 19.3756 4.49451 19.418 4.47951 19.4615C4.43174 19.5999 4.42028 19.7634 4.42028 20.5103C4.42028 21.312 4.42164 21.8374 4.46645 22.2322C4.50917 22.6086 4.58148 22.7524 4.64703 22.837C4.70293 22.9092 4.76773 22.974 4.83989 23.0299C4.92451 23.0954 5.06834 23.1677 5.44473 23.2104C5.8395 23.2553 6.36491 23.2566 7.16661 23.2566H7.23561C7.9996 23.2566 8.16651 23.2446 8.30797 23.1945C8.34136 23.1827 8.37415 23.1693 8.40622 23.1542C8.54208 23.0905 8.66932 22.9818 9.21311 22.4452L19.2685 12.5222Z" fill="#2990FF"/>
</svg>
