<svg width="28" height="28" viewBox="0 0 28 28" fill="none" xmlns="http://www.w3.org/2000/svg">
<rect width="28" height="28" rx="6" fill="#FDA339"/>
<path d="M14 4C8.47581 4 4 8.47581 4 14C4 19.5242 8.47581 24 14 24C19.5242 24 24 19.5242 24 14C24 8.47581 19.5242 4 14 4ZM14 22.0645C9.54435 22.0645 5.93548 18.4556 5.93548 14C5.93548 9.54435 9.54435 5.93548 14 5.93548C18.4556 5.93548 22.0645 9.54435 22.0645 14C22.0645 18.4556 18.4556 22.0645 14 22.0645ZM16.4919 17.8548L13.0685 15.3669C12.9435 15.2742 12.871 15.129 12.871 14.9758V8.35484C12.871 8.08871 13.0887 7.87097 13.3548 7.87097H14.6452C14.9113 7.87097 15.129 8.08871 15.129 8.35484V14.0685L17.8226 16.0282C18.0403 16.1855 18.0847 16.4879 17.9274 16.7056L17.1694 17.75C17.0121 17.9637 16.7097 18.0121 16.4919 17.8548Z" fill="white"/>
</svg>
