<svg width="28" height="28" viewBox="0 0 28 28" fill="none" xmlns="http://www.w3.org/2000/svg">
<path fill-rule="evenodd" clip-rule="evenodd" d="M15.5984 2.01486H18.8157C19.8749 2.01485 20.7238 2.01485 21.4104 2.07002C22.1154 2.12668 22.727 2.24583 23.2915 2.52792C24.234 2.99883 24.9981 3.76295 25.469 4.7054C25.7511 5.26996 25.8702 5.88148 25.9269 6.58656C25.9821 7.27316 25.9821 8.122 25.9821 9.18121L25.982 19.9572C25.9779 22.6383 23.8055 24.8107 21.1244 24.8149L12.7375 24.8149C10.3596 24.8149 8.43205 22.8873 8.43205 20.5095V9.18121C8.43204 8.122 8.43203 7.27316 8.48721 6.58656C8.54387 5.88148 8.66301 5.26996 8.94511 4.7054C9.41602 3.76295 10.1801 2.99883 11.1226 2.52792C11.6871 2.24583 12.2987 2.12668 13.0037 2.07002C13.6903 2.01485 14.5392 2.01485 15.5984 2.01486ZM13.1479 3.86424C12.5522 3.91212 12.1994 4.00205 11.9271 4.1381C11.3334 4.43479 10.852 4.9162 10.5553 5.50996C10.4192 5.78225 10.3293 6.13497 10.2814 6.73075C10.2327 7.33676 10.232 8.11322 10.232 9.21946V18.3781L10.7583 17.8661C10.8167 17.8092 10.8651 17.7621 10.911 17.7211C12.005 16.7432 13.6591 16.7432 14.7531 17.7211C14.799 17.7621 14.8473 17.8091 14.9058 17.8661L14.918 17.8779C14.9951 17.9529 15.0137 17.9708 15.0273 17.9829C15.4381 18.3501 16.0593 18.3501 16.4702 17.9829C16.4837 17.9708 16.5023 17.9529 16.5794 17.8779L17.614 16.8713C17.9747 16.5203 18.2827 16.2207 18.5558 15.9941C18.8431 15.7558 19.1483 15.5492 19.5185 15.428C20.1012 15.2372 20.7296 15.2372 21.3123 15.428C21.6824 15.5492 21.9876 15.7558 22.275 15.9941C22.5481 16.2207 22.856 16.5203 23.2167 16.8713L24.1821 17.8105V9.21947C24.1821 8.11322 24.1814 7.33676 24.1327 6.73075C24.0848 6.13497 23.9949 5.78225 23.8588 5.50996C23.5621 4.9162 23.0807 4.43479 22.487 4.1381C22.2147 4.00205 21.8619 3.91212 21.2662 3.86424C20.6602 3.81554 19.8837 3.81486 18.7774 3.81486H15.6367C14.5304 3.81486 13.7539 3.81554 13.1479 3.86424ZM24.162 20.3024L21.986 18.1853C21.5941 17.8039 21.3373 17.555 21.1259 17.3796C20.9224 17.2109 20.8186 17.1604 20.7522 17.1387C20.5334 17.067 20.2974 17.067 20.0785 17.1387C20.0122 17.1604 19.9083 17.2109 19.7049 17.3796C19.4934 17.555 19.2367 17.8039 18.8447 18.1853L17.8226 19.1798C17.764 19.2368 17.7156 19.2839 17.6697 19.3249C16.5757 20.3028 14.9217 20.3028 13.8277 19.3249C13.7818 19.2839 13.7334 19.2368 13.6749 19.1798L13.6628 19.168C13.5857 19.093 13.567 19.0751 13.5535 19.0631C13.1426 18.6958 12.5215 18.6958 12.1106 19.0631C12.0971 19.0751 12.0784 19.093 12.0013 19.168L10.2571 20.8651C10.4298 22.0804 11.4745 23.0149 12.7375 23.0149L21.1216 23.0149C22.6931 23.0124 23.9872 21.8276 24.162 20.3024ZM2.01538 7.53423C2.01538 5.42635 3.72416 3.71757 5.83205 3.71757C6.3291 3.71757 6.73205 4.12051 6.73205 4.61757C6.73205 5.11462 6.3291 5.51757 5.83205 5.51757C4.71827 5.51757 3.81538 6.42046 3.81538 7.53423V20.4306C3.81538 21.5444 4.71827 22.4473 5.83205 22.4473C6.3291 22.4473 6.73205 22.8502 6.73205 23.3473C6.73205 23.8444 6.3291 24.2473 5.83205 24.2473C3.72416 24.2473 2.01538 22.5385 2.01538 20.4306V7.53423Z" fill="#2990FF"/>
<path d="M21.5848 8.16722C21.5848 9.13415 20.801 9.91801 19.8342 9.91801C18.8675 9.91801 18.0837 9.13415 18.0837 8.16722C18.0837 7.20029 18.8675 6.41644 19.8342 6.41644C20.801 6.41644 21.5848 7.20029 21.5848 8.16722Z" fill="#2990FF"/>
</svg>
