<svg width="28" height="28" viewBox="0 0 28 28" fill="none" xmlns="http://www.w3.org/2000/svg">
<path fill-rule="evenodd" clip-rule="evenodd" d="M13.6998 3.79722C11.3331 3.79722 9.41452 5.71581 9.41452 8.0825V9.98474H17.9851V8.0825C17.9851 5.71581 16.0665 3.79722 13.6998 3.79722ZM19.7851 9.99282V8.0825C19.7851 4.7217 17.0606 1.99722 13.6998 1.99722C10.339 1.99722 7.61452 4.7217 7.61452 8.0825V10.035C5.84629 10.3208 4.48066 11.7879 4.3497 13.6043C4.33956 13.745 4.33957 13.9033 4.3396 14.1241L4.33961 19.9675C4.33959 20.7755 4.33959 21.4364 4.38347 21.9735C4.42889 22.5294 4.52577 23.0314 4.76468 23.5003C5.13859 24.2342 5.73521 24.8308 6.46904 25.2047C6.93793 25.4436 7.44001 25.5405 7.99592 25.5859C8.533 25.6298 9.19385 25.6298 10.0019 25.6298H17.9435C18.7516 25.6298 19.4124 25.6298 19.9495 25.5859C20.5054 25.5405 21.0075 25.4436 21.4764 25.2047C22.2102 24.8308 22.8068 24.2342 23.1807 23.5003C23.4196 23.0314 23.5165 22.5294 23.562 21.9735C23.6058 21.4364 23.6058 20.7755 23.6058 19.9675V14.7055C23.6058 14.6695 23.6058 14.6341 23.6058 14.5992C23.6061 13.9396 23.6063 13.4662 23.5161 13.0532C23.191 11.5633 22.0273 10.3996 20.5374 10.0744C20.3115 10.0251 20.0676 10.0029 19.7851 9.99282ZM20.1536 11.833C19.9562 11.79 19.6952 11.7847 18.8851 11.7847H8.51452C8.24356 11.7847 8.15585 11.7853 8.08859 11.7902C7.04786 11.8652 6.22008 12.693 6.14504 13.7337C6.14019 13.801 6.13961 13.8887 6.13961 14.1597V19.9298C6.13961 20.7847 6.14031 21.3718 6.17749 21.8269C6.21381 22.2715 6.28042 22.5103 6.36849 22.6832C6.56983 23.0783 6.89109 23.3996 7.28623 23.6009C7.45907 23.689 7.6979 23.7556 8.1425 23.7919C8.59761 23.8291 9.18468 23.8298 10.0396 23.8298H17.9058C18.7607 23.8298 19.3478 23.8291 19.8029 23.7919C20.2475 23.7556 20.4863 23.689 20.6592 23.6009C21.0543 23.3996 21.3756 23.0783 21.5769 22.6832C21.665 22.5103 21.7316 22.2715 21.7679 21.8269C21.8051 21.3718 21.8058 20.7847 21.8058 19.9298V14.7055C21.8058 13.8953 21.8006 13.6344 21.7575 13.437C21.5824 12.6347 20.9558 12.0081 20.1536 11.833Z" fill="#2990FF"/>
<path d="M15.7198 17.8081C15.7198 18.7605 14.9376 19.5325 13.9727 19.5325C13.0078 19.5325 12.2256 18.7605 12.2256 17.8081C12.2256 16.8558 13.0078 16.0837 13.9727 16.0837C14.9376 16.0837 15.7198 16.8558 15.7198 17.8081Z" fill="#2990FF"/>
</svg>
