<svg width="28" height="28" viewBox="0 0 28 28" fill="none" xmlns="http://www.w3.org/2000/svg">
<path fill-rule="evenodd" clip-rule="evenodd" d="M10.6683 18.324C14.2968 18.324 17.4463 15.1341 17.4463 10.9333C17.4463 9.9836 17.2826 9.08077 16.987 8.25353C16.68 7.39464 16.9831 6.53157 17.556 6.02175C18.1499 5.49323 19.1214 5.28192 19.9771 5.81048C23.0898 7.73313 25.1311 11.2931 25.1311 15.3098C25.1311 21.2609 20.5997 26.3006 14.7531 26.3006C10.8297 26.3006 7.47263 24.0058 5.71567 20.7174C5.24064 19.8283 5.51701 18.8787 6.06574 18.3242C6.59575 17.7886 7.46345 17.5209 8.30849 17.8637C9.04281 18.1615 9.83682 18.324 10.6683 18.324ZM8.59096 21.7036C8.43877 21.5352 8.29254 21.3607 8.15263 21.1803C7.88174 20.831 7.63454 20.4599 7.41366 20.0698C7.3761 20.0035 7.3393 19.9366 7.30328 19.8692C7.19325 19.6632 7.41557 19.4439 7.63194 19.5317C7.68988 19.5552 7.74813 19.578 7.80667 19.6002C8.21175 19.7538 8.6308 19.8756 9.06124 19.963C9.2229 19.9958 9.38616 20.0238 9.55089 20.0468C9.91662 20.0977 10.2896 20.124 10.6683 20.124C15.4059 20.124 19.2463 16.0092 19.2463 10.9333C19.2463 10.5172 19.2205 10.1076 19.1705 9.70614C19.145 9.50078 19.113 9.29757 19.075 9.09673C18.9918 8.65693 18.8792 8.22852 18.7396 7.81396C18.7209 7.75833 18.7017 7.70295 18.682 7.64783C18.6034 7.42797 18.8326 7.2192 19.0312 7.34189C19.0925 7.37976 19.1533 7.41841 19.2137 7.45784C19.5905 7.70413 19.9483 7.98069 20.284 8.28436C20.4844 8.46573 20.6771 8.65678 20.8612 8.85682C22.3885 10.5163 23.3311 12.7951 23.3311 15.3098C23.3311 20.3858 19.4907 24.5006 14.7531 24.5006C12.3348 24.5006 10.1503 23.4284 8.59096 21.7036Z" fill="#2990FF"/>
<path d="M10.1301 9.1724C10.2451 8.86144 10.3027 8.70596 10.3865 8.66162C10.4591 8.62321 10.546 8.62321 10.6186 8.66162C10.7025 8.70596 10.76 8.86144 10.8751 9.1724L11.2271 10.1237C11.2504 10.1867 11.262 10.2182 11.2806 10.2446C11.2971 10.268 11.3174 10.2884 11.3408 10.3048C11.3672 10.3234 11.3987 10.3351 11.4617 10.3584L12.4131 10.7104C12.724 10.8255 12.8795 10.883 12.9238 10.9668C12.9622 11.0394 12.9622 11.1264 12.9238 11.199C12.8795 11.2828 12.724 11.3403 12.4131 11.4554L11.4617 11.8074C11.3987 11.8307 11.3672 11.8424 11.3408 11.861C11.3174 11.8774 11.2971 11.8978 11.2806 11.9212C11.262 11.9476 11.2504 11.9791 11.2271 12.0421L10.8751 12.9934C10.76 13.3044 10.7025 13.4598 10.6186 13.5042C10.546 13.5426 10.4591 13.5426 10.3865 13.5042C10.3027 13.4598 10.2451 13.3044 10.1301 12.9934L9.77805 12.0421C9.75474 11.9791 9.74309 11.9476 9.72452 11.9212C9.70806 11.8978 9.68769 11.8774 9.6643 11.861C9.6379 11.8424 9.6064 11.8307 9.5434 11.8074L8.59207 11.4554C8.28112 11.3403 8.12564 11.2828 8.0813 11.199C8.04289 11.1264 8.04289 11.0394 8.0813 10.9668C8.12564 10.883 8.28112 10.8255 8.59207 10.7104L9.5434 10.3584C9.6064 10.3351 9.6379 10.3234 9.6643 10.3048C9.68769 10.2884 9.70806 10.268 9.72452 10.2446C9.74309 10.2182 9.75474 10.1867 9.77805 10.1237L10.1301 9.1724Z" fill="#2990FF"/>
<path d="M5.46057 3.33924C5.57563 3.02828 5.63317 2.8728 5.71699 2.82846C5.78961 2.79005 5.87652 2.79005 5.94913 2.82846C6.03296 2.8728 6.09049 3.02828 6.20556 3.33924L6.71516 4.71641C6.73847 4.77941 6.75012 4.81091 6.76869 4.83731C6.78515 4.86071 6.80552 4.88108 6.82891 4.89754C6.85531 4.9161 6.88681 4.92776 6.94981 4.95107L8.32699 5.46068C8.63794 5.57574 8.79342 5.63327 8.83776 5.7171C8.87617 5.78971 8.87617 5.87663 8.83776 5.94924C8.79342 6.03307 8.63794 6.0906 8.32699 6.20566L6.94981 6.71527C6.88681 6.73858 6.85531 6.75023 6.82891 6.7688C6.80552 6.78526 6.78515 6.80563 6.76869 6.82903C6.75012 6.85542 6.73847 6.88692 6.71516 6.94992L6.20556 8.3271C6.09049 8.63806 6.03296 8.79354 5.94913 8.83788C5.87652 8.87629 5.78961 8.87629 5.71699 8.83788C5.63317 8.79354 5.57563 8.63806 5.46057 8.3271L4.95097 6.94992C4.92766 6.88692 4.916 6.85542 4.89744 6.82903C4.88098 6.80563 4.86061 6.78526 4.83721 6.7688C4.81081 6.75023 4.77931 6.73858 4.71632 6.71527L3.33914 6.20566C3.02819 6.0906 2.87271 6.03307 2.82837 5.94924C2.78996 5.87663 2.78996 5.78971 2.82837 5.7171C2.87271 5.63327 3.02819 5.57574 3.33914 5.46068L4.71632 4.95107C4.77931 4.92776 4.81081 4.9161 4.83721 4.89754C4.86061 4.88108 4.88098 4.86071 4.89744 4.83731C4.916 4.81091 4.92766 4.77941 4.95097 4.71641L5.46057 3.33924Z" fill="#2990FF"/>
</svg>
