<svg width="28" height="28" viewBox="0 0 28 28" fill="none" xmlns="http://www.w3.org/2000/svg">
<path fill-rule="evenodd" clip-rule="evenodd" d="M13.9949 4.84533C13.8236 4.84533 13.6578 4.85019 13.4973 4.85953C11.3648 4.9837 10.1011 5.90375 9.34668 6.96613C8.56509 8.06669 8.29665 9.37334 8.29665 10.2347V13.8107C8.29665 13.855 8.29667 13.8987 8.2967 13.9418C8.29718 14.8171 8.29753 15.4595 8.09378 16.0645C8.05217 16.1881 8.00437 16.3094 7.95054 16.4282C7.68694 17.0096 7.24857 17.4791 6.65123 18.119C6.6218 18.1505 6.59199 18.1824 6.56179 18.2148C5.97053 18.8489 5.5886 19.261 5.36024 19.5773C5.31315 19.6426 5.2794 19.6948 5.25534 19.7354C5.30147 19.7455 5.36264 19.7564 5.44247 19.7665C5.82958 19.8152 6.39147 19.817 7.25841 19.817H20.7313C21.5983 19.817 22.1602 19.8152 22.5473 19.7665C22.6271 19.7564 22.6883 19.7455 22.7344 19.7354C22.7103 19.6948 22.6766 19.6426 22.6295 19.5773C22.4011 19.261 22.0192 18.8489 21.4279 18.2148C21.3977 18.1824 21.3679 18.1505 21.3385 18.119C20.7412 17.4791 20.3028 17.0096 20.0392 16.4282C19.9854 16.3094 19.9376 16.1881 19.896 16.0645C19.6922 15.4595 19.6926 14.8172 19.693 13.9418C19.6931 13.8987 19.6931 13.855 19.6931 13.8107V10.2347C19.6931 9.37334 19.4246 8.06669 18.6431 6.96613C17.8886 5.90375 16.625 4.9837 14.4924 4.85953C14.3319 4.85019 14.1661 4.84533 13.9949 4.84533ZM22.8584 19.6983C22.8591 19.6978 22.8596 19.6976 22.8596 19.6976L22.8584 19.6983ZM5.19796 19.8514C5.19776 19.8522 5.19763 19.8527 5.19761 19.8527L5.19796 19.8514ZM13.3927 3.06257C13.5889 3.05115 13.7896 3.04533 13.9949 3.04533C14.2002 3.04533 14.4008 3.05115 14.597 3.06257C17.2857 3.21913 19.0462 4.42506 20.1106 5.92391C21.1479 7.38456 21.4931 9.07437 21.4931 10.2347V13.8107C21.4931 14.8729 21.504 15.1996 21.6018 15.49C21.6241 15.5562 21.6497 15.6213 21.6786 15.6849C21.8051 15.964 22.0199 16.2104 22.7444 16.9872L22.786 17.0319C23.3239 17.6086 23.786 18.1041 24.089 18.5238C24.3828 18.9309 24.7179 19.517 24.5403 20.2001C24.4908 20.3909 24.4117 20.5728 24.306 20.7392C23.9274 21.335 23.2703 21.4896 22.7722 21.5524C22.2586 21.617 21.581 21.617 20.7924 21.617H7.19733C6.40875 21.617 5.73117 21.617 5.21754 21.5524C4.71946 21.4896 4.06233 21.335 3.68378 20.7392C3.57806 20.5728 3.49898 20.3909 3.4494 20.2001C3.27186 19.517 3.60692 18.9309 3.90074 18.5238C4.20373 18.1041 4.66588 17.6086 5.20374 17.0318L5.24537 16.9872C5.96982 16.2104 6.18462 15.964 6.31115 15.6849C6.34 15.6213 6.36562 15.5562 6.38792 15.49C6.48573 15.1996 6.49665 14.8729 6.49665 13.8107V10.2347C6.49665 9.07437 6.84179 7.38456 7.8791 5.92391C8.94353 4.42506 10.7041 3.21913 13.3927 3.06257Z" fill="#2990FF"/>
<path d="M13.9948 26.1398C15.0859 26.1398 16.0138 25.3119 16.3552 24.1575C16.5108 23.6316 16.0507 23.1777 15.5023 23.1777H12.4873C11.9389 23.1777 11.4789 23.6316 11.6344 24.1575C11.9758 25.3119 12.9037 26.1398 13.9948 26.1398Z" fill="#2990FF"/>
</svg>
