<svg width="28" height="28" viewBox="0 0 28 28" fill="none" xmlns="http://www.w3.org/2000/svg">
<path fill-rule="evenodd" clip-rule="evenodd" d="M9.33698 5.44153H14.6079C15.8595 5.44152 16.8589 5.44151 17.6662 5.50713C18.4942 5.57442 19.2063 5.71556 19.8608 6.04701C20.9269 6.58688 21.7929 7.45287 22.3328 8.51896C22.6642 9.1735 22.8054 9.88563 22.8727 10.7136C22.9383 11.5208 22.9383 12.5202 22.9383 13.7719V13.8575C22.9383 15.1091 22.9383 16.1086 22.8727 16.9158C22.8054 17.7438 22.6642 18.4559 22.3328 19.1104C21.7929 20.1765 20.9269 21.0425 19.8608 21.5824C19.2063 21.9138 18.4942 22.055 17.6662 22.1223C16.8589 22.1879 15.8595 22.1879 14.6079 22.1879H9.33699C8.08531 22.1879 7.08591 22.1879 6.27862 22.1223C5.4507 22.055 4.73856 21.9138 4.08403 21.5824C3.01793 21.0425 2.15194 20.1765 1.61208 19.1104C1.28063 18.4559 1.13948 17.7438 1.07219 16.9158C1.00658 16.1086 1.00658 15.1092 1.00659 13.8575V13.7719C1.00658 12.5202 1.00658 11.5208 1.07219 10.7136C1.13948 9.88563 1.28063 9.1735 1.61208 8.51896C2.15194 7.45287 3.01793 6.58688 4.08403 6.04701C4.73856 5.71556 5.4507 5.57442 6.27862 5.50713C7.08591 5.44151 8.0853 5.44152 9.33698 5.44153ZM6.4389 7.4792C5.73264 7.5366 5.30832 7.64484 4.97788 7.81217C4.28756 8.16174 3.72681 8.7225 3.37723 9.41282C3.20991 9.74325 3.10167 10.1676 3.04426 10.8738C2.98593 11.5916 2.98517 12.5105 2.98517 13.8147C2.98517 15.1189 2.98593 16.0378 3.04426 16.7556C3.10167 17.4618 3.20991 17.8861 3.37723 18.2166C3.72681 18.9069 4.28756 19.4677 4.97788 19.8172C5.30832 19.9846 5.73264 20.0928 6.4389 20.1502C7.15662 20.2085 8.07558 20.2093 9.37976 20.2093H14.5651C15.8693 20.2093 16.7882 20.2085 17.5059 20.1502C18.2122 20.0928 18.6365 19.9846 18.967 19.8172C19.6573 19.4677 20.218 18.9069 20.5676 18.2166C20.7349 17.8861 20.8432 17.4618 20.9006 16.7556C20.9589 16.0378 20.9597 15.1189 20.9597 13.8147C20.9597 12.5105 20.9589 11.5916 20.9006 10.8738C20.8432 10.1676 20.7349 9.74325 20.5676 9.41282C20.218 8.7225 19.6573 8.16174 18.967 7.81217C18.6365 7.64484 18.2122 7.5366 17.5059 7.4792C16.7882 7.42086 15.8693 7.4201 14.5651 7.4201H9.37976C8.07558 7.4201 7.15663 7.42086 6.4389 7.4792Z" fill="#2990FF"/>
<path d="M8.8889 13.8818L11.9707 9.60509C12.2987 9.14988 13.0176 9.38193 13.0176 9.94301V12.0045C13.0176 12.3237 13.2764 12.5825 13.5956 12.5825H14.9462C15.4412 12.5825 15.7072 13.1642 15.3834 13.5386L11.6279 17.8816C11.2186 18.355 10.4537 17.9309 10.6384 17.333L11.1902 15.5463C11.305 15.1744 11.0271 14.7977 10.6379 14.7977H9.35785C8.8866 14.7977 8.6134 14.2641 8.8889 13.8818Z" fill="#2990FF"/>
<path d="M25.3832 15.8006C26.1087 15.4114 26.6012 14.6527 26.6012 13.7806C26.6012 12.9084 26.1087 12.1497 25.3832 11.7605C24.8206 11.4587 24.2729 12.0005 24.2729 12.639V14.9221C24.2729 15.5606 24.8206 16.1024 25.3832 15.8006Z" fill="#2990FF"/>
</svg>
