<svg width="28" height="28" viewBox="0 0 28 28" fill="none" xmlns="http://www.w3.org/2000/svg">
<path fill-rule="evenodd" clip-rule="evenodd" d="M3.1001 9C3.1001 8.50294 3.50304 8.1 4.0001 8.1H24.0001C24.4972 8.1 24.9001 8.50294 24.9001 9C24.9001 9.49705 24.4972 9.9 24.0001 9.9H4.0001C3.50304 9.9 3.1001 9.49705 3.1001 9ZM3.1001 14C3.1001 13.5029 3.50304 13.1 4.0001 13.1H24.0001C24.4972 13.1 24.9001 13.5029 24.9001 14C24.9001 14.4971 24.4972 14.9 24.0001 14.9H4.0001C3.50304 14.9 3.1001 14.4971 3.1001 14ZM3.1001 19C3.1001 18.5029 3.50304 18.1 4.0001 18.1H24.0001C24.4972 18.1 24.9001 18.5029 24.9001 19C24.9001 19.4971 24.4972 19.9 24.0001 19.9H4.0001C3.50304 19.9 3.1001 19.4971 3.1001 19Z" fill="#2990FF"/>
</svg>
