<svg width="28" height="28" viewBox="0 0 28 28" fill="none" xmlns="http://www.w3.org/2000/svg">
<path fill-rule="evenodd" clip-rule="evenodd" d="M13.5913 4.30861C13.9404 4.6624 13.9367 5.23224 13.5829 5.58137L7.4461 11.6373H12.3502C14.5998 11.6373 16.3691 11.6373 17.7652 11.8034C19.1939 11.9733 20.3494 12.328 21.3084 13.1222C21.6194 13.3798 21.9056 13.666 22.1632 13.977C22.9574 14.936 23.3121 16.0915 23.482 17.5202C23.6481 18.9163 23.6481 20.6856 23.6481 22.9352V22.9949C23.6481 23.492 23.2451 23.8949 22.7481 23.8949C22.251 23.8949 21.8481 23.492 21.8481 22.9949C21.8481 20.6725 21.8466 19.0103 21.6946 17.7328C21.545 16.4754 21.2607 15.7092 20.7769 15.1251C20.5911 14.9008 20.3846 14.6943 20.1603 14.5085C19.5762 14.0247 18.81 13.7404 17.5526 13.5908C16.2751 13.4388 14.6129 13.4373 12.2905 13.4373H7.4461L12.8831 18.8027C13.2369 19.1518 13.2406 19.7217 12.8915 20.0755C12.5424 20.4293 11.9725 20.433 11.6187 20.0839L4.62062 13.1779C4.44925 13.0088 4.35278 12.7781 4.35278 12.5373C4.35278 12.2966 4.44925 12.0658 4.62062 11.8967L12.3185 4.30017C12.6723 3.95104 13.2422 3.95481 13.5913 4.30861Z" fill="#2990FF"/>
</svg>
