<svg width="28" height="28" viewBox="0 0 28 28" fill="none" xmlns="http://www.w3.org/2000/svg">
<path fill-rule="evenodd" clip-rule="evenodd" d="M11.9046 4.95C8.06337 4.95 4.95005 8.06262 4.95005 11.9014C4.95005 15.7402 8.06337 18.8528 11.9046 18.8528C13.8263 18.8528 15.5644 18.075 16.824 16.8151C18.0826 15.5562 18.8592 13.8203 18.8592 11.9014C18.8592 8.06262 15.7459 4.95 11.9046 4.95ZM3.05005 11.9014C3.05005 7.01255 7.01475 3.05 11.9046 3.05C16.7945 3.05 20.7592 7.01256 20.7592 11.9014C20.7592 14.0024 20.026 15.9336 18.8029 17.4512L24.6723 23.3287C25.043 23.7 25.0426 24.3015 24.6713 24.6722C24.3001 25.043 23.6986 25.0425 23.3278 24.6713L17.4595 18.7947C15.9408 20.0189 14.0078 20.7528 11.9046 20.7528C7.01475 20.7528 3.05005 16.7903 3.05005 11.9014Z" fill="#2990FF"/>
</svg>
