<svg width="28" height="28" viewBox="0 0 28 28" fill="none" xmlns="http://www.w3.org/2000/svg">
<path d="M12.4687 11.3236C12.4687 12.1392 11.9104 12.8004 11.2217 12.8004C10.5329 12.8004 9.97461 12.1392 9.97461 11.3236C9.97461 10.508 10.5329 9.84684 11.2217 9.84684C11.9104 9.84684 12.4687 10.508 12.4687 11.3236Z" fill="#2990FF"/>
<path d="M18.4547 11.3236C18.4547 12.1392 17.8963 12.8004 17.2076 12.8004C16.5189 12.8004 15.9605 12.1392 15.9605 11.3236C15.9605 10.508 16.5189 9.84684 17.2076 9.84684C17.8963 9.84684 18.4547 10.508 18.4547 11.3236Z" fill="#2990FF"/>
<path fill-rule="evenodd" clip-rule="evenodd" d="M13.9683 4.9287C8.99234 4.9287 4.98102 8.90594 4.98102 13.7846C4.98102 18.6632 8.99234 22.6405 13.9683 22.6405C18.9442 22.6405 22.9555 18.6632 22.9555 13.7846C22.9555 8.90594 18.9442 4.9287 13.9683 4.9287ZM3.00244 13.7846C3.00244 7.78856 7.92442 2.95013 13.9683 2.95013C20.0121 2.95013 24.9341 7.78856 24.9341 13.7846C24.9341 19.7806 20.0121 24.6191 13.9683 24.6191C7.92442 24.6191 3.00244 19.7806 3.00244 13.7846ZM17.7907 15.3134C18.3057 15.4961 18.5751 16.0616 18.3924 16.5765L17.5087 16.2631C18.3924 16.5765 18.3922 16.5771 18.392 16.5777L18.3916 16.5789L18.3907 16.5815L18.3886 16.5872L18.3835 16.6009C18.3797 16.611 18.375 16.623 18.3695 16.6369C18.3583 16.6646 18.3435 16.6996 18.3247 16.7409C18.2871 16.8233 18.233 16.9316 18.1589 17.0569C18.0112 17.3068 17.7808 17.6302 17.4392 17.9512C16.738 18.6103 15.6248 19.2042 13.9683 19.2042C12.3118 19.2042 11.1986 18.6104 10.4973 17.9513C10.1558 17.6303 9.92536 17.3069 9.77762 17.057C9.70355 16.9317 9.64942 16.8234 9.61183 16.741C9.593 16.6997 9.57823 16.6646 9.5671 16.637C9.56153 16.6231 9.55686 16.6111 9.55305 16.601L9.54796 16.5873L9.54588 16.5815L9.54495 16.579L9.54452 16.5777C9.54431 16.5772 9.54411 16.5766 10.431 16.262L9.5441 16.5766C9.36147 16.0616 9.63085 15.4961 10.1458 15.3135C10.6559 15.1326 11.2156 15.3952 11.4036 15.9007C11.4048 15.9037 11.4076 15.9103 11.4121 15.92C11.4236 15.9453 11.4458 15.9908 11.4809 16.0501C11.5514 16.1694 11.6701 16.3382 11.8524 16.5095C12.1986 16.835 12.8314 17.2256 13.9683 17.2256C15.1052 17.2256 15.7379 16.8349 16.0842 16.5095C16.2664 16.3382 16.3852 16.1694 16.4557 16.0501C16.4907 15.9908 16.513 15.9452 16.5245 15.92C16.5289 15.9102 16.5317 15.9037 16.5329 15.9007C16.7209 15.3952 17.2806 15.1325 17.7907 15.3134ZM11.4082 15.9133C11.4081 15.9132 11.4082 15.9134 11.4082 15.9133V15.9133Z" fill="#2990FF"/>
</svg>
