<svg width="28" height="28" viewBox="0 0 28 28" fill="none" xmlns="http://www.w3.org/2000/svg">
<path fill-rule="evenodd" clip-rule="evenodd" d="M14.1886 2.4947C14.7115 1.04337 16.6649 0.477121 17.8472 1.61822L21.7125 5.34868C22.4356 6.04656 22.6975 7.09278 22.3676 8.04777L21.961 9.22507C21.9497 9.25793 21.9538 9.2711 21.9556 9.27692L21.9557 9.27717C21.9594 9.28898 21.9709 9.31193 21.9992 9.33557C22.0273 9.35915 22.0611 9.37391 22.0933 9.37861C22.1206 9.3826 22.1563 9.38116 22.2048 9.35778C23.0163 8.96619 23.999 9.11495 24.6521 9.74528L23.9651 10.4571L24.6521 9.74528L25.0799 10.1582C26.2609 11.298 26.2609 13.1609 25.0799 14.3007L18.554 20.599C18.771 21.3164 18.5881 22.1257 18.0054 22.6881L16.7936 23.8577C15.741 24.8736 14.0484 24.8736 12.9958 23.8577L12.2917 23.1781C11.9567 22.8548 11.2234 22.8801 10.8357 23.4135C10.0333 24.5173 8.94395 25.6805 7.66147 26.2547C7.00196 26.55 6.26232 26.702 5.48361 26.5771C4.70116 26.4515 3.96737 26.0604 3.30083 25.4171C2.63558 24.775 2.21977 24.0574 2.08555 23.2783C1.95171 22.5013 2.11581 21.7673 2.4263 21.1213C3.02705 19.8715 4.23694 18.8194 5.37435 18.0493C5.93247 17.6714 5.91689 17.0256 5.62075 16.7398L4.91666 16.0602C3.84433 15.0253 3.84433 13.3323 4.91666 12.2973L6.12853 11.1277C6.70987 10.5667 7.53744 10.3988 8.26611 10.6242L10.976 8.00877C12.4247 6.61055 13.5241 4.33902 14.1886 2.4947ZM9.85592 11.8396L17.3184 19.0418L23.7059 12.877C24.0808 12.5152 24.0808 11.9437 23.7059 11.5819L23.2781 11.1689C23.2296 11.1222 23.1406 11.1031 23.0647 11.1397C21.4471 11.9203 19.4456 10.4474 20.0909 8.57916L20.4975 7.40186C20.5713 7.18804 20.518 6.94564 20.3385 6.77235L16.4732 3.04189C16.4371 3.00706 16.3669 2.97447 16.254 3.00291C16.137 3.0324 16.0719 3.10477 16.05 3.16536C15.355 5.09436 14.1306 7.71395 12.35 9.43244L9.85592 11.8396ZM7.62345 12.5059C7.57181 12.5059 7.53035 12.5246 7.50255 12.5514L6.29068 13.721C6.02442 13.978 6.02442 14.3796 6.29068 14.6366L6.99477 15.3161C8.37472 16.6479 7.86597 18.7518 6.48361 19.6877C5.43481 20.3978 4.57994 21.208 4.20957 21.9785C4.0345 22.3427 3.98646 22.6583 4.03541 22.9424C4.08398 23.2244 4.2459 23.5794 4.67485 23.9934C5.10251 24.4062 5.48007 24.5726 5.79708 24.6235C6.11784 24.675 6.46578 24.6222 6.85293 24.4489C7.66376 24.0858 8.50398 23.2562 9.23525 22.2502C10.2088 20.9107 12.3245 20.46 13.6657 21.7544L14.3699 22.434C14.6558 22.71 15.1336 22.71 15.4196 22.434L16.6314 21.2645C16.6574 21.2393 16.6638 21.2157 16.6638 21.1965C16.6638 21.1773 16.6574 21.1537 16.6314 21.1285L7.74435 12.5514C7.71655 12.5246 7.67509 12.5059 7.62345 12.5059Z" fill="#2990FF"/>
</svg>
