<svg width="24" height="24" viewBox="0 0 24 24" fill="none" xmlns="http://www.w3.org/2000/svg">
<path fill-rule="evenodd" clip-rule="evenodd" d="M8.33395 4.28334C7.8703 4.28334 7.42793 4.47794 7.11462 4.81973L6.54237 5.444H17.4588L16.8865 4.81973C16.5732 4.47794 16.1308 4.28334 15.6672 4.28334H8.33395ZM19.0426 7.244H4.95855C4.82747 7.48483 4.75728 7.75641 4.75728 8.0348V16.8959C4.75728 18.2797 5.87901 19.4014 7.26274 19.4014H16.7384C18.1221 19.4014 19.2439 18.2797 19.2439 16.8959V8.0348C19.2439 7.75641 19.1737 7.48483 19.0426 7.244ZM3.79992 5.77402C3.25714 6.40097 2.95728 7.20336 2.95728 8.0348V16.8959C2.95728 19.2738 4.8849 21.2014 7.26274 21.2014H16.7384C19.1162 21.2014 21.0439 19.2738 21.0439 16.8959V8.0348C21.0439 7.17062 20.7199 6.33782 20.136 5.70078L18.2134 3.60343C17.5592 2.88971 16.6354 2.48335 15.6672 2.48335H8.33395C7.36574 2.48335 6.44199 2.88971 5.78775 3.60343L3.86517 5.70078C3.85809 5.70851 3.85104 5.71627 3.84403 5.72405C3.82873 5.74015 3.81401 5.75682 3.79992 5.77402ZM12.0006 9.34201C12.4976 9.34201 12.9006 9.74495 12.9006 10.242V14.5401L14.2532 13.2489C14.6128 12.9057 15.1825 12.919 15.5257 13.2785C15.8689 13.6381 15.8557 14.2078 15.4961 14.551L12.622 17.2945C12.2742 17.6264 11.7269 17.6264 11.3791 17.2945L8.50504 14.551C8.14549 14.2078 8.13224 13.6381 8.47545 13.2785C8.81865 12.919 9.38835 12.9057 9.7479 13.2489L11.1006 14.5401V10.242C11.1006 9.74495 11.5035 9.34201 12.0006 9.34201Z" fill="#2990FF"/>
</svg>
