<svg width="24" height="24" viewBox="0 0 24 24" fill="none" xmlns="http://www.w3.org/2000/svg">
<path fill-rule="evenodd" clip-rule="evenodd" d="M17.365 5.54424C15.3725 3.58157 12.098 3.58157 10.1056 5.54424L5.50687 10.0742C5.15277 10.4231 4.58293 10.4188 4.23412 10.0647C3.8853 9.71055 3.88959 9.14072 4.2437 8.7919L8.84241 4.2619C11.5355 1.60902 15.935 1.60902 18.6281 4.2619C21.2785 6.87264 21.2785 11.0748 18.6281 13.6855L12.315 19.9044C10.2726 21.9162 6.93898 21.9162 4.89663 19.9044L5.52822 19.2632L4.89663 19.9044C2.88309 17.9209 2.88309 14.7257 4.89663 12.7422L11.2383 6.49527C12.6181 5.13608 14.8445 5.07396 16.3016 6.3498C17.9031 7.75204 17.9374 10.1939 16.3734 11.6383L11.0817 16.5251C10.7165 16.8623 10.1471 16.8397 9.80988 16.4745C9.47266 16.1094 9.49531 15.54 9.86047 15.2028L15.1522 10.3159C15.9293 9.5982 15.9139 8.40281 15.1158 7.70403C14.3659 7.04739 13.2078 7.08184 12.5015 7.7776L6.15981 14.0245C4.86203 15.3029 4.86203 17.3436 6.15981 18.622C7.50147 19.9436 9.71015 19.9436 11.0518 18.622L17.365 12.4032C19.2995 10.4975 19.2995 7.4499 17.365 5.54424Z" fill="#2990FF"/>
</svg>
