<svg width="24" height="24" viewBox="0 0 24 24" fill="none" xmlns="http://www.w3.org/2000/svg">
<path fill-rule="evenodd" clip-rule="evenodd" d="M4.50159 4.4401C4.85072 4.08631 5.42056 4.08253 5.77435 4.43166L11.9997 10.575L18.2251 4.43166C18.5788 4.08253 19.1487 4.08631 19.4978 4.4401C19.847 4.79389 19.8432 5.36373 19.4894 5.71286L13.281 11.8395L19.4894 17.9661C19.8432 18.3152 19.847 18.8851 19.4978 19.2389C19.1487 19.5927 18.5788 19.5964 18.2251 19.2473L11.9997 13.1039L5.77435 19.2473C5.42056 19.5964 4.85072 19.5927 4.50159 19.2389C4.15245 18.8851 4.15623 18.3152 4.51002 17.9661L10.7184 11.8395L4.51002 5.71286C4.15623 5.36373 4.15245 4.79389 4.50159 4.4401Z" fill="#2990FF"/>
</svg>
