<svg width="24" height="24" viewBox="0 0 24 24" fill="none" xmlns="http://www.w3.org/2000/svg">
<path fill-rule="evenodd" clip-rule="evenodd" d="M19.835 4.69583C19.489 4.13177 18.8699 3.83631 18.2508 3.91168C18.1205 3.92755 17.8715 4.01788 17.3583 4.38267C16.8591 4.73754 16.2267 5.26343 15.3304 6.01004L14.3173 6.85388V14.2205L15.5183 15.067C16.3923 15.683 17.005 16.114 17.4874 16.4009C17.979 16.6932 18.2173 16.7607 18.3481 16.7685C18.9475 16.8042 19.5298 16.4965 19.8527 15.9461C19.9279 15.8179 20.0092 15.5651 20.0528 14.981C20.0956 14.407 20.0962 13.641 20.0962 12.5522V8.38075C20.0962 7.19519 20.0956 6.35661 20.0494 5.73194C20.002 5.09124 19.913 4.82285 19.835 4.69583ZM12.5173 13.7873V7.33221H6.82714C6.21948 7.33221 5.81009 7.33273 5.49273 7.355C5.18397 7.37667 5.02987 7.41572 4.92556 7.46016C4.52421 7.63115 4.19754 7.96275 4.02546 8.39006C3.9788 8.50592 3.93989 8.6728 3.91853 8.99483C3.89666 9.32447 3.8962 9.74863 3.8962 10.3726V11.764C3.8962 12.058 3.89704 12.1478 3.90288 12.2154C3.9764 13.0666 4.62604 13.7094 5.40605 13.7807C5.46767 13.7864 5.55086 13.7873 5.83831 13.7873H12.5173ZM13.0915 5.53221L14.2089 4.60152C15.0678 3.88609 15.7531 3.31529 16.3154 2.91559C16.8703 2.52108 17.4304 2.19828 18.0333 2.12488C19.3695 1.9622 20.6647 2.60588 21.3694 3.75463C21.6854 4.2699 21.7934 4.9082 21.8445 5.59915C21.8962 6.2983 21.8962 7.20383 21.8962 8.34238V12.5901C21.8962 13.6324 21.8962 14.4658 21.8478 15.1148C21.7996 15.7616 21.6973 16.3591 21.4053 16.8568C20.749 17.9757 19.534 18.6423 18.2411 18.5653C17.6623 18.5308 17.1149 18.2735 16.5674 17.948C16.0177 17.6211 15.348 17.1491 14.5135 16.561L13.132 15.5873H12.8962V18.6204C12.8962 20.4076 11.4812 21.9 9.68273 21.9C9.07505 21.9 8.46666 21.7257 7.94581 21.3721C6.82051 20.6083 5.98762 19.9045 5.50118 18.8149C5.11184 17.9428 4.98021 16.898 4.94741 15.5334C3.40808 15.2566 2.24634 13.9538 2.10956 12.3703C2.09612 12.2147 2.09615 12.0403 2.0962 11.8048C2.0962 11.7914 2.0962 11.7778 2.0962 11.764L2.0962 10.3426C2.09619 9.7561 2.09619 9.272 2.12248 8.87569C2.14972 8.46504 2.20801 8.08454 2.35576 7.71766C2.70211 6.85762 3.36981 6.16643 4.22004 5.80419C4.58508 5.64867 4.96315 5.58774 5.36672 5.55941C5.75459 5.53219 6.22746 5.5322 6.79582 5.53221L13.0915 5.53221ZM6.74996 15.5873C6.78559 16.8215 6.90544 17.5449 7.14482 18.0811C7.41701 18.6908 7.8906 19.1591 8.95673 19.8828C9.16459 20.0239 9.4173 20.1 9.68273 20.1C10.4396 20.1 11.0962 19.4617 11.0962 18.6204V15.5873H6.74996Z" fill="#2990FF"/>
</svg>
