<svg width="24" height="24" viewBox="0 0 24 24" fill="none" xmlns="http://www.w3.org/2000/svg">
<path fill-rule="evenodd" clip-rule="evenodd" d="M6.16543 17.5877C6.37367 17.1029 6.50033 16.5443 6.50033 15.8712C4.96063 14.6121 4.0002 12.8301 4.0002 10.8545C4.0002 7.03921 7.58211 3.9463 12.0006 3.9463C16.4191 3.9463 20.0011 7.03921 20.0011 10.8545C20.0011 14.6698 16.4191 17.7627 12.0006 17.7627C11.31 17.7627 10.6398 17.6871 10.0005 17.5451C9.57741 18.0086 8.76496 18.6074 7.40978 19.084C6.62957 19.3584 5.66948 19.5922 4.50022 19.7365C5.14438 19.1008 5.78853 18.4651 6.16543 17.5877ZM10.5448 19.4674C11.0207 19.5303 11.5069 19.5627 12.0006 19.5627C17.1562 19.5627 21.8011 15.9028 21.8011 10.8545C21.8011 5.80617 17.1562 2.1463 12.0006 2.1463C6.84506 2.1463 2.2002 5.80617 2.2002 10.8545C2.2002 13.0864 3.13897 15.0813 4.61453 16.5836C4.43913 17.2337 3.99107 17.71 3.23589 18.4553C2.68738 18.9966 2.54429 19.827 2.88001 20.5206C3.21572 21.2143 3.95576 21.6173 4.72059 21.5229C7.48821 21.1815 9.36841 20.3581 10.5448 19.4674Z" fill="#2990FF"/>
</svg>
