<svg width="24" height="24" viewBox="0 0 24 24" fill="none" xmlns="http://www.w3.org/2000/svg">
<path fill-rule="evenodd" clip-rule="evenodd" d="M9.37465 5.29487C9.23165 5.27261 9.07436 5.27011 8.56897 5.27011H8.14969C7.11599 5.27011 6.4065 5.27114 5.86118 5.32505C5.33017 5.37754 5.05246 5.47312 4.85351 5.60122C4.60383 5.76197 4.39147 5.97433 4.23071 6.22402C4.10262 6.42296 4.00703 6.70068 3.95454 7.23168C3.90064 7.777 3.89961 8.4865 3.89961 9.52019V13.6368C3.89961 15.0669 3.90152 16.049 4.00068 16.7865C4.09636 17.4981 4.26748 17.8459 4.50877 18.0872C4.75005 18.3285 5.09783 18.4996 5.80947 18.5953C6.547 18.6944 7.52905 18.6964 8.95918 18.6964H15.041C16.4711 18.6964 17.4532 18.6944 18.1907 18.5953C18.9024 18.4996 19.2501 18.3285 19.4914 18.0872C19.7327 17.8459 19.9038 17.4981 19.9995 16.7865C20.0987 16.049 20.1006 15.0669 20.1006 13.6368V12.6627C20.1006 11.2934 20.0988 10.3531 20.0073 9.64419C19.9188 8.959 19.7601 8.62015 19.5383 8.38348C19.5076 8.35073 19.4758 8.31898 19.4431 8.28829C19.2064 8.06647 18.8675 7.90773 18.1824 7.81926C17.4734 7.72772 16.5332 7.72596 15.1638 7.72596H14.4582C14.437 7.72596 14.4162 7.72596 14.3956 7.72597C13.9784 7.72608 13.6736 7.72616 13.3756 7.67978C12.7576 7.58357 12.1721 7.33938 11.6688 6.96803C11.4262 6.789 11.2118 6.57238 10.9183 6.27592C10.9038 6.26128 10.8891 6.24644 10.8742 6.23139C10.5185 5.87234 10.406 5.76234 10.2896 5.67641C10.0198 5.47734 9.70593 5.34644 9.37465 5.29487ZM8.63162 3.4701C9.04879 3.46999 9.35362 3.46991 9.65154 3.51629C10.2695 3.6125 10.8551 3.85669 11.3584 4.22805C11.601 4.40707 11.8154 4.6237 12.1089 4.92017C12.1234 4.93481 12.1381 4.94964 12.153 4.96468C12.5087 5.32374 12.6211 5.43374 12.7376 5.51966C13.0073 5.71873 13.3212 5.84963 13.6525 5.9012C13.7955 5.92347 13.9528 5.92596 14.4582 5.92596L15.2254 5.92596C16.5181 5.92593 17.5751 5.92591 18.4129 6.03408C19.2876 6.14702 20.0511 6.39112 20.674 6.97497C20.7351 7.03223 20.7943 7.09145 20.8516 7.15255C21.4354 7.77547 21.6795 8.53894 21.7925 9.41369C21.9006 10.2514 21.9006 11.3085 21.9006 12.6012V13.7011C21.9006 15.0511 21.9006 16.1548 21.7835 17.0263C21.661 17.9376 21.3957 18.7285 20.7642 19.36C20.1328 19.9915 19.3418 20.2567 18.4306 20.3792C17.559 20.4964 16.4553 20.4964 15.1054 20.4964H8.89481C7.5449 20.4964 6.44116 20.4964 5.56962 20.3792C4.65839 20.2567 3.86745 19.9915 3.23597 19.36C2.6045 18.7285 2.33924 17.9376 2.21673 17.0263C2.09956 16.1548 2.09958 15.0511 2.09961 13.7012L2.09961 9.47416C2.0996 8.49775 2.09958 7.69893 2.16327 7.05461C2.22938 6.38589 2.37098 5.78744 2.71727 5.24959C3.01716 4.78382 3.41332 4.38766 3.87909 4.08778C4.41694 3.74149 5.01539 3.59988 5.68411 3.53378C6.32843 3.47009 7.12725 3.4701 8.10366 3.47011L8.56897 3.47011C8.59014 3.47011 8.61102 3.47011 8.63162 3.4701Z" fill="#2990FF"/>
</svg>
