<svg width="24" height="24" viewBox="0 0 24 24" fill="none" xmlns="http://www.w3.org/2000/svg">
<path fill-rule="evenodd" clip-rule="evenodd" d="M12.2585 3.59733C11.9093 3.95113 11.9131 4.52096 12.2669 4.8701L17.3061 9.84295H13.4061C11.4839 9.84293 9.96055 9.84292 8.75582 9.98622C7.51867 10.1334 6.50012 10.4425 5.65113 11.1456C5.37829 11.3716 5.12723 11.6226 4.90126 11.8955C4.19812 12.7445 3.88904 13.763 3.74188 15.0002C3.59857 16.2049 3.59859 17.7282 3.5986 19.6504V19.7095C3.5986 20.2066 4.00154 20.6095 4.4986 20.6095C4.99566 20.6095 5.3986 20.2066 5.3986 19.7095C5.3986 17.715 5.40009 16.2988 5.52928 15.2128C5.65607 14.1469 5.89488 13.5177 6.28755 13.0436C6.44175 12.8574 6.61307 12.6861 6.79927 12.5319C7.27338 12.1392 7.90252 11.9004 8.96844 11.7736C10.0545 11.6444 11.4707 11.6429 13.4652 11.6429H17.3061L12.8669 16.0237C12.5131 16.3728 12.5094 16.9426 12.8585 17.2964C13.2076 17.6502 13.7775 17.654 14.1313 17.3049L20.1316 11.3835C20.3029 11.2144 20.3994 10.9837 20.3994 10.7429C20.3994 10.5022 20.3029 10.2715 20.1316 10.1023L13.5312 3.5889C13.1774 3.23976 12.6076 3.24354 12.2585 3.59733Z" fill="#2990FF"/>
</svg>
