<svg width="24" height="24" viewBox="0 0 24 24" fill="none" xmlns="http://www.w3.org/2000/svg">
<path fill-rule="evenodd" clip-rule="evenodd" d="M13.3772 1.59824H16.1238C17.0294 1.59823 17.7628 1.59822 18.3576 1.64602C18.9709 1.6953 19.5144 1.79969 20.0199 2.05227C20.8539 2.46901 21.5301 3.14523 21.9468 3.97925C22.1994 4.48475 22.3038 5.02822 22.3531 5.64149C22.4009 6.23631 22.4009 6.96968 22.4009 7.87529V17.0928C22.4009 19.4706 20.4733 21.3982 18.0955 21.3982H10.9191C8.80994 21.3982 7.10015 19.6885 7.10015 17.5793V7.87529C7.10014 6.96968 7.10014 6.23631 7.14793 5.64149C7.19722 5.02822 7.3016 4.48475 7.55419 3.97925C7.97093 3.14523 8.64714 2.46901 9.48117 2.05227C9.98667 1.79969 10.5301 1.6953 11.1434 1.64602C11.7382 1.59822 12.4716 1.59823 13.3772 1.59824ZM11.2876 3.44024C10.7836 3.48073 10.499 3.55591 10.2857 3.66245C9.80039 3.90496 9.40688 4.29847 9.16437 4.78381C9.05783 4.99704 8.98265 5.28171 8.94215 5.78568C8.90083 6.29988 8.90015 6.96078 8.90015 7.91293V15.448L9.1334 15.2211C9.18099 15.1748 9.2229 15.134 9.26283 15.0982C10.2515 14.2117 11.7491 14.2117 12.7378 15.0982C12.7777 15.134 12.8196 15.1748 12.8672 15.2211L12.878 15.2315C12.9427 15.2945 12.9558 15.307 12.9646 15.3149C13.2695 15.5883 13.7314 15.5883 14.0363 15.3149C14.0451 15.307 14.0582 15.2945 14.1229 15.2315L15.0089 14.3696C15.3163 14.0704 15.584 13.81 15.8225 13.6122C16.0752 13.4026 16.3515 13.2141 16.6909 13.103C17.217 12.9308 17.7843 12.9308 18.3105 13.103C18.6498 13.2141 18.9261 13.4026 19.1788 13.6122C19.4173 13.81 19.685 14.0704 19.9924 14.3695L20.6009 14.9615V7.91293C20.6009 6.96078 20.6002 6.29988 20.5589 5.78568C20.5184 5.28171 20.4432 4.99704 20.3367 4.78381C20.0942 4.29847 19.7007 3.90496 19.2153 3.66245C19.0021 3.55591 18.7174 3.48073 18.2134 3.44024C17.6992 3.39891 17.0383 3.39824 16.0862 3.39824H13.4148C12.4627 3.39824 11.8018 3.39891 11.2876 3.44024ZM20.5758 17.4485L18.761 15.6828C18.4229 15.3539 18.2066 15.1443 18.0297 14.9977C17.861 14.8577 17.786 14.8253 17.7504 14.8137C17.5882 14.7606 17.4132 14.7606 17.2509 14.8137C17.2154 14.8253 17.1404 14.8577 16.9716 14.9977C16.7948 15.1443 16.5784 15.3539 16.2403 15.6828L15.3674 16.5321C15.3198 16.5785 15.2779 16.6193 15.2379 16.6551C14.2492 17.5415 12.7517 17.5415 11.763 16.6551C11.723 16.6193 11.6812 16.5785 11.6336 16.5322L11.6228 16.5217C11.5581 16.4588 11.5449 16.4462 11.5362 16.4384C11.2313 16.165 10.7694 16.165 10.4644 16.4384C10.4557 16.4462 10.4425 16.4588 10.3778 16.5217L8.93048 17.9299C9.09643 18.8778 9.92361 19.5982 10.9191 19.5982H18.0955C19.3584 19.5982 20.4031 18.6638 20.5758 17.4485ZM1.59985 6.45783C1.59985 4.57999 3.12215 3.0577 4.99999 3.0577C5.49705 3.0577 5.89999 3.46064 5.89999 3.9577C5.89999 4.45475 5.49705 4.8577 4.99999 4.8577C4.11626 4.8577 3.39985 5.5741 3.39985 6.45783V17.5116C3.39985 18.3953 4.11626 19.1118 4.99999 19.1118C5.49705 19.1118 5.89999 19.5147 5.89999 20.0118C5.89999 20.5088 5.49705 20.9118 4.99999 20.9118C3.12214 20.9118 1.59985 19.3895 1.59985 17.5116V6.45783Z" fill="#2990FF"/>
<path d="M18.5013 7.0007C18.5013 7.8295 17.8295 8.50137 17.0008 8.50137C16.172 8.50137 15.5002 7.8295 15.5002 7.0007C15.5002 6.1719 16.172 5.50003 17.0008 5.50003C17.8295 5.50003 18.5013 6.1719 18.5013 7.0007Z" fill="#2990FF"/>
</svg>
