<svg width="24" height="24" viewBox="0 0 24 24" fill="none" xmlns="http://www.w3.org/2000/svg">
<path fill-rule="evenodd" clip-rule="evenodd" d="M7.99823 5.12657C6.66349 5.12657 5.54705 6.23897 5.54705 7.65412C5.54705 9.06927 6.66349 10.1817 7.99823 10.1817C9.33297 10.1817 10.4494 9.06927 10.4494 7.65412C10.4494 6.23897 9.33297 5.12657 7.99823 5.12657ZM3.74705 7.65412C3.74705 5.2833 5.63136 3.32657 7.99823 3.32657C10.3651 3.32657 12.2494 5.2833 12.2494 7.65412C12.2494 10.0249 10.3651 11.9817 7.99823 11.9817C5.63136 11.9817 3.74705 10.0249 3.74705 7.65412ZM16.2474 7.98149C15.4815 7.98149 14.8243 8.62336 14.8243 9.46059C14.8243 10.2978 15.4815 10.9397 16.2474 10.9397C17.0132 10.9397 17.6704 10.2978 17.6704 9.46059C17.6704 8.62336 17.0132 7.98149 16.2474 7.98149ZM13.0243 9.46059C13.0243 7.66994 14.4472 6.18149 16.2474 6.18149C18.0475 6.18149 19.4704 7.66994 19.4704 9.46059C19.4704 11.2512 18.0475 12.7397 16.2474 12.7397C14.4472 12.7397 13.0243 11.2512 13.0243 9.46059ZM3.75995 17.4364C2.96153 18.1734 2.65967 19.0374 2.61049 19.5404C2.56212 20.0351 2.12188 20.3969 1.62719 20.3485C1.13249 20.3002 0.770666 19.8599 0.819033 19.3652C0.90949 18.4401 1.40354 17.1619 2.53903 16.1137C3.69433 15.0473 5.45812 14.2684 7.99823 14.2684C10.5383 14.2684 12.3021 15.0473 13.4574 16.1137C14.5929 17.1619 15.087 18.4401 15.1774 19.3652C15.2258 19.8599 14.864 20.3002 14.3693 20.3485C13.8746 20.3969 13.4343 20.0351 13.386 19.5404C13.3368 19.0374 13.0349 18.1734 12.2365 17.4364C11.4579 16.7176 10.1498 16.0684 7.99823 16.0684C5.84668 16.0684 4.53856 16.7176 3.75995 17.4364ZM15.1038 15.1684C15.1038 14.6713 15.5068 14.2684 16.0038 14.2684C18.5439 14.2684 20.3077 15.0473 21.463 16.1137C22.5985 17.1619 23.0926 18.4401 23.183 19.3652C23.2314 19.8599 22.8696 20.3002 22.3749 20.3485C21.8802 20.3969 21.4399 20.0351 21.3916 19.5404C21.3424 19.0374 21.0405 18.1734 20.2421 17.4364C19.4635 16.7176 18.1554 16.0684 16.0038 16.0684C15.5068 16.0684 15.1038 15.6654 15.1038 15.1684Z" fill="#2990FF"/>
</svg>
