<svg width="24" height="24" viewBox="0 0 24 24" fill="none" xmlns="http://www.w3.org/2000/svg">
<path fill-rule="evenodd" clip-rule="evenodd" d="M18.9434 8.38437C18.9434 10.2654 18.1616 11.9625 16.9172 13.1846C16.8507 13.2499 16.8156 13.3021 16.8001 13.3304C16.7747 15.2539 15.1766 16.7209 13.316 16.7209H10.6846C8.82389 16.7209 7.22586 15.2539 7.20041 13.3304C7.18496 13.3021 7.14981 13.2499 7.08336 13.1846C5.83892 11.9625 5.05713 10.2654 5.05713 8.38437C5.05713 4.58161 8.21442 1.58586 12.0003 1.58586C15.7861 1.58586 18.9434 4.58161 18.9434 8.38437ZM11.1824 20.2997C10.8471 20.2727 10.5488 20.1187 10.3386 19.8874C10.1417 19.6705 10.0221 19.3855 10.0221 19.0735C10.0221 18.9036 10.1638 18.7659 10.3386 18.7659H13.6619C13.8367 18.7659 13.9784 18.9036 13.9784 19.0735C13.9784 19.3855 13.8589 19.6705 13.6619 19.8874C13.4518 20.1187 13.1535 20.2727 12.8181 20.2997C12.7832 20.3025 12.748 20.3039 12.7124 20.3039H11.2881C11.2525 20.3039 11.2173 20.3025 11.1824 20.2997ZM10.3386 16.9659H13.6619C14.7821 16.9659 15.7784 17.8614 15.7784 19.0735C15.7784 20.7952 14.357 22.1039 12.7124 22.1039H11.2881C9.64357 22.1039 8.22213 20.7952 8.22213 19.0735C8.22213 17.8615 9.21847 16.9659 10.3386 16.9659ZM15.656 11.9003C15.2747 12.2747 15.0004 12.757 15.0004 13.2838C15.0004 14.1879 14.2463 14.9209 13.316 14.9209H10.6846C9.75426 14.9209 9.0001 14.1879 9.0001 13.2838C9.0001 12.757 8.72582 12.2747 8.34456 11.9003C7.42498 10.9973 6.85713 9.75528 6.85713 8.38437C6.85713 5.62377 9.15979 3.38586 12.0003 3.38586C14.8407 3.38586 17.1434 5.62377 17.1434 8.38437C17.1434 9.75528 16.5755 10.9973 15.656 11.9003Z" fill="#2990FF"/>
</svg>
