<svg width="24" height="24" viewBox="0 0 24 24" fill="none" xmlns="http://www.w3.org/2000/svg">
<path fill-rule="evenodd" clip-rule="evenodd" d="M17.8034 6.03756C16.0742 4.33116 13.2947 4.33116 11.5656 6.03756L9.94987 7.63197C9.59608 7.98111 9.02624 7.97733 8.67711 7.62354C8.32797 7.26975 8.33175 6.69991 8.68554 6.35078L10.3012 4.75636C12.7314 2.35823 16.6376 2.35823 19.0677 4.75636C21.5438 7.19987 21.5438 11.1963 19.0677 13.6398L17.5528 15.1348C17.199 15.4839 16.6291 15.4801 16.28 15.1263C15.9309 14.7725 15.9346 14.2027 16.2884 13.8536L17.8034 12.3586C19.5652 10.6199 19.5652 7.77625 17.8034 6.03756ZM7.72216 8.56591C8.07129 8.91971 8.06752 9.48954 7.71373 9.83868L6.19881 11.3336C4.43692 13.0723 4.43692 15.916 6.19881 17.6547C7.92797 19.3611 10.7074 19.3611 12.4366 17.6547L14.0523 16.0603C14.4061 15.7111 14.9759 15.7149 15.3251 16.0687C15.6742 16.4225 15.6704 16.9923 15.3166 17.3415L13.7009 18.9359C11.2708 21.334 7.36461 21.334 4.93448 18.9359C2.45836 16.4924 2.45837 12.496 4.93448 10.0524L6.4494 8.55748C6.80319 8.20834 7.37302 8.21212 7.72216 8.56591ZM14.8778 9.00725C15.227 9.36105 15.2232 9.93088 14.8694 10.28L10.3971 14.6934C10.0433 15.0426 9.47347 15.0388 9.12434 14.685C8.7752 14.3312 8.77898 13.7614 9.13277 13.4122L13.6051 8.99882C13.9589 8.64968 14.5287 8.65346 14.8778 9.00725Z" fill="#2990FF"/>
</svg>
