<svg width="24" height="24" viewBox="0 0 24 24" fill="none" xmlns="http://www.w3.org/2000/svg">
<path fill-rule="evenodd" clip-rule="evenodd" d="M11.7661 3.36458C9.8036 3.36458 8.2127 4.95547 8.2127 6.91794V8.42464H15.3194V6.91794C15.3194 4.95547 13.7285 3.36458 11.7661 3.36458ZM17.1194 8.42893V6.91794C17.1194 3.96136 14.7227 1.56458 11.7661 1.56458C8.80948 1.56458 6.4127 3.96136 6.4127 6.91794V8.43615C6.10065 8.45218 5.81863 8.48978 5.56044 8.57724C4.70929 8.86557 4.04098 9.53388 3.75265 10.385C3.59864 10.8397 3.59924 11.3683 3.59995 12.0045C3.6 12.0483 3.60005 12.0925 3.60005 12.1373L3.60005 18.0723C3.60003 18.5985 3.60002 19.0468 3.6301 19.415C3.66171 19.8019 3.73098 20.1789 3.91466 20.5393C4.1914 21.0825 4.63298 21.5241 5.17612 21.8008C5.53661 21.9845 5.91354 22.0537 6.30045 22.0854C6.66864 22.1154 7.11699 22.1154 7.64312 22.1154H16.3578C16.8839 22.1154 17.3323 22.1154 17.7005 22.0854C18.0874 22.0537 18.4643 21.9845 18.8248 21.8008C19.3679 21.5241 19.8095 21.0825 20.0863 20.5393C20.2699 20.1789 20.3392 19.8019 20.3708 19.415C20.4009 19.0468 20.4009 18.5985 20.4009 18.0723V12.4677C20.4009 11.9416 20.4009 11.4932 20.3708 11.125C20.3392 10.7381 20.2699 10.3612 20.0863 10.0007C19.8095 9.45757 19.3679 9.01599 18.8248 8.73925C18.4643 8.55557 18.0874 8.4863 17.7005 8.45469C17.5249 8.44035 17.3312 8.43285 17.1194 8.42893ZM7.3127 10.2246C6.47075 10.2246 6.27213 10.2366 6.13797 10.2821C5.81758 10.3906 5.56602 10.6422 5.45749 10.9626C5.41204 11.0967 5.40005 11.2953 5.40005 12.1373V18.037C5.40005 18.6081 5.40075 18.9823 5.42412 19.2684C5.44664 19.544 5.48563 19.6577 5.51847 19.7222C5.62264 19.9266 5.78886 20.0928 5.9933 20.197C6.05775 20.2298 6.17143 20.2688 6.44703 20.2913C6.73313 20.3147 7.10735 20.3154 7.67848 20.3154H16.3224C16.8936 20.3154 17.2678 20.3147 17.5539 20.2913C17.8295 20.2688 17.9432 20.2298 18.0076 20.197C18.2121 20.0928 18.3783 19.9266 18.4824 19.7222C18.5153 19.6577 18.5543 19.544 18.5768 19.2684C18.6002 18.9823 18.6009 18.6081 18.6009 18.037V12.5031C18.6009 11.9319 18.6002 11.5577 18.5768 11.2716C18.5543 10.996 18.5153 10.8823 18.4824 10.8179C18.3783 10.6134 18.2121 10.4472 18.0076 10.3431C17.9432 10.3102 17.8295 10.2712 17.5539 10.2487C17.2678 10.2253 16.8936 10.2246 16.3224 10.2246H7.3127Z" fill="#2990FF"/>
<path d="M13.501 15.2945C13.501 16.1124 12.8292 16.7755 12.0005 16.7755C11.1718 16.7755 10.5 16.1124 10.5 15.2945C10.5 14.4765 11.1718 13.8135 12.0005 13.8135C12.8292 13.8135 13.501 14.4765 13.501 15.2945Z" fill="#2990FF"/>
</svg>
