<svg width="24" height="24" viewBox="0 0 24 24" fill="none" xmlns="http://www.w3.org/2000/svg">
<path fill-rule="evenodd" clip-rule="evenodd" d="M7.67204 6.26626C7.67204 3.91303 9.64158 2.06133 12.0008 2.06133C14.36 2.06133 16.3296 3.91302 16.3296 6.26625V11.2236C16.3296 13.5769 14.36 15.4286 12.0008 15.4286C9.64158 15.4286 7.67204 13.5769 7.67204 11.2236V6.26626ZM12.0008 3.86133C10.5727 3.86133 9.47204 4.96897 9.47204 6.26626V11.2236C9.47204 12.5209 10.5727 13.6286 12.0008 13.6286C13.4289 13.6286 14.5296 12.5209 14.5296 11.2236V6.26625C14.5296 4.96897 13.4289 3.86133 12.0008 3.86133ZM5.57187 11.1499C6.06893 11.1499 6.47187 11.5528 6.47187 12.0499C6.47187 12.6981 6.73956 13.944 7.56796 15.0087C8.36221 16.0294 9.70758 16.9335 12.0008 16.9335C14.294 16.9335 15.6394 16.0294 16.4336 15.0087C17.262 13.944 17.5297 12.6981 17.5297 12.0499C17.5297 11.5528 17.9327 11.1499 18.4297 11.1499C18.9268 11.1499 19.3297 11.5528 19.3297 12.0499C19.3297 13.0541 18.9545 14.7 17.8542 16.114C16.8438 17.4126 15.2507 18.4759 12.9008 18.6929V20.7253C12.9008 21.2223 12.4979 21.6253 12.0008 21.6253C11.5037 21.6253 11.1008 21.2223 11.1008 20.7253V18.6929C8.75092 18.4759 7.15775 17.4126 6.14735 16.114C5.04708 14.7 4.67188 13.0541 4.67188 12.0499C4.67188 11.5528 5.07482 11.1499 5.57187 11.1499Z" fill="#2990FF"/>
</svg>
