<svg width="24" height="24" viewBox="0 0 24 24" fill="none" xmlns="http://www.w3.org/2000/svg">
<path fill-rule="evenodd" clip-rule="evenodd" d="M9.1464 15.449C12.0984 15.449 14.6994 12.8468 14.6994 9.37121C14.6994 8.58696 14.5642 7.84243 14.3207 7.16098C14.0194 6.31778 14.3171 5.46999 14.8797 4.96935C15.4633 4.44999 16.4195 4.24174 17.2611 4.76156C20.0066 6.45743 21.8008 9.59252 21.8008 13.1225C21.8008 18.3486 17.8178 22.8003 12.6478 22.8003C9.18004 22.8003 6.22034 20.772 4.67446 17.879C4.20722 17.0046 4.47957 16.0702 5.01846 15.5255C5.53864 14.9998 6.39068 14.7368 7.22029 15.0733C7.8198 15.3164 8.46762 15.449 9.1464 15.449ZM7.67356 18.9242C7.4923 18.7457 7.31944 18.5576 7.15566 18.3606C6.85786 18.0025 6.59012 17.615 6.35668 17.2028C6.32447 17.1459 6.29292 17.0885 6.26202 17.0307C6.16768 16.8541 6.3583 16.6661 6.54382 16.7413C6.5935 16.7615 6.64344 16.7811 6.69363 16.8001C7.11975 16.9616 7.56393 17.0822 8.02203 17.1575C8.19617 17.1861 8.37232 17.2082 8.55027 17.2235C8.74689 17.2404 8.94571 17.249 9.1464 17.249C13.2074 17.249 16.4994 13.722 16.4994 9.37121C16.4994 9.15218 16.491 8.93522 16.4747 8.7207C16.4574 8.49458 16.4313 8.27117 16.3966 8.05085C16.3231 7.58462 16.2115 7.1323 16.0651 6.69773C16.0491 6.65003 16.0326 6.60255 16.0157 6.55529C15.9484 6.36678 16.1448 6.18777 16.3151 6.29297C16.3677 6.32544 16.4199 6.35858 16.4716 6.39239C16.868 6.65142 17.2396 6.94952 17.582 7.28167C17.8014 7.49452 18.0087 7.72136 18.2027 7.96087C19.3229 9.34335 20.0008 11.1481 20.0008 13.1225C20.0008 17.4733 16.7088 21.0003 12.6478 21.0003C10.7295 21.0003 8.98276 20.2133 7.67356 18.9242Z" fill="#2990FF"/>
<path d="M8.68203 7.86235C8.78069 7.59574 8.83002 7.46244 8.90189 7.42442C8.96415 7.39149 9.03867 7.39149 9.10093 7.42442C9.1728 7.46244 9.22213 7.59574 9.32079 7.86235L9.62244 8.6775C9.64243 8.73151 9.65242 8.75852 9.66834 8.78116C9.68245 8.80121 9.69992 8.81868 9.71998 8.83279C9.74261 8.84871 9.76962 8.85871 9.82364 8.87869L10.6388 9.18031C10.9054 9.27897 11.0387 9.3283 11.0768 9.40017C11.1097 9.46243 11.1097 9.53695 11.0768 9.59922C11.0387 9.67109 10.9054 9.72042 10.6388 9.81908L9.82364 10.1207C9.76962 10.1407 9.74261 10.1507 9.71998 10.1666C9.69992 10.1807 9.68245 10.1982 9.66834 10.2182C9.65242 10.2409 9.64243 10.2679 9.62244 10.3219L9.32079 11.137C9.22213 11.4036 9.1728 11.5369 9.10093 11.575C9.03867 11.6079 8.96415 11.6079 8.90189 11.575C8.83002 11.5369 8.78069 11.4036 8.68203 11.137L8.38038 10.3219C8.36039 10.2679 8.3504 10.2409 8.33448 10.2182C8.32037 10.1982 8.3029 10.1807 8.28284 10.1666C8.2602 10.1507 8.2332 10.1407 8.17918 10.1207L7.36403 9.81908C7.0974 9.72042 6.96409 9.67109 6.92607 9.59922C6.89313 9.53695 6.89313 9.46243 6.92607 9.40017C6.96409 9.3283 7.0974 9.27897 7.36403 9.18031L8.17918 8.87869C8.2332 8.85871 8.2602 8.84871 8.28284 8.83279C8.3029 8.81868 8.32037 8.80121 8.33448 8.78116C8.3504 8.75852 8.36039 8.73151 8.38038 8.6775L8.68203 7.86235Z" fill="#2990FF"/>
<path d="M4.6814 2.86232C4.78006 2.59571 4.82939 2.46241 4.90126 2.42439C4.96352 2.39146 5.03804 2.39146 5.1003 2.42439C5.17218 2.46241 5.22151 2.59571 5.32016 2.86232L5.75689 4.04248C5.77688 4.0965 5.78687 4.12351 5.80279 4.14614C5.8169 4.1662 5.83437 4.18367 5.85443 4.19778C5.87706 4.2137 5.90407 4.22369 5.95809 4.24368L7.13827 4.68036C7.4049 4.77902 7.53821 4.82835 7.57623 4.90022C7.60917 4.96249 7.60917 5.03701 7.57623 5.09927C7.53821 5.17114 7.4049 5.22047 7.13827 5.31913L5.95809 5.75581C5.90407 5.7758 5.87706 5.7858 5.85443 5.80172C5.83437 5.81582 5.8169 5.83329 5.80279 5.85335C5.78687 5.87599 5.77688 5.90299 5.75689 5.95701L5.32016 7.13718C5.22151 7.40378 5.17218 7.53709 5.1003 7.5751C5.03804 7.60804 4.96352 7.60804 4.90126 7.5751C4.82939 7.53709 4.78006 7.40378 4.6814 7.13718L4.24468 5.95701C4.22469 5.90299 4.2147 5.87599 4.19878 5.85335C4.18467 5.83329 4.1672 5.81582 4.14714 5.80172C4.12451 5.7858 4.0975 5.7758 4.04348 5.75581L2.8633 5.31913C2.59667 5.22047 2.46336 5.17114 2.42534 5.09927C2.3924 5.03701 2.3924 4.96249 2.42534 4.90022C2.46336 4.82835 2.59667 4.77902 2.8633 4.68036L4.04348 4.24368C4.0975 4.22369 4.12451 4.2137 4.14714 4.19778C4.1672 4.18367 4.18467 4.1662 4.19878 4.14614C4.2147 4.12351 4.22469 4.0965 4.24468 4.04248L4.6814 2.86232Z" fill="#2990FF"/>
</svg>
