<svg width="24" height="24" viewBox="0 0 24 24" fill="none" xmlns="http://www.w3.org/2000/svg">
<g clip-path="url(#clip0_69_4122)">
<path fill-rule="evenodd" clip-rule="evenodd" d="M15.1108 5.13047C13.463 5.13047 12.1833 6.41061 12.1833 7.92168C12.1833 9.43276 13.463 10.7129 15.1108 10.7129C16.7586 10.7129 18.0382 9.43276 18.0382 7.92168C18.0382 6.41061 16.7586 5.13047 15.1108 5.13047ZM10.3833 7.92168C10.3833 5.35556 12.5309 3.33047 15.1108 3.33047C17.6906 3.33047 19.8382 5.35556 19.8382 7.92168C19.8382 10.4878 17.6906 12.5129 15.1108 12.5129C12.5309 12.5129 10.3833 10.4878 10.3833 7.92168ZM4.58528 7.02168C5.08234 7.02168 5.48528 7.42463 5.48528 7.92168V9.79009H7.45587C7.95293 9.79009 8.35587 10.193 8.35587 10.6901C8.35587 11.1871 7.95293 11.5901 7.45587 11.5901H5.48528V13.4585C5.48528 13.9556 5.08234 14.3585 4.58528 14.3585C4.08823 14.3585 3.68528 13.9556 3.68528 13.4585V11.5901H1.7147C1.21764 11.5901 0.814697 11.1871 0.814697 10.6901C0.814697 10.193 1.21764 9.79009 1.7147 9.79009H3.68528V7.92168C3.68528 7.42463 4.08823 7.02168 4.58528 7.02168ZM15.1108 15.7427C10.1849 15.7427 8.93853 18.4981 8.8295 19.5495C8.77824 20.0439 8.33588 20.4032 7.84148 20.3519C7.34707 20.3006 6.98784 19.8583 7.0391 19.3639C7.24903 17.3393 9.3198 13.9427 15.1108 13.9427C20.9017 13.9427 22.9725 17.3393 23.1824 19.3639C23.2337 19.8583 22.8745 20.3006 22.3801 20.3519C21.8857 20.4032 21.4433 20.0439 21.392 19.5495C21.283 18.4981 20.0367 15.7427 15.1108 15.7427Z" fill="#2990FF"/>
</g>
<defs>
<clipPath id="clip0_69_4122">
<rect width="24.0013" height="24" fill="white"/>
</clipPath>
</defs>
</svg>
