<svg width="24" height="24" viewBox="0 0 24 24" fill="none" xmlns="http://www.w3.org/2000/svg">
<path fill-rule="evenodd" clip-rule="evenodd" d="M9.4001 3.89998C7.92155 3.89998 6.7001 5.12033 6.7001 6.65411C6.7001 8.18789 7.92155 9.40825 9.4001 9.40825C10.8786 9.40825 12.1001 8.18789 12.1001 6.65411C12.1001 5.12033 10.8786 3.89998 9.4001 3.89998ZM4.9001 6.65411C4.9001 4.15164 6.9022 2.09998 9.4001 2.09998C11.898 2.09998 13.9001 4.15164 13.9001 6.65411C13.9001 9.15658 11.898 11.2082 9.4001 11.2082C6.9022 11.2082 4.9001 9.15658 4.9001 6.65411ZM14.2664 15.4474C14.0329 15.8908 13.9001 16.3984 13.9001 16.9398C13.9001 18.6978 15.3006 20.1 17.0001 20.1C17.5338 20.1 18.0363 19.9629 18.4756 19.7199L14.2664 15.4474ZM13.5312 13.4366C12.6457 14.3358 12.1001 15.5761 12.1001 16.9398C12.1001 19.6665 14.2813 21.9 17.0001 21.9C18.3574 21.9 19.585 21.3403 20.4697 20.4424C21.354 19.5447 21.9001 18.3049 21.9001 16.9398C21.9001 14.2131 19.7189 11.9797 17.0001 11.9797C15.641 11.9797 14.4163 12.5378 13.5312 13.4366ZM15.525 14.1602L19.7336 18.4321C19.9674 17.9882 20.1001 17.4806 20.1001 16.9398C20.1001 15.1818 18.6996 13.7797 17.0001 13.7797C16.4678 13.7797 15.9648 13.9172 15.525 14.1602ZM3.53474 13.847C4.38241 13.0527 5.41768 12.7917 6.2001 12.7917H10.5778C11.0748 12.7917 11.4778 13.1946 11.4778 13.6917C11.4778 14.1888 11.0748 14.5917 10.5778 14.5917H6.2001C5.78251 14.5917 5.21779 14.7367 4.76546 15.1605C4.33319 15.5655 3.9001 16.3224 3.9001 17.7519C3.9001 18.2489 3.49715 18.6519 3.0001 18.6519C2.50304 18.6519 2.1001 18.2489 2.1001 17.7519C2.1001 15.9332 2.66701 14.66 3.53474 13.847Z" fill="#2990FF"/>
</svg>
