<svg width="24" height="24" viewBox="0 0 24 24" fill="none" xmlns="http://www.w3.org/2000/svg">
<path fill-rule="evenodd" clip-rule="evenodd" d="M14.9603 2.73277C15.5628 2.5564 16.2031 2.5564 16.8055 2.73277C17.2607 2.86602 17.639 3.11557 18.005 3.41953C18.3553 3.71053 18.7509 4.10099 19.2244 4.56819L19.2793 4.62243C19.7644 5.10112 20.1693 5.50068 20.471 5.85485C20.7857 6.22441 21.0446 6.60761 21.1827 7.07081C21.3651 7.68276 21.3651 8.33461 21.1827 8.94657C21.0446 9.40976 20.7857 9.79297 20.471 10.1625C20.1693 10.5167 19.7644 10.9163 19.2792 11.395L18.1965 12.4635C17.9095 12.7467 17.8347 12.8239 17.7764 12.9025C17.6604 13.0587 17.5762 13.2361 17.5287 13.4248C17.5048 13.5197 17.4923 13.6264 17.4547 14.0279L17.4515 14.0619C17.3668 14.965 17.2989 15.6885 17.2085 16.247C17.1194 16.7981 16.9911 17.3198 16.7106 17.7401C15.9145 18.933 14.4363 19.4713 13.0596 19.0697C12.5745 18.9282 12.1408 18.6112 11.718 18.2464C11.2898 17.8768 10.7725 17.3664 10.1269 16.7292L9.22711 15.8413L5.42206 19.5963C5.06826 19.9454 4.49843 19.9416 4.14929 19.5878C3.80016 19.234 3.80393 18.6642 4.15773 18.3151L7.9458 14.5769L7.15896 13.8004C6.50579 13.1558 5.9831 12.64 5.60433 12.2132C5.2312 11.7927 4.90556 11.3607 4.7574 10.8763C4.33253 9.48722 4.87072 7.98407 6.08069 7.18038C6.50265 6.9001 7.02849 6.77297 7.58372 6.68486C8.14734 6.59543 8.87863 6.52861 9.79246 6.44512L9.82633 6.44202C10.2187 6.40617 10.323 6.39429 10.4161 6.37143C10.6029 6.32549 10.7791 6.24365 10.9347 6.13045C11.0122 6.0741 11.0885 6.00203 11.369 5.72527L12.5416 4.56814C13.015 4.10096 13.4106 3.71052 13.7609 3.41953C14.1268 3.11557 14.5051 2.86602 14.9603 2.73277ZM16.2998 4.46026C16.0276 4.38057 15.7383 4.38057 15.466 4.46026C15.3444 4.49588 15.1859 4.57582 14.911 4.80416C14.6272 5.03991 14.2863 5.3752 13.7786 5.87627L12.6333 7.00647C12.6202 7.01937 12.6073 7.03212 12.5946 7.04471C12.3707 7.26581 12.1942 7.44016 11.9935 7.58609C11.6491 7.83661 11.2593 8.01775 10.8457 8.1194C10.6048 8.17861 10.3577 8.2011 10.0443 8.22962C10.0265 8.23124 10.0084 8.23288 9.99012 8.23455C9.03469 8.32185 8.36328 8.38368 7.86582 8.46262C7.35302 8.54399 7.15661 8.62662 7.07662 8.67975C6.52989 9.04291 6.2867 9.72212 6.47868 10.3498C6.50676 10.4416 6.60609 10.6301 6.9507 11.0185C7.285 11.3952 7.76459 11.8692 8.44748 12.5431L11.3669 15.424C12.0424 16.0906 12.5169 16.5582 12.894 16.8836C13.282 17.2185 13.4705 17.3145 13.5636 17.3417C14.1857 17.5232 14.8536 17.2799 15.2134 16.7409C15.2672 16.6602 15.3498 16.4655 15.4316 15.9595C15.5112 15.4678 15.5739 14.8046 15.6625 13.8597C15.6643 13.841 15.666 13.8225 15.6677 13.8042C15.6977 13.4837 15.7213 13.231 15.7833 12.985C15.8884 12.5676 16.0746 12.1749 16.3313 11.8293C16.4825 11.6257 16.6633 11.4475 16.8925 11.2215C16.9055 11.2086 16.9188 11.1955 16.9321 11.1823L17.9873 10.1411C18.5072 9.628 18.8556 9.28306 19.1006 8.99542C19.3382 8.71643 19.421 8.55553 19.4577 8.43248C19.5401 8.15596 19.5401 7.86142 19.4577 7.5849C19.421 7.46185 19.3382 7.30095 19.1006 7.02196C18.8556 6.73432 18.5072 6.38937 17.9873 5.87627C17.4795 5.3752 17.1387 5.03991 16.8548 4.80416C16.5799 4.57582 16.4215 4.49588 16.2998 4.46026Z" fill="#2990FF"/>
</svg>
