<svg width="24" height="24" viewBox="0 0 24 24" fill="none" xmlns="http://www.w3.org/2000/svg">
<path fill-rule="evenodd" clip-rule="evenodd" d="M2.1001 7.99998C2.1001 7.50292 2.50304 7.09998 3.0001 7.09998H21.0001C21.4972 7.09998 21.9001 7.50292 21.9001 7.99998C21.9001 8.49703 21.4972 8.89998 21.0001 8.89998H3.0001C2.50304 8.89998 2.1001 8.49703 2.1001 7.99998ZM2.1001 12C2.1001 11.5029 2.50304 11.1 3.0001 11.1H21.0001C21.4972 11.1 21.9001 11.5029 21.9001 12C21.9001 12.497 21.4972 12.9 21.0001 12.9H3.0001C2.50304 12.9 2.1001 12.497 2.1001 12ZM2.1001 16C2.1001 15.5029 2.50304 15.1 3.0001 15.1H21.0001C21.4972 15.1 21.9001 15.5029 21.9001 16C21.9001 16.497 21.4972 16.9 21.0001 16.9H3.0001C2.50304 16.9 2.1001 16.497 2.1001 16Z" fill="#2990FF"/>
</svg>
