<svg width="24" height="24" viewBox="0 0 24 24" fill="none" xmlns="http://www.w3.org/2000/svg">
<path fill-rule="evenodd" clip-rule="evenodd" d="M9.11423 3.89998C5.68192 3.89998 2.9001 6.6812 2.9001 10.1112C2.9001 13.5413 5.68192 16.3225 9.11423 16.3225C10.8313 16.3225 12.3843 15.6276 13.5099 14.5017C14.6345 13.3768 15.3284 11.8258 15.3284 10.1112C15.3284 6.6812 12.5465 3.89998 9.11423 3.89998ZM1.1001 10.1112C1.1001 5.6864 4.68849 2.09998 9.11423 2.09998C13.54 2.09998 17.1284 5.6864 17.1284 10.1112C17.1284 11.9983 16.4748 13.734 15.383 15.1027L20.6369 20.364C20.9882 20.7157 20.9878 21.2856 20.636 21.6368C20.2843 21.988 19.7145 21.9876 19.3633 21.6359L14.1103 16.3756C12.7406 17.4684 11.0032 18.1225 9.11423 18.1225C4.68849 18.1225 1.1001 14.5361 1.1001 10.1112Z" fill="#2990FF"/>
</svg>
