<svg width="24" height="24" viewBox="0 0 24 24" fill="none" xmlns="http://www.w3.org/2000/svg">
<path d="M10.7148 9.72917C10.7148 10.4299 10.235 10.998 9.64326 10.998C9.0515 10.998 8.57178 10.4299 8.57178 9.72917C8.57178 9.0284 9.0515 8.46031 9.64326 8.46031C10.235 8.46031 10.7148 9.0284 10.7148 9.72917Z" fill="#2990FF"/>
<path d="M15.8579 9.72917C15.8579 10.4299 15.3782 10.998 14.7864 10.998C14.1946 10.998 13.7149 10.4299 13.7149 9.72917C13.7149 9.0284 14.1946 8.46031 14.7864 8.46031C15.3782 8.46031 15.8579 9.0284 15.8579 9.72917Z" fill="#2990FF"/>
<path fill-rule="evenodd" clip-rule="evenodd" d="M12.0005 4.28476C7.7521 4.28476 4.32856 7.68026 4.32856 11.8438C4.32856 16.0073 7.7521 19.4028 12.0005 19.4028C16.2488 19.4028 19.6723 16.0073 19.6723 11.8438C19.6723 7.68026 16.2488 4.28476 12.0005 4.28476ZM2.52856 11.8438C2.52856 6.66373 6.78056 2.48476 12.0005 2.48476C17.2204 2.48476 21.4723 6.66373 21.4723 11.8438C21.4723 17.0238 17.2204 21.2028 12.0005 21.2028C6.78056 21.2028 2.52856 17.0238 2.52856 11.8438ZM15.3015 13.1102C15.7699 13.2764 16.015 13.7908 15.8489 14.2593L15.0006 13.9585C15.8489 14.2593 15.8487 14.2598 15.8485 14.2604L15.8481 14.2615L15.8472 14.2638L15.8454 14.269L15.8408 14.2812C15.8374 14.2902 15.8333 14.3009 15.8284 14.3131C15.8185 14.3376 15.8055 14.3684 15.789 14.4046C15.7561 14.4769 15.7088 14.5715 15.6441 14.6808C15.5152 14.8988 15.3144 15.1806 15.017 15.4602C14.4055 16.035 13.4369 16.5503 12.0005 16.5503C10.564 16.5503 9.59548 16.035 8.98396 15.4603C8.6865 15.1807 8.48568 14.8989 8.35679 14.6809C8.29216 14.5715 8.24484 14.4769 8.21189 14.4046C8.19538 14.3685 8.18239 14.3377 8.17256 14.3132C8.16764 14.301 8.1635 14.2903 8.1601 14.2813L8.15555 14.269L8.15368 14.2639L8.15284 14.2616L8.15244 14.2604C8.15225 14.2599 8.15206 14.2594 9.0003 13.9585L8.15206 14.2594C7.98591 13.7909 8.23099 13.2765 8.69945 13.1103C9.16321 12.9458 9.67205 13.1844 9.84341 13.6437C9.84442 13.6461 9.84647 13.6509 9.84964 13.6578C9.85888 13.6781 9.87719 13.7156 9.90632 13.7649C9.96494 13.8641 10.0641 14.0052 10.2167 14.1486C10.5052 14.4198 11.0368 14.7503 12.0005 14.7503C12.9642 14.7503 13.4957 14.4198 13.7842 14.1486C13.9368 14.0052 14.036 13.864 14.0946 13.7649C14.1237 13.7156 14.142 13.678 14.1513 13.6578C14.1544 13.6508 14.1565 13.646 14.1575 13.6436C14.3289 13.1843 14.8377 12.9458 15.3015 13.1102ZM9.8478 13.6557C9.84781 13.6557 9.84782 13.6557 9.84783 13.6557C9.84806 13.6564 9.84829 13.657 9.84853 13.6577L9.04413 13.943C9.84852 13.6577 9.84834 13.6572 9.84816 13.6567L9.84783 13.6557L9.84781 13.6557L9.8478 13.6557Z" fill="#2990FF"/>
</svg>
