<svg width="24" height="24" viewBox="0 0 24 24" fill="none" xmlns="http://www.w3.org/2000/svg">
<path fill-rule="evenodd" clip-rule="evenodd" d="M12.0001 15.45C13.9055 15.45 15.4501 13.9054 15.4501 12C15.4501 10.0946 13.9055 8.54998 12.0001 8.54998C10.0947 8.54998 8.5501 10.0946 8.5501 12C8.5501 13.9054 10.0947 15.45 12.0001 15.45ZM12.0001 17.25C14.8996 17.25 17.2501 14.8995 17.2501 12C17.2501 9.10048 14.8996 6.74998 12.0001 6.74998C9.1006 6.74998 6.7501 9.10048 6.7501 12C6.7501 14.8995 9.1006 17.25 12.0001 17.25Z" fill="#2990FF"/>
<path fill-rule="evenodd" clip-rule="evenodd" d="M12.0001 1.09998C12.4972 1.09998 12.9001 1.50292 12.9001 1.99998V3.73911C12.9001 4.23616 12.4972 4.63911 12.0001 4.63911C11.503 4.63911 11.1001 4.23616 11.1001 3.73911V1.99998C11.1001 1.50292 11.503 1.09998 12.0001 1.09998ZM3.9724 3.97228C4.32387 3.6208 4.89372 3.6208 5.24519 3.97228L6.54954 5.27662C6.90101 5.62809 6.90101 6.19794 6.54954 6.54942C6.19807 6.90089 5.62822 6.90089 5.27674 6.54942L3.9724 5.24507C3.62093 4.8936 3.62093 4.32375 3.9724 3.97228ZM20.0278 3.97228C20.3793 4.32375 20.3793 4.8936 20.0278 5.24507L18.7234 6.54942C18.372 6.90089 17.8021 6.90089 17.4507 6.54942C17.0992 6.19794 17.0992 5.62809 17.4507 5.27662L18.755 3.97228C19.1065 3.6208 19.6763 3.6208 20.0278 3.97228ZM1.1001 12C1.1001 11.5029 1.50304 11.1 2.0001 11.1H3.73923C4.23628 11.1 4.63923 11.5029 4.63923 12C4.63923 12.497 4.23628 12.9 3.73923 12.9H2.0001C1.50304 12.9 1.1001 12.497 1.1001 12ZM19.361 12C19.361 11.5029 19.7639 11.1 20.261 11.1H22.0001C22.4972 11.1 22.9001 11.5029 22.9001 12C22.9001 12.497 22.4972 12.9 22.0001 12.9H20.261C19.7639 12.9 19.361 12.497 19.361 12ZM6.54954 17.4505C6.90101 17.802 6.90101 18.3719 6.54954 18.7233L5.24519 20.0277C4.89372 20.3791 4.32387 20.3791 3.9724 20.0277C3.62093 19.6762 3.62093 19.1064 3.9724 18.7549L5.27674 17.4505C5.62822 17.0991 6.19807 17.0991 6.54954 17.4505ZM17.4507 17.4505C17.8021 17.0991 18.372 17.0991 18.7234 17.4505L20.0278 18.7549C20.3793 19.1064 20.3793 19.6762 20.0278 20.0277C19.6763 20.3791 19.1065 20.3791 18.755 20.0277L17.4507 18.7233C17.0992 18.3719 17.0992 17.802 17.4507 17.4505ZM12.0001 19.3608C12.4972 19.3608 12.9001 19.7638 12.9001 20.2608V22C12.9001 22.497 12.4972 22.9 12.0001 22.9C11.503 22.9 11.1001 22.497 11.1001 22V20.2608C11.1001 19.7638 11.503 19.3608 12.0001 19.3608Z" fill="#2990FF"/>
</svg>
