<svg width="24" height="24" viewBox="0 0 24 24" fill="none" xmlns="http://www.w3.org/2000/svg">
<path fill-rule="evenodd" clip-rule="evenodd" d="M12.1137 2.09764C12.5745 0.818645 14.2954 0.318376 15.339 1.32554L18.66 4.53076C19.2951 5.14364 19.5253 6.06287 19.2355 6.90213L18.8861 7.91367C18.8835 7.92137 18.8826 7.92608 18.8824 7.92817C18.8837 7.93127 18.889 7.9416 18.9037 7.95395C18.9211 7.96846 18.9415 7.97715 18.9597 7.9798C18.9735 7.98181 18.9941 7.98201 19.0266 7.96634C19.7424 7.62092 20.6093 7.75201 21.1858 8.30834L20.5608 8.95593L21.1858 8.30834L21.5534 8.66311C22.5884 9.66206 22.5884 11.2954 21.5534 12.2943L15.968 17.6849C16.146 18.3112 15.9816 19.0118 15.4749 19.5008L14.4337 20.5057C13.5099 21.3973 12.025 21.3973 11.1012 20.5057L10.4962 19.9218C10.2338 19.6686 9.63866 19.6796 9.32038 20.1175C8.62919 21.0684 7.68687 22.0762 6.57304 22.5749C5.9995 22.8317 5.35411 22.9649 4.67346 22.8556C3.98942 22.7459 3.34993 22.4041 2.77121 21.8456C2.19365 21.2882 1.82996 20.6624 1.71248 19.9804C1.59534 19.3004 1.73927 18.6591 2.00947 18.097C2.53145 17.0111 3.57997 16.1009 4.55947 15.4378C4.76532 15.2984 4.88859 15.0856 4.91915 14.8796C4.94834 14.6828 4.89349 14.5145 4.76449 14.39L4.15953 13.8061C3.21781 12.8972 3.21781 11.41 4.15954 10.5011L5.20078 9.49615C5.70627 9.00829 6.42252 8.85728 7.05848 9.04313L9.36574 6.81632C10.6021 5.62306 11.5435 3.68015 12.1137 2.09764ZM8.51009 10.1437L14.8499 16.2624L20.3033 10.9991C20.6051 10.7079 20.6051 10.2495 20.3033 9.95829L19.9358 9.60351C19.9239 9.59209 19.9054 9.58149 19.8799 9.57751C19.8544 9.57351 19.8296 9.57744 19.8089 9.58746C18.3837 10.2752 16.6141 8.9782 17.1847 7.32606L17.5341 6.31452C17.5911 6.14953 17.5506 5.96158 17.41 5.82594L14.089 2.62071C14.0722 2.60451 14.0304 2.57887 13.9476 2.59973C13.861 2.62154 13.8195 2.67332 13.8071 2.70777C13.2092 4.36731 12.154 6.62687 10.6158 8.1115L8.51009 10.1437ZM18.8823 7.92932C18.8823 7.9295 18.8823 7.9295 18.8823 7.92928L18.8823 7.92932ZM6.51994 10.7662C6.48774 10.7662 6.4648 10.7778 6.45079 10.7913L5.40955 11.7963C5.20114 11.9974 5.20114 12.3098 5.40955 12.5109L6.0145 13.0948C7.22754 14.2656 6.77718 16.11 5.56861 16.9283C4.66973 17.5369 3.94419 18.2269 3.63178 18.8768C3.48478 19.1826 3.44644 19.4432 3.48635 19.6749C3.52593 19.9046 3.65863 20.2005 4.02122 20.5504C4.38263 20.8992 4.69802 21.0366 4.95864 21.0784C5.22266 21.1207 5.51172 21.0779 5.83748 20.9321C6.52223 20.6255 7.23785 19.9211 7.86436 19.0592C8.71568 17.8879 10.5684 17.4899 11.7462 18.6266L12.3512 19.2106C12.5776 19.429 12.9573 19.429 13.1837 19.2106L14.2249 18.2057C14.2325 18.1983 14.2349 18.1933 14.2358 18.1912C14.2364 18.1897 14.2368 18.1883 14.2371 18.1868C14.2373 18.1856 14.2374 18.1844 14.2374 18.1833C14.2374 18.1806 14.2369 18.178 14.2358 18.1753C14.2349 18.1732 14.2325 18.1682 14.2249 18.1608L6.5891 10.7913C6.57509 10.7778 6.55215 10.7662 6.51994 10.7662Z" fill="#2990FF"/>
</svg>
