<svg width="16" height="16" viewBox="0 0 16 16" fill="none" xmlns="http://www.w3.org/2000/svg">
<path fill-rule="evenodd" clip-rule="evenodd" d="M9.21838 2.62687C9.7006 2.74743 9.99378 3.23607 9.87323 3.71828L7.87323 11.7183C7.75267 12.2005 7.26403 12.4937 6.78182 12.3731C6.2996 12.2526 6.00642 11.7639 6.12697 11.2817L8.12697 3.28172C8.24752 2.7995 8.73616 2.50632 9.21838 2.62687ZM5.13649 4.36361C5.48797 4.71508 5.48797 5.28493 5.13649 5.6364L3.27289 7.5L5.13649 9.36361C5.48797 9.71508 5.48797 10.2849 5.13649 10.6364C4.78502 10.9879 4.21517 10.9879 3.8637 10.6364L1.3637 8.1364C1.01223 7.78493 1.01223 7.21508 1.3637 6.86361L3.8637 4.36361C4.21517 4.01213 4.78502 4.01213 5.13649 4.36361ZM10.8637 4.36361C11.2152 4.01213 11.785 4.01213 12.1365 4.36361L14.6365 6.86361C14.988 7.21508 14.988 7.78493 14.6365 8.1364L12.1365 10.6364C11.785 10.9879 11.2152 10.9879 10.8637 10.6364C10.5122 10.2849 10.5122 9.71508 10.8637 9.36361L12.7273 7.5L10.8637 5.6364C10.5122 5.28493 10.5122 4.71508 10.8637 4.36361Z" fill="currentColor"/>
</svg>
