<svg viewBox="0 0 24 24" fill="none" xmlns="http://www.w3.org/2000/svg">
<path d="M7.25 6V2C7.25 1.58579 7.58579 1.25 8 1.25C8.41421 1.25 8.75 1.58579 8.75 2V6C8.75 6.41421 8.41421 6.75 8 6.75C7.58579 6.75 7.25 6.41421 7.25 6ZM15.25 6V2C15.25 1.58579 15.5858 1.25 16 1.25C16.4142 1.25 16.75 1.58579 16.75 2V6C16.75 6.41421 16.4142 6.75 16 6.75C15.5858 6.75 15.25 6.41421 15.25 6Z" fill="currentColor"/>
<path d="M20.25 13V12C20.25 10.0932 20.2485 8.73859 20.1104 7.71094C19.9751 6.70486 19.7211 6.12536 19.2979 5.70215C18.8747 5.27896 18.2952 5.02491 17.2891 4.88965C16.2614 4.7515 14.9067 4.75 13 4.75H11C9.09324 4.75 7.73859 4.7515 6.71094 4.88965C5.70485 5.02491 5.12536 5.27894 4.70215 5.70215C4.27894 6.12536 4.02491 6.70485 3.88965 7.71094C3.7515 8.73859 3.75 10.0932 3.75 12V14C3.75 15.9067 3.7515 17.2614 3.88965 18.2891C4.02491 19.2952 4.27896 19.8747 4.70215 20.2979C5.12536 20.7211 5.70486 20.9751 6.71094 21.1104C7.73859 21.2485 9.09324 21.25 11 21.25H12C12.4142 21.25 12.75 21.5858 12.75 22C12.75 22.4142 12.4142 22.75 12 22.75H11C9.13558 22.75 7.66159 22.7514 6.51074 22.5967C5.33844 22.439 4.38991 22.1067 3.6416 21.3584C2.89328 20.6101 2.56096 19.6616 2.40332 18.4893C2.24859 17.3384 2.25 15.8644 2.25 14V12C2.25 10.1356 2.24859 8.66159 2.40332 7.51074C2.56096 6.33844 2.8933 5.38991 3.6416 4.6416C4.38991 3.8933 5.33844 3.56096 6.51074 3.40332C7.66159 3.24859 9.13558 3.25 11 3.25H13C14.8644 3.25 16.3384 3.24859 17.4893 3.40332C18.6616 3.56096 19.6101 3.89328 20.3584 4.6416C21.1067 5.38991 21.439 6.33844 21.5967 7.51074C21.7514 8.66159 21.75 10.1356 21.75 12V13C21.75 13.4142 21.4142 13.75 21 13.75C20.5858 13.75 20.25 13.4142 20.25 13Z" fill="currentColor"/>
<path d="M21 9.25C21.4142 9.25 21.75 9.58579 21.75 10C21.75 10.4142 21.4142 10.75 21 10.75H3C2.58579 10.75 2.25 10.4142 2.25 10C2.25 9.58579 2.58579 9.25 3 9.25H21Z" fill="currentColor"/>
<path d="M20.4697 15.4697C20.7626 15.1768 21.2373 15.1768 21.5302 15.4697C21.8231 15.7626 21.8231 16.2374 21.5302 16.5303L19.0605 19L21.5302 21.4697C21.8231 21.7626 21.8231 22.2374 21.5302 22.5303C21.2373 22.8232 20.7626 22.8232 20.4697 22.5303L17.9999 20.0606L15.5302 22.5303C15.2373 22.8232 14.7626 22.8232 14.4697 22.5303C14.1768 22.2374 14.1768 21.7626 14.4697 21.4697L16.9394 19L14.4697 16.5303C14.1768 16.2374 14.1768 15.7626 14.4697 15.4697C14.7626 15.1768 15.2373 15.1768 15.5302 15.4697L17.9999 17.9395L20.4697 15.4697Z" fill="currentColor"/>
</svg>
