<svg viewBox="0 0 24 24" fill="none" xmlns="http://www.w3.org/2000/svg">
<path d="M13.5887 2.90933L9.43203 1.24902L5.56494 1.36744L2.98138 2.32505L7.49632 2.75962C8.07134 2.74928 8.7264 2.74902 9.48093 2.74902C11.1393 2.74902 12.3171 2.75025 13.2209 2.85707C13.351 2.87245 13.4734 2.88983 13.5887 2.90933Z" fill="currentColor"/>
<path d="M13.3969 1.36744C12.3949 1.249 11.1284 1.24901 9.52983 1.24902H9.43203L13.5887 2.90933C14.2592 3.02267 14.691 3.20729 15.029 3.48463C15.1931 3.61934 15.3436 3.7699 15.4782 3.93388C15.7865 4.30954 15.9801 4.80085 16.0887 5.60653C16.1996 6.42893 16.2125 7.49533 16.2138 8.98318C16.2141 9.3974 16.5502 9.73291 16.9644 9.73257C17.3786 9.73224 17.7141 9.39618 17.7138 8.98196C17.7126 7.51967 17.7021 6.34694 17.5753 5.40618C17.4462 4.4487 17.1881 3.65279 16.6376 2.98215C16.4406 2.74208 16.2203 2.52194 15.9805 2.32505C15.2728 1.74433 14.4257 1.48903 13.3969 1.36744Z" fill="currentColor"/>
<path d="M2.98138 2.32505C2.74132 2.52205 2.52118 2.74217 2.32418 2.98221C1.7434 3.68985 1.48807 4.53694 1.36647 5.56566C1.24803 6.56762 1.24803 7.83409 1.24805 9.43249V9.5303C1.24803 11.1287 1.24803 12.3952 1.36647 13.3971C1.48808 14.4259 1.7434 15.2729 2.32417 15.9806C2.5211 16.2205 2.74125 16.4406 2.98132 16.6376C3.652 17.1881 4.44794 17.4462 5.40546 17.5752C6.34627 17.702 7.51906 17.7125 8.98146 17.7137C9.39567 17.714 9.73173 17.3785 9.73207 16.9643C9.7324 16.5501 9.39689 16.214 8.98268 16.2137C7.49473 16.2125 6.42825 16.1995 5.60577 16.0887C4.80001 15.9801 4.30865 15.7865 3.93295 15.4781C3.76893 15.3436 3.61837 15.193 3.48368 15.029C3.15858 14.6328 2.96096 14.1081 2.8561 13.221C2.74927 12.3174 2.74805 11.1397 2.74805 9.48139C2.74805 7.82315 2.74927 6.6454 2.8561 5.74175C2.96096 4.85466 3.15858 4.32993 3.48367 3.93383C3.61834 3.76974 3.76881 3.61928 3.93289 3.48463C4.32903 3.15955 4.85383 2.96193 5.74101 2.85707C6.23355 2.79885 6.80751 2.772 7.49632 2.75962L2.98138 2.32505Z" fill="currentColor"/>
<path d="M5.56494 1.36744C4.53618 1.48903 3.68906 1.74433 2.98138 2.32505L5.56494 1.36744Z" fill="currentColor"/>
<path fill-rule="evenodd" clip-rule="evenodd" d="M17.7437 8.97067C17.7497 9.38484 17.4188 9.72542 17.0046 9.73137L14.0389 9.77399C13.6247 9.77994 13.2841 9.44902 13.2782 9.03484C13.2722 8.62067 13.6032 8.2801 14.0173 8.27415L16.983 8.23152C17.3972 8.22557 17.7378 8.5565 17.7437 8.97067ZM12.2254 8.89184C12.2984 9.29957 12.0271 9.68929 11.6193 9.76232C11.5843 9.7686 11.5496 9.77474 11.5153 9.78082C11.0971 9.8549 10.7373 9.91866 10.4235 10.0978C10.1424 10.2583 9.86362 10.5354 9.74847 11.1802C9.67564 11.5879 9.28605 11.8595 8.87829 11.7866C8.47053 11.7138 8.19901 11.3242 8.27183 10.9165C8.46416 9.83956 9.00743 9.1791 9.67974 8.7952C10.2347 8.47831 10.8528 8.37225 11.2396 8.30586C11.2808 8.2988 11.3193 8.29219 11.3549 8.28582C11.7626 8.21279 12.1523 8.48412 12.2254 8.89184ZM18.7562 8.89184C18.8292 8.48412 19.2189 8.21279 19.6266 8.28582C19.6622 8.29219 19.7007 8.2988 19.7419 8.30586C20.1288 8.37225 20.7468 8.47831 21.3018 8.7952C21.9741 9.1791 22.5174 9.83955 22.7097 10.9165C22.7826 11.3242 22.511 11.7138 22.1033 11.7866C21.6955 11.8595 21.3059 11.5879 21.2331 11.1802C21.1179 10.5354 20.8391 10.2583 20.558 10.0978C20.2443 9.91867 19.8844 9.8549 19.4662 9.78082C19.4319 9.77474 19.3973 9.7686 19.3622 9.76232C18.9545 9.68929 18.6831 9.29957 18.7562 8.89184ZM21.9785 13.2717C22.3927 13.2756 22.7253 13.6145 22.7214 14.0287L22.6934 16.9884C22.6895 17.4026 22.3505 17.7352 21.9363 17.7313C21.5221 17.7274 21.1895 17.3884 21.1935 16.9742L21.2215 14.0145C21.2254 13.6003 21.5643 13.2677 21.9785 13.2717ZM9.01724 13.2853C9.43143 13.2892 9.76403 13.6281 9.76012 14.0423L9.73214 17.0019C9.72823 17.4161 9.38929 17.7487 8.97509 17.7448C8.5609 17.7409 8.2283 17.4019 8.23221 16.9877L8.26018 14.0281C8.2641 13.6139 8.60304 13.2813 9.01724 13.2853ZM8.88953 19.1957C9.29725 19.1226 9.68699 19.3939 9.76003 19.8017C9.87554 20.4464 10.1545 20.7233 10.4357 20.8837C10.7495 21.0626 11.1094 21.1262 11.5276 21.2001C11.5619 21.2061 11.5966 21.2122 11.6316 21.2185C12.0394 21.2913 12.3109 21.6809 12.2381 22.0886C12.1653 22.4964 11.7758 22.7679 11.368 22.6951C11.3324 22.6888 11.2939 22.6822 11.2527 22.6752C10.8658 22.609 10.2477 22.5033 9.69261 22.1867C9.02011 21.8031 8.47646 21.143 8.28354 20.0662C8.2105 19.6585 8.4818 19.2687 8.88953 19.1957ZM22.1455 19.2359C22.5521 19.315 22.8176 19.7088 22.7385 20.1153C22.5296 21.1892 21.9762 21.8412 21.2981 22.2147C20.7383 22.5231 20.1186 22.6196 19.7307 22.6801C19.6895 22.6865 19.6509 22.6925 19.6152 22.6983C19.2064 22.765 18.8209 22.4877 18.7542 22.0789C18.6875 21.6701 18.9648 21.2846 19.3736 21.2179C19.4087 21.2122 19.4434 21.2066 19.4777 21.2011C19.897 21.1334 20.2579 21.0752 20.5744 20.9009C20.858 20.7447 21.141 20.4719 21.2661 19.8289C21.3452 19.4223 21.739 19.1568 22.1455 19.2359ZM17.7296 21.9473C17.7356 22.3615 17.4047 22.7021 16.9905 22.708L14.0249 22.7507C13.6107 22.7567 13.2702 22.4258 13.2642 22.0116C13.2582 21.5974 13.5891 21.2569 14.0033 21.2509L16.9689 21.2082C17.3831 21.2022 17.7237 21.5331 17.7296 21.9473Z" fill="currentColor"/>
</svg>
