<svg viewBox="0 0 24 24" fill="none" xmlns="http://www.w3.org/2000/svg">
<path fill-rule="evenodd" clip-rule="evenodd" d="M9.18654 4.70497C10.0648 4.41964 11.0058 4.25 12 4.25C14.5706 4.25 16.774 5.38141 18.4797 6.71299C20.1869 8.04576 21.4488 9.61974 22.1546 10.6095C22.1721 10.634 22.1899 10.6587 22.2078 10.6837C22.461 11.0358 22.75 11.4378 22.75 12C22.75 12.5622 22.461 12.9642 22.2078 13.3163C22.1899 13.3413 22.1721 13.366 22.1546 13.3905C21.6707 14.069 20.9297 15.016 19.9674 15.9713C19.6734 16.2631 19.1985 16.2613 18.9067 15.9674C18.6149 15.6734 18.6167 15.1985 18.9106 14.9067C19.7975 14.0264 20.4843 13.1492 20.9334 12.5195C21.0967 12.2906 21.1744 12.1787 21.2207 12.0897C21.2502 12.0331 21.2501 12.0176 21.25 12.0024L21.25 12L21.25 11.9976C21.2501 11.9824 21.2502 11.9669 21.2207 11.9103C21.1744 11.8213 21.0967 11.7094 20.9334 11.4805C20.2731 10.5547 19.1076 9.10617 17.5566 7.89535C16.0041 6.68331 14.1186 5.75 12 5.75C11.1786 5.75 10.394 5.88988 9.65 6.13157C9.25605 6.25955 8.83295 6.04395 8.70497 5.65C8.57699 5.25605 8.79259 4.83295 9.18654 4.70497ZM7.36923 6.32807C7.60083 6.67148 7.51019 7.13762 7.16677 7.36923C6.58135 7.76405 6.04122 8.20264 5.55169 8.65186C4.44395 9.66837 3.59523 10.7393 3.06667 11.4805C2.90337 11.7094 2.82562 11.8213 2.77928 11.9103C2.74983 11.9669 2.74991 11.9824 2.74999 11.9976L2.75 12L2.74999 12.0024C2.74991 12.0176 2.74983 12.0331 2.77928 12.0897C2.78932 12.1089 2.80082 12.1293 2.81435 12.1517C2.86329 12.2326 2.93871 12.3401 3.06666 12.5195C3.72686 13.4453 4.89238 14.8938 6.44336 16.1047C7.99587 17.3167 9.88134 18.25 12 18.25C13.7986 18.25 15.4287 17.578 16.8333 16.6308C17.1767 16.3992 17.6428 16.4898 17.8744 16.8333C18.106 17.1767 18.0154 17.6428 17.6719 17.8744C16.1015 18.9334 14.183 19.75 12 19.75C9.42944 19.75 7.22596 18.6186 5.52031 17.287C3.81314 15.9543 2.55128 14.3803 1.84542 13.3905M7.36923 6.32807C7.13762 5.98465 6.67148 5.89401 6.32807 6.12561L7.36923 6.32807ZM6.32807 6.12561C4.20575 7.55693 2.65549 9.47358 1.84541 10.6095L6.32807 6.12561ZM1.84541 10.6095C1.82795 10.634 1.8102 10.6587 1.79226 10.6836C1.53907 11.0358 1.25 11.4378 1.25 12C1.25 12.5622 1.53907 12.9642 1.79226 13.3164C1.8102 13.3413 1.82797 13.366 1.84542 13.3905" fill="currentColor"/>
<path d="M3.06667 11.4805C3.59523 10.7393 4.44395 9.66837 5.55169 8.65186L7.36923 6.32807L6.32807 6.12561L1.84541 10.6095L1.84542 13.3905L2.81435 12.1517C2.80082 12.1293 2.78932 12.1089 2.77928 12.0897C2.74983 12.0331 2.74991 12.0176 2.74999 12.0024L2.75 12L2.74999 11.9976C2.74991 11.9824 2.74983 11.9669 2.77928 11.9103C2.82562 11.8213 2.90337 11.7094 3.06667 11.4805Z" fill="currentColor"/>
<path fill-rule="evenodd" clip-rule="evenodd" d="M10.3882 9.46968C10.6811 9.76259 10.6811 10.2375 10.3882 10.5303C9.99308 10.9254 9.75 11.4692 9.75 12.0711C9.75 13.2745 10.7255 14.25 11.9289 14.25C12.5308 14.25 13.0746 14.0069 13.4696 13.6118C13.7625 13.3189 14.2374 13.3189 14.5303 13.6117C14.8232 13.9046 14.8232 14.3795 14.5304 14.6724C13.8654 15.3375 12.9446 15.75 11.9289 15.75C9.89709 15.75 8.25 14.1029 8.25 12.0711C8.25 11.0554 8.66258 10.1346 9.32754 9.46965C9.62045 9.17677 10.0953 9.17678 10.3882 9.46968Z" fill="currentColor"/>
<path fill-rule="evenodd" clip-rule="evenodd" d="M2.46967 2.46967C2.76256 2.17678 3.23744 2.17678 3.53033 2.46967L21.5303 20.4697C21.8232 20.7626 21.8232 21.2374 21.5303 21.5303C21.2374 21.8232 20.7626 21.8232 20.4697 21.5303L2.46967 3.53033C2.17678 3.23744 2.17678 2.76256 2.46967 2.46967Z" fill="currentColor"/>
</svg>
