<svg width="24" height="24" viewBox="0 0 24 24" fill="none" xmlns="http://www.w3.org/2000/svg">
<path fill-rule="evenodd" clip-rule="evenodd" d="M12.4057 4.91303C12.1399 4.84594 11.8617 4.84594 11.5959 4.91303C11.3346 4.979 11.0681 5.1504 10.1539 5.80058L6.52575 8.38103C5.85268 8.85974 5.6687 9.00114 5.54038 9.16417C5.41005 9.32976 5.31256 9.51873 5.25316 9.72091C5.19467 9.91997 5.18608 10.1518 5.18608 10.9778V16.2141C5.18608 16.9441 5.18678 17.4376 5.21789 17.8183C5.24814 18.1886 5.30259 18.3723 5.36636 18.4975C5.52495 18.8087 5.77799 19.0618 6.08923 19.2204C6.21439 19.2841 6.39815 19.3386 6.7684 19.3688C7.14915 19.3999 7.64257 19.4006 8.37264 19.4006H15.6289C16.359 19.4006 16.8524 19.3999 17.2332 19.3688C17.6034 19.3386 17.7872 19.2841 17.9123 19.2204C18.2236 19.0618 18.4766 18.8087 18.6352 18.4975C18.699 18.3723 18.7534 18.1886 18.7837 17.8183C18.8148 17.4376 18.8155 16.9442 18.8155 16.2141V10.9778C18.8155 10.1518 18.8069 9.91997 18.7484 9.72091C18.689 9.51873 18.5915 9.32976 18.4612 9.16417C18.3329 9.00114 18.1489 8.85974 17.4758 8.38103L13.8477 5.80058C12.9335 5.1504 12.667 4.979 12.4057 4.91303ZM11.1553 3.16779C11.7103 3.02769 12.2913 3.02769 12.8463 3.16779C13.4784 3.32736 14.037 3.72539 14.7653 4.24427C14.8066 4.27372 14.8485 4.30355 14.8909 4.33375L18.5191 6.91419C18.5498 6.93604 18.5801 6.95757 18.6101 6.97884C19.1507 7.36283 19.5666 7.65822 19.8756 8.05092C20.1478 8.3967 20.3514 8.7913 20.4754 9.21349C20.6163 9.69297 20.616 10.2031 20.6155 10.8662C20.6155 10.9029 20.6155 10.9401 20.6155 10.9778V16.251C20.6155 16.9348 20.6155 17.5021 20.5777 17.9649C20.5384 18.4465 20.4536 18.8935 20.239 19.3147C19.9079 19.9646 19.3794 20.493 18.7295 20.8242C18.3083 21.0388 17.8613 21.1235 17.3797 21.1629C16.917 21.2007 16.3497 21.2007 15.6658 21.2006H8.33577C7.65191 21.2007 7.08458 21.2007 6.62182 21.1629C6.14026 21.1235 5.69325 21.0388 5.27205 20.8242C4.62212 20.493 4.09371 19.9646 3.76255 19.3147C3.54794 18.8935 3.46321 18.4465 3.42387 17.9649C3.38606 17.5021 3.38607 16.9348 3.38608 16.251L3.38608 10.9778C3.38608 10.9401 3.38605 10.9029 3.38603 10.8662C3.38561 10.2031 3.38529 9.69297 3.52616 9.21349C3.65021 8.7913 3.85378 8.3967 4.12593 8.05092C4.43501 7.65822 4.8509 7.36283 5.39152 6.97884C5.42146 6.95757 5.45178 6.93604 5.48249 6.91419L9.11063 4.33375C9.15309 4.30355 9.19496 4.27372 9.23629 4.24427C9.96456 3.72539 10.5232 3.32736 11.1553 3.16779ZM12.0008 8.6554C12.4978 8.6554 12.9008 9.05834 12.9008 9.5554V12.0847H15.4043C15.9014 12.0847 16.3043 12.4877 16.3043 12.9847C16.3043 13.4818 15.9014 13.8847 15.4043 13.8847H12.9008V16.4141C12.9008 16.9111 12.4978 17.3141 12.0008 17.3141C11.5037 17.3141 11.1008 16.9111 11.1008 16.4141V13.8847H8.59724C8.10018 13.8847 7.69724 13.4818 7.69724 12.9847C7.69724 12.4877 8.10018 12.0847 8.59724 12.0847H11.1008V9.5554C11.1008 9.05834 11.5037 8.6554 12.0008 8.6554Z" fill="currentColor"/>
</svg>
