<svg width="24" height="24" viewBox="0 0 24 24" fill="none" xmlns="http://www.w3.org/2000/svg">
<path fill-rule="evenodd" clip-rule="evenodd" d="M11.8696 2.05607C11.9126 2.05612 11.956 2.05617 12 2.05617C12.0439 2.05617 12.0874 2.05612 12.1303 2.05607C12.7529 2.05538 13.2704 2.05481 13.7157 2.20236C14.5369 2.47453 15.1943 3.10449 15.4826 3.92202C15.5823 4.20497 15.6182 4.51697 15.6309 4.861H19.7147C20.2117 4.861 20.6147 5.26395 20.6147 5.761C20.6147 6.25806 20.2117 6.661 19.7147 6.661H4.28525C3.7882 6.661 3.38525 6.25806 3.38525 5.761C3.38525 5.26395 3.7882 4.861 4.28525 4.861H8.36902C8.38172 4.51697 8.4176 4.20497 8.51736 3.92202C8.80558 3.10449 9.46297 2.47453 10.2842 2.20236C10.7295 2.05481 11.247 2.05538 11.8696 2.05607ZM10.1713 4.861H13.8286C13.8207 4.66358 13.807 4.58285 13.785 4.52051C13.6872 4.24313 13.4575 4.01308 13.1495 3.91099C13.0188 3.8677 12.8245 3.85617 12 3.85617C11.1754 3.85617 10.9811 3.8677 10.8505 3.91099C10.5424 4.01308 10.3127 4.24312 10.2149 4.52051C10.193 4.58285 10.1792 4.66358 10.1713 4.861ZM5.62121 7.67265C6.1145 7.6116 6.56389 7.96199 6.62495 8.45528L7.56173 16.0238C7.68842 17.0474 7.77553 17.7404 7.90132 18.264C8.02215 18.7671 8.15783 19.0159 8.32241 19.1905C8.41533 19.289 8.51903 19.3783 8.63199 19.4567C8.83625 19.5984 9.11732 19.7023 9.65639 19.7597C10.2131 19.8189 10.9384 19.8201 12 19.8201C13.0615 19.8201 13.7868 19.8189 14.3435 19.7597C14.8826 19.7023 15.1637 19.5984 15.3679 19.4567C15.4809 19.3783 15.5846 19.289 15.6775 19.1905C15.8421 19.0159 15.9778 18.7671 16.0986 18.264C16.2244 17.7404 16.3115 17.0474 16.4382 16.0238L17.375 8.45528C17.436 7.96199 17.8854 7.6116 18.3787 7.67265C18.872 7.73371 19.2224 8.1831 19.1613 8.67639L18.2182 16.296C18.0995 17.2556 18.0012 18.0502 17.8488 18.6844C17.6888 19.3505 17.4491 19.9354 16.987 20.4254C16.8079 20.6154 16.6091 20.7863 16.3942 20.9354C15.8433 21.3178 15.2258 21.4759 14.5341 21.5496C13.8708 21.6202 13.0493 21.6201 12.0491 21.6201H11.9508C10.9506 21.6201 10.1291 21.6202 9.46586 21.5496C8.77416 21.4759 8.15666 21.3178 7.60575 20.9354C7.39082 20.7863 7.19206 20.6154 7.01289 20.4254C6.5508 19.9354 6.31107 19.3505 6.15109 18.6844C5.99875 18.0502 5.90042 17.2556 5.78168 16.296L4.83858 8.67639C4.77752 8.1831 5.12792 7.73371 5.62121 7.67265Z" fill="currentColor"/>
</svg>
