<svg width="24" height="24" viewBox="0 0 24 24" fill="none" xmlns="http://www.w3.org/2000/svg">
<path fill-rule="evenodd" clip-rule="evenodd" d="M11.9535 2.1H12.0389C13.6455 2.09999 14.9099 2.09999 15.9244 2.18808C16.9592 2.27793 17.8188 2.46461 18.5907 2.88895C19.6513 3.47204 20.5242 4.34487 21.1072 5.40551C21.5316 6.17737 21.7183 7.03704 21.8081 8.07183C21.8962 9.08629 21.8962 10.3507 21.8962 11.9573V12.0427C21.8962 13.6493 21.8962 14.9137 21.8081 15.9282C21.7183 16.963 21.5316 17.8226 21.1072 18.5945C20.5242 19.6551 19.6513 20.528 18.5907 21.111C17.8188 21.5354 16.9592 21.7221 15.9244 21.8119C14.9099 21.9 13.6455 21.9 12.0389 21.9H11.9535C10.3469 21.9 9.08248 21.9 8.06802 21.8119C7.03323 21.7221 6.17357 21.5354 5.4017 21.111C4.34107 20.528 3.46823 19.6551 2.88514 18.5945C2.4608 17.8226 2.27412 16.963 2.18427 15.9282C2.09618 14.9137 2.09618 13.6493 2.09619 12.0427V11.9573C2.09618 10.3507 2.09618 9.08629 2.18427 8.07183C2.27412 7.03704 2.4608 6.17737 2.88514 5.40551C3.46823 4.34487 4.34107 3.47204 5.4017 2.88895C6.17357 2.46461 7.03323 2.27793 8.06802 2.18808C9.08248 2.09999 10.3469 2.09999 11.9535 2.1ZM8.22374 3.98133C7.30761 4.06088 6.72959 4.21301 6.26886 4.4663C5.50754 4.88484 4.88103 5.51135 4.46249 6.27267C4.2092 6.7334 4.05707 7.31141 3.97752 8.22754C3.89698 9.15503 3.89619 10.3414 3.89619 12C3.89619 13.6586 3.89698 14.845 3.97752 15.7725C4.05707 16.6886 4.2092 17.2666 4.46249 17.7273C4.88103 18.4886 5.50754 19.1152 6.26886 19.5337C6.72959 19.787 7.30761 19.9391 8.22374 20.0187C9.15123 20.0992 10.3376 20.1 11.9962 20.1C13.6548 20.1 14.8412 20.0992 15.7686 20.0187C16.6848 19.9391 17.2628 19.787 17.7235 19.5337C18.4848 19.1152 19.1114 18.4886 19.5299 17.7273C19.7832 17.2666 19.9353 16.6886 20.0149 15.7725C20.0954 14.845 20.0962 13.6586 20.0962 12C20.0962 10.3414 20.0954 9.15503 20.0149 8.22754C19.9353 7.31141 19.7832 6.7334 19.5299 6.27267C19.1114 5.51135 18.4848 4.88484 17.7235 4.4663C17.2628 4.21301 16.6848 4.06088 15.7686 3.98133C14.8412 3.90079 13.6548 3.9 11.9962 3.9C10.3376 3.9 9.15123 3.90079 8.22374 3.98133ZM8.58773 5.62174H8.65888C9.02186 5.62171 9.35213 5.62169 9.62665 5.64657C9.92249 5.67338 10.2407 5.73467 10.5471 5.91155C10.8759 6.10142 11.149 6.3745 11.3389 6.70335C11.5157 7.00972 11.577 7.32792 11.6038 7.62376C11.6287 7.89828 11.6287 8.22856 11.6287 8.59154V8.66267C11.6287 9.02566 11.6287 9.35594 11.6038 9.63046C11.577 9.92629 11.5157 10.2445 11.3389 10.5509C11.149 10.8797 10.8759 11.1528 10.5471 11.3427C10.2407 11.5195 9.92249 11.5808 9.62665 11.6077C9.35213 11.6325 9.02185 11.6325 8.65887 11.6325H8.58774C8.22475 11.6325 7.89447 11.6325 7.61995 11.6077C7.32412 11.5808 7.00592 11.5195 6.69954 11.3427C6.37069 11.1528 6.09761 10.8797 5.90775 10.5509C5.73086 10.2445 5.66957 9.92629 5.64276 9.63046C5.61788 9.35594 5.6179 9.02566 5.61793 8.66268V8.59153C5.6179 8.22855 5.61788 7.89828 5.64276 7.62376C5.66957 7.32792 5.73086 7.00972 5.90775 6.70335C6.09761 6.3745 6.37069 6.10142 6.69954 5.91155C7.00592 5.73467 7.32412 5.67338 7.61995 5.64657C7.89447 5.62169 8.22475 5.62171 8.58773 5.62174ZM7.59894 7.47074C7.54416 7.5025 7.49867 7.54801 7.46692 7.60279C7.46254 7.61333 7.44684 7.6601 7.43541 7.78623C7.41879 7.9696 7.41793 8.217 7.41793 8.62711C7.41793 9.03721 7.41879 9.28462 7.43541 9.46798C7.44684 9.59412 7.46254 9.64089 7.46692 9.65143C7.49868 9.70621 7.5442 9.75174 7.59899 9.7835C7.60953 9.78788 7.6563 9.80357 7.78243 9.815C7.96579 9.83162 8.2132 9.83248 8.6233 9.83248C9.03341 9.83248 9.28081 9.83162 9.46418 9.815C9.59031 9.80357 9.63708 9.78787 9.64762 9.78349C9.7024 9.75174 9.74793 9.70621 9.77969 9.65143C9.78406 9.64089 9.79976 9.59412 9.81119 9.46798C9.82781 9.28462 9.82867 9.03721 9.82867 8.62711C9.82867 8.217 9.82781 7.9696 9.81119 7.78623C9.79976 7.66011 9.78407 7.61334 9.77969 7.60279C9.74793 7.54801 9.7024 7.50248 9.64762 7.47072C9.63708 7.46634 9.59031 7.45065 9.46418 7.43922C9.28081 7.4226 9.03341 7.42174 8.6233 7.42174C8.2132 7.42174 7.96579 7.4226 7.78243 7.43922C7.65629 7.45065 7.60948 7.46636 7.59894 7.47074ZM15.3335 5.62174H15.4047C15.7676 5.62171 16.0979 5.62169 16.3724 5.64657C16.6683 5.67338 16.9865 5.73467 17.2928 5.91155C17.6217 6.10142 17.8948 6.3745 18.0846 6.70335C18.2615 7.00972 18.3228 7.32792 18.3496 7.62376C18.3745 7.89828 18.3745 8.22856 18.3745 8.59154V8.66267C18.3745 9.02566 18.3745 9.35594 18.3496 9.63046C18.3228 9.92629 18.2615 10.2445 18.0846 10.5509C17.8948 10.8797 17.6217 11.1528 17.2928 11.3427C16.9865 11.5195 16.6683 11.5808 16.3724 11.6077C16.0979 11.6325 15.7676 11.6325 15.4046 11.6325H15.3335C14.9705 11.6325 14.6403 11.6325 14.3657 11.6077C14.0699 11.5808 13.7517 11.5195 13.4453 11.3427C13.1165 11.1528 12.8434 10.8797 12.6535 10.5509C12.4766 10.2445 12.4154 9.92629 12.3885 9.63046C12.3637 9.35594 12.3637 9.02566 12.3637 8.66267V8.59154C12.3637 8.22856 12.3637 7.89828 12.3885 7.62376C12.4154 7.32792 12.4766 7.00972 12.6535 6.70335C12.8434 6.3745 13.1165 6.10142 13.4453 5.91155C13.7517 5.73467 14.0699 5.67338 14.3657 5.64657C14.6403 5.62169 14.9705 5.62171 15.3335 5.62174ZM14.3447 7.47074C14.2899 7.5025 14.2445 7.54801 14.2127 7.60279C14.2083 7.61334 14.1926 7.66011 14.1812 7.78623C14.1646 7.9696 14.1637 8.217 14.1637 8.62711C14.1637 9.03721 14.1646 9.28462 14.1812 9.46798C14.1926 9.59413 14.2083 9.64089 14.2127 9.65143C14.2445 9.70621 14.29 9.75174 14.3448 9.78349C14.3553 9.78787 14.4021 9.80357 14.5282 9.815C14.7116 9.83162 14.959 9.83248 15.3691 9.83248C15.7792 9.83248 16.0266 9.83162 16.21 9.815C16.3361 9.80357 16.3829 9.78787 16.3934 9.78349C16.4482 9.75174 16.4937 9.70621 16.5255 9.65142C16.5299 9.64087 16.5455 9.5941 16.557 9.46798C16.5736 9.28462 16.5745 9.03721 16.5745 8.62711C16.5745 8.217 16.5736 7.9696 16.557 7.78623C16.5455 7.66011 16.5298 7.61334 16.5255 7.60279C16.4937 7.54801 16.4482 7.50248 16.3934 7.47072C16.3828 7.46634 16.3361 7.45065 16.21 7.43922C16.0266 7.4226 15.7792 7.42174 15.3691 7.42174C14.959 7.42174 14.7116 7.4226 14.5282 7.43922C14.4021 7.45065 14.3553 7.46636 14.3447 7.47074ZM8.58774 12.3675H8.65887C9.02185 12.3675 9.35213 12.3675 9.62665 12.3923C9.92249 12.4192 10.2407 12.4804 10.5471 12.6573C10.8759 12.8472 11.149 13.1203 11.3389 13.4491C11.5157 13.7555 11.577 14.0737 11.6038 14.3695C11.6287 14.6441 11.6287 14.9743 11.6287 15.3373V15.4085C11.6287 15.7714 11.6287 16.1017 11.6038 16.3762C11.577 16.6721 11.5157 16.9903 11.3389 17.2966C11.149 17.6255 10.8759 17.8986 10.5471 18.0884C10.2407 18.2653 9.92249 18.3266 9.62665 18.3534C9.35213 18.3783 9.02185 18.3783 8.65887 18.3783H8.58774C8.22475 18.3783 7.89447 18.3783 7.61995 18.3534C7.32412 18.3266 7.00592 18.2653 6.69954 18.0884C6.37069 17.8986 6.09761 17.6255 5.90775 17.2966C5.73086 16.9903 5.66957 16.6721 5.64276 16.3762C5.61788 16.1017 5.6179 15.7714 5.61793 15.4085V15.3373C5.6179 14.9743 5.61788 14.6441 5.64276 14.3695C5.66957 14.0737 5.73086 13.7555 5.90775 13.4491C6.09761 13.1203 6.37069 12.8472 6.69954 12.6573C7.00592 12.4804 7.32412 12.4192 7.61995 12.3923C7.89447 12.3675 8.22475 12.3675 8.58774 12.3675ZM7.59894 14.2165C7.54416 14.2483 7.49868 14.2938 7.46692 14.3486C7.46254 14.3591 7.44684 14.4059 7.43541 14.532C7.41879 14.7154 7.41793 14.9628 7.41793 15.3729C7.41793 15.783 7.41879 16.0304 7.43541 16.2138C7.44684 16.3399 7.46254 16.3867 7.46692 16.3972C7.49867 16.452 7.5442 16.4975 7.59899 16.5293C7.60954 16.5337 7.65631 16.5493 7.78243 16.5608C7.96579 16.5774 8.2132 16.5783 8.6233 16.5783C9.03341 16.5783 9.28081 16.5774 9.46418 16.5608C9.5903 16.5493 9.63707 16.5337 9.64762 16.5293C9.7024 16.4975 9.74793 16.452 9.77969 16.3972C9.78407 16.3867 9.79976 16.3399 9.81119 16.2138C9.82781 16.0304 9.82867 15.783 9.82867 15.3729C9.82867 14.9628 9.82781 14.7154 9.81119 14.532C9.79976 14.4059 9.78407 14.3591 9.77969 14.3486C9.74793 14.2938 9.7024 14.2483 9.64762 14.2165C9.63707 14.2121 9.5903 14.1964 9.46418 14.185C9.28081 14.1684 9.03341 14.1675 8.6233 14.1675C8.2132 14.1675 7.96579 14.1684 7.78243 14.185C7.6563 14.1964 7.60949 14.2121 7.59894 14.2165ZM15.3335 12.3675H15.4046C15.7676 12.3675 16.0979 12.3675 16.3724 12.3923C16.6683 12.4192 16.9865 12.4804 17.2928 12.6573C17.6217 12.8472 17.8948 13.1203 18.0846 13.4491C18.2615 13.7555 18.3228 14.0737 18.3496 14.3695C18.3745 14.6441 18.3745 14.9743 18.3745 15.3373V15.4085C18.3745 15.7714 18.3745 16.1017 18.3496 16.3762C18.3228 16.6721 18.2615 16.9903 18.0846 17.2966C17.8948 17.6255 17.6217 17.8986 17.2928 18.0884C16.9865 18.2653 16.6683 18.3266 16.3724 18.3534C16.0979 18.3783 15.7676 18.3783 15.4046 18.3783H15.3335C14.9705 18.3783 14.6403 18.3783 14.3657 18.3534C14.0699 18.3266 13.7517 18.2653 13.4453 18.0884C13.1165 17.8986 12.8434 17.6255 12.6535 17.2966C12.4766 16.9903 12.4154 16.6721 12.3885 16.3762C12.3637 16.1017 12.3637 15.7714 12.3637 15.4085V15.3373C12.3637 14.9743 12.3637 14.6441 12.3885 14.3695C12.4154 14.0737 12.4766 13.7555 12.6535 13.4491C12.8434 13.1203 13.1165 12.8472 13.4453 12.6573C13.7517 12.4804 14.0699 12.4192 14.3657 12.3923C14.6403 12.3675 14.9705 12.3675 15.3335 12.3675ZM14.3447 14.2165C14.2899 14.2483 14.2445 14.2938 14.2127 14.3486C14.2083 14.3591 14.1926 14.4059 14.1812 14.532C14.1646 14.7154 14.1637 14.9628 14.1637 15.3729C14.1637 15.783 14.1646 16.0304 14.1812 16.2138C14.1926 16.3399 14.2083 16.3867 14.2127 16.3972C14.2445 16.452 14.29 16.4975 14.3448 16.5293C14.3553 16.5337 14.4021 16.5493 14.5282 16.5608C14.7116 16.5774 14.959 16.5783 15.3691 16.5783C15.7792 16.5783 16.0266 16.5774 16.21 16.5608C16.3361 16.5493 16.3828 16.5337 16.3934 16.5293C16.4482 16.4975 16.4937 16.452 16.5255 16.3972C16.5298 16.3867 16.5455 16.3399 16.557 16.2138C16.5736 16.0304 16.5745 15.783 16.5745 15.3729C16.5745 14.9628 16.5736 14.7154 16.557 14.532C16.5455 14.4059 16.5298 14.3591 16.5255 14.3486C16.4937 14.2938 16.4482 14.2483 16.3934 14.2165C16.3829 14.2121 16.3361 14.1964 16.21 14.185C16.0266 14.1684 15.7792 14.1675 15.3691 14.1675C14.959 14.1675 14.7116 14.1684 14.5282 14.185C14.4021 14.1964 14.3553 14.2121 14.3447 14.2165Z" fill="currentColor"/>
</svg>
