<svg width="24" height="24" viewBox="0 0 24 24" fill="none" xmlns="http://www.w3.org/2000/svg">
<path fill-rule="evenodd" clip-rule="evenodd" d="M7.76465 2.09998C8.26171 2.09998 8.66465 2.50292 8.66465 2.99998V3.90304C8.9513 3.8997 9.25932 3.89981 9.59251 3.89993C9.65597 3.89995 9.72035 3.89998 9.78566 3.89998H15.3352V2.99998C15.3352 2.50292 15.7382 2.09998 16.2352 2.09998C16.7323 2.09998 17.1352 2.50292 17.1352 2.99998V3.98672C19.2808 4.40611 20.8999 6.29631 20.8999 8.56468V14.6389C20.9 15.726 20.9 16.5967 20.8425 17.3005C20.7834 18.0231 20.6593 18.6487 20.3659 19.2245C19.8961 20.1465 19.1465 20.8961 18.2245 21.3659C17.6487 21.6593 17.0231 21.7834 16.3004 21.8425C15.5967 21.9 14.726 21.9 13.6389 21.9H10.361C9.27392 21.9 8.40324 21.9 7.69946 21.8425C6.9768 21.7834 6.35124 21.6593 5.77539 21.3659C4.8534 20.8961 4.10379 20.1465 3.63401 19.2245C3.34061 18.6487 3.21647 18.0231 3.15743 17.3005C3.09993 16.5967 3.09994 15.726 3.09994 14.6389L3.09994 10.5857C3.09994 10.5204 3.09992 10.456 3.0999 10.3925C3.09936 8.91674 3.099 7.93461 3.39807 7.1169C3.89374 5.76164 4.96161 4.69377 6.31687 4.1981C6.49095 4.13443 6.67249 4.08433 6.86465 4.04492V2.99998C6.86465 2.50292 7.26759 2.09998 7.76465 2.09998ZM6.86465 5.91534C6.04076 6.23956 5.3935 6.9014 5.08855 7.73517C4.94787 8.11983 4.91147 8.60368 4.90262 9.68569H19.0999V8.56468C19.0999 7.29695 18.2765 6.22155 17.1352 5.84421V6.59998C17.1352 7.09703 16.7323 7.49998 16.2352 7.49998C15.7382 7.49998 15.3352 7.09703 15.3352 6.59998V5.69998H9.78566C9.34649 5.69998 8.97794 5.70085 8.66465 5.70497V6.59998C8.66465 7.09703 8.26171 7.49998 7.76465 7.49998C7.26759 7.49998 6.86465 7.09703 6.86465 6.59998V5.91534ZM19.0999 11.4857H4.89994V14.6C4.89994 15.7349 4.90064 16.532 4.95145 17.1539C5.0014 17.7652 5.09526 18.1275 5.23782 18.4073C5.53503 18.9906 6.00927 19.4649 6.59257 19.7621C6.87238 19.9047 7.23469 19.9985 7.84604 20.0485C8.4679 20.0993 9.26499 20.1 10.3999 20.1H13.5999C14.7349 20.1 15.532 20.0993 16.1538 20.0485C16.7652 19.9985 17.1275 19.9047 17.4073 19.7621C17.9906 19.4649 18.4649 18.9906 18.7621 18.4073C18.9046 18.1275 18.9985 17.7652 19.0484 17.1539C19.0992 16.532 19.0999 15.7349 19.0999 14.6V11.4857Z" fill="currentColor"/>
</svg>
