<svg width="24" height="24" viewBox="0 0 24 24" fill="none" xmlns="http://www.w3.org/2000/svg">
<path fill-rule="evenodd" clip-rule="evenodd" d="M11.7519 2.06204H12.2492C12.3699 2.06203 12.4631 2.06202 12.5468 2.06627C14.0311 2.14158 15.2527 3.19701 15.5788 4.59975H19.2867C19.7837 4.59975 20.1867 5.0027 20.1867 5.49975C20.1867 5.99681 19.7837 6.39975 19.2867 6.39975H4.71445C4.2174 6.39975 3.81445 5.99681 3.81445 5.49975C3.81445 5.0027 4.2174 4.59975 4.71445 4.59975H8.42233C8.7484 3.19701 9.96998 2.14158 11.4543 2.06627C11.538 2.06202 11.6312 2.06203 11.7519 2.06204ZM10.3379 4.59975H13.6632C13.4181 4.17894 12.9721 3.89016 12.4556 3.86395C12.4238 3.86234 12.3805 3.86205 12.2265 3.86205H11.7746C11.6207 3.86205 11.5773 3.86234 11.5455 3.86395C11.0291 3.89016 10.583 4.17894 10.3379 4.59975ZM5.72872 8.17475C6.22227 8.11583 6.67014 8.46818 6.72905 8.96173L7.61892 16.4167C7.74112 17.4405 7.82434 18.1232 7.95145 18.6298C8.07233 19.1115 8.20673 19.3175 8.35802 19.4518C8.50931 19.5861 8.72978 19.6952 9.22246 19.7581C9.74049 19.8243 10.4283 19.826 11.4593 19.826H12.5418C13.5728 19.826 14.2606 19.8243 14.7787 19.7581C15.2713 19.6952 15.4918 19.5861 15.6431 19.4518C15.7944 19.3175 15.9288 19.1115 16.0497 18.6298C16.1768 18.1232 16.26 17.4405 16.3822 16.4167L17.2721 8.96173C17.331 8.46818 17.7788 8.11583 18.2724 8.17475C18.766 8.23366 19.1183 8.68152 19.0594 9.17508L18.1627 16.6875C18.0492 17.6387 17.9539 18.4367 17.7956 19.0679C17.6278 19.7365 17.3639 20.3311 16.8381 20.7979C16.3122 21.2647 15.6905 21.4563 15.0067 21.5436C14.3612 21.6261 13.5576 21.626 12.5997 21.626H11.4015C10.4436 21.626 9.63991 21.6261 8.9944 21.5436C8.31059 21.4563 7.68888 21.2647 7.16304 20.7979C6.6372 20.3311 6.37335 19.7365 6.20557 19.0679C6.04719 18.4367 5.95196 17.6387 5.83846 16.6875L4.94174 9.17508C4.88282 8.68152 5.23517 8.23366 5.72872 8.17475Z" fill="currentColor"/>
</svg>
