<svg width="24" height="24" viewBox="0 0 24 24" fill="none" xmlns="http://www.w3.org/2000/svg">
<path fill-rule="evenodd" clip-rule="evenodd" d="M11.5726 4.28212C6.99551 4.28212 3.47212 7.55549 3.47212 11.3759C3.47212 13.0846 4.1631 14.6643 5.3396 15.9044C5.63607 16.2169 5.85678 16.6676 5.82924 17.1879C5.79113 17.9076 5.64744 18.9818 5.27468 19.98C6.5192 19.6327 7.68467 19.0157 8.38984 18.5567C8.79374 18.2938 9.28656 18.1966 9.76347 18.292C10.3443 18.4081 10.9497 18.4697 11.5726 18.4697C16.1497 18.4697 19.6731 15.1963 19.6731 11.3759C19.6731 7.55549 16.1497 4.28212 11.5726 4.28212ZM1.67212 11.3759C1.67212 6.36661 6.20804 2.48212 11.5726 2.48212C16.9372 2.48212 21.4731 6.36661 21.4731 11.3759C21.4731 16.3852 16.9372 20.2697 11.5726 20.2697C10.831 20.2697 10.1073 20.1964 9.41049 20.057C9.39931 20.0548 9.38504 20.0567 9.37175 20.0653C8.39872 20.6986 6.61417 21.6326 4.73722 21.9418C4.06854 22.052 3.58203 21.6455 3.36801 21.2422C3.16204 20.854 3.11418 20.3285 3.36088 19.8627C3.79314 19.0467 3.98276 17.9237 4.02919 17.1384C2.56943 15.5976 1.67212 13.5869 1.67212 11.3759ZM6.88293 9.98015C6.88293 9.4831 7.28587 9.08015 7.78293 9.08015H15.836C16.3331 9.08015 16.736 9.4831 16.736 9.98015C16.736 10.4772 16.3331 10.8802 15.836 10.8802H7.78293C7.28587 10.8802 6.88293 10.4772 6.88293 9.98015ZM6.88293 13.5329C6.88293 13.0359 7.28587 12.6329 7.78293 12.6329H13.9412C14.4382 12.6329 14.8412 13.0359 14.8412 13.5329C14.8412 14.03 14.4382 14.4329 13.9412 14.4329H7.78293C7.28587 14.4329 6.88293 14.03 6.88293 13.5329Z" fill="currentColor"/>
</svg>
