<svg width="24" height="24" viewBox="0 0 24 24" fill="none" xmlns="http://www.w3.org/2000/svg">
<path fill-rule="evenodd" clip-rule="evenodd" d="M4.21669 9.75001C4.01055 10.4644 3.9001 11.2193 3.9001 12C3.9001 12.7807 4.01055 13.5357 4.21669 14.25H7.62686C7.54509 13.5521 7.5001 12.8027 7.5001 12C7.5001 11.1973 7.54509 10.4479 7.62686 9.75001H4.21669ZM4.98373 7.95001H7.94028C8.29795 6.43377 8.83937 5.23136 9.43484 4.31463C7.54521 4.94507 5.96545 6.25292 4.98373 7.95001ZM12.0001 4.07649C11.3484 4.61029 10.3775 5.81314 9.79479 7.95001H14.2054C13.6227 5.81314 12.6518 4.61029 12.0001 4.07649ZM14.5609 9.75001H9.43927C9.35061 10.4311 9.3001 11.1795 9.3001 12C9.3001 12.8205 9.35061 13.5689 9.43927 14.25H14.5609C14.6496 13.5689 14.7001 12.8205 14.7001 12C14.7001 11.1795 14.6496 10.4311 14.5609 9.75001ZM16.3733 14.25C16.4551 13.5521 16.5001 12.8027 16.5001 12C16.5001 11.1973 16.4551 10.4479 16.3733 9.75001H19.7838C19.9896 10.4635 20.1001 11.2182 20.1001 12C20.1001 12.7818 19.9896 13.5365 19.7838 14.25H16.3733ZM14.2054 16.05H9.79479C10.3775 18.1869 11.3484 19.3897 12.0001 19.9235C12.6518 19.3897 13.6227 18.1869 14.2054 16.05ZM9.43484 19.6854C8.83937 18.7687 8.29795 17.5662 7.94028 16.05L4.98373 16.05C5.96545 17.7471 7.54521 19.0549 9.43484 19.6854ZM14.5654 19.6854C15.1608 18.7686 15.7023 17.5662 16.0599 16.05L19.0167 16.05C18.0347 17.7475 16.4547 19.0551 14.5654 19.6854ZM19.0167 7.95001H16.0599C15.7023 6.43378 15.1608 5.23137 14.5654 4.31464C16.4547 4.94495 18.0347 6.25248 19.0167 7.95001ZM2.1001 12C2.1001 6.53239 6.53248 2.10001 12.0001 2.10001C16.2501 2.10001 19.8725 4.77767 21.2765 8.53497C21.68 9.61462 21.9001 10.7826 21.9001 12C21.9001 13.2174 21.68 14.3854 21.2765 15.465C19.8725 19.2223 16.2501 21.9 12.0001 21.9C6.53248 21.9 2.1001 17.4676 2.1001 12Z" fill="currentColor"/>
</svg>
