<svg width="24" height="24" viewBox="0 0 24 24" fill="none" xmlns="http://www.w3.org/2000/svg">
<path fill-rule="evenodd" clip-rule="evenodd" d="M11.2725 0.762558C11.7548 0.679733 12.2476 0.679733 12.7299 0.762558C13.2761 0.856354 13.7894 1.08902 14.5198 1.42004C14.5528 1.43498 14.5861 1.45011 14.62 1.46544L18.9078 3.407C18.9415 3.42225 18.9748 3.43731 19.0077 3.4522C19.8341 3.826 20.4247 4.09314 20.9515 4.59189C21.3653 4.98378 21.8017 5.63449 22.0072 6.16615C22.2684 6.84186 22.2873 7.37214 22.3135 8.10792C22.3142 8.12908 22.315 8.1504 22.3158 8.17191C22.4176 11.0072 21.9986 14.4256 20.5623 17.3137C19.1087 20.2366 16.5985 22.6284 12.6013 23.243L12.5942 23.244C12.4676 23.2635 12.3698 23.2785 12.2118 23.2882C12.0986 23.2951 11.9037 23.2951 11.7905 23.2882C11.6325 23.2785 11.5348 23.2635 11.4081 23.244L11.4011 23.243C7.4039 22.6284 4.8937 20.2366 3.44007 17.3137C2.00378 14.4256 1.58482 11.0072 1.68661 8.17191C1.68738 8.15041 1.68814 8.12909 1.68889 8.10794C1.71511 7.37215 1.73401 6.84187 1.99516 6.16615C2.20064 5.63449 2.63703 4.98378 3.05092 4.59189C3.57766 4.09314 4.16827 3.826 4.99467 3.4522C5.02759 3.43731 5.06088 3.42225 5.09456 3.407L9.38239 1.46544C9.41624 1.45011 9.44963 1.43497 9.48258 1.42004C10.2129 1.08902 10.7263 0.856353 11.2725 0.762558ZM12.4253 2.53659C12.1446 2.48839 11.8578 2.48839 11.5771 2.53659C11.287 2.58641 10.9948 2.71124 10.1249 3.10517L5.83704 5.04673C4.87536 5.48219 4.57173 5.63077 4.28851 5.89894C4.06881 6.10696 3.7832 6.53284 3.67413 6.81505C3.53026 7.18729 3.5143 7.43267 3.48545 8.23648C3.39044 10.8831 3.79108 13.9772 5.05176 16.5122C6.29509 19.0122 8.35921 20.9541 11.6747 21.4639C11.7989 21.483 11.8277 21.4871 11.9003 21.4916C11.9404 21.494 12.062 21.494 12.1021 21.4916C12.1747 21.4871 12.2035 21.483 12.3277 21.4639C15.6432 20.9541 17.7073 19.0122 18.9506 16.5122C20.2113 13.9772 20.6119 10.8831 20.5169 8.23648C20.4881 7.43267 20.4721 7.18729 20.3282 6.81504C20.2192 6.53284 19.9336 6.10696 19.7139 5.89894C19.4307 5.63077 19.127 5.48219 18.1653 5.04673L13.8775 3.10517C13.0075 2.71124 12.7154 2.58641 12.4253 2.53659Z" fill="currentColor"/>
<path fill-rule="evenodd" clip-rule="evenodd" d="M10.9423 9.98401C10.8848 10.1586 10.7218 10.2766 10.538 10.2766H8.43354C8.0198 10.2766 7.84926 10.8071 8.1855 11.0482L9.87827 12.2619C10.0294 12.3703 10.0927 12.5643 10.0346 12.741L9.38569 14.7117C9.25689 15.1028 9.70335 15.4307 10.0381 15.1907L11.7526 13.9614C11.9009 13.8551 12.1004 13.8551 12.2487 13.9614L13.9633 15.1907C14.298 15.4307 14.7445 15.1028 14.6157 14.7117L13.9668 12.741C13.9086 12.5643 13.9719 12.3703 14.1231 12.2619L15.8159 11.0482C16.1521 10.8071 15.9815 10.2766 15.5678 10.2766H13.4634C13.2796 10.2766 13.1165 10.1586 13.0591 9.98401L12.405 7.99755C12.2766 7.60748 11.7248 7.60748 11.5963 7.99755L10.9423 9.98401ZM14.4578 8.47656H15.5678C17.731 8.47656 18.6227 11.2506 16.8647 12.5111L15.9921 13.1366L16.3254 14.1487C16.9988 16.1941 14.6645 17.9083 12.9145 16.6536L12.0007 15.9984L11.0869 16.6536C9.33685 17.9083 7.00254 16.1941 7.67598 14.1487L8.00921 13.1366L7.13667 12.5111C5.37864 11.2506 6.27032 8.47656 8.43354 8.47656H9.54357L9.88663 7.43462C10.5581 5.39513 13.4432 5.39512 14.1147 7.43462L14.4578 8.47656Z" fill="currentColor"/>
</svg>
