<svg width="24" height="24" viewBox="0 0 24 24" fill="none" xmlns="http://www.w3.org/2000/svg">
<path fill-rule="evenodd" clip-rule="evenodd" d="M8.02025 4.59644H12.5529C13.6267 4.59643 14.4871 4.59642 15.1828 4.65296C15.8972 4.71103 16.5164 4.83314 17.0869 5.12207C18.0124 5.59073 18.7642 6.3425 19.2329 7.26799C19.5218 7.83856 19.6439 8.4577 19.702 9.17213C19.7585 9.8678 19.7585 10.7282 19.7585 11.802V11.8794C19.7585 12.9532 19.7585 13.8136 19.702 14.5093C19.6439 15.2237 19.5218 15.8428 19.2329 16.4134C18.7642 17.3389 18.0124 18.0907 17.0869 18.5593C16.5164 18.8483 15.8972 18.9704 15.1828 19.0284C14.4871 19.085 13.6267 19.085 12.5529 19.085H8.02027C6.94648 19.085 6.08607 19.085 5.3904 19.0284C4.67597 18.9704 4.05682 18.8483 3.48625 18.5593C2.56077 18.0907 1.80899 17.3389 1.34033 16.4134C1.0514 15.8428 0.929292 15.2237 0.871225 14.5093C0.814683 13.8136 0.814689 12.9532 0.814697 11.8794V11.802C0.814689 10.7282 0.814683 9.8678 0.871225 9.17213C0.929292 8.4577 1.0514 7.83856 1.34033 7.26799C1.80899 6.3425 2.56077 5.59073 3.48625 5.12207C4.05682 4.83314 4.67597 4.71103 5.3904 4.65296C6.08606 4.59642 6.94647 4.59643 8.02025 4.59644ZM5.53621 6.44705C4.93246 6.49612 4.57516 6.58829 4.29944 6.72791C3.7158 7.02346 3.24172 7.49754 2.94617 8.08118C2.80655 8.35689 2.71438 8.7142 2.66531 9.31795C2.61539 9.93213 2.6147 10.7193 2.6147 11.8407C2.6147 12.9621 2.61539 13.7493 2.66531 14.3635C2.71438 14.9672 2.80655 15.3245 2.94617 15.6002C3.24172 16.1839 3.7158 16.6579 4.29944 16.9535C4.57516 17.0931 4.93246 17.1853 5.53621 17.2344C6.15039 17.2843 6.93759 17.285 8.05897 17.285H12.5142C13.6356 17.285 14.4228 17.2843 15.037 17.2344C15.6407 17.1853 15.998 17.0931 16.2737 16.9535C16.8574 16.6579 17.3315 16.1839 17.627 15.6002C17.7666 15.3245 17.8588 14.9672 17.9079 14.3635C17.9578 13.7493 17.9585 12.9621 17.9585 11.8407C17.9585 10.7193 17.9578 9.93213 17.9079 9.31795C17.8588 8.7142 17.7666 8.35689 17.627 8.08118C17.3315 7.49754 16.8574 7.02346 16.2737 6.72791C15.998 6.58829 15.6407 6.49612 15.037 6.44705C14.4228 6.39713 13.6356 6.39644 12.5142 6.39644H8.05896C6.93758 6.39644 6.15039 6.39713 5.53621 6.44705Z" fill="currentColor"/>
<path d="M7.63927 11.8985L10.2871 8.22393C10.569 7.83281 11.1867 8.03219 11.1867 8.51427V10.2855C11.1867 10.5598 11.409 10.7822 11.6833 10.7822H12.8437C13.269 10.7822 13.4975 11.2819 13.2194 11.6036L9.99263 15.3351C9.64092 15.7419 8.98379 15.3775 9.14245 14.8638L9.61655 13.3286C9.71521 13.0091 9.47639 12.6854 9.14204 12.6854H8.04219C7.6373 12.6854 7.40256 12.227 7.63927 11.8985Z" fill="currentColor"/>
<path d="M21.8104 13.5759C22.4338 13.2416 22.8569 12.5897 22.8569 11.8403C22.8569 11.0909 22.4338 10.4391 21.8104 10.1047C21.327 9.84541 20.8564 10.3109 20.8564 10.8595V12.8212C20.8564 13.3697 21.327 13.8352 21.8104 13.5759Z" fill="currentColor"/>
</svg>
