<svg width="24" height="24" viewBox="0 0 24 24" fill="none" xmlns="http://www.w3.org/2000/svg">
<path fill-rule="evenodd" clip-rule="evenodd" d="M6.96041 2.48363H7.03947C7.67341 2.48361 8.20809 2.4836 8.64442 2.52262C9.10172 2.56352 9.53809 2.65279 9.94561 2.88497C10.4077 3.14823 10.7929 3.52774 11.0613 3.98653C11.2989 4.39261 11.3902 4.82791 11.4319 5.2822C11.4716 5.7144 11.4716 6.24343 11.4716 6.86789V6.94855C11.4716 7.57301 11.4716 8.10205 11.4319 8.53424C11.3902 8.98853 11.2989 9.42383 11.0613 9.82992C10.7929 10.2887 10.4077 10.6682 9.94561 10.9315C9.53809 11.1637 9.10172 11.2529 8.64442 11.2938C8.2081 11.3328 7.67342 11.3328 7.03949 11.3328H6.9604C6.32647 11.3328 5.79179 11.3328 5.35547 11.2938C4.89817 11.2529 4.46179 11.1637 4.05428 10.9315C3.5922 10.6682 3.20702 10.2887 2.93861 9.82992C2.70103 9.42383 2.60971 8.98853 2.56798 8.53424C2.52829 8.10204 2.5283 7.573 2.52832 6.94852V6.86793C2.5283 6.24345 2.52829 5.7144 2.56798 5.2822C2.60971 4.82791 2.70103 4.39261 2.93861 3.98653C3.20702 3.52774 3.5922 3.14823 4.05427 2.88497C4.46179 2.65279 4.89817 2.56352 5.35547 2.52262C5.79179 2.4836 6.32648 2.48361 6.96041 2.48363ZM5.51582 4.31547C5.18118 4.3454 5.0351 4.3978 4.94534 4.44894C4.75587 4.55689 4.6 4.7113 4.49224 4.89549C4.44272 4.98013 4.39049 5.11961 4.36044 5.44683C4.32921 5.78688 4.32832 6.23261 4.32832 6.90822C4.32832 7.58383 4.32921 8.02957 4.36044 8.36961C4.39049 8.69683 4.44272 8.83631 4.49224 8.92095C4.6 9.10514 4.75587 9.25955 4.94534 9.36751C5.0351 9.41865 5.18118 9.47105 5.51582 9.50098C5.86239 9.53197 6.31598 9.53281 6.99994 9.53281C7.68391 9.53281 8.1375 9.53197 8.48407 9.50098C8.81871 9.47105 8.96478 9.41865 9.05455 9.36751C9.24402 9.25955 9.39989 9.10514 9.50764 8.92095C9.55717 8.83631 9.6094 8.69683 9.63945 8.36961C9.67068 8.02957 9.67157 7.58383 9.67157 6.90822C9.67157 6.23261 9.67068 5.78688 9.63945 5.44683C9.6094 5.11961 9.55717 4.98013 9.50764 4.89549C9.39989 4.7113 9.24402 4.55689 9.05454 4.44894C8.96479 4.3978 8.81871 4.3454 8.48407 4.31547C8.1375 4.28447 7.68391 4.28363 6.99994 4.28363C6.31598 4.28363 5.86239 4.28447 5.51582 4.31547ZM16.961 2.48363H17.04C17.674 2.48361 18.2086 2.4836 18.645 2.52262C19.1023 2.56352 19.5386 2.65279 19.9462 2.88497C20.4082 3.14823 20.7934 3.52774 21.0618 3.98653C21.2994 4.39261 21.3907 4.82791 21.4324 5.2822C21.4721 5.7144 21.4721 6.24345 21.4721 6.86794V6.94851C21.4721 7.57299 21.4721 8.10204 21.4324 8.53424C21.3907 8.98853 21.2994 9.42383 21.0618 9.82992C20.7934 10.2887 20.4082 10.6682 19.9462 10.9315C19.5386 11.1637 19.1023 11.2529 18.645 11.2938C18.2086 11.3328 17.674 11.3328 17.04 11.3328H16.9609C16.327 11.3328 15.7923 11.3328 15.356 11.2938C14.8987 11.2529 14.4623 11.1637 14.0548 10.9315C13.5927 10.6682 13.2076 10.2887 12.9391 9.82992C12.7016 9.42383 12.6102 8.98853 12.5685 8.53424C12.5288 8.10204 12.5288 7.57299 12.5289 6.94851V6.86794C12.5288 6.24345 12.5288 5.71441 12.5685 5.2822C12.6102 4.82791 12.7016 4.39261 12.9391 3.98653C13.2076 3.52774 13.5927 3.14823 14.0548 2.88497C14.4623 2.65279 14.8987 2.56352 15.356 2.52262C15.7923 2.4836 16.327 2.48361 16.961 2.48363ZM15.5164 4.31547C15.1817 4.3454 15.0356 4.3978 14.9459 4.44894C14.7564 4.55689 14.6005 4.7113 14.4928 4.89549C14.4433 4.98013 14.391 5.11961 14.361 5.44683C14.3297 5.78688 14.3289 6.23261 14.3289 6.90822C14.3289 7.58383 14.3297 8.02957 14.361 8.36961C14.391 8.69683 14.4433 8.83631 14.4928 8.92095C14.6005 9.10514 14.7564 9.25955 14.9459 9.36751C15.0356 9.41865 15.1817 9.47105 15.5164 9.50098C15.8629 9.53197 16.3165 9.53281 17.0005 9.53281C17.6845 9.53281 18.138 9.53197 18.4846 9.50098C18.8193 9.47105 18.9653 9.41865 19.0551 9.36751C19.2446 9.25955 19.4004 9.10514 19.5082 8.92095C19.5577 8.83631 19.6099 8.69683 19.64 8.36961C19.6712 8.02957 19.6721 7.58383 19.6721 6.90822C19.6721 6.23261 19.6712 5.78688 19.64 5.44683C19.6099 5.11961 19.5577 4.98013 19.5082 4.89549C19.4004 4.7113 19.2446 4.55689 19.0551 4.44894C18.9653 4.3978 18.8193 4.3454 18.4846 4.31547C18.138 4.28447 17.6845 4.28363 17.0005 4.28363C16.3165 4.28363 15.8629 4.28447 15.5164 4.31547ZM6.9604 12.3525H7.03949C7.67342 12.3525 8.2081 12.3525 8.64442 12.3915C9.10172 12.4324 9.53809 12.5216 9.94561 12.7538C10.4077 13.0171 10.7929 13.3966 11.0613 13.8554C11.2989 14.2615 11.3902 14.6968 11.4319 15.1511C11.4716 15.5833 11.4716 16.1123 11.4716 16.7368V16.8174C11.4716 17.4419 11.4716 17.9709 11.4319 18.4031C11.3902 18.8574 11.2989 19.2927 11.0613 19.6988C10.7929 20.1576 10.4077 20.5371 9.94561 20.8003C9.5381 21.0325 9.10172 21.1218 8.64442 21.1627C8.20809 21.2017 7.6734 21.2017 7.03944 21.2017H6.96044C6.32649 21.2017 5.7918 21.2017 5.35547 21.1627C4.89817 21.1218 4.46179 21.0325 4.05428 20.8003C3.59221 20.5371 3.20702 20.1576 2.93861 19.6988C2.70103 19.2927 2.60971 18.8574 2.56798 18.4031C2.52829 17.9709 2.5283 17.4419 2.52832 16.8174V16.7368C2.5283 16.1123 2.52829 15.5833 2.56798 15.1511C2.60971 14.6968 2.70103 14.2615 2.93861 13.8554C3.20702 13.3966 3.5922 13.0171 4.05427 12.7538C4.46179 12.5216 4.89817 12.4324 5.35547 12.3915C5.79179 12.3525 6.32647 12.3525 6.9604 12.3525ZM5.51582 14.1843C5.18118 14.2143 5.0351 14.2667 4.94534 14.3178C4.75587 14.4257 4.6 14.5802 4.49224 14.7643C4.44272 14.849 4.39049 14.9885 4.36044 15.3157C4.32921 15.6557 4.32832 16.1015 4.32832 16.7771C4.32832 17.4527 4.32921 17.8984 4.36044 18.2385C4.39049 18.5657 4.44272 18.7052 4.49224 18.7898C4.6 18.974 4.75587 19.1284 4.94534 19.2364C5.0351 19.2875 5.18118 19.3399 5.51582 19.3698C5.86239 19.4008 6.31598 19.4017 6.99994 19.4017C7.68391 19.4017 8.1375 19.4008 8.48407 19.3698C8.81871 19.3399 8.96478 19.2875 9.05455 19.2364C9.24402 19.1284 9.39989 18.974 9.50764 18.7898C9.55717 18.7052 9.6094 18.5657 9.63945 18.2385C9.67068 17.8984 9.67157 17.4527 9.67157 16.7771C9.67157 16.1015 9.67068 15.6557 9.63945 15.3157C9.6094 14.9885 9.55717 14.849 9.50764 14.7643C9.39989 14.5802 9.24402 14.4257 9.05454 14.3178C8.96478 14.2667 8.81871 14.2143 8.48407 14.1843C8.1375 14.1533 7.68391 14.1525 6.99994 14.1525C6.31598 14.1525 5.86239 14.1533 5.51582 14.1843Z" fill="currentColor"/>
<path d="M14.743 13.5283C15.3111 13.5283 15.7716 13.9828 15.7716 14.5434C15.7716 15.104 15.3111 15.5585 14.743 15.5585C14.1749 15.5585 13.7144 15.104 13.7144 14.5434C13.7144 13.9828 14.1749 13.5283 14.743 13.5283Z" fill="currentColor"/>
<path d="M17.1431 15.8969C17.7112 15.8969 18.1717 16.3513 18.1717 16.912C18.1717 17.4726 17.7112 17.927 17.1431 17.927C16.575 17.927 16.1145 17.4726 16.1145 16.912C16.1145 16.3513 16.575 15.8969 17.1431 15.8969Z" fill="currentColor"/>
<path d="M19.5432 13.5283C20.1113 13.5283 20.5719 13.9828 20.5719 14.5434C20.5719 15.104 20.1113 15.5585 19.5432 15.5585C18.9752 15.5585 18.5146 15.104 18.5146 14.5434C18.5146 13.9828 18.9752 13.5283 19.5432 13.5283Z" fill="currentColor"/>
<path d="M14.743 18.2654C15.3111 18.2654 15.7716 18.7199 15.7716 19.2805C15.7716 19.8411 15.3111 20.2956 14.743 20.2956C14.1749 20.2956 13.7144 19.8411 13.7144 19.2805C13.7144 18.7199 14.1749 18.2654 14.743 18.2654Z" fill="currentColor"/>
<path d="M19.5432 18.2654C20.1113 18.2654 20.5719 18.7199 20.5719 19.2805C20.5719 19.8411 20.1113 20.2956 19.5432 20.2956C18.9752 20.2956 18.5146 19.8411 18.5146 19.2805C18.5146 18.7199 18.9752 18.2654 19.5432 18.2654Z" fill="currentColor"/>
</svg>
