<svg width="24" height="24" viewBox="0 0 24 24" fill="none" xmlns="http://www.w3.org/2000/svg">
<path fill-rule="evenodd" clip-rule="evenodd" d="M11.7411 3.60026C12.0902 3.95406 12.0864 4.52389 11.7326 4.87303L6.69342 9.84587H10.5934C12.5156 9.84586 14.039 9.84585 15.2437 9.98915C16.4808 10.1363 17.4994 10.4454 18.3484 11.1485C18.6212 11.3745 18.8723 11.6256 19.0983 11.8984C19.8014 12.7474 20.1105 13.7659 20.2576 15.0031C20.4009 16.2078 20.4009 17.7312 20.4009 19.6534V19.7124C20.4009 20.2095 19.998 20.6124 19.5009 20.6124C19.0039 20.6124 18.6009 20.2095 18.6009 19.7124C18.6009 17.718 18.5994 16.3017 18.4702 15.2157C18.3434 14.1498 18.1046 13.5207 17.712 13.0465C17.5578 12.8603 17.3864 12.689 17.2002 12.5348C16.7261 12.1422 16.097 11.9033 15.0311 11.7766C13.9451 11.6474 12.5288 11.6459 10.5343 11.6459H6.69342L11.1326 16.0266C11.4864 16.3757 11.4902 16.9456 11.141 17.2994C10.7919 17.6531 10.2221 17.6569 9.86826 17.3078L3.86793 11.3865C3.69656 11.2174 3.6001 10.9866 3.6001 10.7459C3.6001 10.5051 3.69656 10.2744 3.86793 10.1053L10.4683 3.59183C10.8221 3.24269 11.3919 3.24647 11.7411 3.60026Z" fill="currentColor"/>
</svg>
