<svg width="24" height="24" viewBox="0 0 24 24" fill="none" xmlns="http://www.w3.org/2000/svg">
<path fill-rule="evenodd" clip-rule="evenodd" d="M11.1011 3.90741C7.04208 4.34894 3.90059 7.74196 3.90059 11.8408C3.90059 16.2379 7.51601 19.8227 12.0011 19.8227C16.1759 19.8227 19.5972 16.7167 20.0506 12.7408H13.9876C13.9707 12.7408 13.9538 12.7408 13.9369 12.7408C13.5126 12.7408 13.109 12.7409 12.7778 12.6964C12.4075 12.6466 11.9962 12.5268 11.6556 12.1862C11.315 11.8457 11.1952 11.4343 11.1455 11.064C11.1009 10.7328 11.101 10.3292 11.1011 9.90491C11.1011 9.88805 11.1011 9.87115 11.1011 9.85423V3.90741ZM12.9011 3.90741V9.85423C12.9011 10.3479 12.903 10.6276 12.9294 10.8242C12.9337 10.856 12.9381 10.8808 12.942 10.8998C12.961 10.9038 12.9858 10.9081 13.0176 10.9124C13.2142 10.9388 13.4939 10.9408 13.9876 10.9408H20.0506C19.6302 7.25459 16.6588 4.31618 12.9011 3.90741ZM12.8889 10.885C12.8891 10.8849 12.8906 10.8855 12.8931 10.8868C12.8901 10.8857 12.8888 10.885 12.8889 10.885ZM12.955 10.9487C12.9563 10.9513 12.9569 10.9528 12.9569 10.9529C12.9568 10.953 12.9562 10.9517 12.955 10.9487ZM2.10059 11.8408C2.10059 6.42711 6.54447 2.05878 12.0011 2.05878C17.4577 2.05878 21.9016 6.42711 21.9016 11.8408C21.9016 17.2544 17.4577 21.6227 12.0011 21.6227C6.54447 21.6227 2.10059 17.2544 2.10059 11.8408Z" fill="currentColor"/>
</svg>
