<svg width="24" height="24" viewBox="0 0 24 24" fill="none" xmlns="http://www.w3.org/2000/svg">
<path fill-rule="evenodd" clip-rule="evenodd" d="M12.0001 3.89998C9.9381 3.89998 8.26776 5.57001 8.26776 7.62855C8.26776 9.68709 9.9381 11.3571 12.0001 11.3571C14.0621 11.3571 15.7325 9.68709 15.7325 7.62855C15.7325 5.57001 14.0621 3.89998 12.0001 3.89998ZM6.46776 7.62855C6.46776 4.57451 8.94537 2.09998 12.0001 2.09998C15.0549 2.09998 17.5325 4.57451 17.5325 7.62855C17.5325 10.6826 15.0549 13.1571 12.0001 13.1571C8.94537 13.1571 6.46776 10.6826 6.46776 7.62855ZM4.11969 16.2241C5.15423 15.2699 6.41709 14.9571 7.36774 14.9571H16.6324C17.5831 14.9571 18.846 15.2699 19.8805 16.2241C20.9369 17.1984 21.6501 18.7438 21.6501 21C21.6501 21.497 21.2472 21.9 20.7501 21.9C20.253 21.9 19.8501 21.497 19.8501 21C19.8501 19.1418 19.2766 18.1158 18.6601 17.5473C18.0219 16.9586 17.2259 16.7571 16.6324 16.7571H7.36774C6.77428 16.7571 5.97832 16.9586 5.34006 17.5473C4.72365 18.1158 4.1501 19.1418 4.1501 21C4.1501 21.497 3.74715 21.9 3.2501 21.9C2.75304 21.9 2.3501 21.497 2.3501 21C2.3501 18.7438 3.06331 17.1984 4.11969 16.2241Z" fill="currentColor"/>
</svg>
