<svg width="28" height="28" viewBox="0 0 28 28" fill="none" xmlns="http://www.w3.org/2000/svg">
<path fill-rule="evenodd" clip-rule="evenodd" d="M14.7332 3.90001C14.2656 3.90001 13.8866 4.27905 13.8866 4.74663V5.27099H15.5798V4.74663C15.5798 4.27905 15.2008 3.90001 14.7332 3.90001ZM17.3798 5.27099V4.74663C17.3798 3.28494 16.1949 2.10001 14.7332 2.10001C13.2715 2.10001 12.0866 3.28494 12.0866 4.74663V5.27099H9.96526C7.27831 5.27099 5.1001 7.44919 5.1001 10.1361V20.7032C5.1001 23.3902 7.27831 25.5684 9.96526 25.5684H19.0021C21.6891 25.5684 23.8673 23.3902 23.8673 20.7032V10.1362C23.8673 7.4492 21.6891 5.27099 19.0021 5.27099H17.3798ZM9.96526 7.07099C8.27242 7.07099 6.9001 8.44331 6.9001 10.1361V20.7032C6.9001 22.3961 8.27242 23.7684 9.96526 23.7684H19.0021C20.695 23.7684 22.0673 22.3961 22.0673 20.7032V10.1362C22.0673 8.44331 20.6949 7.07099 19.0021 7.07099H9.96526ZM9.59141 10.9275C9.59141 10.4304 9.99435 10.0275 10.4914 10.0275H18.476C18.973 10.0275 19.376 10.4304 19.376 10.9275C19.376 11.4245 18.973 11.8275 18.476 11.8275H10.4914C9.99435 11.8275 9.59141 11.4245 9.59141 10.9275ZM9.59141 14.6269C9.59141 14.1299 9.99435 13.7269 10.4914 13.7269H18.476C18.973 13.7269 19.376 14.1299 19.376 14.6269C19.376 15.124 18.973 15.5269 18.476 15.5269H10.4914C9.99435 15.5269 9.59141 15.124 9.59141 14.6269ZM11.0885 18.3264C11.0885 17.8294 11.4915 17.4264 11.9885 17.4264H16.9789C17.4759 17.4264 17.8789 17.8294 17.8789 18.3264C17.8789 18.8235 17.4759 19.2264 16.9789 19.2264H11.9885C11.4915 19.2264 11.0885 18.8235 11.0885 18.3264Z" fill="currentColor"/>
</svg>
