<svg width="28" height="28" viewBox="0 0 28 28" fill="none" xmlns="http://www.w3.org/2000/svg">
<path fill-rule="evenodd" clip-rule="evenodd" d="M20.2862 6.44497C17.9446 4.13838 14.0971 4.13837 11.7556 6.44497L6.40326 11.7173C6.01402 12.1007 5.38765 12.096 5.00423 11.7068C4.62081 11.3175 4.62552 10.6912 5.01476 10.3077L10.3671 5.03541C13.4788 1.97013 18.5629 1.97013 21.6747 5.03542C24.7362 8.05117 24.7362 12.9046 21.6747 15.9204L14.327 23.1583C11.9726 25.4774 8.12906 25.4774 5.77469 23.1583C3.45433 20.8726 3.45433 17.191 5.77469 14.9054L13.1556 7.63476C14.7397 6.07429 17.2964 6.00289 18.9694 7.46778C20.8073 9.07706 20.8466 11.8788 19.0518 13.5363L12.8929 19.224C12.4915 19.5946 11.8657 19.5698 11.495 19.1684C11.1243 18.767 11.1492 18.1411 11.5506 17.7704L17.7094 12.0828C18.6394 11.224 18.6208 9.79239 17.666 8.95636C16.7703 8.1721 15.3879 8.21308 14.5441 9.04431L7.16318 16.3149C5.6296 17.8256 5.6296 20.238 7.16318 21.7487C8.74735 23.3092 11.3543 23.3092 12.9385 21.7487L20.2862 14.5108C22.5609 12.2701 22.5609 8.68571 20.2862 6.44497Z" fill="currentColor"/>
</svg>
