<svg width="28" height="28" viewBox="0 0 28 28" fill="none" xmlns="http://www.w3.org/2000/svg">
<path fill-rule="evenodd" clip-rule="evenodd" d="M13.9571 3.1H14.0431C15.832 3.09999 17.2333 3.09999 18.3561 3.19749C19.4993 3.29675 20.4388 3.50226 21.2791 3.96424C22.441 4.60297 23.3971 5.55911 24.0359 6.72096C24.4978 7.56131 24.7033 8.50084 24.8026 9.64402C24.9001 10.7668 24.9001 12.1681 24.9001 13.957V14.043C24.9001 15.8319 24.9001 17.2332 24.8026 18.356C24.7033 19.4992 24.4978 20.4387 24.0359 21.279C23.3971 22.4409 22.441 23.397 21.2791 24.0358C20.4388 24.4977 19.4993 24.7032 18.3561 24.8025C17.2333 24.9 15.832 24.9 14.0431 24.9H13.9571C12.1682 24.9 10.7669 24.9 9.64412 24.8025C8.50094 24.7032 7.5614 24.4977 6.72106 24.0358C5.55921 23.397 4.60307 22.4409 3.96434 21.279C3.50236 20.4387 3.29685 19.4992 3.19759 18.356C3.10009 17.2332 3.10009 15.8319 3.1001 14.043V13.957C3.10009 12.1681 3.10009 10.7668 3.19759 9.64402C3.29685 8.50084 3.50236 7.5613 3.96434 6.72096C4.60307 5.55911 5.55921 4.60297 6.72106 3.96424C7.5614 3.50226 8.50094 3.29675 9.64412 3.19749C10.7669 3.09999 12.1682 3.09999 13.9571 3.1ZM9.79983 4.99074C8.77531 5.0797 8.11743 5.25066 7.58822 5.54159C6.72568 6.01577 6.01587 6.72558 5.54169 7.58812C5.25076 8.11733 5.0798 8.77522 4.99084 9.79973C4.90089 10.8356 4.9001 12.1588 4.9001 14C4.9001 15.8411 4.90089 17.1644 4.99084 18.2003C5.0798 19.2248 5.25076 19.8827 5.54169 20.4119C6.01587 21.2744 6.72568 21.9842 7.58822 22.4584C8.11743 22.7493 8.77531 22.9203 9.79983 23.0093C10.8357 23.0992 12.1589 23.1 14.0001 23.1C15.8412 23.1 17.1645 23.0992 18.2004 23.0093C19.2249 22.9203 19.8828 22.7493 20.412 22.4584C21.2745 21.9842 21.9843 21.2744 22.4585 20.4119C22.7494 19.8827 22.9204 19.2248 23.0094 18.2003C23.0993 17.1644 23.1001 15.8411 23.1001 14C23.1001 12.1588 23.0993 10.8356 23.0094 9.79973C22.9204 8.77522 22.7494 8.11733 22.4585 7.58812C21.9843 6.72559 21.2745 6.01577 20.412 5.54159C19.8828 5.25066 19.2249 5.0797 18.2004 4.99074C17.1645 4.90079 15.8412 4.9 14.0001 4.9C12.1589 4.9 10.8357 4.90079 9.79983 4.99074ZM10.2159 7.01304H10.289C10.6949 7.01302 11.0578 7.01299 11.3582 7.04022C11.68 7.06938 12.0173 7.13538 12.34 7.32166C12.6901 7.52384 12.9809 7.81464 13.1831 8.16483C13.3694 8.48749 13.4354 8.82477 13.4646 9.14654C13.4918 9.44694 13.4918 9.80986 13.4917 10.2158V10.2889C13.4918 10.6948 13.4918 11.0577 13.4646 11.3581C13.4354 11.6799 13.3694 12.0172 13.1831 12.3399C12.9809 12.69 12.6901 12.9808 12.34 13.183C12.0173 13.3693 11.68 13.4353 11.3582 13.4645C11.0578 13.4917 10.6949 13.4917 10.289 13.4916H10.2159C9.80996 13.4917 9.44704 13.4917 9.14664 13.4645C8.82487 13.4353 8.48759 13.3693 8.16493 13.183C7.81474 12.9808 7.52394 12.69 7.32176 12.3399C7.13547 12.0172 7.06948 11.6799 7.04032 11.3581C7.01309 11.0577 7.01312 10.6948 7.01314 10.2889V10.2158C7.01312 9.80985 7.01309 9.44694 7.04032 9.14654C7.06948 8.82477 7.13547 8.48749 7.32176 8.16483C7.52394 7.81464 7.81474 7.52384 8.16493 7.32166C8.48759 7.13538 8.82486 7.06938 9.14664 7.04022C9.44704 7.01299 9.80995 7.01302 10.2159 7.01304ZM9.06493 8.88051C9.06484 8.88056 9.06499 8.88048 9.06493 8.88051C8.98838 8.92471 8.92481 8.98828 8.88061 9.06483C8.88057 9.06489 8.88066 9.06474 8.88061 9.06483C8.8779 9.06942 8.85047 9.11591 8.83297 9.30901C8.814 9.51831 8.81314 9.79851 8.81314 10.2523C8.81314 10.7062 8.814 10.9864 8.83297 11.1957C8.85047 11.3888 8.87777 11.435 8.88048 11.4396C8.92468 11.5162 8.98838 11.58 9.06493 11.6242C9.06952 11.6269 9.116 11.6543 9.30911 11.6718C9.51841 11.6908 9.79861 11.6916 10.2524 11.6916C10.7063 11.6916 10.9865 11.6908 11.1958 11.6718C11.3889 11.6543 11.4351 11.627 11.4397 11.6243C11.5163 11.5801 11.5801 11.5164 11.6243 11.4399C11.627 11.4353 11.6544 11.3888 11.6719 11.1957C11.6909 10.9864 11.6917 10.7062 11.6917 10.2523C11.6917 9.79851 11.6909 9.51831 11.6719 9.30901C11.6544 9.1159 11.6271 9.06965 11.6244 9.06506C11.5802 8.9885 11.5165 8.92471 11.44 8.88051C11.4354 8.8778 11.3889 8.85037 11.1958 8.83287C10.9865 8.8139 10.7063 8.81304 10.2524 8.81304C9.79861 8.81304 9.51841 8.8139 9.30911 8.83287C9.11601 8.85037 9.06952 8.8778 9.06493 8.88051ZM17.7112 7.01304H17.7843C18.1902 7.01302 18.5532 7.01299 18.8536 7.04022C19.1753 7.06938 19.5126 7.13538 19.8353 7.32166C20.1855 7.52385 20.4763 7.81464 20.6784 8.16483C20.8647 8.48749 20.9307 8.82477 20.9599 9.14654C20.9871 9.44694 20.9871 9.80986 20.9871 10.2158V10.2889C20.9871 10.6948 20.9871 11.0577 20.9599 11.3581C20.9307 11.6799 20.8647 12.0172 20.6784 12.3399C20.4763 12.69 20.1855 12.9808 19.8353 13.183C19.5126 13.3693 19.1753 13.4353 18.8536 13.4645C18.5532 13.4917 18.1902 13.4917 17.7843 13.4916H17.7112C17.3053 13.4917 16.9424 13.4917 16.6419 13.4645C16.3202 13.4353 15.9829 13.3693 15.6602 13.183C15.3101 12.9808 15.0193 12.69 14.8171 12.3399C14.6308 12.0172 14.5648 11.6799 14.5356 11.3581C14.5084 11.0577 14.5084 10.6948 14.5085 10.2889V10.2158C14.5084 9.80986 14.5084 9.44694 14.5356 9.14654C14.5648 8.82477 14.6308 8.48749 14.8171 8.16483C15.0193 7.81464 15.3101 7.52384 15.6602 7.32166C15.9829 7.13538 16.3202 7.06938 16.6419 7.04022C16.9424 7.01299 17.3053 7.01302 17.7112 7.01304ZM16.5602 8.88051C16.4837 8.92471 16.4201 8.98828 16.3759 9.06483C16.3732 9.06942 16.3458 9.1159 16.3283 9.30901C16.3093 9.51831 16.3085 9.79851 16.3085 10.2523C16.3085 10.7062 16.3093 10.9864 16.3283 11.1957C16.3458 11.3888 16.3731 11.435 16.3758 11.4396C16.42 11.5162 16.4837 11.58 16.5602 11.6242C16.5648 11.6269 16.6113 11.6543 16.8044 11.6718C17.0137 11.6908 17.2939 11.6916 17.7478 11.6916C18.2016 11.6916 18.4818 11.6908 18.6911 11.6718C18.8842 11.6543 18.9305 11.627 18.935 11.6243C19.0116 11.5801 19.0754 11.5164 19.1196 11.4399C19.1223 11.4353 19.1497 11.3888 19.1672 11.1957C19.1862 10.9864 19.1871 10.7062 19.1871 10.2523C19.1871 9.79851 19.1862 9.51831 19.1672 9.30901C19.1497 9.11591 19.1224 9.06965 19.1197 9.06506C19.0755 8.9885 19.0118 8.92471 18.9353 8.88051C18.9307 8.8778 18.8842 8.85037 18.6911 8.83287C18.4818 8.8139 18.2016 8.81304 17.7478 8.81304C17.2939 8.81304 17.0137 8.8139 16.8044 8.83287C16.6113 8.85037 16.5648 8.8778 16.5602 8.88051ZM10.2159 14.5084H10.289C10.6949 14.5083 11.0578 14.5083 11.3582 14.5355C11.68 14.5647 12.0173 14.6307 12.34 14.817C12.6901 15.0192 12.9809 15.31 13.1831 15.6601C13.3694 15.9828 13.4354 16.3201 13.4646 16.6418C13.4918 16.9423 13.4918 17.3052 13.4917 17.7111V17.7842C13.4918 18.1901 13.4918 18.5531 13.4646 18.8535C13.4354 19.1752 13.3694 19.5125 13.1831 19.8352C12.9809 20.1854 12.6901 20.4762 12.34 20.6783C12.0173 20.8646 11.68 20.9306 11.3582 20.9598C11.0578 20.987 10.6949 20.987 10.289 20.987H10.2159C9.80996 20.987 9.44704 20.987 9.14664 20.9598C8.82486 20.9306 8.48759 20.8646 8.16493 20.6783C7.81474 20.4762 7.52394 20.1854 7.32176 19.8352C7.13547 19.5125 7.06948 19.1752 7.04032 18.8535C7.01309 18.5531 7.01312 18.1901 7.01314 17.7842V17.7111C7.01312 17.3052 7.01309 16.9423 7.04032 16.6418C7.06948 16.3201 7.13547 15.9828 7.32176 15.6601C7.52394 15.31 7.81474 15.0192 8.16493 14.817C8.48759 14.6307 8.82487 14.5647 9.14664 14.5355C9.44704 14.5083 9.80996 14.5083 10.2159 14.5084ZM9.06493 16.3758C8.98838 16.42 8.92481 16.4836 8.88061 16.5601C8.8779 16.5647 8.85047 16.6112 8.83297 16.8043C8.814 17.0136 8.81314 17.2938 8.81314 17.7477C8.81314 18.2015 8.814 18.4817 8.83297 18.691C8.85047 18.8841 8.87777 18.9303 8.88048 18.9349C8.92467 19.0115 8.98838 19.0753 9.06493 19.1195C9.06952 19.1222 9.11601 19.1496 9.30911 19.1671C9.51841 19.1861 9.79861 19.187 10.2524 19.187C10.7063 19.187 10.9865 19.1861 11.1958 19.1671C11.3889 19.1496 11.4351 19.1223 11.4397 19.1196C11.5163 19.0754 11.5801 19.0117 11.6243 18.9352C11.627 18.9306 11.6544 18.8841 11.6719 18.691C11.6909 18.4817 11.6917 18.2015 11.6917 17.7477C11.6917 17.2938 11.6909 17.0136 11.6719 16.8043C11.6544 16.6112 11.6271 16.565 11.6244 16.5604C11.5802 16.4838 11.5165 16.42 11.44 16.3758C11.4354 16.3731 11.3889 16.3457 11.1958 16.3282C10.9865 16.3092 10.7063 16.3084 10.2524 16.3084C9.79861 16.3084 9.51841 16.3092 9.30911 16.3282C9.116 16.3457 9.06952 16.3731 9.06493 16.3758ZM17.7112 14.5084H17.7843C18.1902 14.5083 18.5532 14.5083 18.8536 14.5355C19.1753 14.5647 19.5126 14.6307 19.8353 14.817C20.1855 15.0192 20.4763 15.31 20.6784 15.6601C20.8647 15.9828 20.9307 16.3201 20.9599 16.6418C20.9871 16.9423 20.9871 17.3052 20.9871 17.7111V17.7842C20.9871 18.1901 20.9871 18.5531 20.9599 18.8535C20.9307 19.1752 20.8647 19.5125 20.6784 19.8352C20.4762 20.1854 20.1855 20.4762 19.8353 20.6783C19.5126 20.8646 19.1753 20.9306 18.8536 20.9598C18.5532 20.987 18.1902 20.987 17.7843 20.987H17.7112C17.3053 20.987 16.9424 20.987 16.6419 20.9598C16.3202 20.9306 15.9829 20.8646 15.6602 20.6783C15.3101 20.4762 15.0193 20.1854 14.8171 19.8352C14.6308 19.5125 14.5648 19.1752 14.5356 18.8535C14.5084 18.5531 14.5084 18.1901 14.5085 17.7842V17.7111C14.5084 17.3052 14.5084 16.9423 14.5356 16.6418C14.5648 16.3201 14.6308 15.9828 14.8171 15.6601C15.0193 15.31 15.3101 15.0192 15.6602 14.817C15.9829 14.6307 16.3202 14.5647 16.6419 14.5355C16.9424 14.5083 17.3053 14.5083 17.7112 14.5084ZM16.5602 16.3758C16.4837 16.42 16.4201 16.4836 16.3759 16.5601C16.3732 16.5647 16.3458 16.6112 16.3283 16.8043C16.3093 17.0136 16.3085 17.2938 16.3085 17.7477C16.3085 18.2015 16.3093 18.4817 16.3283 18.691C16.3458 18.8841 16.3731 18.9303 16.3758 18.9349C16.42 19.0115 16.4837 19.0753 16.5602 19.1195C16.5648 19.1222 16.6113 19.1496 16.8044 19.1671C17.0137 19.1861 17.2939 19.187 17.7478 19.187C18.2016 19.187 18.4818 19.1861 18.6911 19.1671C18.8842 19.1496 18.9305 19.1223 18.935 19.1196C19.0116 19.0754 19.0754 19.0117 19.1196 18.9352C19.1223 18.9306 19.1497 18.8841 19.1672 18.691C19.1862 18.4817 19.1871 18.2015 19.1871 17.7477C19.1871 17.2938 19.1862 17.0136 19.1672 16.8043C19.1497 16.6112 19.1224 16.565 19.1197 16.5604C19.0755 16.4838 19.0118 16.42 18.9353 16.3758C18.9307 16.3731 18.8842 16.3457 18.6911 16.3282C18.4818 16.3092 18.2016 16.3084 17.7478 16.3084C17.2939 16.3084 17.0137 16.3092 16.8044 16.3282C16.6113 16.3457 16.5648 16.3731 16.5602 16.3758Z" fill="currentColor"/>
</svg>
