<svg width="28" height="28" viewBox="0 0 28 28" fill="none" xmlns="http://www.w3.org/2000/svg">
<path fill-rule="evenodd" clip-rule="evenodd" d="M14.0001 4.89998C8.88277 4.89998 4.9001 8.61332 4.9001 13C4.9001 14.9554 5.67912 16.759 6.99825 18.172C7.3146 18.5109 7.54815 18.994 7.51853 19.5486C7.47288 20.4035 7.29603 21.6931 6.8311 22.8502C8.28747 22.4712 9.66683 21.7385 10.4946 21.1953C10.9364 20.9054 11.4758 20.7988 11.997 20.9031C12.6406 21.0318 13.3109 21.1 14.0001 21.1C19.1174 21.1 23.1001 17.3866 23.1001 13C23.1001 8.61332 19.1174 4.89998 14.0001 4.89998ZM3.1001 13C3.1001 7.44551 8.07173 3.09998 14.0001 3.09998C19.9285 3.09998 24.9001 7.44551 24.9001 13C24.9001 18.5544 19.9285 22.9 14.0001 22.9C13.1921 22.9 12.4036 22.8201 11.6439 22.6681C11.5895 22.6572 11.5312 22.668 11.4822 22.7002C10.412 23.4025 8.47808 24.4236 6.44277 24.7751C5.74352 24.8958 5.2292 24.4752 4.99873 24.0479C4.7766 23.6362 4.72287 23.0794 4.97648 22.5855C5.46517 21.6337 5.673 20.3427 5.7208 19.458C5.72048 19.457 5.71998 19.4557 5.71926 19.4539C5.71506 19.4435 5.70446 19.4239 5.68252 19.4003C4.08052 17.6844 3.1001 15.4512 3.1001 13ZM8.88957 11.4285C8.88957 10.9315 9.29251 10.5285 9.78957 10.5285H18.7369C19.234 10.5285 19.6369 10.9315 19.6369 11.4285C19.6369 11.9256 19.234 12.3285 18.7369 12.3285H9.78957C9.29251 12.3285 8.88957 11.9256 8.88957 11.4285ZM8.88957 15.4285C8.88957 14.9315 9.29251 14.5285 9.78957 14.5285H16.6317C17.1287 14.5285 17.5317 14.9315 17.5317 15.4285C17.5317 15.9256 17.1287 16.3285 16.6317 16.3285H9.78957C9.29251 16.3285 8.88957 15.9256 8.88957 15.4285Z" fill="currentColor"/>
</svg>
