<svg width="28" height="28" viewBox="0 0 28 28" fill="none" xmlns="http://www.w3.org/2000/svg">
<path fill-rule="evenodd" clip-rule="evenodd" d="M14.0008 9.33525C15.2841 9.33525 16.3341 8.28525 16.3341 7.00191C16.3341 5.71858 15.2841 4.66858 14.0008 4.66858C12.7175 4.66858 11.6675 5.71858 11.6675 7.00191C11.6675 8.28525 12.7175 9.33525 14.0008 9.33525ZM14.0008 11.6686C12.7175 11.6686 11.6675 12.7186 11.6675 14.0019C11.6675 15.2852 12.7175 16.3352 14.0008 16.3352C15.2841 16.3352 16.3341 15.2852 16.3341 14.0019C16.3341 12.7186 15.2841 11.6686 14.0008 11.6686ZM11.6675 21.0019C11.6675 19.7186 12.7175 18.6686 14.0008 18.6686C15.2841 18.6686 16.3341 19.7186 16.3341 21.0019C16.3341 22.2852 15.2841 23.3352 14.0008 23.3352C12.7175 23.3352 11.6675 22.2852 11.6675 21.0019Z" fill="currentColor"/>
</svg>
