<svg width="28" height="28" viewBox="0 0 28 28" fill="none" xmlns="http://www.w3.org/2000/svg">
<path fill-rule="evenodd" clip-rule="evenodd" d="M12.3612 2.60001L14.2259 2.60001C15.1963 2.60001 16.13 2.97074 16.8361 3.63639L22.3734 8.85662C23.3439 9.7778 23.8955 11.0558 23.9001 12.3939L23.9001 18.139C23.9001 19.2261 23.9001 20.0967 23.8426 20.8005C23.7836 21.5232 23.6594 22.1487 23.366 22.7246C22.8962 23.6466 22.1466 24.3962 21.2247 24.8659C20.6488 25.1593 20.0232 25.2835 19.3006 25.3425C18.5968 25.4 17.7261 25.4 16.6391 25.4H12.3611C11.2741 25.4 10.4034 25.4 9.69962 25.3425C8.97695 25.2835 8.35139 25.1593 7.77554 24.8659C6.85355 24.3962 6.10395 23.6466 5.63417 22.7246C5.34076 22.1487 5.21663 21.5232 5.15758 20.8005C5.10008 20.0967 5.10009 19.226 5.1001 18.139V9.86106C5.10009 8.77398 5.10008 7.9033 5.15758 7.19953C5.21663 6.47686 5.34076 5.8513 5.63417 5.27545C6.10395 4.35346 6.85355 3.60385 7.77554 3.13407C8.35139 2.84067 8.97695 2.71654 9.69962 2.65749C10.4034 2.59999 11.2741 2.6 12.3612 2.60001ZM9.8462 4.45151C9.23484 4.50146 8.87253 4.59532 8.59273 4.73789C8.00942 5.03509 7.53519 5.50933 7.23798 6.09264C7.09541 6.37244 7.00156 6.73475 6.95161 7.3461C6.9008 7.96796 6.9001 8.76505 6.9001 9.90001V18.1C6.9001 19.235 6.9008 20.0321 6.95161 20.6539C7.00156 21.2653 7.09541 21.6276 7.23798 21.9074C7.53519 22.4907 8.00942 22.9649 8.59273 23.2621C8.87253 23.4047 9.23484 23.4986 9.84619 23.5485C10.4681 23.5993 11.2651 23.6 12.4001 23.6H16.6001C17.7351 23.6 18.5321 23.5993 19.154 23.5485C19.7654 23.4986 20.1277 23.4047 20.4075 23.2621C20.9908 22.9649 21.465 22.4907 21.7622 21.9074C21.9048 21.6276 21.9986 21.2653 22.0486 20.6539C22.0994 20.0321 22.1001 19.235 22.1001 18.1L22.1001 13.325H17.3905C16.8606 13.325 16.4095 13.325 16.039 13.2948C15.6499 13.263 15.2713 13.1933 14.9093 13.0089C14.3637 12.7309 13.92 12.2872 13.642 11.7416C13.4576 11.3796 13.3879 11.0011 13.3561 10.6119C13.3259 10.2415 13.3259 9.79028 13.3259 9.26041V4.40001H12.4001C11.2651 4.40001 10.4681 4.40071 9.8462 4.45151ZM15.1259 4.61333L15.1259 9.22501C15.1259 9.79991 15.1266 10.177 15.1502 10.4653C15.1729 10.7432 15.2122 10.8585 15.2458 10.9244C15.3513 11.1314 15.5195 11.2997 15.7265 11.4051C15.7924 11.4387 15.9078 11.478 16.1856 11.5007C16.474 11.5243 16.851 11.525 17.4259 11.525H21.9709C21.8174 11.0102 21.5313 10.539 21.1343 10.1622L15.6014 4.94614C15.4586 4.81158 15.2983 4.69989 15.1259 4.61333Z" fill="currentColor"/>
</svg>
