<svg width="28" height="28" viewBox="0 0 28 28" fill="none" xmlns="http://www.w3.org/2000/svg">
<path fill-rule="evenodd" clip-rule="evenodd" d="M4.39147 10.9803C4.12419 11.8686 3.98077 12.8088 3.98077 13.7814C3.98077 14.754 4.12419 15.6943 4.39147 16.5825H8.75315C8.64599 15.7171 8.58672 14.7842 8.58672 13.7814C8.58672 12.7786 8.64599 11.8458 8.75315 10.9803H4.39147ZM5.23616 9.00174H9.10333C9.56701 7.02276 10.2943 5.4896 11.0824 4.35716C8.57416 5.10114 6.48512 6.79065 5.23616 9.00174ZM13.9657 4.12056C13.1377 4.75843 11.8713 6.26757 11.1403 9.00174H16.7911C16.06 6.26757 14.7937 4.75843 13.9657 4.12056ZM17.1844 10.9803H10.747C10.6314 11.8259 10.5653 12.7576 10.5653 13.7814C10.5653 14.8053 10.6314 15.737 10.747 16.5825H17.1844C17.3 15.737 17.3661 14.8053 17.3661 13.7814C17.3661 12.7576 17.3 11.8259 17.1844 10.9803ZM19.1782 16.5825C19.2854 15.7171 19.3447 14.7842 19.3447 13.7814C19.3447 12.7786 19.2854 11.8458 19.1782 10.9803H23.5405C23.8072 11.8672 23.9506 12.8071 23.9506 13.7814C23.9506 14.7557 23.8072 15.6956 23.5405 16.5825H19.1782ZM16.7911 18.5611H11.1403C11.8713 21.2953 13.1377 22.8044 13.9657 23.4423C14.7937 22.8044 16.06 21.2953 16.7911 18.5611ZM11.0824 23.2057C10.2943 22.0732 9.56701 20.5401 9.10333 18.5611L5.23616 18.5611C6.48512 20.7722 8.57416 22.4617 11.0824 23.2057ZM16.8492 23.2054C17.6372 22.0729 18.3644 20.5399 18.828 18.5611H22.6959C21.4468 20.772 19.3567 22.4613 16.8492 23.2054ZM22.6959 9.00174H18.828C18.3644 7.02294 17.6372 5.48988 16.8492 4.35748C19.3567 5.10158 21.4468 6.79081 22.6959 9.00174ZM2.0022 13.7814C2.0022 7.24165 7.37084 1.96243 13.9657 1.96243C19.0934 1.96243 23.474 5.1509 25.1741 9.64069C25.6625 10.9305 25.9292 12.3262 25.9292 13.7814C25.9292 15.2366 25.6625 16.6324 25.1741 17.9221C23.474 22.4119 19.0934 25.6004 13.9657 25.6004C7.37084 25.6004 2.0022 20.3212 2.0022 13.7814Z" fill="currentColor"/>
</svg>
