<svg width="28" height="28" viewBox="0 0 28 28" fill="none" xmlns="http://www.w3.org/2000/svg">
<path fill-rule="evenodd" clip-rule="evenodd" d="M8.67806 3.96567H11.7649C12.4658 3.96566 13.0442 3.96565 13.517 3.99969C14.0075 4.03499 14.4604 4.11061 14.8935 4.30118C15.8006 4.7003 16.5252 5.42488 16.9243 6.33198C17.1149 6.7651 17.1905 7.21796 17.2258 7.70847C17.2599 8.18136 17.2598 8.75977 17.2598 9.46064V9.49644C17.2598 10.0428 16.8169 10.4857 16.2706 10.4857C15.7242 10.4857 15.2813 10.0428 15.2813 9.49644C15.2813 8.75083 15.2807 8.24393 15.2524 7.85051C15.2247 7.46668 15.1745 7.26783 15.1133 7.12882C14.9135 6.67473 14.5508 6.312 14.0967 6.1122C13.9577 6.05104 13.7588 6.00078 13.375 5.97316C12.9816 5.94484 12.4747 5.94424 11.7291 5.94424H8.71822C7.88378 5.94424 7.31645 5.94499 6.87765 5.98025C6.45011 6.01461 6.2309 6.07692 6.07785 6.1534C5.69365 6.34537 5.38215 6.65687 5.19017 7.04108C5.1137 7.19413 5.05138 7.41334 5.01702 7.84088C4.98176 8.27968 4.98102 8.847 4.98102 9.68144V17.9498C4.98102 18.7842 4.98176 19.3516 5.01702 19.7904C5.05138 20.2179 5.1137 20.4371 5.19017 20.5902C5.38215 20.9744 5.69365 21.2859 6.07785 21.4778C6.2309 21.5543 6.45011 21.6166 6.87765 21.651C7.31645 21.6862 7.88378 21.687 8.71822 21.687H11.5441C12.3785 21.687 12.9458 21.6862 13.3846 21.651C13.8122 21.6166 14.0314 21.5543 14.1844 21.4778C14.5686 21.2859 14.8801 20.9744 15.0721 20.5902C15.1486 20.4371 15.2109 20.2179 15.2453 19.7904C15.2805 19.3516 15.2813 18.7842 15.2813 17.9498V17.6266C15.2813 17.0803 15.7242 16.6374 16.2706 16.6374C16.8169 16.6374 17.2598 17.0803 17.2598 17.6266V17.9899C17.2599 18.7742 17.2599 19.4214 17.2175 19.9488C17.1735 20.4965 17.079 21.0002 16.842 21.4745C16.4585 22.242 15.8363 22.8643 15.0688 23.2478C14.5945 23.4848 14.0908 23.5792 13.5431 23.6232C13.0157 23.6656 12.3685 23.6656 11.5843 23.6656H8.67797C7.89375 23.6656 7.2466 23.6656 6.71916 23.6232C6.17146 23.5792 5.66779 23.4848 5.19347 23.2478C4.42599 22.8643 3.80373 22.242 3.42025 21.4745C3.18324 21.0002 3.08882 20.4965 3.04481 19.9488C3.00242 19.4214 3.00243 18.7742 3.00244 17.99V9.64128C3.00243 8.85702 3.00242 8.20985 3.04481 7.68239C3.08882 7.13469 3.18324 6.63102 3.42025 6.15669C3.80373 5.38922 4.42599 4.76696 5.19347 4.38347C5.66779 4.14647 6.17146 4.05205 6.71916 4.00803C7.24662 3.96565 7.8938 3.96566 8.67806 3.96567ZM19.6616 9.30744C20.0466 8.91978 20.673 8.91764 21.0606 9.30266L24.642 12.8596C24.8289 13.0453 24.9341 13.298 24.9341 13.5615C24.9341 13.8251 24.8289 14.0777 24.642 14.2635L21.0606 17.8204C20.673 18.2054 20.0466 18.2033 19.6616 17.8157C19.2766 17.428 19.2787 16.8016 19.6664 16.4166L21.5449 14.5508H10.1311C9.58477 14.5508 9.14185 14.1079 9.14185 13.5615C9.14185 13.0152 9.58477 12.5723 10.1311 12.5723H21.5449L19.6664 10.7065C19.2787 10.3215 19.2766 9.69509 19.6616 9.30744Z" fill="currentColor"/>
</svg>
