<svg width="28" height="28" viewBox="0 0 28 28" fill="none" xmlns="http://www.w3.org/2000/svg">
<path fill-rule="evenodd" clip-rule="evenodd" d="M20.8736 6.93957C18.7986 4.8919 15.4633 4.8919 13.3883 6.93957L11.5039 8.79912C11.1501 9.14825 10.5803 9.14447 10.2312 8.79068C9.88202 8.43689 9.8858 7.86705 10.2396 7.51792L12.1239 5.65837C14.8999 2.91897 19.362 2.91897 22.1379 5.65837C24.9664 8.44961 24.9664 13.0147 22.1379 15.806L20.3711 17.5495C20.0173 17.8987 19.4475 17.8949 19.0983 17.5411C18.7492 17.1873 18.753 16.6175 19.1068 16.2683L20.8736 14.5248C22.9878 12.4384 22.9878 9.02598 20.8736 6.93957ZM8.90436 10.1C9.2535 10.4538 9.24972 11.0236 8.89593 11.3728L7.1291 13.1163C5.01485 15.2027 5.01484 18.6151 7.1291 20.7015C9.20409 22.7492 12.5394 22.7492 14.6144 20.7015L16.4988 18.842C16.8526 18.4929 17.4224 18.4966 17.7715 18.8504C18.1207 19.2042 18.1169 19.774 17.7631 20.1232L15.8787 21.9827C13.1028 24.7221 8.64072 24.7221 5.86477 21.9827C3.03629 19.1915 3.03629 14.6264 5.86477 11.8351L7.6316 10.0916C7.98539 9.74243 8.55523 9.74621 8.90436 10.1ZM17.2499 10.6147C17.5991 10.9685 17.5953 11.5384 17.2415 11.8875L12.0255 17.0348C11.6717 17.3839 11.1019 17.3802 10.7528 17.0264C10.4036 16.6726 10.4074 16.1027 10.7612 15.7536L15.9772 10.6063C16.331 10.2572 16.9008 10.2609 17.2499 10.6147Z" fill="currentColor"/>
</svg>
