<svg width="28" height="28" viewBox="0 0 28 28" fill="none" xmlns="http://www.w3.org/2000/svg">
<path fill-rule="evenodd" clip-rule="evenodd" d="M9.10013 7.31293C9.10013 4.65618 11.3249 2.55843 13.9991 2.55843C16.6732 2.55843 18.898 4.65618 18.898 7.31293V13.0947C18.898 15.7514 16.6732 17.8492 13.9991 17.8492C11.3249 17.8492 9.10013 15.7514 9.10013 13.0947V7.31293ZM13.9991 4.35843C12.2561 4.35843 10.9001 5.71213 10.9001 7.31293V13.0947C10.9001 14.6955 12.2561 16.0492 13.9991 16.0492C15.742 16.0492 17.098 14.6955 17.098 13.0947V7.31293C17.098 5.71212 15.742 4.35843 13.9991 4.35843ZM6.50107 13.1583C6.99813 13.1583 7.40107 13.5612 7.40107 14.0583C7.40107 14.844 7.72222 16.3303 8.71098 17.601C9.66558 18.8278 11.2782 19.9036 13.9991 19.9036C16.7199 19.9036 18.3325 18.8278 19.2871 17.601C20.2759 16.3303 20.597 14.844 20.597 14.0583C20.597 13.5612 21 13.1583 21.497 13.1583C21.9941 13.1583 22.397 13.5612 22.397 14.0583C22.397 15.1999 21.9684 17.0862 20.7077 18.7064C19.5355 20.213 17.6734 21.4484 14.8991 21.6687V24.1763C14.8991 24.6734 14.4961 25.0763 13.9991 25.0763C13.502 25.0763 13.0991 24.6734 13.0991 24.1763V21.6687C10.3247 21.4484 8.46264 20.213 7.29036 18.7064C6.02973 17.0862 5.60107 15.1999 5.60107 14.0583C5.60107 13.5612 6.00402 13.1583 6.50107 13.1583Z" fill="currentColor"/>
</svg>
