<svg width="28" height="28" viewBox="0 0 28 28" fill="none" xmlns="http://www.w3.org/2000/svg">
<path fill-rule="evenodd" clip-rule="evenodd" d="M17.6189 5.94652C15.6709 5.94652 14.1535 7.46051 14.1535 9.2533C14.1535 11.0461 15.6709 12.5601 17.6189 12.5601C19.5668 12.5601 21.0842 11.0461 21.0842 9.2533C21.0842 7.46051 19.5668 5.94652 17.6189 5.94652ZM12.1749 9.2533C12.1749 6.30079 14.6464 3.96794 17.6189 3.96794C20.5914 3.96794 23.0628 6.30079 23.0628 9.2533C23.0628 12.2058 20.5914 14.5387 17.6189 14.5387C14.6464 14.5387 12.1749 12.2058 12.1749 9.2533ZM5.3686 8.26402C5.91497 8.26402 6.35789 8.70694 6.35789 9.2533V11.4861H8.70958C9.25595 11.4861 9.69887 11.929 9.69887 12.4754C9.69887 13.0217 9.25595 13.4647 8.70958 13.4647H6.35789V15.6974C6.35789 16.2438 5.91497 16.6867 5.3686 16.6867C4.82223 16.6867 4.37931 16.2438 4.37931 15.6974V13.4647H2.02762C1.48125 13.4647 1.03833 13.0217 1.03833 12.4754C1.03833 11.929 1.48125 11.4861 2.02762 11.4861H4.37931V9.2533C4.37931 8.70694 4.82223 8.26402 5.3686 8.26402ZM17.6189 18.2977C11.8578 18.2977 10.3806 21.5254 10.2504 22.7806C10.1941 23.324 9.70783 23.7189 9.16438 23.6626C8.62092 23.6062 8.22605 23.12 8.2824 22.5765C8.52346 20.2517 10.9069 16.3192 17.6189 16.3192C24.3308 16.3192 26.7143 20.2517 26.9553 22.5765C27.0117 23.12 26.6168 23.6062 26.0733 23.6626C25.5299 23.7189 25.0437 23.324 24.9873 22.7806C24.8571 21.5254 23.3799 18.2977 17.6189 18.2977Z" fill="currentColor"/>
</svg>
