<svg width="28" height="28" viewBox="0 0 28 28" fill="none" xmlns="http://www.w3.org/2000/svg">
<path fill-rule="evenodd" clip-rule="evenodd" d="M17.4595 3.3238C18.1338 3.1264 18.8506 3.1264 19.5249 3.3238C20.0275 3.47093 20.4499 3.74756 20.8685 4.09527C21.2714 4.42997 21.7282 4.88073 22.2827 5.42797L22.339 5.48347C22.9072 6.04417 23.3747 6.50551 23.7217 6.91295C24.0818 7.3358 24.3688 7.76372 24.5212 8.27509C24.7254 8.96006 24.7254 9.68968 24.5212 10.3746C24.3688 10.886 24.0818 11.3139 23.7217 11.7368C23.3747 12.1442 22.9072 12.6056 22.339 13.1663L21.0821 14.4066C20.7511 14.7332 20.6544 14.8321 20.5781 14.9348C20.4315 15.1322 20.3251 15.3565 20.2651 15.5949C20.2338 15.7191 20.2184 15.8566 20.175 16.3195L20.1718 16.3541C20.0727 17.4099 19.994 18.2482 19.8897 18.8935C19.7864 19.5315 19.6408 20.1121 19.3328 20.5735C18.4418 21.9087 16.7873 22.5112 15.2462 22.0617C14.7137 21.9064 14.2288 21.5554 13.7395 21.1332C13.2446 20.7061 12.6453 20.1147 11.8905 19.3698L10.7425 18.237L6.20819 22.7116C5.8544 23.0607 5.28456 23.0569 4.93543 22.7031C4.58629 22.3494 4.59007 21.7795 4.94386 21.4304L9.46119 16.9725L8.44194 15.9667C7.67835 15.2132 7.07268 14.6155 6.63495 14.1222C6.20284 13.6352 5.84228 13.1522 5.67963 12.6205C5.20408 11.0657 5.80648 9.38322 7.16081 8.48364C7.62402 8.17596 8.20921 8.03159 8.8522 7.92956C9.50357 7.8262 10.351 7.74877 11.4193 7.65116L11.4537 7.64802C11.9062 7.60667 12.0406 7.59205 12.1622 7.56216C12.3984 7.5041 12.621 7.40064 12.8178 7.25755C12.919 7.1839 13.0169 7.09062 13.3403 6.77146L14.7017 5.42795C15.2562 4.88072 15.713 4.42997 16.1159 4.09527C16.5345 3.74756 16.9569 3.47093 17.4595 3.3238ZM19.0192 5.0513C18.6751 4.95057 18.3093 4.95057 17.9652 5.0513C17.7962 5.1008 17.5936 5.20781 17.2661 5.4799C16.9296 5.75939 16.5275 6.15509 15.9381 6.73671L14.6046 8.05266C14.5906 8.06647 14.5768 8.0801 14.5632 8.09356C14.2987 8.35468 14.1009 8.55006 13.8766 8.7132C13.4911 8.99361 13.0547 9.19635 12.5918 9.31014C12.3225 9.37633 12.0455 9.40156 11.6754 9.43527C11.6564 9.437 11.637 9.43876 11.6175 9.44055C10.5071 9.54201 9.71952 9.61445 9.1343 9.70732C8.53374 9.80261 8.27798 9.90248 8.15674 9.98301C7.46565 10.4421 7.15825 11.3006 7.40092 12.094C7.44349 12.2332 7.57773 12.4727 7.98132 12.9275C8.37461 13.3707 8.93723 13.9266 9.73084 14.7098L13.1301 18.0642C13.9151 18.8389 14.4717 19.3875 14.9154 19.7704C15.3701 20.1627 15.6097 20.2927 15.7503 20.3337C16.5367 20.5631 17.3809 20.2557 17.8356 19.5743C17.917 19.4525 18.0169 19.1989 18.1128 18.606C18.2064 18.0274 18.2799 17.2494 18.3829 16.1513C18.3848 16.1313 18.3866 16.1115 18.3884 16.092C18.4238 15.7134 18.4503 15.4302 18.5196 15.1552C18.6373 14.688 18.8457 14.2485 19.133 13.8616C19.302 13.634 19.5046 13.4343 19.7753 13.1673C19.7893 13.1535 19.8034 13.1395 19.8178 13.1254L21.0463 11.913C21.6498 11.3174 22.061 10.9106 22.3513 10.5697C22.6343 10.2374 22.7452 10.0318 22.7962 9.86056C22.9004 9.51103 22.9004 9.13871 22.7962 8.78918C22.7452 8.61796 22.6343 8.41234 22.3513 8.08006C22.061 7.73913 21.6498 7.33231 21.0463 6.73671C20.4569 6.15509 20.0548 5.75939 19.7184 5.4799C19.3908 5.20781 19.1883 5.1008 19.0192 5.0513Z" fill="currentColor"/>
</svg>
