<svg width="28" height="28" viewBox="0 0 28 28" fill="none" xmlns="http://www.w3.org/2000/svg">
<path fill-rule="evenodd" clip-rule="evenodd" d="M3.1001 5.91688C3.1001 5.41982 3.50304 5.01688 4.0001 5.01688H22.995C23.492 5.01688 23.895 5.41982 23.895 5.91688C23.895 6.41393 23.492 6.81688 22.995 6.81688H4.0001C3.50304 6.81688 3.1001 6.41393 3.1001 5.91688ZM3.1001 11.343C3.1001 10.8459 3.50304 10.443 4.0001 10.443H18.5256C19.0226 10.443 19.4256 10.8459 19.4256 11.343C19.4256 11.84 19.0226 12.243 18.5256 12.243H4.0001C3.50304 12.243 3.1001 11.84 3.1001 11.343ZM3.1001 16.7691C3.1001 16.2721 3.50304 15.8691 4.0001 15.8691H14.4973C14.9943 15.8691 15.3973 16.2721 15.3973 16.7691C15.3973 17.2662 14.9943 17.6691 14.4973 17.6691H4.0001C3.50304 17.6691 3.1001 17.2662 3.1001 16.7691Z" fill="currentColor"/>
<path fill-rule="evenodd" clip-rule="evenodd" d="M20.4448 14.9399C20.8484 14.0294 22.1406 14.0294 22.5442 14.9399L25.8163 22.3206C26.0178 22.775 25.8127 23.3066 25.3583 23.5081C24.9039 23.7095 24.3722 23.5045 24.1708 23.0501L23.4083 21.3303H19.5807L18.8182 23.0501C18.6168 23.5045 18.0851 23.7095 17.6307 23.5081C17.1763 23.3066 16.9712 22.775 17.1727 22.3206L20.4448 14.9399ZM20.3787 19.5303H22.6103L21.4945 17.0134L20.3787 19.5303Z" fill="currentColor"/>
</svg>
