<svg width="28" height="28" viewBox="0 0 28 28" fill="none" xmlns="http://www.w3.org/2000/svg">
<path fill-rule="evenodd" clip-rule="evenodd" d="M13.1007 4.39656C8.2132 4.84405 4.40352 8.8996 4.40352 13.8145C4.40352 19.0273 8.68903 23.2735 14.0007 23.2735C19.0031 23.2735 23.0954 19.5074 23.5549 14.7145L16.2644 14.7145C15.7642 14.7146 15.3026 14.7146 14.9265 14.6641C14.5113 14.6083 14.0683 14.4764 13.7036 14.1116C13.3388 13.7469 13.207 13.304 13.1511 12.8887C13.1006 12.5126 13.1006 12.051 13.1007 11.5508C13.1007 11.5332 13.1007 11.5154 13.1007 11.4977V4.39656ZM14.9007 4.39656V11.4977C14.9007 12.0692 14.9026 12.4073 14.9351 12.6488C14.9503 12.7621 14.9679 12.8158 14.9776 12.8376C14.9994 12.8473 15.0531 12.8649 15.1664 12.8801C15.4079 12.9126 15.746 12.9145 16.3175 12.9145H23.5549C23.1233 8.41251 19.4864 4.81642 14.9007 4.39656ZM14.965 12.8304C14.9654 12.8303 14.9684 12.8317 14.9725 12.8352C14.9667 12.8324 14.9646 12.8306 14.965 12.8304ZM14.98 12.8427C14.9835 12.8468 14.9849 12.8497 14.9848 12.8502C14.9846 12.8506 14.9829 12.8485 14.98 12.8427ZM2.60352 13.8145C2.60352 7.58517 7.71749 2.55557 14.0007 2.55557C20.2839 2.55557 25.3979 7.58517 25.3979 13.8145C25.3979 20.0439 20.2839 25.0735 14.0007 25.0735C7.71749 25.0735 2.60352 20.0439 2.60352 13.8145Z" fill="currentColor"/>
</svg>
