<svg width="28" height="28" viewBox="0 0 28 28" fill="none" xmlns="http://www.w3.org/2000/svg">
<path fill-rule="evenodd" clip-rule="evenodd" d="M14.0001 3.90001C8.42202 3.90001 3.9001 8.42193 3.9001 14C3.9001 19.5781 8.42202 24.1 14.0001 24.1C19.5782 24.1 24.1001 19.5781 24.1001 14C24.1001 8.42193 19.5782 3.90001 14.0001 3.90001ZM2.1001 14C2.1001 7.42782 7.42791 2.10001 14.0001 2.10001C20.5723 2.10001 25.9001 7.42782 25.9001 14C25.9001 20.5722 20.5723 25.9 14.0001 25.9C7.42791 25.9 2.1001 20.5722 2.1001 14ZM14.0001 8.60001C14.4972 8.60001 14.9001 9.00295 14.9001 9.50001V13.1H18.5001C18.9972 13.1 19.4001 13.5029 19.4001 14C19.4001 14.4971 18.9972 14.9 18.5001 14.9H14.9001V18.5C14.9001 18.9971 14.4972 19.4 14.0001 19.4C13.503 19.4 13.1001 18.9971 13.1001 18.5V14.9H9.5001C9.00304 14.9 8.6001 14.4971 8.6001 14C8.6001 13.5029 9.00304 13.1 9.5001 13.1H13.1001V9.50001C13.1001 9.00295 13.503 8.60001 14.0001 8.60001Z" fill="currentColor"/>
</svg>
