<svg width="28" height="28" viewBox="0 0 28 28" fill="none" xmlns="http://www.w3.org/2000/svg">
<path fill-rule="evenodd" clip-rule="evenodd" d="M9.71778 4.85046C9.13507 4.85046 8.57911 5.09503 8.18537 5.52457L7.28807 6.50344H20.7002L19.8029 5.52457C19.4091 5.09503 18.8532 4.85046 18.2705 4.85046H9.71778ZM22.2929 8.30177C22.2746 8.30288 22.2561 8.30344 22.2376 8.30344H5.69437C5.50093 8.62488 5.39668 8.99509 5.39668 9.3754V19.71C5.39668 21.4065 6.77195 22.7818 8.46844 22.7818H19.5198C21.2163 22.7818 22.5916 21.4065 22.5916 19.71V9.3754C22.5916 8.99443 22.4869 8.6236 22.2929 8.30177ZM4.5444 6.83494C3.93395 7.53923 3.59668 8.44098 3.59668 9.3754V19.71C3.59668 22.4006 5.77784 24.5818 8.46844 24.5818H19.5198C22.2104 24.5818 24.3916 22.4006 24.3916 19.71V9.3754C24.3916 8.40496 24.0278 7.46976 23.372 6.75439L21.1297 4.30827C20.3951 3.50679 19.3577 3.05046 18.2705 3.05046H9.71778C8.63052 3.05046 7.59317 3.50679 6.85849 4.30827L4.61621 6.75439C4.60778 6.76359 4.5994 6.77282 4.59107 6.78208C4.57484 6.79908 4.55927 6.81672 4.5444 6.83494ZM13.9941 11.0496C14.4912 11.0496 14.8941 11.4526 14.8941 11.9496V17.3123L16.7247 15.5649C17.0843 15.2217 17.654 15.2349 17.9972 15.5944C18.3404 15.954 18.3271 16.5237 17.9676 16.8669L14.6155 20.0666C14.2678 20.3985 13.7205 20.3985 13.3727 20.0666L10.0207 16.8669C9.6611 16.5237 9.64785 15.954 9.99106 15.5944C10.3343 15.2349 10.904 15.2217 11.2635 15.5649L13.0941 17.3123V11.9496C13.0941 11.4526 13.4971 11.0496 13.9941 11.0496Z" fill="currentColor"/>
</svg>
