<svg width="28" height="28" viewBox="0 0 28 28" fill="none" xmlns="http://www.w3.org/2000/svg">
<path fill-rule="evenodd" clip-rule="evenodd" d="M4.03053 7.90389C4.03053 6.31006 5.32259 5.01801 6.91641 5.01801H23.6572C24.1542 5.01801 24.5572 5.42095 24.5572 5.91801C24.5572 6.41506 24.1542 6.81801 23.6572 6.81801H6.91641C6.3167 6.81801 5.83053 7.30417 5.83053 7.90389V20.8031H15.4643C15.9613 20.8031 16.3643 21.206 16.3643 21.7031C16.3643 22.2001 15.9613 22.6031 15.4643 22.6031H2.00449C1.50744 22.6031 1.10449 22.2001 1.10449 21.7031C1.10449 21.206 1.50744 20.8031 2.00449 20.8031H4.03053V7.90389ZM20.9614 11.6749C20.3617 11.6749 19.8755 12.1611 19.8755 12.7608V19.7172C19.8755 20.3169 20.3617 20.8031 20.9614 20.8031H24.0121C24.6118 20.8031 25.098 20.3169 25.098 19.7172V12.7608C25.098 12.1611 24.6119 11.6749 24.0121 11.6749H20.9614ZM18.0755 12.7608C18.0755 11.167 19.3676 9.87495 20.9614 9.87495H24.0121C25.606 9.87495 26.898 11.167 26.898 12.7608V19.7172C26.898 21.311 25.606 22.6031 24.0121 22.6031H20.9614C19.3676 22.6031 18.0755 21.311 18.0755 19.7172V12.7608Z" fill="currentColor"/>
</svg>
