<svg width="28" height="28" viewBox="0 0 28 28" fill="none" xmlns="http://www.w3.org/2000/svg">
<path fill-rule="evenodd" clip-rule="evenodd" d="M21.7923 9.77847C21.7923 11.8874 20.9161 13.7911 19.5187 15.1634C19.4143 15.2659 19.3518 15.3573 19.3195 15.4221C19.2983 15.4648 19.2938 15.4879 19.293 15.4939C19.2923 17.5899 17.5584 19.2019 15.5284 19.2019H12.4595C10.4295 19.2019 8.69558 17.5899 8.69488 15.4939C8.69487 15.4938 8.69489 15.4939 8.69488 15.4939C8.6941 15.4878 8.68962 15.4648 8.66833 15.4221C8.63605 15.3573 8.57357 15.2659 8.46913 15.1634C7.07178 13.7911 6.19556 11.8874 6.19556 9.77847C6.19556 5.51664 9.73575 2.14876 13.9939 2.14876C18.2521 2.14876 21.7923 5.51664 21.7923 9.77847ZM8.69502 15.4955C8.695 15.4955 8.69492 15.4948 8.69488 15.4939L8.69502 15.4955ZM19.2929 15.4955C19.2928 15.4955 19.2929 15.4948 19.293 15.4939L19.2929 15.4955ZM12.6058 23.5742C12.3933 23.4899 12.2055 23.3589 12.056 23.1943C11.8263 22.9413 11.6869 22.609 11.6869 22.2451C11.6869 22.0469 11.8521 21.8863 12.056 21.8863H15.9319C16.1357 21.8863 16.301 22.0469 16.301 22.2451C16.301 22.609 16.1616 22.9413 15.9319 23.1943C15.7824 23.3589 15.5946 23.4899 15.382 23.5742C15.21 23.6425 15.0218 23.6801 14.8245 23.6801H13.1634C12.9661 23.6801 12.7779 23.6425 12.6058 23.5742ZM12.056 20.0863H15.9319C17.0811 20.0863 18.101 21.0048 18.101 22.2451C18.101 24.0798 16.5853 25.4801 14.8245 25.4801H13.1634C11.4026 25.4801 9.88687 24.0798 9.88687 22.2451C9.88687 21.0048 10.9068 20.0863 12.056 20.0863ZM18.2575 13.8791C17.8129 14.3158 17.493 14.8783 17.493 15.4926C17.493 16.5471 16.6134 17.4019 15.5284 17.4019H12.4595C11.3745 17.4019 10.4949 16.5471 10.4949 15.4926C10.4949 14.8783 10.175 14.3158 9.73033 13.8791C8.65784 12.8259 7.99556 11.3773 7.99556 9.77847C7.99556 6.55881 10.6811 3.94876 13.9939 3.94876C17.3068 3.94876 19.9923 6.55881 19.9923 9.77847C19.9923 11.3773 19.33 12.8259 18.2575 13.8791Z" fill="currentColor"/>
</svg>
