<svg width="28" height="28" viewBox="0 0 28 28" fill="none" xmlns="http://www.w3.org/2000/svg">
<path fill-rule="evenodd" clip-rule="evenodd" d="M10.804 4.52515C8.92769 4.52515 7.38128 6.07319 7.38128 8.01435C7.38128 9.95551 8.92769 11.5035 10.804 11.5035C12.6803 11.5035 14.2267 9.95551 14.2267 8.01435C14.2267 6.07319 12.6803 4.52515 10.804 4.52515ZM5.38128 8.01435C5.38128 4.99687 7.79508 2.52515 10.804 2.52515C13.8129 2.52515 16.2267 4.99687 16.2267 8.01435C16.2267 11.0318 13.8129 13.5036 10.804 13.5036C7.79508 13.5036 5.38128 11.0318 5.38128 8.01435ZM16.7581 17.4781C16.4206 18.0666 16.2267 18.7522 16.2267 19.4868C16.2267 21.7034 17.9931 23.4748 20.1408 23.4748C20.8642 23.4748 21.5421 23.2753 22.1247 22.9254L16.7581 17.4781ZM15.9543 15.2572C14.8854 16.3426 14.2267 17.8399 14.2267 19.4868C14.2267 22.7797 16.8605 25.4748 20.1408 25.4748C21.7786 25.4748 23.26 24.7996 24.3279 23.7156C25.3956 22.6319 26.0549 21.1352 26.0549 19.4868C26.0549 16.1938 23.4211 13.4988 20.1408 13.4988C18.501 13.4988 17.0228 14.1722 15.9543 15.2572ZM18.1573 16.0486L23.5232 21.4952C23.8611 20.9061 24.0549 20.2204 24.0549 19.4868C24.0549 17.2701 22.2885 15.4988 20.1408 15.4988C19.419 15.4988 18.7404 15.6988 18.1573 16.0486ZM3.67048 15.7642C4.68865 14.8102 5.93289 14.4964 6.87269 14.4964H12.2508C12.8031 14.4964 13.2508 14.9441 13.2508 15.4964C13.2508 16.0486 12.8031 16.4964 12.2508 16.4964H6.87269C6.33826 16.4964 5.61685 16.6813 5.03794 17.2237C4.48132 17.7452 3.94141 18.7054 3.94141 20.4844C3.94141 21.0366 3.49369 21.4844 2.94141 21.4844C2.38912 21.4844 1.94141 21.0366 1.94141 20.4844C1.94141 18.2729 2.63001 16.7391 3.67048 15.7642Z" fill="currentColor"/>
</svg>
